G04 #@! TF.GenerationSoftware,KiCad,Pcbnew,(5.1.10-1-10_14)*
G04 #@! TF.CreationDate,2021-12-01T22:20:01+01:00*
G04 #@! TF.ProjectId,DCEXT,44434558-542e-46b6-9963-61645f706362,rev?*
G04 #@! TF.SameCoordinates,Original*
G04 #@! TF.FileFunction,Copper,L1,Top*
G04 #@! TF.FilePolarity,Positive*
%FSLAX46Y46*%
G04 Gerber Fmt 4.6, Leading zero omitted, Abs format (unit mm)*
G04 Created by KiCad (PCBNEW (5.1.10-1-10_14)) date 2021-12-01 22:20:01*
%MOMM*%
%LPD*%
G01*
G04 APERTURE LIST*
G04 #@! TA.AperFunction,ComponentPad*
%ADD10O,1.200000X2.600000*%
G04 #@! TD*
G04 #@! TA.AperFunction,ComponentPad*
%ADD11C,1.524000*%
G04 #@! TD*
G04 #@! TA.AperFunction,SMDPad,CuDef*
%ADD12R,4.500000X2.000000*%
G04 #@! TD*
G04 #@! TA.AperFunction,SMDPad,CuDef*
%ADD13R,1.200000X0.400000*%
G04 #@! TD*
G04 #@! TA.AperFunction,ComponentPad*
%ADD14O,1.200000X1.750000*%
G04 #@! TD*
G04 #@! TA.AperFunction,SMDPad,CuDef*
%ADD15R,0.800000X0.900000*%
G04 #@! TD*
G04 #@! TA.AperFunction,SMDPad,CuDef*
%ADD16R,1.300000X0.300000*%
G04 #@! TD*
G04 #@! TA.AperFunction,SMDPad,CuDef*
%ADD17R,2.200000X1.800000*%
G04 #@! TD*
G04 #@! TA.AperFunction,SMDPad,CuDef*
%ADD18R,0.650000X1.560000*%
G04 #@! TD*
G04 #@! TA.AperFunction,SMDPad,CuDef*
%ADD19R,0.600000X2.000000*%
G04 #@! TD*
G04 #@! TA.AperFunction,SMDPad,CuDef*
%ADD20R,0.400000X1.050000*%
G04 #@! TD*
G04 #@! TA.AperFunction,ViaPad*
%ADD21C,0.800000*%
G04 #@! TD*
G04 #@! TA.AperFunction,Conductor*
%ADD22C,0.250000*%
G04 #@! TD*
G04 #@! TA.AperFunction,Conductor*
%ADD23C,0.200000*%
G04 #@! TD*
G04 #@! TA.AperFunction,Conductor*
%ADD24C,0.254000*%
G04 #@! TD*
G04 #@! TA.AperFunction,Conductor*
%ADD25C,0.100000*%
G04 #@! TD*
G04 APERTURE END LIST*
D10*
X117597000Y-52615000D03*
X104399000Y-52615000D03*
D11*
X114498000Y-54065000D03*
X111999000Y-54065000D03*
X109997000Y-54065000D03*
X107498000Y-54065000D03*
D10*
X90589000Y-52615000D03*
X77391000Y-52615000D03*
D11*
X87490000Y-54065000D03*
X84991000Y-54065000D03*
X82989000Y-54065000D03*
X80490000Y-54065000D03*
D12*
X111380000Y-76740000D03*
X119880000Y-76740000D03*
D13*
X115650000Y-72377500D03*
X115650000Y-71742500D03*
X115650000Y-71107500D03*
X115650000Y-70472500D03*
X115650000Y-69837500D03*
X115650000Y-69202500D03*
X115650000Y-68567500D03*
X115650000Y-67932500D03*
X115650000Y-67297500D03*
X115650000Y-66662500D03*
X115650000Y-66027500D03*
X115650000Y-65392500D03*
X115650000Y-64757500D03*
X115650000Y-64122500D03*
X120850000Y-64122500D03*
X120850000Y-64757500D03*
X120850000Y-65392500D03*
X120850000Y-66027500D03*
X120850000Y-66662500D03*
X120850000Y-67297500D03*
X120850000Y-67932500D03*
X120850000Y-68567500D03*
X120850000Y-69202500D03*
X120850000Y-69837500D03*
X120850000Y-70472500D03*
X120850000Y-71107500D03*
X120850000Y-71742500D03*
X120850000Y-72377500D03*
G04 #@! TA.AperFunction,SMDPad,CuDef*
G36*
G01*
X123820000Y-64325000D02*
X123820000Y-63955000D01*
G75*
G02*
X123955000Y-63820000I135000J0D01*
G01*
X124225000Y-63820000D01*
G75*
G02*
X124360000Y-63955000I0J-135000D01*
G01*
X124360000Y-64325000D01*
G75*
G02*
X124225000Y-64460000I-135000J0D01*
G01*
X123955000Y-64460000D01*
G75*
G02*
X123820000Y-64325000I0J135000D01*
G01*
G37*
G04 #@! TD.AperFunction*
G04 #@! TA.AperFunction,SMDPad,CuDef*
G36*
G01*
X122800000Y-64325000D02*
X122800000Y-63955000D01*
G75*
G02*
X122935000Y-63820000I135000J0D01*
G01*
X123205000Y-63820000D01*
G75*
G02*
X123340000Y-63955000I0J-135000D01*
G01*
X123340000Y-64325000D01*
G75*
G02*
X123205000Y-64460000I-135000J0D01*
G01*
X122935000Y-64460000D01*
G75*
G02*
X122800000Y-64325000I0J135000D01*
G01*
G37*
G04 #@! TD.AperFunction*
G04 #@! TA.AperFunction,SMDPad,CuDef*
G36*
G01*
X65932900Y-101614000D02*
X65562900Y-101614000D01*
G75*
G02*
X65427900Y-101479000I0J135000D01*
G01*
X65427900Y-101209000D01*
G75*
G02*
X65562900Y-101074000I135000J0D01*
G01*
X65932900Y-101074000D01*
G75*
G02*
X66067900Y-101209000I0J-135000D01*
G01*
X66067900Y-101479000D01*
G75*
G02*
X65932900Y-101614000I-135000J0D01*
G01*
G37*
G04 #@! TD.AperFunction*
G04 #@! TA.AperFunction,SMDPad,CuDef*
G36*
G01*
X65932900Y-102634000D02*
X65562900Y-102634000D01*
G75*
G02*
X65427900Y-102499000I0J135000D01*
G01*
X65427900Y-102229000D01*
G75*
G02*
X65562900Y-102094000I135000J0D01*
G01*
X65932900Y-102094000D01*
G75*
G02*
X66067900Y-102229000I0J-135000D01*
G01*
X66067900Y-102499000D01*
G75*
G02*
X65932900Y-102634000I-135000J0D01*
G01*
G37*
G04 #@! TD.AperFunction*
G04 #@! TA.AperFunction,SMDPad,CuDef*
G36*
G01*
X65562900Y-97687100D02*
X65932900Y-97687100D01*
G75*
G02*
X66067900Y-97822100I0J-135000D01*
G01*
X66067900Y-98092100D01*
G75*
G02*
X65932900Y-98227100I-135000J0D01*
G01*
X65562900Y-98227100D01*
G75*
G02*
X65427900Y-98092100I0J135000D01*
G01*
X65427900Y-97822100D01*
G75*
G02*
X65562900Y-97687100I135000J0D01*
G01*
G37*
G04 #@! TD.AperFunction*
G04 #@! TA.AperFunction,SMDPad,CuDef*
G36*
G01*
X65562900Y-96667100D02*
X65932900Y-96667100D01*
G75*
G02*
X66067900Y-96802100I0J-135000D01*
G01*
X66067900Y-97072100D01*
G75*
G02*
X65932900Y-97207100I-135000J0D01*
G01*
X65562900Y-97207100D01*
G75*
G02*
X65427900Y-97072100I0J135000D01*
G01*
X65427900Y-96802100D01*
G75*
G02*
X65562900Y-96667100I135000J0D01*
G01*
G37*
G04 #@! TD.AperFunction*
G04 #@! TA.AperFunction,SMDPad,CuDef*
G36*
G01*
X67360000Y-119715000D02*
X67360000Y-120085000D01*
G75*
G02*
X67225000Y-120220000I-135000J0D01*
G01*
X66955000Y-120220000D01*
G75*
G02*
X66820000Y-120085000I0J135000D01*
G01*
X66820000Y-119715000D01*
G75*
G02*
X66955000Y-119580000I135000J0D01*
G01*
X67225000Y-119580000D01*
G75*
G02*
X67360000Y-119715000I0J-135000D01*
G01*
G37*
G04 #@! TD.AperFunction*
G04 #@! TA.AperFunction,SMDPad,CuDef*
G36*
G01*
X68380000Y-119715000D02*
X68380000Y-120085000D01*
G75*
G02*
X68245000Y-120220000I-135000J0D01*
G01*
X67975000Y-120220000D01*
G75*
G02*
X67840000Y-120085000I0J135000D01*
G01*
X67840000Y-119715000D01*
G75*
G02*
X67975000Y-119580000I135000J0D01*
G01*
X68245000Y-119580000D01*
G75*
G02*
X68380000Y-119715000I0J-135000D01*
G01*
G37*
G04 #@! TD.AperFunction*
G04 #@! TA.AperFunction,SMDPad,CuDef*
G36*
G01*
X127160000Y-66990000D02*
X126820000Y-66990000D01*
G75*
G02*
X126680000Y-66850000I0J140000D01*
G01*
X126680000Y-66570000D01*
G75*
G02*
X126820000Y-66430000I140000J0D01*
G01*
X127160000Y-66430000D01*
G75*
G02*
X127300000Y-66570000I0J-140000D01*
G01*
X127300000Y-66850000D01*
G75*
G02*
X127160000Y-66990000I-140000J0D01*
G01*
G37*
G04 #@! TD.AperFunction*
G04 #@! TA.AperFunction,SMDPad,CuDef*
G36*
G01*
X127160000Y-67950000D02*
X126820000Y-67950000D01*
G75*
G02*
X126680000Y-67810000I0J140000D01*
G01*
X126680000Y-67530000D01*
G75*
G02*
X126820000Y-67390000I140000J0D01*
G01*
X127160000Y-67390000D01*
G75*
G02*
X127300000Y-67530000I0J-140000D01*
G01*
X127300000Y-67810000D01*
G75*
G02*
X127160000Y-67950000I-140000J0D01*
G01*
G37*
G04 #@! TD.AperFunction*
G04 #@! TA.AperFunction,SMDPad,CuDef*
G36*
G01*
X125840000Y-66990000D02*
X125500000Y-66990000D01*
G75*
G02*
X125360000Y-66850000I0J140000D01*
G01*
X125360000Y-66570000D01*
G75*
G02*
X125500000Y-66430000I140000J0D01*
G01*
X125840000Y-66430000D01*
G75*
G02*
X125980000Y-66570000I0J-140000D01*
G01*
X125980000Y-66850000D01*
G75*
G02*
X125840000Y-66990000I-140000J0D01*
G01*
G37*
G04 #@! TD.AperFunction*
G04 #@! TA.AperFunction,SMDPad,CuDef*
G36*
G01*
X125840000Y-67950000D02*
X125500000Y-67950000D01*
G75*
G02*
X125360000Y-67810000I0J140000D01*
G01*
X125360000Y-67530000D01*
G75*
G02*
X125500000Y-67390000I140000J0D01*
G01*
X125840000Y-67390000D01*
G75*
G02*
X125980000Y-67530000I0J-140000D01*
G01*
X125980000Y-67810000D01*
G75*
G02*
X125840000Y-67950000I-140000J0D01*
G01*
G37*
G04 #@! TD.AperFunction*
G04 #@! TA.AperFunction,SMDPad,CuDef*
G36*
G01*
X125500000Y-64840000D02*
X125840000Y-64840000D01*
G75*
G02*
X125980000Y-64980000I0J-140000D01*
G01*
X125980000Y-65260000D01*
G75*
G02*
X125840000Y-65400000I-140000J0D01*
G01*
X125500000Y-65400000D01*
G75*
G02*
X125360000Y-65260000I0J140000D01*
G01*
X125360000Y-64980000D01*
G75*
G02*
X125500000Y-64840000I140000J0D01*
G01*
G37*
G04 #@! TD.AperFunction*
G04 #@! TA.AperFunction,SMDPad,CuDef*
G36*
G01*
X125500000Y-63880000D02*
X125840000Y-63880000D01*
G75*
G02*
X125980000Y-64020000I0J-140000D01*
G01*
X125980000Y-64300000D01*
G75*
G02*
X125840000Y-64440000I-140000J0D01*
G01*
X125500000Y-64440000D01*
G75*
G02*
X125360000Y-64300000I0J140000D01*
G01*
X125360000Y-64020000D01*
G75*
G02*
X125500000Y-63880000I140000J0D01*
G01*
G37*
G04 #@! TD.AperFunction*
G04 #@! TA.AperFunction,SMDPad,CuDef*
G36*
G01*
X127220000Y-64910000D02*
X127560000Y-64910000D01*
G75*
G02*
X127700000Y-65050000I0J-140000D01*
G01*
X127700000Y-65330000D01*
G75*
G02*
X127560000Y-65470000I-140000J0D01*
G01*
X127220000Y-65470000D01*
G75*
G02*
X127080000Y-65330000I0J140000D01*
G01*
X127080000Y-65050000D01*
G75*
G02*
X127220000Y-64910000I140000J0D01*
G01*
G37*
G04 #@! TD.AperFunction*
G04 #@! TA.AperFunction,SMDPad,CuDef*
G36*
G01*
X127220000Y-63950000D02*
X127560000Y-63950000D01*
G75*
G02*
X127700000Y-64090000I0J-140000D01*
G01*
X127700000Y-64370000D01*
G75*
G02*
X127560000Y-64510000I-140000J0D01*
G01*
X127220000Y-64510000D01*
G75*
G02*
X127080000Y-64370000I0J140000D01*
G01*
X127080000Y-64090000D01*
G75*
G02*
X127220000Y-63950000I140000J0D01*
G01*
G37*
G04 #@! TD.AperFunction*
G04 #@! TA.AperFunction,SMDPad,CuDef*
G36*
G01*
X106890000Y-71070000D02*
X106890000Y-71410000D01*
G75*
G02*
X106750000Y-71550000I-140000J0D01*
G01*
X106470000Y-71550000D01*
G75*
G02*
X106330000Y-71410000I0J140000D01*
G01*
X106330000Y-71070000D01*
G75*
G02*
X106470000Y-70930000I140000J0D01*
G01*
X106750000Y-70930000D01*
G75*
G02*
X106890000Y-71070000I0J-140000D01*
G01*
G37*
G04 #@! TD.AperFunction*
G04 #@! TA.AperFunction,SMDPad,CuDef*
G36*
G01*
X107850000Y-71070000D02*
X107850000Y-71410000D01*
G75*
G02*
X107710000Y-71550000I-140000J0D01*
G01*
X107430000Y-71550000D01*
G75*
G02*
X107290000Y-71410000I0J140000D01*
G01*
X107290000Y-71070000D01*
G75*
G02*
X107430000Y-70930000I140000J0D01*
G01*
X107710000Y-70930000D01*
G75*
G02*
X107850000Y-71070000I0J-140000D01*
G01*
G37*
G04 #@! TD.AperFunction*
G04 #@! TA.AperFunction,SMDPad,CuDef*
G36*
G01*
X70799300Y-103560700D02*
X70799300Y-103220700D01*
G75*
G02*
X70939300Y-103080700I140000J0D01*
G01*
X71219300Y-103080700D01*
G75*
G02*
X71359300Y-103220700I0J-140000D01*
G01*
X71359300Y-103560700D01*
G75*
G02*
X71219300Y-103700700I-140000J0D01*
G01*
X70939300Y-103700700D01*
G75*
G02*
X70799300Y-103560700I0J140000D01*
G01*
G37*
G04 #@! TD.AperFunction*
G04 #@! TA.AperFunction,SMDPad,CuDef*
G36*
G01*
X69839300Y-103560700D02*
X69839300Y-103220700D01*
G75*
G02*
X69979300Y-103080700I140000J0D01*
G01*
X70259300Y-103080700D01*
G75*
G02*
X70399300Y-103220700I0J-140000D01*
G01*
X70399300Y-103560700D01*
G75*
G02*
X70259300Y-103700700I-140000J0D01*
G01*
X69979300Y-103700700D01*
G75*
G02*
X69839300Y-103560700I0J140000D01*
G01*
G37*
G04 #@! TD.AperFunction*
G04 #@! TA.AperFunction,SMDPad,CuDef*
G36*
G01*
X69948400Y-94873900D02*
X69948400Y-94533900D01*
G75*
G02*
X70088400Y-94393900I140000J0D01*
G01*
X70368400Y-94393900D01*
G75*
G02*
X70508400Y-94533900I0J-140000D01*
G01*
X70508400Y-94873900D01*
G75*
G02*
X70368400Y-95013900I-140000J0D01*
G01*
X70088400Y-95013900D01*
G75*
G02*
X69948400Y-94873900I0J140000D01*
G01*
G37*
G04 #@! TD.AperFunction*
G04 #@! TA.AperFunction,SMDPad,CuDef*
G36*
G01*
X68988400Y-94873900D02*
X68988400Y-94533900D01*
G75*
G02*
X69128400Y-94393900I140000J0D01*
G01*
X69408400Y-94393900D01*
G75*
G02*
X69548400Y-94533900I0J-140000D01*
G01*
X69548400Y-94873900D01*
G75*
G02*
X69408400Y-95013900I-140000J0D01*
G01*
X69128400Y-95013900D01*
G75*
G02*
X68988400Y-94873900I0J140000D01*
G01*
G37*
G04 #@! TD.AperFunction*
D14*
X73200000Y-133400000D03*
G04 #@! TA.AperFunction,ComponentPad*
G36*
G01*
X75800000Y-132774999D02*
X75800000Y-134025001D01*
G75*
G02*
X75550001Y-134275000I-249999J0D01*
G01*
X74849999Y-134275000D01*
G75*
G02*
X74600000Y-134025001I0J249999D01*
G01*
X74600000Y-132774999D01*
G75*
G02*
X74849999Y-132525000I249999J0D01*
G01*
X75550001Y-132525000D01*
G75*
G02*
X75800000Y-132774999I0J-249999D01*
G01*
G37*
G04 #@! TD.AperFunction*
D15*
X67500000Y-124000000D03*
X66550000Y-122000000D03*
X68450000Y-122000000D03*
D16*
X128058300Y-73957600D03*
X128058300Y-74457600D03*
X128058300Y-74957600D03*
X128058300Y-75457600D03*
X128058300Y-75957600D03*
X128058300Y-76457600D03*
X128058300Y-76957600D03*
X128058300Y-77457600D03*
X128058300Y-77957600D03*
X128058300Y-78457600D03*
X128058300Y-78957600D03*
X128058300Y-79457600D03*
X128058300Y-79957600D03*
X128058300Y-80457600D03*
X128058300Y-80957600D03*
X128058300Y-81457600D03*
X128058300Y-81957600D03*
X128058300Y-82457600D03*
X128058300Y-82957600D03*
X128058300Y-83457600D03*
X128058300Y-83957600D03*
X128058300Y-84457600D03*
X128058300Y-84957600D03*
X128058300Y-85457600D03*
X128058300Y-85957600D03*
X128058300Y-86457600D03*
X128058300Y-86957600D03*
X128058300Y-87457600D03*
X128058300Y-87957600D03*
X128058300Y-88457600D03*
X128058300Y-88957600D03*
X128058300Y-89457600D03*
X128058300Y-89957600D03*
X128058300Y-90457600D03*
X128058300Y-90957600D03*
X128058300Y-91457600D03*
X128058300Y-91957600D03*
X128058300Y-92457600D03*
X128058300Y-92957600D03*
X128058300Y-93457600D03*
X128058300Y-93957600D03*
X128058300Y-94457600D03*
X128058300Y-94957600D03*
X128058300Y-95457600D03*
X128058300Y-95957600D03*
X128058300Y-96457600D03*
X128058300Y-96957600D03*
X128058300Y-97457600D03*
X128058300Y-97957600D03*
X128058300Y-98457600D03*
D17*
X131308300Y-100357600D03*
X131308300Y-72057600D03*
D18*
X70105299Y-100538301D03*
X68205299Y-100538301D03*
X68205299Y-97838301D03*
X69155299Y-97838301D03*
X70105299Y-97838301D03*
D19*
X86090000Y-141083700D03*
X86890000Y-141083700D03*
X87690000Y-141083700D03*
X88490000Y-141083700D03*
X89290000Y-141083700D03*
X90090000Y-141083700D03*
X90890000Y-141083700D03*
X91690000Y-141083700D03*
X95690000Y-141083700D03*
X96490000Y-141083700D03*
X97290000Y-141083700D03*
X98090000Y-141083700D03*
X98890000Y-141083700D03*
X99690000Y-141083700D03*
X100490000Y-141083700D03*
X101290000Y-141083700D03*
X102090000Y-141083700D03*
X102890000Y-141083700D03*
X103690000Y-141083700D03*
X104490000Y-141083700D03*
X105290000Y-141083700D03*
X106090000Y-141083700D03*
X106890000Y-141083700D03*
X107690000Y-141083700D03*
X108490000Y-141083700D03*
X109290000Y-141083700D03*
D20*
X83474800Y-58320500D03*
X84124800Y-58320500D03*
X84774800Y-58320500D03*
X84774800Y-60170500D03*
X84124800Y-60170500D03*
X83474800Y-60170500D03*
X117450000Y-58885000D03*
X118100000Y-58885000D03*
X118750000Y-58885000D03*
X118750000Y-60735000D03*
X118100000Y-60735000D03*
X117450000Y-60735000D03*
D21*
X90700000Y-135000000D03*
X109100000Y-109500000D03*
X84200000Y-61200000D03*
X92100000Y-75100000D03*
X92200000Y-86300000D03*
X92200000Y-97000000D03*
X85800000Y-131000000D03*
X96700000Y-61400000D03*
X104600000Y-75400000D03*
X70000000Y-70500000D03*
X95800000Y-126900000D03*
X108900000Y-100600000D03*
X64500000Y-73900000D03*
X120840000Y-73400000D03*
X116590000Y-78260000D03*
X116220000Y-59800000D03*
X85950000Y-77650000D03*
X97000000Y-67700000D03*
X79300000Y-128400000D03*
X62600000Y-121500000D03*
X66300000Y-113200000D03*
X81200000Y-131000000D03*
X93875000Y-74200000D03*
X111068768Y-64348768D03*
X94925000Y-74200000D03*
X111811232Y-65091232D03*
X117200000Y-57590000D03*
X104492849Y-63792849D03*
X99400000Y-91000000D03*
X98200000Y-90300000D03*
X71500000Y-100700000D03*
X131000000Y-84800000D03*
X130100000Y-85400000D03*
X129400000Y-86200000D03*
X100900000Y-92900000D03*
X120500000Y-86400000D03*
X101900000Y-91200000D03*
X121700000Y-86900000D03*
X102800000Y-92900000D03*
X123000000Y-87400000D03*
X86900000Y-87200000D03*
X131300000Y-87400000D03*
X103600000Y-91200000D03*
X124000000Y-88000000D03*
X104700000Y-92800000D03*
X125200000Y-88500000D03*
X106000000Y-91100000D03*
X126100000Y-89200000D03*
X106700000Y-92200000D03*
X129800000Y-89400000D03*
X131800000Y-84100000D03*
X93100000Y-131000000D03*
X93400000Y-104500000D03*
X62600000Y-65400000D03*
X66200000Y-59000000D03*
X94100000Y-110500000D03*
X93300000Y-136100000D03*
X117380000Y-66950000D03*
X122190000Y-64847500D03*
X117070000Y-72290000D03*
X122540000Y-65820000D03*
X114330000Y-71950000D03*
X111920000Y-69280000D03*
X112030000Y-70620000D03*
X113000000Y-68477500D03*
X113230000Y-70830000D03*
D22*
X69180900Y-97812700D02*
X69155299Y-97838301D01*
X69180900Y-94703900D02*
X69180900Y-97812700D01*
X106890000Y-141083700D02*
X106890000Y-136429254D01*
X126387790Y-96957600D02*
X128058300Y-96957600D01*
X118650010Y-104695380D02*
X126387790Y-96957600D01*
X118650010Y-124669244D02*
X118650010Y-104695380D01*
X106890000Y-136429254D02*
X118650010Y-124669244D01*
X128058300Y-95457600D02*
X124042400Y-95457600D01*
X124042400Y-95457600D02*
X116600000Y-102900000D01*
X116600000Y-102900000D02*
X116600000Y-119200000D01*
X104490000Y-131310000D02*
X104490000Y-141083700D01*
X116600000Y-119200000D02*
X104490000Y-131310000D01*
X102090000Y-141083700D02*
X102090000Y-129910000D01*
X122423146Y-93957600D02*
X128058300Y-93957600D01*
X114349990Y-102030756D02*
X122423146Y-93957600D01*
X114349990Y-117650010D02*
X114349990Y-102030756D01*
X102090000Y-129910000D02*
X114349990Y-117650010D01*
X99700000Y-141073700D02*
X99690000Y-141083700D01*
X99700000Y-128880746D02*
X99700000Y-141073700D01*
X110300000Y-118280746D02*
X99700000Y-128880746D01*
X111550010Y-102249990D02*
X111550010Y-116949990D01*
X111550010Y-116949990D02*
X110300000Y-118200000D01*
X111600000Y-102200000D02*
X111550010Y-102249990D01*
X118642400Y-92457600D02*
X111600000Y-99500000D01*
X110300000Y-118200000D02*
X110300000Y-118280746D01*
X111600000Y-99500000D02*
X111600000Y-102200000D01*
X128058300Y-92457600D02*
X118642400Y-92457600D01*
X97290000Y-141083700D02*
X97290000Y-129110000D01*
X117423146Y-90957600D02*
X128058300Y-90957600D01*
X110249990Y-98130756D02*
X117423146Y-90957600D01*
X97290000Y-129110000D02*
X110249990Y-116150010D01*
X110100000Y-109500000D02*
X110249990Y-109649990D01*
X109100000Y-109500000D02*
X110100000Y-109500000D01*
X110249990Y-109649990D02*
X110249990Y-98130756D01*
X110249990Y-116150010D02*
X110249990Y-109649990D01*
X84124800Y-61124800D02*
X84200000Y-61200000D01*
X84124800Y-60170500D02*
X84124800Y-61124800D01*
X90090000Y-141083700D02*
X90090000Y-136010000D01*
X87690000Y-138822477D02*
X87700000Y-138812477D01*
X87690000Y-141083700D02*
X87690000Y-138822477D01*
X87700000Y-138812477D02*
X87700000Y-136800000D01*
X87700000Y-132900000D02*
X85800000Y-131000000D01*
X87700000Y-136800000D02*
X87700000Y-132900000D01*
X90090000Y-135610000D02*
X90700000Y-135000000D01*
X90090000Y-141083700D02*
X90090000Y-135610000D01*
X109100000Y-109500000D02*
X109100000Y-106900000D01*
X109100000Y-109500000D02*
X109100000Y-107300000D01*
X109100000Y-107300000D02*
X107700000Y-105900000D01*
X107700000Y-101800000D02*
X108900000Y-100600000D01*
X107700000Y-105900000D02*
X107700000Y-101800000D01*
X128058300Y-98457600D02*
X128958300Y-98457600D01*
X128058300Y-96957600D02*
X128857600Y-96957600D01*
X128342400Y-95457600D02*
X128367399Y-95432601D01*
X128367399Y-95432601D02*
X129132601Y-95432601D01*
X128058300Y-95457600D02*
X128342400Y-95457600D01*
X129132601Y-95432601D02*
X129450000Y-95750000D01*
X128857600Y-96957600D02*
X129450000Y-97550000D01*
X128367399Y-93932601D02*
X129132601Y-93932601D01*
X128342400Y-93957600D02*
X128367399Y-93932601D01*
X128058300Y-93957600D02*
X128342400Y-93957600D01*
X129450000Y-96150000D02*
X129450000Y-97550000D01*
X129132601Y-93932601D02*
X129450000Y-94250000D01*
X129450000Y-95750000D02*
X129450000Y-96150000D01*
X128958300Y-90957600D02*
X129500000Y-91499300D01*
X128058300Y-90957600D02*
X128958300Y-90957600D01*
X129500000Y-94300000D02*
X129450000Y-94350000D01*
X129500000Y-91499300D02*
X129500000Y-94300000D01*
X129450000Y-94350000D02*
X129450000Y-96150000D01*
X129450000Y-94250000D02*
X129450000Y-94350000D01*
X128943302Y-92457600D02*
X129400000Y-92914298D01*
X128058300Y-92457600D02*
X128943302Y-92457600D01*
X129400000Y-98000000D02*
X129407950Y-98007950D01*
X129400000Y-92914298D02*
X129400000Y-98000000D01*
X128958300Y-98457600D02*
X129407950Y-98007950D01*
X109290000Y-136836276D02*
X120600000Y-125526276D01*
X109290000Y-141083700D02*
X109290000Y-136836276D01*
X120600000Y-125526276D02*
X120600000Y-105100000D01*
X127242400Y-98457600D02*
X128058300Y-98457600D01*
X120600000Y-105100000D02*
X127242400Y-98457600D01*
X128058300Y-73957600D02*
X128058300Y-74957600D01*
X128058300Y-76457600D02*
X128958300Y-76457600D01*
X128661700Y-74457600D02*
X128058300Y-74457600D01*
X129087950Y-74962050D02*
X129127050Y-74922950D01*
X129087950Y-76327950D02*
X129087950Y-74962050D01*
X128958300Y-76457600D02*
X129087950Y-76327950D01*
X128943302Y-77957600D02*
X129200000Y-78214298D01*
X128058300Y-77957600D02*
X128943302Y-77957600D01*
X128943302Y-79457600D02*
X128058300Y-79457600D01*
X129200000Y-79200902D02*
X128943302Y-79457600D01*
X129200000Y-78214298D02*
X129200000Y-79200902D01*
X129200000Y-74995900D02*
X129012050Y-74807950D01*
X129012050Y-74807950D02*
X128661700Y-74457600D01*
X129200000Y-78214298D02*
X129200000Y-74995900D01*
X129127050Y-74922950D02*
X129012050Y-74807950D01*
X120850000Y-73390000D02*
X120840000Y-73400000D01*
X120850000Y-72377500D02*
X120850000Y-73390000D01*
X118100000Y-60074998D02*
X117895002Y-59870000D01*
X118100000Y-60735000D02*
X118100000Y-60074998D01*
X116290000Y-59870000D02*
X116220000Y-59800000D01*
X117895002Y-59870000D02*
X116290000Y-59870000D01*
X117220000Y-56580000D02*
X114290000Y-56580000D01*
X118750000Y-58110000D02*
X117220000Y-56580000D01*
X118750000Y-58885000D02*
X118750000Y-58110000D01*
X111850000Y-54347040D02*
X111881160Y-54315880D01*
X114290000Y-56580000D02*
X112030000Y-54320000D01*
X117450000Y-58885000D02*
X117355000Y-58885000D01*
X117355000Y-58885000D02*
X116470000Y-58000000D01*
X116470000Y-58000000D02*
X113710000Y-58000000D01*
X109881160Y-54315880D02*
X109915880Y-54315880D01*
X113710000Y-58000000D02*
X110030000Y-54320000D01*
X84774800Y-58320500D02*
X84774800Y-56874800D01*
X84774800Y-58320500D02*
X84774800Y-54655720D01*
X84774800Y-54655720D02*
X85114640Y-54315880D01*
X83474800Y-58320500D02*
X83474800Y-55955720D01*
X83474800Y-58320500D02*
X83474800Y-54676040D01*
X83474800Y-54676040D02*
X83114640Y-54315880D01*
X70105299Y-94914501D02*
X70315900Y-94703900D01*
X70105299Y-97838301D02*
X70105299Y-94914501D01*
X75200000Y-88400000D02*
X85950000Y-77650000D01*
X70315900Y-93284100D02*
X75200000Y-88400000D01*
X70315900Y-94703900D02*
X70315900Y-93284100D01*
X107381160Y-57318840D02*
X97000000Y-67700000D01*
X80614640Y-72314640D02*
X85950000Y-77650000D01*
X107381160Y-54315880D02*
X107381160Y-57318840D01*
X80614640Y-54315880D02*
X80614640Y-72314640D01*
X73200000Y-129700000D02*
X67500000Y-124000000D01*
X73200000Y-133400000D02*
X73200000Y-129700000D01*
X81600000Y-132200000D02*
X86090000Y-136690000D01*
X80800000Y-132200000D02*
X81600000Y-132200000D01*
X86090000Y-136690000D02*
X86090000Y-141083700D01*
X79300000Y-130700000D02*
X80800000Y-132200000D01*
X79300000Y-128400000D02*
X79300000Y-130700000D01*
X62600000Y-116900000D02*
X66300000Y-113200000D01*
X62600000Y-121500000D02*
X62600000Y-116900000D01*
X86890000Y-136690000D02*
X81200000Y-131000000D01*
X86890000Y-141083700D02*
X86890000Y-136690000D01*
D23*
X88665000Y-71583200D02*
X83875000Y-66793200D01*
D22*
X83474800Y-62174800D02*
X83875000Y-62575000D01*
D23*
X83875000Y-66793200D02*
X83875000Y-62575000D01*
D22*
X83474800Y-60170500D02*
X83129500Y-60170500D01*
X83129500Y-60170500D02*
X82700000Y-60600000D01*
X82700000Y-60600000D02*
X82700000Y-61400000D01*
X82700000Y-61400000D02*
X83474800Y-62174800D01*
D23*
X88490000Y-141083700D02*
X88490000Y-139583699D01*
X88490000Y-139583699D02*
X88665000Y-139408699D01*
X88665000Y-139408699D02*
X88665000Y-71583200D01*
X89115000Y-71396800D02*
X84325000Y-66606800D01*
X84325000Y-66606800D02*
X84325000Y-63275000D01*
D22*
X84325000Y-63275000D02*
X84325000Y-62575000D01*
X84774800Y-60170500D02*
X85070500Y-60170500D01*
X85070500Y-60170500D02*
X85600000Y-60700000D01*
X85600000Y-61300000D02*
X84550000Y-62350000D01*
X85600000Y-60700000D02*
X85600000Y-61300000D01*
X84550000Y-62350000D02*
X84774800Y-62125200D01*
X84325000Y-62575000D02*
X84550000Y-62350000D01*
D23*
X89115000Y-139408699D02*
X89115000Y-71396800D01*
X89290000Y-139583699D02*
X89115000Y-139408699D01*
X89290000Y-141083700D02*
X89290000Y-139583699D01*
X91065000Y-139408699D02*
X91065000Y-136716800D01*
X90890000Y-139583699D02*
X91065000Y-139408699D01*
X90890000Y-141083700D02*
X90890000Y-139583699D01*
X91065000Y-136716800D02*
X91575000Y-136206800D01*
X91575000Y-136206800D02*
X91575000Y-100706800D01*
X94175000Y-98106800D02*
X94175000Y-74500000D01*
X91575000Y-100706800D02*
X94175000Y-98106800D01*
X94175000Y-74500000D02*
X93875000Y-74200000D01*
X114749999Y-64122500D02*
X115650000Y-64122500D01*
X114657499Y-64215000D02*
X114749999Y-64122500D01*
X111626801Y-64215000D02*
X114657499Y-64215000D01*
X111493033Y-64348768D02*
X111626801Y-64215000D01*
X111068768Y-64348768D02*
X111493033Y-64348768D01*
X91515000Y-139408699D02*
X91515000Y-136903200D01*
X91690000Y-139583699D02*
X91515000Y-139408699D01*
X91690000Y-141083700D02*
X91690000Y-139583699D01*
X91515000Y-136903200D02*
X92025000Y-136393200D01*
X92025000Y-136393200D02*
X92025000Y-100893200D01*
X94625000Y-74500000D02*
X94925000Y-74200000D01*
X94625000Y-98293200D02*
X94625000Y-74500000D01*
X92025000Y-100893200D02*
X94625000Y-98293200D01*
X114749999Y-64757500D02*
X115650000Y-64757500D01*
X114657499Y-64665000D02*
X114749999Y-64757500D01*
D22*
X111811232Y-65091232D02*
X111811232Y-65018768D01*
X111811232Y-65018768D02*
X112165000Y-64665000D01*
D23*
X112165000Y-64665000D02*
X114657499Y-64665000D01*
D22*
X128058300Y-89957600D02*
X114442400Y-89957600D01*
X114442400Y-89957600D02*
X106300000Y-98100000D01*
X95690000Y-128210000D02*
X95690000Y-141083700D01*
X106300000Y-117600000D02*
X95690000Y-128210000D01*
X84124800Y-59095500D02*
X84229300Y-59200000D01*
X84124800Y-58320500D02*
X84124800Y-59095500D01*
X85114302Y-59200000D02*
X97100000Y-71185698D01*
X84229300Y-59200000D02*
X85114302Y-59200000D01*
X97100000Y-71185698D02*
X97100000Y-93700000D01*
X97100000Y-93700000D02*
X106300000Y-102900000D01*
X106300000Y-102900000D02*
X106300000Y-109800000D01*
X106300000Y-109800000D02*
X106300000Y-117600000D01*
X106300000Y-98100000D02*
X106300000Y-109800000D01*
X116042400Y-90457600D02*
X128058300Y-90457600D01*
X107150000Y-99350000D02*
X116042400Y-90457600D01*
X96490000Y-129210000D02*
X107150000Y-118550000D01*
X107150000Y-118550000D02*
X107150000Y-99350000D01*
X96490000Y-141083700D02*
X96490000Y-129210000D01*
X128058300Y-90457600D02*
X128058300Y-89957600D01*
X118100000Y-58110000D02*
X117580000Y-57590000D01*
X117580000Y-57590000D02*
X117200000Y-57590000D01*
X118100000Y-58885000D02*
X118100000Y-58110000D01*
X104492849Y-63792849D02*
X97100000Y-71185698D01*
X70105299Y-103317201D02*
X70031800Y-103390700D01*
X70105299Y-100538301D02*
X70105299Y-103317201D01*
X69092600Y-102451500D02*
X70031800Y-103390700D01*
X65747900Y-102451500D02*
X69092600Y-102451500D01*
X98200000Y-90300000D02*
X98200000Y-89600000D01*
X107842400Y-79957600D02*
X128058300Y-79957600D01*
X108642400Y-80457600D02*
X99500000Y-89600000D01*
X99500000Y-90900000D02*
X99400000Y-91000000D01*
X99500000Y-89600000D02*
X99500000Y-90900000D01*
X128058300Y-80457600D02*
X108642400Y-80457600D01*
X71338301Y-100538301D02*
X71500000Y-100700000D01*
X70105299Y-100538301D02*
X71338301Y-100538301D01*
X115650000Y-67297500D02*
X111102500Y-67297500D01*
X107590000Y-70810000D02*
X107590000Y-80210000D01*
X111102500Y-67297500D02*
X107590000Y-70810000D01*
X107590000Y-80210000D02*
X107842400Y-79957600D01*
X98200000Y-89600000D02*
X107590000Y-80210000D01*
X128058300Y-84957600D02*
X129142400Y-84957600D01*
X130750000Y-84550000D02*
X129550000Y-84550000D01*
X131000000Y-84800000D02*
X130750000Y-84550000D01*
X129142400Y-84957600D02*
X129550000Y-84550000D01*
X130042400Y-85457600D02*
X130100000Y-85400000D01*
X128058300Y-85457600D02*
X130042400Y-85457600D01*
X128058300Y-85957600D02*
X129342400Y-85957600D01*
X129157600Y-85957600D02*
X128058300Y-85957600D01*
X129400000Y-86200000D02*
X129157600Y-85957600D01*
X100900000Y-89900000D02*
X100900000Y-92900000D01*
X109842400Y-80957600D02*
X100900000Y-89900000D01*
X128058300Y-80957600D02*
X109842400Y-80957600D01*
X126715699Y-86000001D02*
X127173298Y-86457600D01*
X120899999Y-86000001D02*
X126715699Y-86000001D01*
X127173298Y-86457600D02*
X128058300Y-86457600D01*
X120500000Y-86400000D02*
X120899999Y-86000001D01*
X128058300Y-81457600D02*
X110742400Y-81457600D01*
X101900000Y-90300000D02*
X101900000Y-91200000D01*
X110742400Y-81457600D02*
X101900000Y-90300000D01*
X128058300Y-86957600D02*
X126357600Y-86957600D01*
X125949991Y-86549991D02*
X122050009Y-86549991D01*
X122050009Y-86549991D02*
X121700000Y-86900000D01*
X126357600Y-86957600D02*
X125949991Y-86549991D01*
X102800000Y-92900000D02*
X102800000Y-90400000D01*
X111242400Y-81957600D02*
X128058300Y-81957600D01*
X102800000Y-90400000D02*
X111242400Y-81957600D01*
X68450000Y-120152500D02*
X68197500Y-119900000D01*
X68450000Y-122000000D02*
X68450000Y-120152500D01*
X123399999Y-87000001D02*
X125600001Y-87000001D01*
X123000000Y-87400000D02*
X123399999Y-87000001D01*
X126057600Y-87457600D02*
X128058300Y-87457600D01*
X125600001Y-87000001D02*
X126057600Y-87457600D01*
X68450000Y-122000000D02*
X77500000Y-122000000D01*
X86900000Y-112600000D02*
X86900000Y-87200000D01*
X77500000Y-122000000D02*
X86900000Y-112600000D01*
X131242400Y-87457600D02*
X128058300Y-87457600D01*
X131300000Y-87400000D02*
X131242400Y-87457600D01*
X128058300Y-82457600D02*
X112357600Y-82457600D01*
X103615200Y-91200000D02*
X103600000Y-91200000D01*
X112357600Y-82457600D02*
X103615200Y-91200000D01*
X125548001Y-87774999D02*
X124225001Y-87774999D01*
X124225001Y-87774999D02*
X124000000Y-88000000D01*
X125730602Y-87957600D02*
X125548001Y-87774999D01*
X128058300Y-87957600D02*
X125730602Y-87957600D01*
X104700000Y-92800000D02*
X104700000Y-91000000D01*
X112742400Y-82957600D02*
X128058300Y-82957600D01*
X104700000Y-91000000D02*
X112742400Y-82957600D01*
X125242400Y-88457600D02*
X125200000Y-88500000D01*
X128058300Y-88457600D02*
X125242400Y-88457600D01*
X113642400Y-83457600D02*
X106000000Y-91100000D01*
X128058300Y-83457600D02*
X113642400Y-83457600D01*
X126342400Y-88957600D02*
X126100000Y-89200000D01*
X128058300Y-88957600D02*
X126342400Y-88957600D01*
X114942400Y-83957600D02*
X106700000Y-92200000D01*
X128058300Y-83957600D02*
X114942400Y-83957600D01*
X129742400Y-89457600D02*
X128058300Y-89457600D01*
X129800000Y-89400000D02*
X129742400Y-89457600D01*
X131774999Y-84074999D02*
X131800000Y-84100000D01*
X129005990Y-84457600D02*
X129388591Y-84074999D01*
X129388591Y-84074999D02*
X131774999Y-84074999D01*
X128058300Y-84457600D02*
X129005990Y-84457600D01*
X93100000Y-104800000D02*
X93400000Y-104500000D01*
X93100000Y-131000000D02*
X93100000Y-104800000D01*
X62600000Y-62600000D02*
X66200000Y-59000000D01*
X62600000Y-65400000D02*
X62600000Y-62600000D01*
X94100000Y-135300000D02*
X93300000Y-136100000D01*
X94100000Y-110500000D02*
X94100000Y-135300000D01*
D23*
X98265000Y-139408699D02*
X98265000Y-128816800D01*
X98090000Y-139583699D02*
X98265000Y-139408699D01*
X98090000Y-141083700D02*
X98090000Y-139583699D01*
X98265000Y-128816800D02*
X110675000Y-116406800D01*
X110675000Y-116406800D02*
X110675000Y-98306800D01*
X127083299Y-91457600D02*
X128058300Y-91457600D01*
X127058299Y-91482600D02*
X127083299Y-91457600D01*
X117499200Y-91482600D02*
X127058299Y-91482600D01*
X110675000Y-98306800D02*
X117499200Y-91482600D01*
X103065000Y-131416800D02*
X103065000Y-139408699D01*
X114775000Y-102206800D02*
X114775000Y-119706800D01*
X122499200Y-94482600D02*
X114775000Y-102206800D01*
X114775000Y-119706800D02*
X103065000Y-131416800D01*
X127083299Y-94457600D02*
X127058299Y-94482600D01*
X128058300Y-94457600D02*
X127083299Y-94457600D01*
X127058299Y-94482600D02*
X122499200Y-94482600D01*
X103065000Y-139408699D02*
X102890000Y-139583699D01*
X102890000Y-139583699D02*
X102890000Y-141083700D01*
X98715000Y-139408699D02*
X98715000Y-129003200D01*
X98890000Y-141083700D02*
X98890000Y-139583699D01*
X98890000Y-139583699D02*
X98715000Y-139408699D01*
X98715000Y-129003200D02*
X111125000Y-116593200D01*
X111125000Y-116593200D02*
X111125000Y-98493200D01*
X127083299Y-91957600D02*
X128058300Y-91957600D01*
X127058299Y-91932600D02*
X127083299Y-91957600D01*
X117685600Y-91932600D02*
X127058299Y-91932600D01*
X111125000Y-98493200D02*
X117685600Y-91932600D01*
X103690000Y-139583699D02*
X103690000Y-141083700D01*
X103515000Y-139408699D02*
X103690000Y-139583699D01*
X127058299Y-94932600D02*
X122685600Y-94932600D01*
X115225000Y-119893200D02*
X103515000Y-131603200D01*
X103515000Y-131603200D02*
X103515000Y-139408699D01*
X115225000Y-102393200D02*
X115225000Y-119893200D01*
X122685600Y-94932600D02*
X115225000Y-102393200D01*
X128058300Y-94957600D02*
X127083299Y-94957600D01*
X127083299Y-94957600D02*
X127058299Y-94932600D01*
X100490000Y-139583699D02*
X100665000Y-139408699D01*
X100665000Y-139408699D02*
X100665000Y-128516800D01*
X100490000Y-141083700D02*
X100490000Y-139583699D01*
X100665000Y-128516800D02*
X112175000Y-117006800D01*
X112175000Y-117006800D02*
X112175000Y-100706800D01*
X127058299Y-92982600D02*
X119899200Y-92982600D01*
X127083299Y-92957600D02*
X127058299Y-92982600D01*
X119899200Y-92982600D02*
X112175000Y-100706800D01*
X128058300Y-92957600D02*
X127083299Y-92957600D01*
X105290000Y-139583699D02*
X105465000Y-139408699D01*
X105290000Y-141083700D02*
X105290000Y-139583699D01*
X117775000Y-124306800D02*
X117775000Y-103406800D01*
X127058299Y-95982600D02*
X125199200Y-95982600D01*
X127083299Y-95957600D02*
X127058299Y-95982600D01*
X125199200Y-95982600D02*
X117775000Y-103406800D01*
X128058300Y-95957600D02*
X127083299Y-95957600D01*
X105465000Y-136616800D02*
X117775000Y-124306800D01*
X105465000Y-139408699D02*
X105465000Y-136616800D01*
X101115000Y-139408699D02*
X101115000Y-128703200D01*
X101290000Y-141083700D02*
X101290000Y-139583699D01*
X101290000Y-139583699D02*
X101115000Y-139408699D01*
X101115000Y-128703200D02*
X112625000Y-117193200D01*
X112625000Y-117193200D02*
X112625000Y-100893200D01*
X127058299Y-93432600D02*
X120085600Y-93432600D01*
X128058300Y-93457600D02*
X127083299Y-93457600D01*
X120085600Y-93432600D02*
X112625000Y-100893200D01*
X127083299Y-93457600D02*
X127058299Y-93432600D01*
X106090000Y-139583699D02*
X105915000Y-139408699D01*
X106090000Y-141083700D02*
X106090000Y-139583699D01*
X118225000Y-124493200D02*
X118225000Y-103593200D01*
X125385600Y-96432600D02*
X118225000Y-103593200D01*
X127058299Y-96432600D02*
X125385600Y-96432600D01*
X127083299Y-96457600D02*
X127058299Y-96432600D01*
X128058300Y-96457600D02*
X127083299Y-96457600D01*
X105915000Y-136803200D02*
X118225000Y-124493200D01*
X105915000Y-139408699D02*
X105915000Y-136803200D01*
X107690000Y-139583699D02*
X107865000Y-139408699D01*
X107690000Y-141083700D02*
X107690000Y-139583699D01*
X107865000Y-139408699D02*
X107865000Y-136316800D01*
X107865000Y-136316800D02*
X119475000Y-124706800D01*
X119475000Y-124706800D02*
X119475000Y-104506800D01*
X119475000Y-104506800D02*
X126499200Y-97482600D01*
D22*
X126524200Y-97457600D02*
X126499200Y-97482600D01*
X128058300Y-97457600D02*
X126524200Y-97457600D01*
D23*
X108315000Y-139408699D02*
X108315000Y-136503200D01*
X108490000Y-141083700D02*
X108490000Y-139583699D01*
X108490000Y-139583699D02*
X108315000Y-139408699D01*
X108315000Y-136503200D02*
X119925000Y-124893200D01*
X119925000Y-124893200D02*
X119925000Y-104693200D01*
D22*
X128058300Y-97957600D02*
X126710600Y-97957600D01*
X126660600Y-97957600D02*
X126509100Y-98109100D01*
X126710600Y-97957600D02*
X126660600Y-97957600D01*
D23*
X126509100Y-98109100D02*
X126685600Y-97932600D01*
X119925000Y-104693200D02*
X126509100Y-98109100D01*
D22*
X67999000Y-98044600D02*
X68205299Y-97838301D01*
X65747900Y-98044600D02*
X67999000Y-98044600D01*
X66466099Y-100538301D02*
X65747900Y-101256500D01*
X68205299Y-100538301D02*
X66466099Y-100538301D01*
X116397500Y-67932500D02*
X117380000Y-66950000D01*
X115650000Y-67932500D02*
X116397500Y-67932500D01*
X120940000Y-64847500D02*
X120850000Y-64757500D01*
X122190000Y-64847500D02*
X120940000Y-64847500D01*
X122190000Y-64847500D02*
X123437500Y-64847500D01*
X123710000Y-65120000D02*
X125670000Y-65120000D01*
X123437500Y-64847500D02*
X123710000Y-65120000D01*
X125740000Y-65190000D02*
X125670000Y-65120000D01*
X127390000Y-65190000D02*
X125740000Y-65190000D01*
X116982500Y-72377500D02*
X117070000Y-72290000D01*
X115650000Y-72377500D02*
X116982500Y-72377500D01*
X121546815Y-65392500D02*
X120850000Y-65392500D01*
X121974315Y-65820000D02*
X121546815Y-65392500D01*
X122540000Y-65820000D02*
X121974315Y-65820000D01*
X124780000Y-65820000D02*
X125670000Y-66710000D01*
X122540000Y-65820000D02*
X124780000Y-65820000D01*
X125670000Y-66710000D02*
X126990000Y-66710000D01*
D23*
X121842501Y-67840000D02*
X122101800Y-67840000D01*
X121750001Y-67932500D02*
X121842501Y-67840000D01*
X120850000Y-67932500D02*
X121750001Y-67932500D01*
X122101800Y-67840000D02*
X125665000Y-71403200D01*
X125665000Y-71403200D02*
X125665000Y-75073200D01*
D22*
X128058300Y-75957600D02*
X126549400Y-75957600D01*
X126549400Y-75957600D02*
X126445900Y-75854100D01*
D23*
X125665000Y-75073200D02*
X126445900Y-75854100D01*
X121750001Y-67297500D02*
X121842501Y-67390000D01*
X121842501Y-67390000D02*
X122288200Y-67390000D01*
X120850000Y-67297500D02*
X121750001Y-67297500D01*
X122288200Y-67390000D02*
X126115000Y-71216800D01*
X126115000Y-71216800D02*
X126115000Y-74886800D01*
D22*
X126685800Y-75457600D02*
X126115000Y-74886800D01*
X128058300Y-75457600D02*
X126685800Y-75457600D01*
D23*
X127083299Y-77457600D02*
X128058300Y-77457600D01*
X124635000Y-71733200D02*
X124635000Y-76773200D01*
X121842501Y-69110000D02*
X122011800Y-69110000D01*
X125294400Y-77432600D02*
X127058299Y-77432600D01*
X121750001Y-69202500D02*
X121842501Y-69110000D01*
X120850000Y-69202500D02*
X121750001Y-69202500D01*
X127058299Y-77432600D02*
X127083299Y-77457600D01*
X124635000Y-76773200D02*
X125294400Y-77432600D01*
X122011800Y-69110000D02*
X124635000Y-71733200D01*
X127083299Y-76957600D02*
X128058300Y-76957600D01*
X127058299Y-76982600D02*
X127083299Y-76957600D01*
X125085000Y-71546800D02*
X125085000Y-76586800D01*
X122198200Y-68660000D02*
X125085000Y-71546800D01*
X125480800Y-76982600D02*
X127058299Y-76982600D01*
X121842501Y-68660000D02*
X122198200Y-68660000D01*
X125085000Y-76586800D02*
X125480800Y-76982600D01*
X120850000Y-68567500D02*
X121750001Y-68567500D01*
X121750001Y-68567500D02*
X121842501Y-68660000D01*
X121342500Y-70380000D02*
X121821800Y-70380000D01*
X121250000Y-70472500D02*
X121342500Y-70380000D01*
X120850000Y-70472500D02*
X121250000Y-70472500D01*
X121821800Y-70380000D02*
X123575000Y-72133200D01*
X123575000Y-72133200D02*
X123575000Y-77323200D01*
X127083299Y-78957600D02*
X128058300Y-78957600D01*
X127058299Y-78932600D02*
X127083299Y-78957600D01*
X125184400Y-78932600D02*
X127058299Y-78932600D01*
X123575000Y-77323200D02*
X125184400Y-78932600D01*
X121250000Y-69837500D02*
X121342500Y-69930000D01*
X121342500Y-69930000D02*
X122008200Y-69930000D01*
X120850000Y-69837500D02*
X121250000Y-69837500D01*
X122008200Y-69930000D02*
X124025000Y-71946800D01*
X124025000Y-71946800D02*
X124025000Y-77136800D01*
X127083299Y-78457600D02*
X128058300Y-78457600D01*
X127058299Y-78482600D02*
X127083299Y-78457600D01*
X125370800Y-78482600D02*
X127058299Y-78482600D01*
X124025000Y-77136800D02*
X125370800Y-78482600D01*
D22*
X123052500Y-64122500D02*
X123070000Y-64140000D01*
X120850000Y-64122500D02*
X123052500Y-64122500D01*
X115572500Y-71820000D02*
X115650000Y-71742500D01*
X114537500Y-71742500D02*
X114330000Y-71950000D01*
X115650000Y-71742500D02*
X114537500Y-71742500D01*
X115557500Y-69110000D02*
X115650000Y-69202500D01*
X111997500Y-69202500D02*
X111920000Y-69280000D01*
X115650000Y-69202500D02*
X111997500Y-69202500D01*
X112812500Y-69837500D02*
X112030000Y-70620000D01*
X115650000Y-69837500D02*
X112812500Y-69837500D01*
X113090000Y-68567500D02*
X113000000Y-68477500D01*
X115650000Y-68567500D02*
X113090000Y-68567500D01*
X113587500Y-70472500D02*
X115650000Y-70472500D01*
X113230000Y-70830000D02*
X113587500Y-70472500D01*
D23*
X118750000Y-61522501D02*
X118325000Y-61947501D01*
X118750000Y-60735000D02*
X118750000Y-61522501D01*
X118325000Y-61947501D02*
X118325000Y-64451802D01*
X120357500Y-66120000D02*
X120450000Y-66027500D01*
X119993198Y-66120000D02*
X120357500Y-66120000D01*
X120450000Y-66027500D02*
X120850000Y-66027500D01*
X118325000Y-64451802D02*
X119993198Y-66120000D01*
X117450000Y-61522501D02*
X117875000Y-61947501D01*
X117450000Y-60735000D02*
X117450000Y-61522501D01*
X117875000Y-61947501D02*
X117875000Y-64638202D01*
X120450000Y-66662500D02*
X120850000Y-66662500D01*
X119806798Y-66570000D02*
X120357500Y-66570000D01*
X117875000Y-64638202D02*
X119806798Y-66570000D01*
X120357500Y-66570000D02*
X120450000Y-66662500D01*
D22*
X116400002Y-71107500D02*
X118620000Y-68887502D01*
X115650000Y-71107500D02*
X116400002Y-71107500D01*
X118620000Y-68887502D02*
X118620000Y-66580000D01*
X118620000Y-66580000D02*
X117890000Y-65850000D01*
X115827500Y-65850000D02*
X115650000Y-66027500D01*
X117890000Y-65850000D02*
X115827500Y-65850000D01*
X115650000Y-65392500D02*
X115650000Y-66662500D01*
X111380000Y-76740000D02*
X114340000Y-76740000D01*
X114340000Y-76740000D02*
X118190000Y-72890000D01*
X118190000Y-72890000D02*
X118190000Y-72060000D01*
X119142500Y-71107500D02*
X120850000Y-71107500D01*
X118190000Y-72060000D02*
X119142500Y-71107500D01*
X120850000Y-71742500D02*
X119697500Y-71742500D01*
X119697500Y-71742500D02*
X119180000Y-72260000D01*
X119180000Y-76040000D02*
X119880000Y-76740000D01*
X119180000Y-72260000D02*
X119180000Y-76040000D01*
D24*
X109747986Y-136139113D02*
X109721759Y-136200306D01*
X109718724Y-136210109D01*
X109662315Y-136396945D01*
X109649367Y-136462337D01*
X109635526Y-136527453D01*
X109634453Y-136537659D01*
X109615408Y-136731893D01*
X109615408Y-136731904D01*
X109611901Y-136767512D01*
X109611900Y-139447785D01*
X109590000Y-139445628D01*
X109575750Y-139448700D01*
X109417000Y-139607450D01*
X109417000Y-139971280D01*
X109415812Y-139959218D01*
X109379502Y-139839520D01*
X109320537Y-139729206D01*
X109241185Y-139632515D01*
X109225051Y-139619274D01*
X109228555Y-139583698D01*
X109225000Y-139547603D01*
X109225000Y-139547594D01*
X109214365Y-139439614D01*
X109172337Y-139301066D01*
X109104087Y-139173379D01*
X109050000Y-139107474D01*
X109050000Y-136807646D01*
X109768638Y-136089008D01*
X109747986Y-136139113D01*
G04 #@! TA.AperFunction,Conductor*
D25*
G36*
X109747986Y-136139113D02*
G01*
X109721759Y-136200306D01*
X109718724Y-136210109D01*
X109662315Y-136396945D01*
X109649367Y-136462337D01*
X109635526Y-136527453D01*
X109634453Y-136537659D01*
X109615408Y-136731893D01*
X109615408Y-136731904D01*
X109611901Y-136767512D01*
X109611900Y-139447785D01*
X109590000Y-139445628D01*
X109575750Y-139448700D01*
X109417000Y-139607450D01*
X109417000Y-139971280D01*
X109415812Y-139959218D01*
X109379502Y-139839520D01*
X109320537Y-139729206D01*
X109241185Y-139632515D01*
X109225051Y-139619274D01*
X109228555Y-139583698D01*
X109225000Y-139547603D01*
X109225000Y-139547594D01*
X109214365Y-139439614D01*
X109172337Y-139301066D01*
X109104087Y-139173379D01*
X109050000Y-139107474D01*
X109050000Y-136807646D01*
X109768638Y-136089008D01*
X109747986Y-136139113D01*
G37*
G04 #@! TD.AperFunction*
D24*
X131774659Y-42504212D02*
X131914971Y-42534036D01*
X131925177Y-42535109D01*
X132630388Y-42604255D01*
X133239754Y-42788234D01*
X133801775Y-43087066D01*
X134295047Y-43489370D01*
X134700784Y-43979822D01*
X135003534Y-44539745D01*
X135191760Y-45147805D01*
X135261901Y-45815149D01*
X135261900Y-131767672D01*
X135196262Y-132437106D01*
X135012283Y-133046472D01*
X134713453Y-133608488D01*
X134311150Y-134101762D01*
X133820695Y-134507501D01*
X133260773Y-134810251D01*
X132652711Y-134998477D01*
X131985378Y-135068617D01*
X111310795Y-135068617D01*
X111279396Y-135071710D01*
X111273302Y-135071667D01*
X111263088Y-135072668D01*
X111068991Y-135093069D01*
X111003743Y-135106462D01*
X110938302Y-135118946D01*
X110928477Y-135121912D01*
X110742039Y-135179624D01*
X110680620Y-135205442D01*
X110632940Y-135224706D01*
X116373075Y-129484571D01*
X126757574Y-129484571D01*
X126757574Y-130122663D01*
X126882059Y-130748494D01*
X127126246Y-131338013D01*
X127480751Y-131868567D01*
X127931950Y-132319766D01*
X128462504Y-132674271D01*
X129052023Y-132918458D01*
X129677854Y-133042943D01*
X130315946Y-133042943D01*
X130941777Y-132918458D01*
X131531296Y-132674271D01*
X132061850Y-132319766D01*
X132513049Y-131868567D01*
X132867554Y-131338013D01*
X133111741Y-130748494D01*
X133236226Y-130122663D01*
X133236226Y-129484571D01*
X133111741Y-128858740D01*
X132867554Y-128269221D01*
X132513049Y-127738667D01*
X132061850Y-127287468D01*
X131531296Y-126932963D01*
X130941777Y-126688776D01*
X130315946Y-126564291D01*
X129677854Y-126564291D01*
X129052023Y-126688776D01*
X128462504Y-126932963D01*
X127931950Y-127287468D01*
X127480751Y-127738667D01*
X127126246Y-128269221D01*
X126882059Y-128858740D01*
X126757574Y-129484571D01*
X116373075Y-129484571D01*
X120419198Y-125438449D01*
X120447237Y-125415438D01*
X120470250Y-125387397D01*
X120470253Y-125387394D01*
X120539086Y-125303521D01*
X120539087Y-125303520D01*
X120607337Y-125175833D01*
X120649365Y-125037285D01*
X120660000Y-124929305D01*
X120660000Y-124929296D01*
X120663555Y-124893201D01*
X120660000Y-124857106D01*
X120660000Y-104997646D01*
X126200046Y-99457600D01*
X129570228Y-99457600D01*
X129570228Y-101257600D01*
X129582488Y-101382082D01*
X129618798Y-101501780D01*
X129677763Y-101612094D01*
X129757115Y-101708785D01*
X129853806Y-101788137D01*
X129964120Y-101847102D01*
X130083818Y-101883412D01*
X130208300Y-101895672D01*
X132408300Y-101895672D01*
X132532782Y-101883412D01*
X132652480Y-101847102D01*
X132762794Y-101788137D01*
X132859485Y-101708785D01*
X132938837Y-101612094D01*
X132997802Y-101501780D01*
X133034112Y-101382082D01*
X133046372Y-101257600D01*
X133046372Y-99457600D01*
X133034112Y-99333118D01*
X132997802Y-99213420D01*
X132938837Y-99103106D01*
X132859485Y-99006415D01*
X132762794Y-98927063D01*
X132652480Y-98868098D01*
X132532782Y-98831788D01*
X132408300Y-98819528D01*
X130208300Y-98819528D01*
X130083818Y-98831788D01*
X129964120Y-98868098D01*
X129853806Y-98927063D01*
X129757115Y-99006415D01*
X129677763Y-99103106D01*
X129618798Y-99213420D01*
X129582488Y-99333118D01*
X129570228Y-99457600D01*
X126200046Y-99457600D01*
X126816401Y-98841246D01*
X126822884Y-98861418D01*
X126883650Y-98970750D01*
X126964578Y-99066126D01*
X127062558Y-99143882D01*
X127173825Y-99201028D01*
X127294102Y-99235370D01*
X127418768Y-99245586D01*
X127772550Y-99242600D01*
X127931300Y-99083850D01*
X127931300Y-98745672D01*
X128185300Y-98745672D01*
X128185300Y-99083850D01*
X128344050Y-99242600D01*
X128697832Y-99245586D01*
X128822498Y-99235370D01*
X128942775Y-99201028D01*
X129054042Y-99143882D01*
X129152022Y-99066126D01*
X129232950Y-98970750D01*
X129293716Y-98861418D01*
X129331985Y-98742332D01*
X129343300Y-98639350D01*
X129206025Y-98502075D01*
X129238837Y-98462094D01*
X129297802Y-98351780D01*
X129311053Y-98308097D01*
X129343300Y-98275850D01*
X129336182Y-98211065D01*
X129346372Y-98107600D01*
X129346372Y-97807600D01*
X129336523Y-97707600D01*
X129346372Y-97607600D01*
X129346372Y-97307600D01*
X129336182Y-97204135D01*
X129343300Y-97139350D01*
X129311053Y-97107103D01*
X129297802Y-97063420D01*
X129241239Y-96957600D01*
X129297802Y-96851780D01*
X129311053Y-96808097D01*
X129343300Y-96775850D01*
X129336182Y-96711065D01*
X129346372Y-96607600D01*
X129346372Y-96307600D01*
X129336523Y-96207600D01*
X129346372Y-96107600D01*
X129346372Y-95807600D01*
X129336182Y-95704135D01*
X129343300Y-95639350D01*
X129311053Y-95607103D01*
X129297802Y-95563420D01*
X129241239Y-95457600D01*
X129297802Y-95351780D01*
X129311053Y-95308097D01*
X129343300Y-95275850D01*
X129336182Y-95211065D01*
X129346372Y-95107600D01*
X129346372Y-94807600D01*
X129336523Y-94707600D01*
X129346372Y-94607600D01*
X129346372Y-94307600D01*
X129336182Y-94204135D01*
X129343300Y-94139350D01*
X129311053Y-94107103D01*
X129297802Y-94063420D01*
X129241239Y-93957600D01*
X129297802Y-93851780D01*
X129311053Y-93808097D01*
X129343300Y-93775850D01*
X129336182Y-93711065D01*
X129346372Y-93607600D01*
X129346372Y-93307600D01*
X129336523Y-93207600D01*
X129346372Y-93107600D01*
X129346372Y-92807600D01*
X129336182Y-92704135D01*
X129343300Y-92639350D01*
X129311053Y-92607103D01*
X129297802Y-92563420D01*
X129241239Y-92457600D01*
X129297802Y-92351780D01*
X129311053Y-92308097D01*
X129343300Y-92275850D01*
X129336182Y-92211065D01*
X129346372Y-92107600D01*
X129346372Y-91807600D01*
X129336523Y-91707600D01*
X129346372Y-91607600D01*
X129346372Y-91307600D01*
X129336182Y-91204135D01*
X129343300Y-91139350D01*
X129311053Y-91107103D01*
X129297802Y-91063420D01*
X129241239Y-90957600D01*
X129297802Y-90851780D01*
X129311053Y-90808097D01*
X129343300Y-90775850D01*
X129336182Y-90711065D01*
X129346372Y-90607600D01*
X129346372Y-90332377D01*
X129498102Y-90395226D01*
X129698061Y-90435000D01*
X129901939Y-90435000D01*
X130101898Y-90395226D01*
X130290256Y-90317205D01*
X130459774Y-90203937D01*
X130603937Y-90059774D01*
X130717205Y-89890256D01*
X130795226Y-89701898D01*
X130835000Y-89501939D01*
X130835000Y-89298061D01*
X130795226Y-89098102D01*
X130717205Y-88909744D01*
X130603937Y-88740226D01*
X130459774Y-88596063D01*
X130290256Y-88482795D01*
X130101898Y-88404774D01*
X129901939Y-88365000D01*
X129698061Y-88365000D01*
X129498102Y-88404774D01*
X129346372Y-88467623D01*
X129346372Y-88307600D01*
X129337508Y-88217600D01*
X130660674Y-88217600D01*
X130809744Y-88317205D01*
X130998102Y-88395226D01*
X131198061Y-88435000D01*
X131401939Y-88435000D01*
X131601898Y-88395226D01*
X131790256Y-88317205D01*
X131959774Y-88203937D01*
X132103937Y-88059774D01*
X132217205Y-87890256D01*
X132295226Y-87701898D01*
X132335000Y-87501939D01*
X132335000Y-87298061D01*
X132295226Y-87098102D01*
X132217205Y-86909744D01*
X132103937Y-86740226D01*
X131959774Y-86596063D01*
X131790256Y-86482795D01*
X131601898Y-86404774D01*
X131401939Y-86365000D01*
X131198061Y-86365000D01*
X130998102Y-86404774D01*
X130809744Y-86482795D01*
X130640226Y-86596063D01*
X130538689Y-86697600D01*
X130312298Y-86697600D01*
X130317205Y-86690256D01*
X130395226Y-86501898D01*
X130417750Y-86388660D01*
X130590256Y-86317205D01*
X130759774Y-86203937D01*
X130903937Y-86059774D01*
X131017205Y-85890256D01*
X131040093Y-85835000D01*
X131101939Y-85835000D01*
X131301898Y-85795226D01*
X131490256Y-85717205D01*
X131659774Y-85603937D01*
X131803937Y-85459774D01*
X131917205Y-85290256D01*
X131988660Y-85117750D01*
X132101898Y-85095226D01*
X132290256Y-85017205D01*
X132459774Y-84903937D01*
X132603937Y-84759774D01*
X132717205Y-84590256D01*
X132795226Y-84401898D01*
X132835000Y-84201939D01*
X132835000Y-83998061D01*
X132795226Y-83798102D01*
X132717205Y-83609744D01*
X132603937Y-83440226D01*
X132459774Y-83296063D01*
X132290256Y-83182795D01*
X132101898Y-83104774D01*
X131901939Y-83065000D01*
X131698061Y-83065000D01*
X131498102Y-83104774D01*
X131309744Y-83182795D01*
X131140226Y-83296063D01*
X131121290Y-83314999D01*
X129425924Y-83314999D01*
X129388591Y-83311322D01*
X129351258Y-83314999D01*
X129346372Y-83315480D01*
X129346372Y-83307600D01*
X129336523Y-83207600D01*
X129346372Y-83107600D01*
X129346372Y-82807600D01*
X129336523Y-82707600D01*
X129346372Y-82607600D01*
X129346372Y-82307600D01*
X129336523Y-82207600D01*
X129346372Y-82107600D01*
X129346372Y-81807600D01*
X129336523Y-81707600D01*
X129346372Y-81607600D01*
X129346372Y-81307600D01*
X129336523Y-81207600D01*
X129346372Y-81107600D01*
X129346372Y-80807600D01*
X129336523Y-80707600D01*
X129346372Y-80607600D01*
X129346372Y-80307600D01*
X129336523Y-80207600D01*
X129346372Y-80107600D01*
X129346372Y-79807600D01*
X129336182Y-79704135D01*
X129343300Y-79639350D01*
X129311053Y-79607103D01*
X129297802Y-79563420D01*
X129241239Y-79457600D01*
X129297802Y-79351780D01*
X129311053Y-79308097D01*
X129343300Y-79275850D01*
X129336182Y-79211065D01*
X129346372Y-79107600D01*
X129346372Y-78807600D01*
X129336523Y-78707600D01*
X129346372Y-78607600D01*
X129346372Y-78307600D01*
X129336182Y-78204135D01*
X129343300Y-78139350D01*
X129311053Y-78107103D01*
X129297802Y-78063420D01*
X129241239Y-77957600D01*
X129297802Y-77851780D01*
X129311053Y-77808097D01*
X129343300Y-77775850D01*
X129336182Y-77711065D01*
X129346372Y-77607600D01*
X129346372Y-77307600D01*
X129336523Y-77207600D01*
X129346372Y-77107600D01*
X129346372Y-76807600D01*
X129336182Y-76704135D01*
X129343300Y-76639350D01*
X129311053Y-76607103D01*
X129297802Y-76563420D01*
X129241239Y-76457600D01*
X129297802Y-76351780D01*
X129311053Y-76308097D01*
X129343300Y-76275850D01*
X129336182Y-76211065D01*
X129346372Y-76107600D01*
X129346372Y-75807600D01*
X129336523Y-75707600D01*
X129346372Y-75607600D01*
X129346372Y-75307600D01*
X129336182Y-75204135D01*
X129343300Y-75139350D01*
X129311053Y-75107103D01*
X129297802Y-75063420D01*
X129240758Y-74956701D01*
X129293716Y-74861418D01*
X129310755Y-74808395D01*
X129343300Y-74775850D01*
X129335801Y-74707600D01*
X129343300Y-74639350D01*
X129310755Y-74606805D01*
X129293716Y-74553782D01*
X129240259Y-74457600D01*
X129293716Y-74361418D01*
X129310755Y-74308395D01*
X129343300Y-74275850D01*
X129335801Y-74207600D01*
X129343300Y-74139350D01*
X129310755Y-74106805D01*
X129293716Y-74053782D01*
X129232950Y-73944450D01*
X129206212Y-73912938D01*
X129343300Y-73775850D01*
X129331985Y-73672868D01*
X129293716Y-73553782D01*
X129232950Y-73444450D01*
X129152022Y-73349074D01*
X129054042Y-73271318D01*
X128942775Y-73214172D01*
X128822498Y-73179830D01*
X128697832Y-73169614D01*
X128344050Y-73172600D01*
X128185300Y-73331350D01*
X128185300Y-74104600D01*
X127931300Y-74104600D01*
X127931300Y-73331350D01*
X127772550Y-73172600D01*
X127418768Y-73169614D01*
X127294102Y-73179830D01*
X127173825Y-73214172D01*
X127062558Y-73271318D01*
X126964578Y-73349074D01*
X126883650Y-73444450D01*
X126850000Y-73504994D01*
X126850000Y-71252894D01*
X126853555Y-71216799D01*
X126850000Y-71180704D01*
X126850000Y-71180695D01*
X126847726Y-71157600D01*
X129570228Y-71157600D01*
X129570228Y-72957600D01*
X129582488Y-73082082D01*
X129618798Y-73201780D01*
X129677763Y-73312094D01*
X129757115Y-73408785D01*
X129853806Y-73488137D01*
X129964120Y-73547102D01*
X130083818Y-73583412D01*
X130208300Y-73595672D01*
X132408300Y-73595672D01*
X132532782Y-73583412D01*
X132652480Y-73547102D01*
X132762794Y-73488137D01*
X132859485Y-73408785D01*
X132938837Y-73312094D01*
X132997802Y-73201780D01*
X133034112Y-73082082D01*
X133046372Y-72957600D01*
X133046372Y-71157600D01*
X133034112Y-71033118D01*
X132997802Y-70913420D01*
X132938837Y-70803106D01*
X132859485Y-70706415D01*
X132762794Y-70627063D01*
X132652480Y-70568098D01*
X132532782Y-70531788D01*
X132408300Y-70519528D01*
X130208300Y-70519528D01*
X130083818Y-70531788D01*
X129964120Y-70568098D01*
X129853806Y-70627063D01*
X129757115Y-70706415D01*
X129677763Y-70803106D01*
X129618798Y-70913420D01*
X129582488Y-71033118D01*
X129570228Y-71157600D01*
X126847726Y-71157600D01*
X126839365Y-71072715D01*
X126797337Y-70934167D01*
X126729087Y-70806480D01*
X126692109Y-70761423D01*
X126660253Y-70722606D01*
X126660250Y-70722603D01*
X126637237Y-70694562D01*
X126609197Y-70671550D01*
X123893397Y-67955750D01*
X124725000Y-67955750D01*
X124734765Y-68077348D01*
X124771623Y-68196878D01*
X124831092Y-68306921D01*
X124910887Y-68403247D01*
X125007941Y-68482156D01*
X125118524Y-68540614D01*
X125238387Y-68576375D01*
X125362923Y-68588065D01*
X125384250Y-68585000D01*
X125543000Y-68426250D01*
X125543000Y-67797000D01*
X125797000Y-67797000D01*
X125797000Y-68426250D01*
X125955750Y-68585000D01*
X125977077Y-68588065D01*
X126101613Y-68576375D01*
X126221476Y-68540614D01*
X126330000Y-68483244D01*
X126438524Y-68540614D01*
X126558387Y-68576375D01*
X126682923Y-68588065D01*
X126704250Y-68585000D01*
X126863000Y-68426250D01*
X126863000Y-67797000D01*
X127117000Y-67797000D01*
X127117000Y-68426250D01*
X127275750Y-68585000D01*
X127297077Y-68588065D01*
X127421613Y-68576375D01*
X127541476Y-68540614D01*
X127652059Y-68482156D01*
X127749113Y-68403247D01*
X127828908Y-68306921D01*
X127888377Y-68196878D01*
X127925235Y-68077348D01*
X127935000Y-67955750D01*
X127776250Y-67797000D01*
X127117000Y-67797000D01*
X126863000Y-67797000D01*
X125797000Y-67797000D01*
X125543000Y-67797000D01*
X124883750Y-67797000D01*
X124725000Y-67955750D01*
X123893397Y-67955750D01*
X122833459Y-66895813D01*
X122810438Y-66867762D01*
X122765049Y-66830512D01*
X122841898Y-66815226D01*
X123030256Y-66737205D01*
X123199774Y-66623937D01*
X123243711Y-66580000D01*
X124465199Y-66580000D01*
X124721928Y-66836730D01*
X124721928Y-66850000D01*
X124736878Y-67001794D01*
X124776828Y-67133491D01*
X124771623Y-67143122D01*
X124734765Y-67262652D01*
X124725000Y-67384250D01*
X124883750Y-67543000D01*
X125153892Y-67543000D01*
X125202245Y-67568845D01*
X125348206Y-67613122D01*
X125500000Y-67628072D01*
X125840000Y-67628072D01*
X125991794Y-67613122D01*
X126137755Y-67568845D01*
X126186108Y-67543000D01*
X126473892Y-67543000D01*
X126522245Y-67568845D01*
X126668206Y-67613122D01*
X126820000Y-67628072D01*
X127160000Y-67628072D01*
X127311794Y-67613122D01*
X127457755Y-67568845D01*
X127506108Y-67543000D01*
X127776250Y-67543000D01*
X127935000Y-67384250D01*
X127925235Y-67262652D01*
X127888377Y-67143122D01*
X127883172Y-67133491D01*
X127923122Y-67001794D01*
X127938072Y-66850000D01*
X127938072Y-66570000D01*
X127923122Y-66418206D01*
X127878845Y-66272245D01*
X127806943Y-66137726D01*
X127758668Y-66078903D01*
X127857755Y-66048845D01*
X127992274Y-65976943D01*
X128110180Y-65880180D01*
X128206943Y-65762274D01*
X128278845Y-65627755D01*
X128323122Y-65481794D01*
X128338072Y-65330000D01*
X128338072Y-65050000D01*
X128323122Y-64898206D01*
X128283172Y-64766509D01*
X128288377Y-64756878D01*
X128325235Y-64637348D01*
X128335000Y-64515750D01*
X128176250Y-64357000D01*
X127906108Y-64357000D01*
X127857755Y-64331155D01*
X127711794Y-64286878D01*
X127560000Y-64271928D01*
X127220000Y-64271928D01*
X127068206Y-64286878D01*
X126922245Y-64331155D01*
X126873892Y-64357000D01*
X126603750Y-64357000D01*
X126565000Y-64395750D01*
X126456250Y-64287000D01*
X126186108Y-64287000D01*
X126137755Y-64261155D01*
X125991794Y-64216878D01*
X125840000Y-64201928D01*
X125500000Y-64201928D01*
X125348206Y-64216878D01*
X125202245Y-64261155D01*
X125153892Y-64287000D01*
X124883750Y-64287000D01*
X124870000Y-64300750D01*
X124836250Y-64267000D01*
X124217000Y-64267000D01*
X124217000Y-64287000D01*
X123978072Y-64287000D01*
X123978072Y-63955000D01*
X123963218Y-63804181D01*
X123963000Y-63803462D01*
X123963000Y-63343750D01*
X124217000Y-63343750D01*
X124217000Y-64013000D01*
X124836250Y-64013000D01*
X124850000Y-63999250D01*
X124883750Y-64033000D01*
X125543000Y-64033000D01*
X125543000Y-63403750D01*
X125797000Y-63403750D01*
X125797000Y-64033000D01*
X126456250Y-64033000D01*
X126495000Y-63994250D01*
X126603750Y-64103000D01*
X127263000Y-64103000D01*
X127263000Y-63473750D01*
X127517000Y-63473750D01*
X127517000Y-64103000D01*
X128176250Y-64103000D01*
X128335000Y-63944250D01*
X128325235Y-63822652D01*
X128288377Y-63703122D01*
X128228908Y-63593079D01*
X128149113Y-63496753D01*
X128052059Y-63417844D01*
X127941476Y-63359386D01*
X127821613Y-63323625D01*
X127697077Y-63311935D01*
X127675750Y-63315000D01*
X127517000Y-63473750D01*
X127263000Y-63473750D01*
X127104250Y-63315000D01*
X127082923Y-63311935D01*
X126958387Y-63323625D01*
X126838524Y-63359386D01*
X126727941Y-63417844D01*
X126630887Y-63496753D01*
X126551092Y-63593079D01*
X126548915Y-63597108D01*
X126508908Y-63523079D01*
X126429113Y-63426753D01*
X126332059Y-63347844D01*
X126221476Y-63289386D01*
X126101613Y-63253625D01*
X125977077Y-63241935D01*
X125955750Y-63245000D01*
X125797000Y-63403750D01*
X125543000Y-63403750D01*
X125384250Y-63245000D01*
X125362923Y-63241935D01*
X125238387Y-63253625D01*
X125118524Y-63289386D01*
X125007941Y-63347844D01*
X124910887Y-63426753D01*
X124884291Y-63458859D01*
X124816724Y-63374422D01*
X124721020Y-63293882D01*
X124611442Y-63233559D01*
X124492202Y-63195774D01*
X124375750Y-63185000D01*
X124217000Y-63343750D01*
X123963000Y-63343750D01*
X123804250Y-63185000D01*
X123687798Y-63195774D01*
X123568558Y-63233559D01*
X123528549Y-63255584D01*
X123500842Y-63240775D01*
X123355819Y-63196782D01*
X123205000Y-63181928D01*
X122935000Y-63181928D01*
X122784181Y-63196782D01*
X122639158Y-63240775D01*
X122505504Y-63312214D01*
X122444231Y-63362500D01*
X121749373Y-63362500D01*
X121694180Y-63332998D01*
X121574482Y-63296688D01*
X121450000Y-63284428D01*
X120250000Y-63284428D01*
X120125518Y-63296688D01*
X120005820Y-63332998D01*
X119895506Y-63391963D01*
X119798815Y-63471315D01*
X119719463Y-63568006D01*
X119660498Y-63678320D01*
X119624188Y-63798018D01*
X119611928Y-63922500D01*
X119611928Y-64322500D01*
X119623500Y-64440000D01*
X119611928Y-64557500D01*
X119611928Y-64699284D01*
X119060000Y-64147356D01*
X119060000Y-62251947D01*
X119244187Y-62067760D01*
X119272238Y-62044739D01*
X119364087Y-61932821D01*
X119432337Y-61805134D01*
X119474365Y-61666586D01*
X119479354Y-61615936D01*
X119480537Y-61614494D01*
X119539502Y-61504180D01*
X119575812Y-61384482D01*
X119588072Y-61260000D01*
X119588072Y-60210000D01*
X119575812Y-60085518D01*
X119539502Y-59965820D01*
X119480537Y-59855506D01*
X119443191Y-59810000D01*
X119480537Y-59764494D01*
X119539502Y-59654180D01*
X119575812Y-59534482D01*
X119588072Y-59410000D01*
X119588072Y-58360000D01*
X119575812Y-58235518D01*
X119539502Y-58115820D01*
X119508546Y-58057907D01*
X119499003Y-57961014D01*
X119455546Y-57817753D01*
X119384974Y-57685724D01*
X119290001Y-57569999D01*
X119261003Y-57546201D01*
X117783804Y-56069003D01*
X117760001Y-56039999D01*
X117644276Y-55945026D01*
X117512247Y-55874454D01*
X117368986Y-55830997D01*
X117257333Y-55820000D01*
X117257322Y-55820000D01*
X117220000Y-55816324D01*
X117182678Y-55820000D01*
X114604802Y-55820000D01*
X114220243Y-55435442D01*
X114295135Y-55454023D01*
X114570017Y-55466910D01*
X114842133Y-55425922D01*
X115101023Y-55332636D01*
X115216980Y-55270656D01*
X115283960Y-55030565D01*
X114498000Y-54244605D01*
X114483858Y-54258748D01*
X114304253Y-54079143D01*
X114318395Y-54065000D01*
X114677605Y-54065000D01*
X115463565Y-54850960D01*
X115703656Y-54783980D01*
X115820756Y-54534952D01*
X115887023Y-54267865D01*
X115899910Y-53992983D01*
X115858922Y-53720867D01*
X115765636Y-53461977D01*
X115703656Y-53346020D01*
X115463565Y-53279040D01*
X114677605Y-54065000D01*
X114318395Y-54065000D01*
X113532435Y-53279040D01*
X113292344Y-53346020D01*
X113250314Y-53435403D01*
X113237005Y-53403273D01*
X113084120Y-53174465D01*
X113009090Y-53099435D01*
X113712040Y-53099435D01*
X114498000Y-53885395D01*
X115283960Y-53099435D01*
X115216980Y-52859344D01*
X114967952Y-52742244D01*
X114966969Y-52742000D01*
X116362000Y-52742000D01*
X116362000Y-53442000D01*
X116410507Y-53680496D01*
X116504610Y-53904946D01*
X116640693Y-54106725D01*
X116813526Y-54278078D01*
X117016467Y-54412421D01*
X117241718Y-54504591D01*
X117279391Y-54508462D01*
X117470000Y-54383731D01*
X117470000Y-52742000D01*
X117724000Y-52742000D01*
X117724000Y-54383731D01*
X117914609Y-54508462D01*
X117952282Y-54504591D01*
X118177533Y-54412421D01*
X118380474Y-54278078D01*
X118553307Y-54106725D01*
X118689390Y-53904946D01*
X118783493Y-53680496D01*
X118832000Y-53442000D01*
X118832000Y-52742000D01*
X117724000Y-52742000D01*
X117470000Y-52742000D01*
X116362000Y-52742000D01*
X114966969Y-52742000D01*
X114700865Y-52675977D01*
X114425983Y-52663090D01*
X114153867Y-52704078D01*
X113894977Y-52797364D01*
X113779020Y-52859344D01*
X113712040Y-53099435D01*
X113009090Y-53099435D01*
X112889535Y-52979880D01*
X112660727Y-52826995D01*
X112406490Y-52721686D01*
X112136592Y-52668000D01*
X111861408Y-52668000D01*
X111591510Y-52721686D01*
X111337273Y-52826995D01*
X111108465Y-52979880D01*
X110998000Y-53090345D01*
X110887535Y-52979880D01*
X110658727Y-52826995D01*
X110404490Y-52721686D01*
X110134592Y-52668000D01*
X109859408Y-52668000D01*
X109589510Y-52721686D01*
X109335273Y-52826995D01*
X109106465Y-52979880D01*
X108911880Y-53174465D01*
X108758995Y-53403273D01*
X108747500Y-53431024D01*
X108736005Y-53403273D01*
X108583120Y-53174465D01*
X108388535Y-52979880D01*
X108159727Y-52826995D01*
X107905490Y-52721686D01*
X107635592Y-52668000D01*
X107360408Y-52668000D01*
X107090510Y-52721686D01*
X106836273Y-52826995D01*
X106607465Y-52979880D01*
X106412880Y-53174465D01*
X106259995Y-53403273D01*
X106154686Y-53657510D01*
X106101000Y-53927408D01*
X106101000Y-54202592D01*
X106154686Y-54472490D01*
X106259995Y-54726727D01*
X106412880Y-54955535D01*
X106607465Y-55150120D01*
X106621160Y-55159271D01*
X106621161Y-57004037D01*
X96960199Y-66665000D01*
X96898061Y-66665000D01*
X96698102Y-66704774D01*
X96509744Y-66782795D01*
X96340226Y-66896063D01*
X96196063Y-67040226D01*
X96082795Y-67209744D01*
X96004774Y-67398102D01*
X95965000Y-67598061D01*
X95965000Y-67801939D01*
X96004774Y-68001898D01*
X96082795Y-68190256D01*
X96196063Y-68359774D01*
X96340226Y-68503937D01*
X96509744Y-68617205D01*
X96698102Y-68695226D01*
X96898061Y-68735000D01*
X97101939Y-68735000D01*
X97301898Y-68695226D01*
X97490256Y-68617205D01*
X97659774Y-68503937D01*
X97803937Y-68359774D01*
X97917205Y-68190256D01*
X97995226Y-68001898D01*
X98035000Y-67801939D01*
X98035000Y-67739801D01*
X107892163Y-57882639D01*
X107921161Y-57858841D01*
X108016134Y-57743116D01*
X108086706Y-57611087D01*
X108130163Y-57467826D01*
X108141160Y-57356173D01*
X108141160Y-57356164D01*
X108144836Y-57318841D01*
X108141160Y-57281518D01*
X108141160Y-55310696D01*
X108159727Y-55303005D01*
X108388535Y-55150120D01*
X108583120Y-54955535D01*
X108736005Y-54726727D01*
X108747500Y-54698976D01*
X108758995Y-54726727D01*
X108911880Y-54955535D01*
X109106465Y-55150120D01*
X109335273Y-55303005D01*
X109589510Y-55408314D01*
X109859408Y-55462000D01*
X110097199Y-55462000D01*
X113146200Y-58511002D01*
X113169999Y-58540001D01*
X113198997Y-58563799D01*
X113285723Y-58634974D01*
X113353542Y-58671224D01*
X113417753Y-58705546D01*
X113561014Y-58749003D01*
X113672667Y-58760000D01*
X113672677Y-58760000D01*
X113710000Y-58763676D01*
X113747323Y-58760000D01*
X116155199Y-58760000D01*
X116611928Y-59216730D01*
X116611928Y-59410000D01*
X116624188Y-59534482D01*
X116660498Y-59654180D01*
X116719463Y-59764494D01*
X116756809Y-59810000D01*
X116719463Y-59855506D01*
X116660498Y-59965820D01*
X116624188Y-60085518D01*
X116611928Y-60210000D01*
X116611928Y-61260000D01*
X116624188Y-61384482D01*
X116660498Y-61504180D01*
X116719463Y-61614494D01*
X116720646Y-61615936D01*
X116725635Y-61666586D01*
X116767664Y-61805134D01*
X116835914Y-61932821D01*
X116927763Y-62044739D01*
X116955808Y-62067755D01*
X117140000Y-62251947D01*
X117140001Y-64602087D01*
X117136444Y-64638202D01*
X117150635Y-64782287D01*
X117191273Y-64916250D01*
X117192664Y-64920835D01*
X117260914Y-65048522D01*
X117294954Y-65090000D01*
X116877977Y-65090000D01*
X116876500Y-65075000D01*
X116888072Y-64957500D01*
X116888072Y-64557500D01*
X116876500Y-64440000D01*
X116888072Y-64322500D01*
X116888072Y-63922500D01*
X116875812Y-63798018D01*
X116839502Y-63678320D01*
X116780537Y-63568006D01*
X116701185Y-63471315D01*
X116604494Y-63391963D01*
X116494180Y-63332998D01*
X116374482Y-63296688D01*
X116250000Y-63284428D01*
X115050000Y-63284428D01*
X114925518Y-63296688D01*
X114805820Y-63332998D01*
X114701588Y-63388712D01*
X114605914Y-63398135D01*
X114467366Y-63440163D01*
X114392836Y-63480000D01*
X111662906Y-63480000D01*
X111626801Y-63476444D01*
X111626271Y-63476496D01*
X111559024Y-63431563D01*
X111370666Y-63353542D01*
X111170707Y-63313768D01*
X110966829Y-63313768D01*
X110766870Y-63353542D01*
X110578512Y-63431563D01*
X110408994Y-63544831D01*
X110264831Y-63688994D01*
X110151563Y-63858512D01*
X110073542Y-64046870D01*
X110033768Y-64246829D01*
X110033768Y-64450707D01*
X110073542Y-64650666D01*
X110151563Y-64839024D01*
X110264831Y-65008542D01*
X110408994Y-65152705D01*
X110578512Y-65265973D01*
X110766870Y-65343994D01*
X110807854Y-65352146D01*
X110816006Y-65393130D01*
X110894027Y-65581488D01*
X111007295Y-65751006D01*
X111151458Y-65895169D01*
X111320976Y-66008437D01*
X111509334Y-66086458D01*
X111709293Y-66126232D01*
X111913171Y-66126232D01*
X112113130Y-66086458D01*
X112301488Y-66008437D01*
X112471006Y-65895169D01*
X112615169Y-65751006D01*
X112728437Y-65581488D01*
X112803612Y-65400000D01*
X114392836Y-65400000D01*
X114411928Y-65410205D01*
X114411928Y-65592500D01*
X114423500Y-65710000D01*
X114411928Y-65827500D01*
X114411928Y-66227500D01*
X114423500Y-66345000D01*
X114411928Y-66462500D01*
X114411928Y-66537500D01*
X111139822Y-66537500D01*
X111102499Y-66533824D01*
X111065176Y-66537500D01*
X111065167Y-66537500D01*
X110953514Y-66548497D01*
X110812412Y-66591299D01*
X110810253Y-66591954D01*
X110678223Y-66662526D01*
X110615399Y-66714085D01*
X110562499Y-66757499D01*
X110538701Y-66786497D01*
X107079003Y-70246196D01*
X107049999Y-70269999D01*
X107020636Y-70305779D01*
X107017348Y-70304765D01*
X106895750Y-70295000D01*
X106737000Y-70453750D01*
X106737000Y-70723892D01*
X106711155Y-70772245D01*
X106666878Y-70918206D01*
X106651928Y-71070000D01*
X106651928Y-71410000D01*
X106666878Y-71561794D01*
X106711155Y-71707755D01*
X106737000Y-71756108D01*
X106737000Y-72026250D01*
X106830000Y-72119250D01*
X106830001Y-79895197D01*
X97860000Y-88865199D01*
X97860000Y-71547077D01*
X105691935Y-71547077D01*
X105703625Y-71671613D01*
X105739386Y-71791476D01*
X105797844Y-71902059D01*
X105876753Y-71999113D01*
X105973079Y-72078908D01*
X106083122Y-72138377D01*
X106202652Y-72175235D01*
X106324250Y-72185000D01*
X106483000Y-72026250D01*
X106483000Y-71367000D01*
X105853750Y-71367000D01*
X105695000Y-71525750D01*
X105691935Y-71547077D01*
X97860000Y-71547077D01*
X97860000Y-71500499D01*
X98427576Y-70932923D01*
X105691935Y-70932923D01*
X105695000Y-70954250D01*
X105853750Y-71113000D01*
X106483000Y-71113000D01*
X106483000Y-70453750D01*
X106324250Y-70295000D01*
X106202652Y-70304765D01*
X106083122Y-70341623D01*
X105973079Y-70401092D01*
X105876753Y-70480887D01*
X105797844Y-70577941D01*
X105739386Y-70688524D01*
X105703625Y-70808387D01*
X105691935Y-70932923D01*
X98427576Y-70932923D01*
X104532651Y-64827849D01*
X104594788Y-64827849D01*
X104794747Y-64788075D01*
X104983105Y-64710054D01*
X105152623Y-64596786D01*
X105296786Y-64452623D01*
X105410054Y-64283105D01*
X105488075Y-64094747D01*
X105527849Y-63894788D01*
X105527849Y-63690910D01*
X105488075Y-63490951D01*
X105410054Y-63302593D01*
X105296786Y-63133075D01*
X105152623Y-62988912D01*
X104983105Y-62875644D01*
X104794747Y-62797623D01*
X104594788Y-62757849D01*
X104390910Y-62757849D01*
X104190951Y-62797623D01*
X104002593Y-62875644D01*
X103833075Y-62988912D01*
X103688912Y-63133075D01*
X103575644Y-63302593D01*
X103497623Y-63490951D01*
X103457849Y-63690910D01*
X103457849Y-63753047D01*
X97100000Y-70110896D01*
X85678106Y-58689003D01*
X85654303Y-58659999D01*
X85612872Y-58625997D01*
X85612872Y-57795500D01*
X85600612Y-57671018D01*
X85564302Y-57551320D01*
X85534800Y-57496127D01*
X85534800Y-55351852D01*
X85652727Y-55303005D01*
X85881535Y-55150120D01*
X86001090Y-55030565D01*
X86704040Y-55030565D01*
X86771020Y-55270656D01*
X87020048Y-55387756D01*
X87287135Y-55454023D01*
X87562017Y-55466910D01*
X87834133Y-55425922D01*
X88093023Y-55332636D01*
X88208980Y-55270656D01*
X88275960Y-55030565D01*
X87490000Y-54244605D01*
X86704040Y-55030565D01*
X86001090Y-55030565D01*
X86076120Y-54955535D01*
X86229005Y-54726727D01*
X86239805Y-54700653D01*
X86284344Y-54783980D01*
X86524435Y-54850960D01*
X87310395Y-54065000D01*
X87669605Y-54065000D01*
X88455565Y-54850960D01*
X88695656Y-54783980D01*
X88812756Y-54534952D01*
X88879023Y-54267865D01*
X88891910Y-53992983D01*
X88850922Y-53720867D01*
X88757636Y-53461977D01*
X88695656Y-53346020D01*
X88455565Y-53279040D01*
X87669605Y-54065000D01*
X87310395Y-54065000D01*
X86524435Y-53279040D01*
X86284344Y-53346020D01*
X86242314Y-53435403D01*
X86229005Y-53403273D01*
X86076120Y-53174465D01*
X86001090Y-53099435D01*
X86704040Y-53099435D01*
X87490000Y-53885395D01*
X88275960Y-53099435D01*
X88208980Y-52859344D01*
X87959952Y-52742244D01*
X87958969Y-52742000D01*
X89354000Y-52742000D01*
X89354000Y-53442000D01*
X89402507Y-53680496D01*
X89496610Y-53904946D01*
X89632693Y-54106725D01*
X89805526Y-54278078D01*
X90008467Y-54412421D01*
X90233718Y-54504591D01*
X90271391Y-54508462D01*
X90462000Y-54383731D01*
X90462000Y-52742000D01*
X90716000Y-52742000D01*
X90716000Y-54383731D01*
X90906609Y-54508462D01*
X90944282Y-54504591D01*
X91169533Y-54412421D01*
X91372474Y-54278078D01*
X91545307Y-54106725D01*
X91681390Y-53904946D01*
X91775493Y-53680496D01*
X91824000Y-53442000D01*
X91824000Y-52742000D01*
X103164000Y-52742000D01*
X103164000Y-53442000D01*
X103212507Y-53680496D01*
X103306610Y-53904946D01*
X103442693Y-54106725D01*
X103615526Y-54278078D01*
X103818467Y-54412421D01*
X104043718Y-54504591D01*
X104081391Y-54508462D01*
X104272000Y-54383731D01*
X104272000Y-52742000D01*
X104526000Y-52742000D01*
X104526000Y-54383731D01*
X104716609Y-54508462D01*
X104754282Y-54504591D01*
X104979533Y-54412421D01*
X105182474Y-54278078D01*
X105355307Y-54106725D01*
X105491390Y-53904946D01*
X105585493Y-53680496D01*
X105634000Y-53442000D01*
X105634000Y-52742000D01*
X104526000Y-52742000D01*
X104272000Y-52742000D01*
X103164000Y-52742000D01*
X91824000Y-52742000D01*
X90716000Y-52742000D01*
X90462000Y-52742000D01*
X89354000Y-52742000D01*
X87958969Y-52742000D01*
X87692865Y-52675977D01*
X87417983Y-52663090D01*
X87145867Y-52704078D01*
X86886977Y-52797364D01*
X86771020Y-52859344D01*
X86704040Y-53099435D01*
X86001090Y-53099435D01*
X85881535Y-52979880D01*
X85652727Y-52826995D01*
X85398490Y-52721686D01*
X85128592Y-52668000D01*
X84853408Y-52668000D01*
X84583510Y-52721686D01*
X84329273Y-52826995D01*
X84100465Y-52979880D01*
X83990000Y-53090345D01*
X83879535Y-52979880D01*
X83650727Y-52826995D01*
X83396490Y-52721686D01*
X83126592Y-52668000D01*
X82851408Y-52668000D01*
X82581510Y-52721686D01*
X82327273Y-52826995D01*
X82098465Y-52979880D01*
X81903880Y-53174465D01*
X81750995Y-53403273D01*
X81739500Y-53431024D01*
X81728005Y-53403273D01*
X81575120Y-53174465D01*
X81380535Y-52979880D01*
X81151727Y-52826995D01*
X80897490Y-52721686D01*
X80627592Y-52668000D01*
X80352408Y-52668000D01*
X80082510Y-52721686D01*
X79828273Y-52826995D01*
X79599465Y-52979880D01*
X79404880Y-53174465D01*
X79251995Y-53403273D01*
X79146686Y-53657510D01*
X79093000Y-53927408D01*
X79093000Y-54202592D01*
X79146686Y-54472490D01*
X79251995Y-54726727D01*
X79404880Y-54955535D01*
X79599465Y-55150120D01*
X79828273Y-55303005D01*
X79854640Y-55313927D01*
X79854641Y-72277307D01*
X79850964Y-72314640D01*
X79854641Y-72351973D01*
X79864104Y-72448046D01*
X79865638Y-72463625D01*
X79909094Y-72606886D01*
X79979666Y-72738916D01*
X80050841Y-72825642D01*
X80074640Y-72854641D01*
X80103638Y-72878439D01*
X84875198Y-77650000D01*
X74689007Y-87836192D01*
X74688996Y-87836201D01*
X69804898Y-92720301D01*
X69775900Y-92744099D01*
X69752102Y-92773097D01*
X69752101Y-92773098D01*
X69680926Y-92859824D01*
X69610354Y-92991854D01*
X69587825Y-93066126D01*
X69566898Y-93135114D01*
X69565435Y-93149967D01*
X69552224Y-93284100D01*
X69555901Y-93321432D01*
X69555901Y-93759041D01*
X69554150Y-93758900D01*
X69395400Y-93917650D01*
X69395400Y-94187792D01*
X69369555Y-94236145D01*
X69325278Y-94382106D01*
X69310328Y-94533900D01*
X69310328Y-94873900D01*
X69325278Y-95025694D01*
X69345300Y-95091697D01*
X69345299Y-96519051D01*
X69282299Y-96582051D01*
X69282299Y-96664160D01*
X69249762Y-96703807D01*
X69190797Y-96814121D01*
X69155299Y-96931142D01*
X69119801Y-96814121D01*
X69060836Y-96703807D01*
X69028299Y-96664160D01*
X69028299Y-96582051D01*
X68869549Y-96423301D01*
X68830299Y-96420229D01*
X68705817Y-96432489D01*
X68680299Y-96440230D01*
X68654781Y-96432489D01*
X68530299Y-96420229D01*
X67880299Y-96420229D01*
X67755817Y-96432489D01*
X67636119Y-96468799D01*
X67525805Y-96527764D01*
X67429114Y-96607116D01*
X67349762Y-96703807D01*
X67290797Y-96814121D01*
X67254487Y-96933819D01*
X67242227Y-97058301D01*
X67242227Y-97284600D01*
X66697187Y-97284600D01*
X66702900Y-97222850D01*
X66544150Y-97064100D01*
X66084438Y-97064100D01*
X66083719Y-97063882D01*
X65932900Y-97049028D01*
X65562900Y-97049028D01*
X65412081Y-97063882D01*
X65411362Y-97064100D01*
X64951650Y-97064100D01*
X64792900Y-97222850D01*
X64803674Y-97339302D01*
X64841459Y-97458542D01*
X64863484Y-97498551D01*
X64848675Y-97526258D01*
X64804682Y-97671281D01*
X64789828Y-97822100D01*
X64789828Y-98092100D01*
X64804682Y-98242919D01*
X64848675Y-98387942D01*
X64920114Y-98521596D01*
X65016256Y-98638744D01*
X65133404Y-98734886D01*
X65267058Y-98806325D01*
X65412081Y-98850318D01*
X65562900Y-98865172D01*
X65932900Y-98865172D01*
X66083719Y-98850318D01*
X66228742Y-98806325D01*
X66231969Y-98804600D01*
X67273239Y-98804600D01*
X67290797Y-98862481D01*
X67349762Y-98972795D01*
X67429114Y-99069486D01*
X67525805Y-99148838D01*
X67599634Y-99188301D01*
X67525805Y-99227764D01*
X67429114Y-99307116D01*
X67349762Y-99403807D01*
X67290797Y-99514121D01*
X67254487Y-99633819D01*
X67242227Y-99758301D01*
X67242227Y-99778301D01*
X66503424Y-99778301D01*
X66466099Y-99774625D01*
X66428774Y-99778301D01*
X66428766Y-99778301D01*
X66317113Y-99789298D01*
X66173852Y-99832755D01*
X66041823Y-99903327D01*
X65926098Y-99998300D01*
X65902300Y-100027299D01*
X65486107Y-100443491D01*
X65412081Y-100450782D01*
X65267058Y-100494775D01*
X65133404Y-100566214D01*
X65016256Y-100662356D01*
X64920114Y-100779504D01*
X64848675Y-100913158D01*
X64804682Y-101058181D01*
X64789828Y-101209000D01*
X64789828Y-101479000D01*
X64804682Y-101629819D01*
X64848675Y-101774842D01*
X64890986Y-101854000D01*
X64848675Y-101933158D01*
X64804682Y-102078181D01*
X64789828Y-102229000D01*
X64789828Y-102499000D01*
X64804682Y-102649819D01*
X64848675Y-102794842D01*
X64920114Y-102928496D01*
X65016256Y-103045644D01*
X65133404Y-103141786D01*
X65267058Y-103213225D01*
X65412081Y-103257218D01*
X65562900Y-103272072D01*
X65932900Y-103272072D01*
X66083719Y-103257218D01*
X66228742Y-103213225D01*
X66231969Y-103211500D01*
X68777798Y-103211500D01*
X69209338Y-103643040D01*
X69216178Y-103712494D01*
X69260455Y-103858455D01*
X69332357Y-103992974D01*
X69429120Y-104110880D01*
X69547026Y-104207643D01*
X69681545Y-104279545D01*
X69827506Y-104323822D01*
X69979300Y-104338772D01*
X70259300Y-104338772D01*
X70411094Y-104323822D01*
X70542791Y-104283872D01*
X70552422Y-104289077D01*
X70671952Y-104325935D01*
X70793550Y-104335700D01*
X70952300Y-104176950D01*
X70952300Y-103906808D01*
X70978145Y-103858455D01*
X71022422Y-103712494D01*
X71037372Y-103560700D01*
X71037372Y-103517700D01*
X71206300Y-103517700D01*
X71206300Y-104176950D01*
X71365050Y-104335700D01*
X71486648Y-104325935D01*
X71606178Y-104289077D01*
X71716221Y-104229608D01*
X71812547Y-104149813D01*
X71891456Y-104052759D01*
X71949914Y-103942176D01*
X71985675Y-103822313D01*
X71997365Y-103697777D01*
X71994300Y-103676450D01*
X71835550Y-103517700D01*
X71206300Y-103517700D01*
X71037372Y-103517700D01*
X71037372Y-103220700D01*
X71022422Y-103068906D01*
X70978145Y-102922945D01*
X70952300Y-102874592D01*
X70952300Y-102604450D01*
X71206300Y-102604450D01*
X71206300Y-103263700D01*
X71835550Y-103263700D01*
X71994300Y-103104950D01*
X71997365Y-103083623D01*
X71985675Y-102959087D01*
X71949914Y-102839224D01*
X71891456Y-102728641D01*
X71812547Y-102631587D01*
X71716221Y-102551792D01*
X71606178Y-102492323D01*
X71486648Y-102455465D01*
X71365050Y-102445700D01*
X71206300Y-102604450D01*
X70952300Y-102604450D01*
X70865299Y-102517449D01*
X70865299Y-101782769D01*
X70881484Y-101769486D01*
X70960836Y-101672795D01*
X70995601Y-101607755D01*
X71009744Y-101617205D01*
X71198102Y-101695226D01*
X71398061Y-101735000D01*
X71601939Y-101735000D01*
X71801898Y-101695226D01*
X71990256Y-101617205D01*
X72159774Y-101503937D01*
X72303937Y-101359774D01*
X72417205Y-101190256D01*
X72495226Y-101001898D01*
X72535000Y-100801939D01*
X72535000Y-100598061D01*
X72495226Y-100398102D01*
X72417205Y-100209744D01*
X72303937Y-100040226D01*
X72159774Y-99896063D01*
X71990256Y-99782795D01*
X71801898Y-99704774D01*
X71601939Y-99665000D01*
X71398061Y-99665000D01*
X71198102Y-99704774D01*
X71068371Y-99758511D01*
X71068371Y-99758301D01*
X71056111Y-99633819D01*
X71019801Y-99514121D01*
X70960836Y-99403807D01*
X70881484Y-99307116D01*
X70784793Y-99227764D01*
X70710964Y-99188301D01*
X70784793Y-99148838D01*
X70881484Y-99069486D01*
X70960836Y-98972795D01*
X71019801Y-98862481D01*
X71056111Y-98742783D01*
X71068371Y-98618301D01*
X71068371Y-97058301D01*
X71056111Y-96933819D01*
X71019801Y-96814121D01*
X70960836Y-96703807D01*
X70881484Y-96607116D01*
X70865299Y-96593833D01*
X70865299Y-95467807D01*
X70918580Y-95424080D01*
X71015343Y-95306174D01*
X71087245Y-95171655D01*
X71131522Y-95025694D01*
X71146472Y-94873900D01*
X71146472Y-94533900D01*
X71131522Y-94382106D01*
X71087245Y-94236145D01*
X71075900Y-94214920D01*
X71075900Y-93598901D01*
X75763799Y-88911004D01*
X75763808Y-88910993D01*
X85989802Y-78685000D01*
X86051939Y-78685000D01*
X86251898Y-78645226D01*
X86440256Y-78567205D01*
X86609774Y-78453937D01*
X86753937Y-78309774D01*
X86867205Y-78140256D01*
X86945226Y-77951898D01*
X86985000Y-77751939D01*
X86985000Y-77548061D01*
X86945226Y-77348102D01*
X86867205Y-77159744D01*
X86753937Y-76990226D01*
X86609774Y-76846063D01*
X86440256Y-76732795D01*
X86251898Y-76654774D01*
X86051939Y-76615000D01*
X85989803Y-76615000D01*
X81374640Y-71999839D01*
X81374640Y-55154059D01*
X81380535Y-55150120D01*
X81575120Y-54955535D01*
X81728005Y-54726727D01*
X81739500Y-54698976D01*
X81750995Y-54726727D01*
X81903880Y-54955535D01*
X82098465Y-55150120D01*
X82327273Y-55303005D01*
X82581510Y-55408314D01*
X82714801Y-55434827D01*
X82714800Y-57496126D01*
X82685298Y-57551320D01*
X82648988Y-57671018D01*
X82636728Y-57795500D01*
X82636728Y-58845500D01*
X82648988Y-58969982D01*
X82685298Y-59089680D01*
X82744263Y-59199994D01*
X82781609Y-59245500D01*
X82744263Y-59291006D01*
X82685298Y-59401320D01*
X82648988Y-59521018D01*
X82642488Y-59587012D01*
X82589499Y-59630499D01*
X82565696Y-59659503D01*
X82189003Y-60036196D01*
X82159999Y-60059999D01*
X82129363Y-60097330D01*
X82065026Y-60175724D01*
X82046705Y-60210000D01*
X81994454Y-60307754D01*
X81950997Y-60451015D01*
X81940000Y-60562668D01*
X81940000Y-60562678D01*
X81936324Y-60600000D01*
X81940000Y-60637322D01*
X81940000Y-61362678D01*
X81936324Y-61400000D01*
X81940000Y-61437322D01*
X81940000Y-61437333D01*
X81950997Y-61548986D01*
X81970869Y-61614494D01*
X81994454Y-61692246D01*
X82065026Y-61824276D01*
X82125590Y-61898072D01*
X82160000Y-61940001D01*
X82188998Y-61963799D01*
X82963797Y-62738599D01*
X82963803Y-62738604D01*
X83140001Y-62914802D01*
X83140000Y-66757095D01*
X83136444Y-66793200D01*
X83142365Y-66853320D01*
X83150635Y-66937284D01*
X83192663Y-67075832D01*
X83260913Y-67203519D01*
X83352762Y-67315437D01*
X83380808Y-67338454D01*
X87930001Y-71887648D01*
X87930001Y-87072928D01*
X87895226Y-86898102D01*
X87817205Y-86709744D01*
X87703937Y-86540226D01*
X87559774Y-86396063D01*
X87390256Y-86282795D01*
X87201898Y-86204774D01*
X87001939Y-86165000D01*
X86798061Y-86165000D01*
X86598102Y-86204774D01*
X86409744Y-86282795D01*
X86240226Y-86396063D01*
X86096063Y-86540226D01*
X85982795Y-86709744D01*
X85904774Y-86898102D01*
X85865000Y-87098061D01*
X85865000Y-87301939D01*
X85904774Y-87501898D01*
X85982795Y-87690256D01*
X86096063Y-87859774D01*
X86140001Y-87903712D01*
X86140000Y-112285197D01*
X77185199Y-121240000D01*
X69404320Y-121240000D01*
X69380537Y-121195506D01*
X69301185Y-121098815D01*
X69210000Y-121023982D01*
X69210000Y-120189823D01*
X69213676Y-120152500D01*
X69210000Y-120115177D01*
X69210000Y-120115167D01*
X69199003Y-120003514D01*
X69155546Y-119860253D01*
X69084974Y-119728224D01*
X69010428Y-119637390D01*
X69003218Y-119564181D01*
X68959225Y-119419158D01*
X68887786Y-119285504D01*
X68791644Y-119168356D01*
X68674496Y-119072214D01*
X68540842Y-119000775D01*
X68395819Y-118956782D01*
X68245000Y-118941928D01*
X67975000Y-118941928D01*
X67824181Y-118956782D01*
X67679158Y-119000775D01*
X67651451Y-119015584D01*
X67611442Y-118993559D01*
X67492202Y-118955774D01*
X67375750Y-118945000D01*
X67217000Y-119103750D01*
X67217000Y-119563462D01*
X67216782Y-119564181D01*
X67201928Y-119715000D01*
X67201928Y-120085000D01*
X67216782Y-120235819D01*
X67217000Y-120236538D01*
X67217000Y-120696250D01*
X67375750Y-120855000D01*
X67492202Y-120844226D01*
X67611442Y-120806441D01*
X67651451Y-120784416D01*
X67679158Y-120799225D01*
X67690001Y-120802514D01*
X67690001Y-121023981D01*
X67598815Y-121098815D01*
X67519463Y-121195506D01*
X67500000Y-121231918D01*
X67480537Y-121195506D01*
X67401185Y-121098815D01*
X67304494Y-121019463D01*
X67194180Y-120960498D01*
X67074482Y-120924188D01*
X66950000Y-120911928D01*
X66835750Y-120915000D01*
X66677000Y-121073750D01*
X66677000Y-121873000D01*
X66697000Y-121873000D01*
X66697000Y-122127000D01*
X66677000Y-122127000D01*
X66677000Y-122926250D01*
X66761607Y-123010857D01*
X66745506Y-123019463D01*
X66648815Y-123098815D01*
X66569463Y-123195506D01*
X66510498Y-123305820D01*
X66474188Y-123425518D01*
X66461928Y-123550000D01*
X66461928Y-124450000D01*
X66474188Y-124574482D01*
X66510498Y-124694180D01*
X66569463Y-124804494D01*
X66648815Y-124901185D01*
X66745506Y-124980537D01*
X66855820Y-125039502D01*
X66975518Y-125075812D01*
X67100000Y-125088072D01*
X67513271Y-125088072D01*
X72440001Y-130014803D01*
X72440000Y-132151067D01*
X72322499Y-132247498D01*
X72168168Y-132435551D01*
X72053489Y-132650099D01*
X71982870Y-132882898D01*
X71965000Y-133064335D01*
X71965000Y-133735664D01*
X71982870Y-133917101D01*
X72053489Y-134149900D01*
X72168167Y-134364448D01*
X72322498Y-134552502D01*
X72510551Y-134706833D01*
X72725099Y-134821511D01*
X72957898Y-134892130D01*
X73200000Y-134915975D01*
X73442101Y-134892130D01*
X73674900Y-134821511D01*
X73889448Y-134706833D01*
X74077502Y-134552502D01*
X74109191Y-134513889D01*
X74111595Y-134518387D01*
X74222038Y-134652962D01*
X74356613Y-134763405D01*
X74510149Y-134845472D01*
X74676745Y-134896008D01*
X74849999Y-134913072D01*
X75550001Y-134913072D01*
X75723255Y-134896008D01*
X75889851Y-134845472D01*
X76043387Y-134763405D01*
X76177962Y-134652962D01*
X76288405Y-134518387D01*
X76370472Y-134364851D01*
X76421008Y-134198255D01*
X76438072Y-134025001D01*
X76438072Y-132774999D01*
X76421008Y-132601745D01*
X76370472Y-132435149D01*
X76288405Y-132281613D01*
X76177962Y-132147038D01*
X76043387Y-132036595D01*
X75889851Y-131954528D01*
X75723255Y-131903992D01*
X75550001Y-131886928D01*
X74849999Y-131886928D01*
X74676745Y-131903992D01*
X74510149Y-131954528D01*
X74356613Y-132036595D01*
X74222038Y-132147038D01*
X74111595Y-132281613D01*
X74109191Y-132286111D01*
X74077502Y-132247498D01*
X73960000Y-132151067D01*
X73960000Y-129737322D01*
X73963676Y-129699999D01*
X73960000Y-129662676D01*
X73960000Y-129662667D01*
X73949003Y-129551014D01*
X73905546Y-129407753D01*
X73834974Y-129275724D01*
X73740001Y-129159999D01*
X73711003Y-129136201D01*
X68538072Y-123963271D01*
X68538072Y-123550000D01*
X68525812Y-123425518D01*
X68489502Y-123305820D01*
X68430537Y-123195506D01*
X68351185Y-123098815D01*
X68338095Y-123088072D01*
X68850000Y-123088072D01*
X68974482Y-123075812D01*
X69094180Y-123039502D01*
X69204494Y-122980537D01*
X69301185Y-122901185D01*
X69380537Y-122804494D01*
X69404320Y-122760000D01*
X77462678Y-122760000D01*
X77500000Y-122763676D01*
X77537322Y-122760000D01*
X77537333Y-122760000D01*
X77648986Y-122749003D01*
X77792247Y-122705546D01*
X77924276Y-122634974D01*
X78040001Y-122540001D01*
X78063804Y-122510997D01*
X87411009Y-113163793D01*
X87440001Y-113140001D01*
X87463795Y-113111008D01*
X87463799Y-113111004D01*
X87534973Y-113024277D01*
X87534974Y-113024276D01*
X87605546Y-112892247D01*
X87649003Y-112748986D01*
X87660000Y-112637333D01*
X87660000Y-112637324D01*
X87663676Y-112600001D01*
X87660000Y-112562678D01*
X87660000Y-87903711D01*
X87703937Y-87859774D01*
X87817205Y-87690256D01*
X87895226Y-87501898D01*
X87930001Y-87327072D01*
X87930000Y-139107475D01*
X87875914Y-139173379D01*
X87825704Y-139267316D01*
X87807664Y-139301066D01*
X87765635Y-139439614D01*
X87751444Y-139583699D01*
X87754948Y-139619275D01*
X87738815Y-139632515D01*
X87690000Y-139691996D01*
X87650000Y-139643256D01*
X87650000Y-136727322D01*
X87653676Y-136689999D01*
X87650000Y-136652676D01*
X87650000Y-136652667D01*
X87639003Y-136541014D01*
X87595546Y-136397753D01*
X87524974Y-136265724D01*
X87430001Y-136149999D01*
X87401003Y-136126201D01*
X82235000Y-130960199D01*
X82235000Y-130898061D01*
X82195226Y-130698102D01*
X82117205Y-130509744D01*
X82003937Y-130340226D01*
X81859774Y-130196063D01*
X81690256Y-130082795D01*
X81501898Y-130004774D01*
X81301939Y-129965000D01*
X81098061Y-129965000D01*
X80898102Y-130004774D01*
X80709744Y-130082795D01*
X80540226Y-130196063D01*
X80396063Y-130340226D01*
X80282795Y-130509744D01*
X80254018Y-130579217D01*
X80060000Y-130385199D01*
X80060000Y-129103711D01*
X80103937Y-129059774D01*
X80217205Y-128890256D01*
X80295226Y-128701898D01*
X80335000Y-128501939D01*
X80335000Y-128298061D01*
X80295226Y-128098102D01*
X80217205Y-127909744D01*
X80103937Y-127740226D01*
X79959774Y-127596063D01*
X79790256Y-127482795D01*
X79601898Y-127404774D01*
X79401939Y-127365000D01*
X79198061Y-127365000D01*
X78998102Y-127404774D01*
X78809744Y-127482795D01*
X78640226Y-127596063D01*
X78496063Y-127740226D01*
X78382795Y-127909744D01*
X78304774Y-128098102D01*
X78265000Y-128298061D01*
X78265000Y-128501939D01*
X78304774Y-128701898D01*
X78382795Y-128890256D01*
X78496063Y-129059774D01*
X78540000Y-129103711D01*
X78540001Y-130662668D01*
X78536324Y-130700000D01*
X78540001Y-130737333D01*
X78550998Y-130848986D01*
X78564180Y-130892442D01*
X78594454Y-130992246D01*
X78665026Y-131124276D01*
X78736201Y-131211002D01*
X78760000Y-131240001D01*
X78788998Y-131263799D01*
X80236200Y-132711002D01*
X80259999Y-132740001D01*
X80375724Y-132834974D01*
X80507753Y-132905546D01*
X80651014Y-132949003D01*
X80762667Y-132960000D01*
X80762676Y-132960000D01*
X80799999Y-132963676D01*
X80837322Y-132960000D01*
X81285199Y-132960000D01*
X83393815Y-135068617D01*
X63032845Y-135068617D01*
X62363411Y-135002979D01*
X61754045Y-134819000D01*
X61192029Y-134520170D01*
X60698755Y-134117867D01*
X60293016Y-133627412D01*
X59990266Y-133067490D01*
X59802040Y-132459428D01*
X59731900Y-131792095D01*
X59731900Y-129484571D01*
X61757574Y-129484571D01*
X61757574Y-130122663D01*
X61882059Y-130748494D01*
X62126246Y-131338013D01*
X62480751Y-131868567D01*
X62931950Y-132319766D01*
X63462504Y-132674271D01*
X64052023Y-132918458D01*
X64677854Y-133042943D01*
X65315946Y-133042943D01*
X65941777Y-132918458D01*
X66531296Y-132674271D01*
X67061850Y-132319766D01*
X67513049Y-131868567D01*
X67867554Y-131338013D01*
X68111741Y-130748494D01*
X68236226Y-130122663D01*
X68236226Y-129484571D01*
X68111741Y-128858740D01*
X67867554Y-128269221D01*
X67513049Y-127738667D01*
X67061850Y-127287468D01*
X66531296Y-126932963D01*
X65941777Y-126688776D01*
X65315946Y-126564291D01*
X64677854Y-126564291D01*
X64052023Y-126688776D01*
X63462504Y-126932963D01*
X62931950Y-127287468D01*
X62480751Y-127738667D01*
X62126246Y-128269221D01*
X61882059Y-128858740D01*
X61757574Y-129484571D01*
X59731900Y-129484571D01*
X59731900Y-121398061D01*
X61565000Y-121398061D01*
X61565000Y-121601939D01*
X61604774Y-121801898D01*
X61682795Y-121990256D01*
X61796063Y-122159774D01*
X61940226Y-122303937D01*
X62109744Y-122417205D01*
X62298102Y-122495226D01*
X62498061Y-122535000D01*
X62701939Y-122535000D01*
X62901898Y-122495226D01*
X63011082Y-122450000D01*
X65511928Y-122450000D01*
X65524188Y-122574482D01*
X65560498Y-122694180D01*
X65619463Y-122804494D01*
X65698815Y-122901185D01*
X65795506Y-122980537D01*
X65905820Y-123039502D01*
X66025518Y-123075812D01*
X66150000Y-123088072D01*
X66264250Y-123085000D01*
X66423000Y-122926250D01*
X66423000Y-122127000D01*
X65673750Y-122127000D01*
X65515000Y-122285750D01*
X65511928Y-122450000D01*
X63011082Y-122450000D01*
X63090256Y-122417205D01*
X63259774Y-122303937D01*
X63403937Y-122159774D01*
X63517205Y-121990256D01*
X63595226Y-121801898D01*
X63635000Y-121601939D01*
X63635000Y-121550000D01*
X65511928Y-121550000D01*
X65515000Y-121714250D01*
X65673750Y-121873000D01*
X66423000Y-121873000D01*
X66423000Y-121073750D01*
X66264250Y-120915000D01*
X66150000Y-120911928D01*
X66025518Y-120924188D01*
X65905820Y-120960498D01*
X65795506Y-121019463D01*
X65698815Y-121098815D01*
X65619463Y-121195506D01*
X65560498Y-121305820D01*
X65524188Y-121425518D01*
X65511928Y-121550000D01*
X63635000Y-121550000D01*
X63635000Y-121398061D01*
X63595226Y-121198102D01*
X63517205Y-121009744D01*
X63403937Y-120840226D01*
X63360000Y-120796289D01*
X63360000Y-120212119D01*
X66181977Y-120212119D01*
X66192699Y-120336742D01*
X66227527Y-120456879D01*
X66285124Y-120567914D01*
X66363276Y-120665578D01*
X66458980Y-120746118D01*
X66568558Y-120806441D01*
X66687798Y-120844226D01*
X66804250Y-120855000D01*
X66963000Y-120696250D01*
X66963000Y-120027000D01*
X66343750Y-120027000D01*
X66185000Y-120185750D01*
X66181977Y-120212119D01*
X63360000Y-120212119D01*
X63360000Y-119587881D01*
X66181977Y-119587881D01*
X66185000Y-119614250D01*
X66343750Y-119773000D01*
X66963000Y-119773000D01*
X66963000Y-119103750D01*
X66804250Y-118945000D01*
X66687798Y-118955774D01*
X66568558Y-118993559D01*
X66458980Y-119053882D01*
X66363276Y-119134422D01*
X66285124Y-119232086D01*
X66227527Y-119343121D01*
X66192699Y-119463258D01*
X66181977Y-119587881D01*
X63360000Y-119587881D01*
X63360000Y-117214801D01*
X66339802Y-114235000D01*
X66401939Y-114235000D01*
X66601898Y-114195226D01*
X66790256Y-114117205D01*
X66959774Y-114003937D01*
X67103937Y-113859774D01*
X67217205Y-113690256D01*
X67295226Y-113501898D01*
X67335000Y-113301939D01*
X67335000Y-113098061D01*
X67295226Y-112898102D01*
X67217205Y-112709744D01*
X67103937Y-112540226D01*
X66959774Y-112396063D01*
X66790256Y-112282795D01*
X66601898Y-112204774D01*
X66401939Y-112165000D01*
X66198061Y-112165000D01*
X65998102Y-112204774D01*
X65809744Y-112282795D01*
X65640226Y-112396063D01*
X65496063Y-112540226D01*
X65382795Y-112709744D01*
X65304774Y-112898102D01*
X65265000Y-113098061D01*
X65265000Y-113160198D01*
X62088998Y-116336201D01*
X62060000Y-116359999D01*
X62036202Y-116388997D01*
X62036201Y-116388998D01*
X61965026Y-116475724D01*
X61894454Y-116607754D01*
X61850998Y-116751015D01*
X61836324Y-116900000D01*
X61840001Y-116937332D01*
X61840000Y-120796289D01*
X61796063Y-120840226D01*
X61682795Y-121009744D01*
X61604774Y-121198102D01*
X61565000Y-121398061D01*
X59731900Y-121398061D01*
X59731900Y-109195757D01*
X81632244Y-109195757D01*
X81632244Y-109456483D01*
X81683109Y-109712199D01*
X81782885Y-109953078D01*
X81927736Y-110169863D01*
X82112097Y-110354224D01*
X82328882Y-110499075D01*
X82569761Y-110598851D01*
X82825477Y-110649716D01*
X83086203Y-110649716D01*
X83341919Y-110598851D01*
X83582798Y-110499075D01*
X83799583Y-110354224D01*
X83983944Y-110169863D01*
X84128795Y-109953078D01*
X84228571Y-109712199D01*
X84279436Y-109456483D01*
X84279436Y-109195757D01*
X84228571Y-108940041D01*
X84128795Y-108699162D01*
X83983944Y-108482377D01*
X83799583Y-108298016D01*
X83582798Y-108153165D01*
X83341919Y-108053389D01*
X83086203Y-108002524D01*
X82825477Y-108002524D01*
X82569761Y-108053389D01*
X82328882Y-108153165D01*
X82112097Y-108298016D01*
X81927736Y-108482377D01*
X81782885Y-108699162D01*
X81683109Y-108940041D01*
X81632244Y-109195757D01*
X59731900Y-109195757D01*
X59731900Y-96651350D01*
X64792900Y-96651350D01*
X64951650Y-96810100D01*
X65620900Y-96810100D01*
X65620900Y-96190850D01*
X65874900Y-96190850D01*
X65874900Y-96810100D01*
X66544150Y-96810100D01*
X66702900Y-96651350D01*
X66692126Y-96534898D01*
X66654341Y-96415658D01*
X66594018Y-96306080D01*
X66513478Y-96210376D01*
X66415814Y-96132224D01*
X66304779Y-96074627D01*
X66184642Y-96039799D01*
X66060019Y-96029077D01*
X66033650Y-96032100D01*
X65874900Y-96190850D01*
X65620900Y-96190850D01*
X65462150Y-96032100D01*
X65435781Y-96029077D01*
X65311158Y-96039799D01*
X65191021Y-96074627D01*
X65079986Y-96132224D01*
X64982322Y-96210376D01*
X64901782Y-96306080D01*
X64841459Y-96415658D01*
X64803674Y-96534898D01*
X64792900Y-96651350D01*
X59731900Y-96651350D01*
X59731900Y-95010977D01*
X68350335Y-95010977D01*
X68362025Y-95135513D01*
X68397786Y-95255376D01*
X68456244Y-95365959D01*
X68535153Y-95463013D01*
X68631479Y-95542808D01*
X68741522Y-95602277D01*
X68861052Y-95639135D01*
X68982650Y-95648900D01*
X69141400Y-95490150D01*
X69141400Y-94830900D01*
X68512150Y-94830900D01*
X68353400Y-94989650D01*
X68350335Y-95010977D01*
X59731900Y-95010977D01*
X59731900Y-94396823D01*
X68350335Y-94396823D01*
X68353400Y-94418150D01*
X68512150Y-94576900D01*
X69141400Y-94576900D01*
X69141400Y-93917650D01*
X68982650Y-93758900D01*
X68861052Y-93768665D01*
X68741522Y-93805523D01*
X68631479Y-93864992D01*
X68535153Y-93944787D01*
X68456244Y-94041841D01*
X68397786Y-94152424D01*
X68362025Y-94272287D01*
X68350335Y-94396823D01*
X59731900Y-94396823D01*
X59731900Y-65298061D01*
X61565000Y-65298061D01*
X61565000Y-65501939D01*
X61604774Y-65701898D01*
X61682795Y-65890256D01*
X61796063Y-66059774D01*
X61940226Y-66203937D01*
X62109744Y-66317205D01*
X62298102Y-66395226D01*
X62498061Y-66435000D01*
X62701939Y-66435000D01*
X62901898Y-66395226D01*
X63090256Y-66317205D01*
X63259774Y-66203937D01*
X63403937Y-66059774D01*
X63517205Y-65890256D01*
X63595226Y-65701898D01*
X63635000Y-65501939D01*
X63635000Y-65298061D01*
X63595226Y-65098102D01*
X63517205Y-64909744D01*
X63403937Y-64740226D01*
X63360000Y-64696289D01*
X63360000Y-62914801D01*
X66239802Y-60035000D01*
X66301939Y-60035000D01*
X66501898Y-59995226D01*
X66690256Y-59917205D01*
X66859774Y-59803937D01*
X67003937Y-59659774D01*
X67117205Y-59490256D01*
X67195226Y-59301898D01*
X67235000Y-59101939D01*
X67235000Y-58898061D01*
X67195226Y-58698102D01*
X67117205Y-58509744D01*
X67003937Y-58340226D01*
X66859774Y-58196063D01*
X66690256Y-58082795D01*
X66501898Y-58004774D01*
X66301939Y-57965000D01*
X66098061Y-57965000D01*
X65898102Y-58004774D01*
X65709744Y-58082795D01*
X65540226Y-58196063D01*
X65396063Y-58340226D01*
X65282795Y-58509744D01*
X65204774Y-58698102D01*
X65165000Y-58898061D01*
X65165000Y-58960198D01*
X62088998Y-62036201D01*
X62060000Y-62059999D01*
X62036202Y-62088997D01*
X62036201Y-62088998D01*
X61965026Y-62175724D01*
X61894454Y-62307754D01*
X61850998Y-62451015D01*
X61836324Y-62600000D01*
X61840001Y-62637332D01*
X61840000Y-64696289D01*
X61796063Y-64740226D01*
X61682795Y-64909744D01*
X61604774Y-65098102D01*
X61565000Y-65298061D01*
X59731900Y-65298061D01*
X59731900Y-52742000D01*
X76156000Y-52742000D01*
X76156000Y-53442000D01*
X76204507Y-53680496D01*
X76298610Y-53904946D01*
X76434693Y-54106725D01*
X76607526Y-54278078D01*
X76810467Y-54412421D01*
X77035718Y-54504591D01*
X77073391Y-54508462D01*
X77264000Y-54383731D01*
X77264000Y-52742000D01*
X77518000Y-52742000D01*
X77518000Y-54383731D01*
X77708609Y-54508462D01*
X77746282Y-54504591D01*
X77971533Y-54412421D01*
X78174474Y-54278078D01*
X78347307Y-54106725D01*
X78483390Y-53904946D01*
X78577493Y-53680496D01*
X78626000Y-53442000D01*
X78626000Y-52742000D01*
X77518000Y-52742000D01*
X77264000Y-52742000D01*
X76156000Y-52742000D01*
X59731900Y-52742000D01*
X59731900Y-47484571D01*
X61757574Y-47484571D01*
X61757574Y-48122663D01*
X61882059Y-48748494D01*
X62126246Y-49338013D01*
X62480751Y-49868567D01*
X62931950Y-50319766D01*
X63462504Y-50674271D01*
X64052023Y-50918458D01*
X64677854Y-51042943D01*
X65315946Y-51042943D01*
X65941777Y-50918458D01*
X66531296Y-50674271D01*
X67061850Y-50319766D01*
X67513049Y-49868567D01*
X67867554Y-49338013D01*
X68111741Y-48748494D01*
X68236226Y-48122663D01*
X68236226Y-47484571D01*
X68111741Y-46858740D01*
X67867554Y-46269221D01*
X67513049Y-45738667D01*
X67061850Y-45287468D01*
X66531296Y-44932963D01*
X65941777Y-44688776D01*
X65315946Y-44564291D01*
X64677854Y-44564291D01*
X64052023Y-44688776D01*
X63462504Y-44932963D01*
X62931950Y-45287468D01*
X62480751Y-45738667D01*
X62126246Y-46269221D01*
X61882059Y-46858740D01*
X61757574Y-47484571D01*
X59731900Y-47484571D01*
X59731900Y-45839562D01*
X59797538Y-45170129D01*
X59981517Y-44560763D01*
X60280349Y-43998742D01*
X60682653Y-43505470D01*
X61173105Y-43099733D01*
X61733028Y-42796983D01*
X62341088Y-42608757D01*
X63045804Y-42534688D01*
X63053348Y-42533139D01*
X63142165Y-42524119D01*
X63279346Y-42482181D01*
X63313170Y-42464045D01*
X75066939Y-42479956D01*
X75067175Y-42479979D01*
X75098500Y-42479998D01*
X75131525Y-42480043D01*
X75131774Y-42480019D01*
X76581400Y-42480912D01*
X76581400Y-42588782D01*
X76581401Y-44406460D01*
X76581253Y-44408040D01*
X76581401Y-44438969D01*
X76581401Y-44469719D01*
X76581556Y-44471289D01*
X76594100Y-47093110D01*
X76594101Y-50965232D01*
X76434693Y-51123275D01*
X76298610Y-51325054D01*
X76204507Y-51549504D01*
X76156000Y-51788000D01*
X76156000Y-52488000D01*
X77264000Y-52488000D01*
X77264000Y-52468000D01*
X77518000Y-52468000D01*
X77518000Y-52488000D01*
X78626000Y-52488000D01*
X78626000Y-51790200D01*
X89354000Y-51790200D01*
X89354000Y-52488000D01*
X90462000Y-52488000D01*
X90462000Y-52468000D01*
X90716000Y-52468000D01*
X90716000Y-52488000D01*
X91824000Y-52488000D01*
X91824000Y-51788000D01*
X91775493Y-51549504D01*
X91681390Y-51325054D01*
X91567268Y-51155838D01*
X91569793Y-51130200D01*
X91566600Y-51097781D01*
X91566600Y-42480701D01*
X92727303Y-42480000D01*
X102140318Y-42480000D01*
X103302200Y-42480701D01*
X103302201Y-51097771D01*
X103299007Y-51130200D01*
X103311750Y-51259583D01*
X103323854Y-51299485D01*
X103306610Y-51325054D01*
X103212507Y-51549504D01*
X103164000Y-51788000D01*
X103164000Y-52488000D01*
X104272000Y-52488000D01*
X104272000Y-52468000D01*
X104526000Y-52468000D01*
X104526000Y-52488000D01*
X105634000Y-52488000D01*
X105634000Y-51790200D01*
X116362000Y-51790200D01*
X116362000Y-52488000D01*
X117470000Y-52488000D01*
X117470000Y-52468000D01*
X117724000Y-52468000D01*
X117724000Y-52488000D01*
X118832000Y-52488000D01*
X118832000Y-51788000D01*
X118783493Y-51549504D01*
X118689390Y-51325054D01*
X118553307Y-51123275D01*
X118380474Y-50951922D01*
X118363600Y-50940752D01*
X118363600Y-47484571D01*
X126757574Y-47484571D01*
X126757574Y-48122663D01*
X126882059Y-48748494D01*
X127126246Y-49338013D01*
X127480751Y-49868567D01*
X127931950Y-50319766D01*
X128462504Y-50674271D01*
X129052023Y-50918458D01*
X129677854Y-51042943D01*
X130315946Y-51042943D01*
X130941777Y-50918458D01*
X131531296Y-50674271D01*
X132061850Y-50319766D01*
X132513049Y-49868567D01*
X132867554Y-49338013D01*
X133111741Y-48748494D01*
X133236226Y-48122663D01*
X133236226Y-47484571D01*
X133111741Y-46858740D01*
X132867554Y-46269221D01*
X132513049Y-45738667D01*
X132061850Y-45287468D01*
X131531296Y-44932963D01*
X130941777Y-44688776D01*
X130315946Y-44564291D01*
X129677854Y-44564291D01*
X129052023Y-44688776D01*
X128462504Y-44932963D01*
X127931950Y-45287468D01*
X127480751Y-45738667D01*
X127126246Y-46269221D01*
X126882059Y-46858740D01*
X126757574Y-47484571D01*
X118363600Y-47484571D01*
X118363600Y-43423802D01*
X118371084Y-42480905D01*
X119735839Y-42480020D01*
X119736066Y-42480042D01*
X119768250Y-42479999D01*
X119800446Y-42479978D01*
X119800673Y-42479955D01*
X131680931Y-42464040D01*
X131774659Y-42504212D01*
G04 #@! TA.AperFunction,Conductor*
D25*
G36*
X131774659Y-42504212D02*
G01*
X131914971Y-42534036D01*
X131925177Y-42535109D01*
X132630388Y-42604255D01*
X133239754Y-42788234D01*
X133801775Y-43087066D01*
X134295047Y-43489370D01*
X134700784Y-43979822D01*
X135003534Y-44539745D01*
X135191760Y-45147805D01*
X135261901Y-45815149D01*
X135261900Y-131767672D01*
X135196262Y-132437106D01*
X135012283Y-133046472D01*
X134713453Y-133608488D01*
X134311150Y-134101762D01*
X133820695Y-134507501D01*
X133260773Y-134810251D01*
X132652711Y-134998477D01*
X131985378Y-135068617D01*
X111310795Y-135068617D01*
X111279396Y-135071710D01*
X111273302Y-135071667D01*
X111263088Y-135072668D01*
X111068991Y-135093069D01*
X111003743Y-135106462D01*
X110938302Y-135118946D01*
X110928477Y-135121912D01*
X110742039Y-135179624D01*
X110680620Y-135205442D01*
X110632940Y-135224706D01*
X116373075Y-129484571D01*
X126757574Y-129484571D01*
X126757574Y-130122663D01*
X126882059Y-130748494D01*
X127126246Y-131338013D01*
X127480751Y-131868567D01*
X127931950Y-132319766D01*
X128462504Y-132674271D01*
X129052023Y-132918458D01*
X129677854Y-133042943D01*
X130315946Y-133042943D01*
X130941777Y-132918458D01*
X131531296Y-132674271D01*
X132061850Y-132319766D01*
X132513049Y-131868567D01*
X132867554Y-131338013D01*
X133111741Y-130748494D01*
X133236226Y-130122663D01*
X133236226Y-129484571D01*
X133111741Y-128858740D01*
X132867554Y-128269221D01*
X132513049Y-127738667D01*
X132061850Y-127287468D01*
X131531296Y-126932963D01*
X130941777Y-126688776D01*
X130315946Y-126564291D01*
X129677854Y-126564291D01*
X129052023Y-126688776D01*
X128462504Y-126932963D01*
X127931950Y-127287468D01*
X127480751Y-127738667D01*
X127126246Y-128269221D01*
X126882059Y-128858740D01*
X126757574Y-129484571D01*
X116373075Y-129484571D01*
X120419198Y-125438449D01*
X120447237Y-125415438D01*
X120470250Y-125387397D01*
X120470253Y-125387394D01*
X120539086Y-125303521D01*
X120539087Y-125303520D01*
X120607337Y-125175833D01*
X120649365Y-125037285D01*
X120660000Y-124929305D01*
X120660000Y-124929296D01*
X120663555Y-124893201D01*
X120660000Y-124857106D01*
X120660000Y-104997646D01*
X126200046Y-99457600D01*
X129570228Y-99457600D01*
X129570228Y-101257600D01*
X129582488Y-101382082D01*
X129618798Y-101501780D01*
X129677763Y-101612094D01*
X129757115Y-101708785D01*
X129853806Y-101788137D01*
X129964120Y-101847102D01*
X130083818Y-101883412D01*
X130208300Y-101895672D01*
X132408300Y-101895672D01*
X132532782Y-101883412D01*
X132652480Y-101847102D01*
X132762794Y-101788137D01*
X132859485Y-101708785D01*
X132938837Y-101612094D01*
X132997802Y-101501780D01*
X133034112Y-101382082D01*
X133046372Y-101257600D01*
X133046372Y-99457600D01*
X133034112Y-99333118D01*
X132997802Y-99213420D01*
X132938837Y-99103106D01*
X132859485Y-99006415D01*
X132762794Y-98927063D01*
X132652480Y-98868098D01*
X132532782Y-98831788D01*
X132408300Y-98819528D01*
X130208300Y-98819528D01*
X130083818Y-98831788D01*
X129964120Y-98868098D01*
X129853806Y-98927063D01*
X129757115Y-99006415D01*
X129677763Y-99103106D01*
X129618798Y-99213420D01*
X129582488Y-99333118D01*
X129570228Y-99457600D01*
X126200046Y-99457600D01*
X126816401Y-98841246D01*
X126822884Y-98861418D01*
X126883650Y-98970750D01*
X126964578Y-99066126D01*
X127062558Y-99143882D01*
X127173825Y-99201028D01*
X127294102Y-99235370D01*
X127418768Y-99245586D01*
X127772550Y-99242600D01*
X127931300Y-99083850D01*
X127931300Y-98745672D01*
X128185300Y-98745672D01*
X128185300Y-99083850D01*
X128344050Y-99242600D01*
X128697832Y-99245586D01*
X128822498Y-99235370D01*
X128942775Y-99201028D01*
X129054042Y-99143882D01*
X129152022Y-99066126D01*
X129232950Y-98970750D01*
X129293716Y-98861418D01*
X129331985Y-98742332D01*
X129343300Y-98639350D01*
X129206025Y-98502075D01*
X129238837Y-98462094D01*
X129297802Y-98351780D01*
X129311053Y-98308097D01*
X129343300Y-98275850D01*
X129336182Y-98211065D01*
X129346372Y-98107600D01*
X129346372Y-97807600D01*
X129336523Y-97707600D01*
X129346372Y-97607600D01*
X129346372Y-97307600D01*
X129336182Y-97204135D01*
X129343300Y-97139350D01*
X129311053Y-97107103D01*
X129297802Y-97063420D01*
X129241239Y-96957600D01*
X129297802Y-96851780D01*
X129311053Y-96808097D01*
X129343300Y-96775850D01*
X129336182Y-96711065D01*
X129346372Y-96607600D01*
X129346372Y-96307600D01*
X129336523Y-96207600D01*
X129346372Y-96107600D01*
X129346372Y-95807600D01*
X129336182Y-95704135D01*
X129343300Y-95639350D01*
X129311053Y-95607103D01*
X129297802Y-95563420D01*
X129241239Y-95457600D01*
X129297802Y-95351780D01*
X129311053Y-95308097D01*
X129343300Y-95275850D01*
X129336182Y-95211065D01*
X129346372Y-95107600D01*
X129346372Y-94807600D01*
X129336523Y-94707600D01*
X129346372Y-94607600D01*
X129346372Y-94307600D01*
X129336182Y-94204135D01*
X129343300Y-94139350D01*
X129311053Y-94107103D01*
X129297802Y-94063420D01*
X129241239Y-93957600D01*
X129297802Y-93851780D01*
X129311053Y-93808097D01*
X129343300Y-93775850D01*
X129336182Y-93711065D01*
X129346372Y-93607600D01*
X129346372Y-93307600D01*
X129336523Y-93207600D01*
X129346372Y-93107600D01*
X129346372Y-92807600D01*
X129336182Y-92704135D01*
X129343300Y-92639350D01*
X129311053Y-92607103D01*
X129297802Y-92563420D01*
X129241239Y-92457600D01*
X129297802Y-92351780D01*
X129311053Y-92308097D01*
X129343300Y-92275850D01*
X129336182Y-92211065D01*
X129346372Y-92107600D01*
X129346372Y-91807600D01*
X129336523Y-91707600D01*
X129346372Y-91607600D01*
X129346372Y-91307600D01*
X129336182Y-91204135D01*
X129343300Y-91139350D01*
X129311053Y-91107103D01*
X129297802Y-91063420D01*
X129241239Y-90957600D01*
X129297802Y-90851780D01*
X129311053Y-90808097D01*
X129343300Y-90775850D01*
X129336182Y-90711065D01*
X129346372Y-90607600D01*
X129346372Y-90332377D01*
X129498102Y-90395226D01*
X129698061Y-90435000D01*
X129901939Y-90435000D01*
X130101898Y-90395226D01*
X130290256Y-90317205D01*
X130459774Y-90203937D01*
X130603937Y-90059774D01*
X130717205Y-89890256D01*
X130795226Y-89701898D01*
X130835000Y-89501939D01*
X130835000Y-89298061D01*
X130795226Y-89098102D01*
X130717205Y-88909744D01*
X130603937Y-88740226D01*
X130459774Y-88596063D01*
X130290256Y-88482795D01*
X130101898Y-88404774D01*
X129901939Y-88365000D01*
X129698061Y-88365000D01*
X129498102Y-88404774D01*
X129346372Y-88467623D01*
X129346372Y-88307600D01*
X129337508Y-88217600D01*
X130660674Y-88217600D01*
X130809744Y-88317205D01*
X130998102Y-88395226D01*
X131198061Y-88435000D01*
X131401939Y-88435000D01*
X131601898Y-88395226D01*
X131790256Y-88317205D01*
X131959774Y-88203937D01*
X132103937Y-88059774D01*
X132217205Y-87890256D01*
X132295226Y-87701898D01*
X132335000Y-87501939D01*
X132335000Y-87298061D01*
X132295226Y-87098102D01*
X132217205Y-86909744D01*
X132103937Y-86740226D01*
X131959774Y-86596063D01*
X131790256Y-86482795D01*
X131601898Y-86404774D01*
X131401939Y-86365000D01*
X131198061Y-86365000D01*
X130998102Y-86404774D01*
X130809744Y-86482795D01*
X130640226Y-86596063D01*
X130538689Y-86697600D01*
X130312298Y-86697600D01*
X130317205Y-86690256D01*
X130395226Y-86501898D01*
X130417750Y-86388660D01*
X130590256Y-86317205D01*
X130759774Y-86203937D01*
X130903937Y-86059774D01*
X131017205Y-85890256D01*
X131040093Y-85835000D01*
X131101939Y-85835000D01*
X131301898Y-85795226D01*
X131490256Y-85717205D01*
X131659774Y-85603937D01*
X131803937Y-85459774D01*
X131917205Y-85290256D01*
X131988660Y-85117750D01*
X132101898Y-85095226D01*
X132290256Y-85017205D01*
X132459774Y-84903937D01*
X132603937Y-84759774D01*
X132717205Y-84590256D01*
X132795226Y-84401898D01*
X132835000Y-84201939D01*
X132835000Y-83998061D01*
X132795226Y-83798102D01*
X132717205Y-83609744D01*
X132603937Y-83440226D01*
X132459774Y-83296063D01*
X132290256Y-83182795D01*
X132101898Y-83104774D01*
X131901939Y-83065000D01*
X131698061Y-83065000D01*
X131498102Y-83104774D01*
X131309744Y-83182795D01*
X131140226Y-83296063D01*
X131121290Y-83314999D01*
X129425924Y-83314999D01*
X129388591Y-83311322D01*
X129351258Y-83314999D01*
X129346372Y-83315480D01*
X129346372Y-83307600D01*
X129336523Y-83207600D01*
X129346372Y-83107600D01*
X129346372Y-82807600D01*
X129336523Y-82707600D01*
X129346372Y-82607600D01*
X129346372Y-82307600D01*
X129336523Y-82207600D01*
X129346372Y-82107600D01*
X129346372Y-81807600D01*
X129336523Y-81707600D01*
X129346372Y-81607600D01*
X129346372Y-81307600D01*
X129336523Y-81207600D01*
X129346372Y-81107600D01*
X129346372Y-80807600D01*
X129336523Y-80707600D01*
X129346372Y-80607600D01*
X129346372Y-80307600D01*
X129336523Y-80207600D01*
X129346372Y-80107600D01*
X129346372Y-79807600D01*
X129336182Y-79704135D01*
X129343300Y-79639350D01*
X129311053Y-79607103D01*
X129297802Y-79563420D01*
X129241239Y-79457600D01*
X129297802Y-79351780D01*
X129311053Y-79308097D01*
X129343300Y-79275850D01*
X129336182Y-79211065D01*
X129346372Y-79107600D01*
X129346372Y-78807600D01*
X129336523Y-78707600D01*
X129346372Y-78607600D01*
X129346372Y-78307600D01*
X129336182Y-78204135D01*
X129343300Y-78139350D01*
X129311053Y-78107103D01*
X129297802Y-78063420D01*
X129241239Y-77957600D01*
X129297802Y-77851780D01*
X129311053Y-77808097D01*
X129343300Y-77775850D01*
X129336182Y-77711065D01*
X129346372Y-77607600D01*
X129346372Y-77307600D01*
X129336523Y-77207600D01*
X129346372Y-77107600D01*
X129346372Y-76807600D01*
X129336182Y-76704135D01*
X129343300Y-76639350D01*
X129311053Y-76607103D01*
X129297802Y-76563420D01*
X129241239Y-76457600D01*
X129297802Y-76351780D01*
X129311053Y-76308097D01*
X129343300Y-76275850D01*
X129336182Y-76211065D01*
X129346372Y-76107600D01*
X129346372Y-75807600D01*
X129336523Y-75707600D01*
X129346372Y-75607600D01*
X129346372Y-75307600D01*
X129336182Y-75204135D01*
X129343300Y-75139350D01*
X129311053Y-75107103D01*
X129297802Y-75063420D01*
X129240758Y-74956701D01*
X129293716Y-74861418D01*
X129310755Y-74808395D01*
X129343300Y-74775850D01*
X129335801Y-74707600D01*
X129343300Y-74639350D01*
X129310755Y-74606805D01*
X129293716Y-74553782D01*
X129240259Y-74457600D01*
X129293716Y-74361418D01*
X129310755Y-74308395D01*
X129343300Y-74275850D01*
X129335801Y-74207600D01*
X129343300Y-74139350D01*
X129310755Y-74106805D01*
X129293716Y-74053782D01*
X129232950Y-73944450D01*
X129206212Y-73912938D01*
X129343300Y-73775850D01*
X129331985Y-73672868D01*
X129293716Y-73553782D01*
X129232950Y-73444450D01*
X129152022Y-73349074D01*
X129054042Y-73271318D01*
X128942775Y-73214172D01*
X128822498Y-73179830D01*
X128697832Y-73169614D01*
X128344050Y-73172600D01*
X128185300Y-73331350D01*
X128185300Y-74104600D01*
X127931300Y-74104600D01*
X127931300Y-73331350D01*
X127772550Y-73172600D01*
X127418768Y-73169614D01*
X127294102Y-73179830D01*
X127173825Y-73214172D01*
X127062558Y-73271318D01*
X126964578Y-73349074D01*
X126883650Y-73444450D01*
X126850000Y-73504994D01*
X126850000Y-71252894D01*
X126853555Y-71216799D01*
X126850000Y-71180704D01*
X126850000Y-71180695D01*
X126847726Y-71157600D01*
X129570228Y-71157600D01*
X129570228Y-72957600D01*
X129582488Y-73082082D01*
X129618798Y-73201780D01*
X129677763Y-73312094D01*
X129757115Y-73408785D01*
X129853806Y-73488137D01*
X129964120Y-73547102D01*
X130083818Y-73583412D01*
X130208300Y-73595672D01*
X132408300Y-73595672D01*
X132532782Y-73583412D01*
X132652480Y-73547102D01*
X132762794Y-73488137D01*
X132859485Y-73408785D01*
X132938837Y-73312094D01*
X132997802Y-73201780D01*
X133034112Y-73082082D01*
X133046372Y-72957600D01*
X133046372Y-71157600D01*
X133034112Y-71033118D01*
X132997802Y-70913420D01*
X132938837Y-70803106D01*
X132859485Y-70706415D01*
X132762794Y-70627063D01*
X132652480Y-70568098D01*
X132532782Y-70531788D01*
X132408300Y-70519528D01*
X130208300Y-70519528D01*
X130083818Y-70531788D01*
X129964120Y-70568098D01*
X129853806Y-70627063D01*
X129757115Y-70706415D01*
X129677763Y-70803106D01*
X129618798Y-70913420D01*
X129582488Y-71033118D01*
X129570228Y-71157600D01*
X126847726Y-71157600D01*
X126839365Y-71072715D01*
X126797337Y-70934167D01*
X126729087Y-70806480D01*
X126692109Y-70761423D01*
X126660253Y-70722606D01*
X126660250Y-70722603D01*
X126637237Y-70694562D01*
X126609197Y-70671550D01*
X123893397Y-67955750D01*
X124725000Y-67955750D01*
X124734765Y-68077348D01*
X124771623Y-68196878D01*
X124831092Y-68306921D01*
X124910887Y-68403247D01*
X125007941Y-68482156D01*
X125118524Y-68540614D01*
X125238387Y-68576375D01*
X125362923Y-68588065D01*
X125384250Y-68585000D01*
X125543000Y-68426250D01*
X125543000Y-67797000D01*
X125797000Y-67797000D01*
X125797000Y-68426250D01*
X125955750Y-68585000D01*
X125977077Y-68588065D01*
X126101613Y-68576375D01*
X126221476Y-68540614D01*
X126330000Y-68483244D01*
X126438524Y-68540614D01*
X126558387Y-68576375D01*
X126682923Y-68588065D01*
X126704250Y-68585000D01*
X126863000Y-68426250D01*
X126863000Y-67797000D01*
X127117000Y-67797000D01*
X127117000Y-68426250D01*
X127275750Y-68585000D01*
X127297077Y-68588065D01*
X127421613Y-68576375D01*
X127541476Y-68540614D01*
X127652059Y-68482156D01*
X127749113Y-68403247D01*
X127828908Y-68306921D01*
X127888377Y-68196878D01*
X127925235Y-68077348D01*
X127935000Y-67955750D01*
X127776250Y-67797000D01*
X127117000Y-67797000D01*
X126863000Y-67797000D01*
X125797000Y-67797000D01*
X125543000Y-67797000D01*
X124883750Y-67797000D01*
X124725000Y-67955750D01*
X123893397Y-67955750D01*
X122833459Y-66895813D01*
X122810438Y-66867762D01*
X122765049Y-66830512D01*
X122841898Y-66815226D01*
X123030256Y-66737205D01*
X123199774Y-66623937D01*
X123243711Y-66580000D01*
X124465199Y-66580000D01*
X124721928Y-66836730D01*
X124721928Y-66850000D01*
X124736878Y-67001794D01*
X124776828Y-67133491D01*
X124771623Y-67143122D01*
X124734765Y-67262652D01*
X124725000Y-67384250D01*
X124883750Y-67543000D01*
X125153892Y-67543000D01*
X125202245Y-67568845D01*
X125348206Y-67613122D01*
X125500000Y-67628072D01*
X125840000Y-67628072D01*
X125991794Y-67613122D01*
X126137755Y-67568845D01*
X126186108Y-67543000D01*
X126473892Y-67543000D01*
X126522245Y-67568845D01*
X126668206Y-67613122D01*
X126820000Y-67628072D01*
X127160000Y-67628072D01*
X127311794Y-67613122D01*
X127457755Y-67568845D01*
X127506108Y-67543000D01*
X127776250Y-67543000D01*
X127935000Y-67384250D01*
X127925235Y-67262652D01*
X127888377Y-67143122D01*
X127883172Y-67133491D01*
X127923122Y-67001794D01*
X127938072Y-66850000D01*
X127938072Y-66570000D01*
X127923122Y-66418206D01*
X127878845Y-66272245D01*
X127806943Y-66137726D01*
X127758668Y-66078903D01*
X127857755Y-66048845D01*
X127992274Y-65976943D01*
X128110180Y-65880180D01*
X128206943Y-65762274D01*
X128278845Y-65627755D01*
X128323122Y-65481794D01*
X128338072Y-65330000D01*
X128338072Y-65050000D01*
X128323122Y-64898206D01*
X128283172Y-64766509D01*
X128288377Y-64756878D01*
X128325235Y-64637348D01*
X128335000Y-64515750D01*
X128176250Y-64357000D01*
X127906108Y-64357000D01*
X127857755Y-64331155D01*
X127711794Y-64286878D01*
X127560000Y-64271928D01*
X127220000Y-64271928D01*
X127068206Y-64286878D01*
X126922245Y-64331155D01*
X126873892Y-64357000D01*
X126603750Y-64357000D01*
X126565000Y-64395750D01*
X126456250Y-64287000D01*
X126186108Y-64287000D01*
X126137755Y-64261155D01*
X125991794Y-64216878D01*
X125840000Y-64201928D01*
X125500000Y-64201928D01*
X125348206Y-64216878D01*
X125202245Y-64261155D01*
X125153892Y-64287000D01*
X124883750Y-64287000D01*
X124870000Y-64300750D01*
X124836250Y-64267000D01*
X124217000Y-64267000D01*
X124217000Y-64287000D01*
X123978072Y-64287000D01*
X123978072Y-63955000D01*
X123963218Y-63804181D01*
X123963000Y-63803462D01*
X123963000Y-63343750D01*
X124217000Y-63343750D01*
X124217000Y-64013000D01*
X124836250Y-64013000D01*
X124850000Y-63999250D01*
X124883750Y-64033000D01*
X125543000Y-64033000D01*
X125543000Y-63403750D01*
X125797000Y-63403750D01*
X125797000Y-64033000D01*
X126456250Y-64033000D01*
X126495000Y-63994250D01*
X126603750Y-64103000D01*
X127263000Y-64103000D01*
X127263000Y-63473750D01*
X127517000Y-63473750D01*
X127517000Y-64103000D01*
X128176250Y-64103000D01*
X128335000Y-63944250D01*
X128325235Y-63822652D01*
X128288377Y-63703122D01*
X128228908Y-63593079D01*
X128149113Y-63496753D01*
X128052059Y-63417844D01*
X127941476Y-63359386D01*
X127821613Y-63323625D01*
X127697077Y-63311935D01*
X127675750Y-63315000D01*
X127517000Y-63473750D01*
X127263000Y-63473750D01*
X127104250Y-63315000D01*
X127082923Y-63311935D01*
X126958387Y-63323625D01*
X126838524Y-63359386D01*
X126727941Y-63417844D01*
X126630887Y-63496753D01*
X126551092Y-63593079D01*
X126548915Y-63597108D01*
X126508908Y-63523079D01*
X126429113Y-63426753D01*
X126332059Y-63347844D01*
X126221476Y-63289386D01*
X126101613Y-63253625D01*
X125977077Y-63241935D01*
X125955750Y-63245000D01*
X125797000Y-63403750D01*
X125543000Y-63403750D01*
X125384250Y-63245000D01*
X125362923Y-63241935D01*
X125238387Y-63253625D01*
X125118524Y-63289386D01*
X125007941Y-63347844D01*
X124910887Y-63426753D01*
X124884291Y-63458859D01*
X124816724Y-63374422D01*
X124721020Y-63293882D01*
X124611442Y-63233559D01*
X124492202Y-63195774D01*
X124375750Y-63185000D01*
X124217000Y-63343750D01*
X123963000Y-63343750D01*
X123804250Y-63185000D01*
X123687798Y-63195774D01*
X123568558Y-63233559D01*
X123528549Y-63255584D01*
X123500842Y-63240775D01*
X123355819Y-63196782D01*
X123205000Y-63181928D01*
X122935000Y-63181928D01*
X122784181Y-63196782D01*
X122639158Y-63240775D01*
X122505504Y-63312214D01*
X122444231Y-63362500D01*
X121749373Y-63362500D01*
X121694180Y-63332998D01*
X121574482Y-63296688D01*
X121450000Y-63284428D01*
X120250000Y-63284428D01*
X120125518Y-63296688D01*
X120005820Y-63332998D01*
X119895506Y-63391963D01*
X119798815Y-63471315D01*
X119719463Y-63568006D01*
X119660498Y-63678320D01*
X119624188Y-63798018D01*
X119611928Y-63922500D01*
X119611928Y-64322500D01*
X119623500Y-64440000D01*
X119611928Y-64557500D01*
X119611928Y-64699284D01*
X119060000Y-64147356D01*
X119060000Y-62251947D01*
X119244187Y-62067760D01*
X119272238Y-62044739D01*
X119364087Y-61932821D01*
X119432337Y-61805134D01*
X119474365Y-61666586D01*
X119479354Y-61615936D01*
X119480537Y-61614494D01*
X119539502Y-61504180D01*
X119575812Y-61384482D01*
X119588072Y-61260000D01*
X119588072Y-60210000D01*
X119575812Y-60085518D01*
X119539502Y-59965820D01*
X119480537Y-59855506D01*
X119443191Y-59810000D01*
X119480537Y-59764494D01*
X119539502Y-59654180D01*
X119575812Y-59534482D01*
X119588072Y-59410000D01*
X119588072Y-58360000D01*
X119575812Y-58235518D01*
X119539502Y-58115820D01*
X119508546Y-58057907D01*
X119499003Y-57961014D01*
X119455546Y-57817753D01*
X119384974Y-57685724D01*
X119290001Y-57569999D01*
X119261003Y-57546201D01*
X117783804Y-56069003D01*
X117760001Y-56039999D01*
X117644276Y-55945026D01*
X117512247Y-55874454D01*
X117368986Y-55830997D01*
X117257333Y-55820000D01*
X117257322Y-55820000D01*
X117220000Y-55816324D01*
X117182678Y-55820000D01*
X114604802Y-55820000D01*
X114220243Y-55435442D01*
X114295135Y-55454023D01*
X114570017Y-55466910D01*
X114842133Y-55425922D01*
X115101023Y-55332636D01*
X115216980Y-55270656D01*
X115283960Y-55030565D01*
X114498000Y-54244605D01*
X114483858Y-54258748D01*
X114304253Y-54079143D01*
X114318395Y-54065000D01*
X114677605Y-54065000D01*
X115463565Y-54850960D01*
X115703656Y-54783980D01*
X115820756Y-54534952D01*
X115887023Y-54267865D01*
X115899910Y-53992983D01*
X115858922Y-53720867D01*
X115765636Y-53461977D01*
X115703656Y-53346020D01*
X115463565Y-53279040D01*
X114677605Y-54065000D01*
X114318395Y-54065000D01*
X113532435Y-53279040D01*
X113292344Y-53346020D01*
X113250314Y-53435403D01*
X113237005Y-53403273D01*
X113084120Y-53174465D01*
X113009090Y-53099435D01*
X113712040Y-53099435D01*
X114498000Y-53885395D01*
X115283960Y-53099435D01*
X115216980Y-52859344D01*
X114967952Y-52742244D01*
X114966969Y-52742000D01*
X116362000Y-52742000D01*
X116362000Y-53442000D01*
X116410507Y-53680496D01*
X116504610Y-53904946D01*
X116640693Y-54106725D01*
X116813526Y-54278078D01*
X117016467Y-54412421D01*
X117241718Y-54504591D01*
X117279391Y-54508462D01*
X117470000Y-54383731D01*
X117470000Y-52742000D01*
X117724000Y-52742000D01*
X117724000Y-54383731D01*
X117914609Y-54508462D01*
X117952282Y-54504591D01*
X118177533Y-54412421D01*
X118380474Y-54278078D01*
X118553307Y-54106725D01*
X118689390Y-53904946D01*
X118783493Y-53680496D01*
X118832000Y-53442000D01*
X118832000Y-52742000D01*
X117724000Y-52742000D01*
X117470000Y-52742000D01*
X116362000Y-52742000D01*
X114966969Y-52742000D01*
X114700865Y-52675977D01*
X114425983Y-52663090D01*
X114153867Y-52704078D01*
X113894977Y-52797364D01*
X113779020Y-52859344D01*
X113712040Y-53099435D01*
X113009090Y-53099435D01*
X112889535Y-52979880D01*
X112660727Y-52826995D01*
X112406490Y-52721686D01*
X112136592Y-52668000D01*
X111861408Y-52668000D01*
X111591510Y-52721686D01*
X111337273Y-52826995D01*
X111108465Y-52979880D01*
X110998000Y-53090345D01*
X110887535Y-52979880D01*
X110658727Y-52826995D01*
X110404490Y-52721686D01*
X110134592Y-52668000D01*
X109859408Y-52668000D01*
X109589510Y-52721686D01*
X109335273Y-52826995D01*
X109106465Y-52979880D01*
X108911880Y-53174465D01*
X108758995Y-53403273D01*
X108747500Y-53431024D01*
X108736005Y-53403273D01*
X108583120Y-53174465D01*
X108388535Y-52979880D01*
X108159727Y-52826995D01*
X107905490Y-52721686D01*
X107635592Y-52668000D01*
X107360408Y-52668000D01*
X107090510Y-52721686D01*
X106836273Y-52826995D01*
X106607465Y-52979880D01*
X106412880Y-53174465D01*
X106259995Y-53403273D01*
X106154686Y-53657510D01*
X106101000Y-53927408D01*
X106101000Y-54202592D01*
X106154686Y-54472490D01*
X106259995Y-54726727D01*
X106412880Y-54955535D01*
X106607465Y-55150120D01*
X106621160Y-55159271D01*
X106621161Y-57004037D01*
X96960199Y-66665000D01*
X96898061Y-66665000D01*
X96698102Y-66704774D01*
X96509744Y-66782795D01*
X96340226Y-66896063D01*
X96196063Y-67040226D01*
X96082795Y-67209744D01*
X96004774Y-67398102D01*
X95965000Y-67598061D01*
X95965000Y-67801939D01*
X96004774Y-68001898D01*
X96082795Y-68190256D01*
X96196063Y-68359774D01*
X96340226Y-68503937D01*
X96509744Y-68617205D01*
X96698102Y-68695226D01*
X96898061Y-68735000D01*
X97101939Y-68735000D01*
X97301898Y-68695226D01*
X97490256Y-68617205D01*
X97659774Y-68503937D01*
X97803937Y-68359774D01*
X97917205Y-68190256D01*
X97995226Y-68001898D01*
X98035000Y-67801939D01*
X98035000Y-67739801D01*
X107892163Y-57882639D01*
X107921161Y-57858841D01*
X108016134Y-57743116D01*
X108086706Y-57611087D01*
X108130163Y-57467826D01*
X108141160Y-57356173D01*
X108141160Y-57356164D01*
X108144836Y-57318841D01*
X108141160Y-57281518D01*
X108141160Y-55310696D01*
X108159727Y-55303005D01*
X108388535Y-55150120D01*
X108583120Y-54955535D01*
X108736005Y-54726727D01*
X108747500Y-54698976D01*
X108758995Y-54726727D01*
X108911880Y-54955535D01*
X109106465Y-55150120D01*
X109335273Y-55303005D01*
X109589510Y-55408314D01*
X109859408Y-55462000D01*
X110097199Y-55462000D01*
X113146200Y-58511002D01*
X113169999Y-58540001D01*
X113198997Y-58563799D01*
X113285723Y-58634974D01*
X113353542Y-58671224D01*
X113417753Y-58705546D01*
X113561014Y-58749003D01*
X113672667Y-58760000D01*
X113672677Y-58760000D01*
X113710000Y-58763676D01*
X113747323Y-58760000D01*
X116155199Y-58760000D01*
X116611928Y-59216730D01*
X116611928Y-59410000D01*
X116624188Y-59534482D01*
X116660498Y-59654180D01*
X116719463Y-59764494D01*
X116756809Y-59810000D01*
X116719463Y-59855506D01*
X116660498Y-59965820D01*
X116624188Y-60085518D01*
X116611928Y-60210000D01*
X116611928Y-61260000D01*
X116624188Y-61384482D01*
X116660498Y-61504180D01*
X116719463Y-61614494D01*
X116720646Y-61615936D01*
X116725635Y-61666586D01*
X116767664Y-61805134D01*
X116835914Y-61932821D01*
X116927763Y-62044739D01*
X116955808Y-62067755D01*
X117140000Y-62251947D01*
X117140001Y-64602087D01*
X117136444Y-64638202D01*
X117150635Y-64782287D01*
X117191273Y-64916250D01*
X117192664Y-64920835D01*
X117260914Y-65048522D01*
X117294954Y-65090000D01*
X116877977Y-65090000D01*
X116876500Y-65075000D01*
X116888072Y-64957500D01*
X116888072Y-64557500D01*
X116876500Y-64440000D01*
X116888072Y-64322500D01*
X116888072Y-63922500D01*
X116875812Y-63798018D01*
X116839502Y-63678320D01*
X116780537Y-63568006D01*
X116701185Y-63471315D01*
X116604494Y-63391963D01*
X116494180Y-63332998D01*
X116374482Y-63296688D01*
X116250000Y-63284428D01*
X115050000Y-63284428D01*
X114925518Y-63296688D01*
X114805820Y-63332998D01*
X114701588Y-63388712D01*
X114605914Y-63398135D01*
X114467366Y-63440163D01*
X114392836Y-63480000D01*
X111662906Y-63480000D01*
X111626801Y-63476444D01*
X111626271Y-63476496D01*
X111559024Y-63431563D01*
X111370666Y-63353542D01*
X111170707Y-63313768D01*
X110966829Y-63313768D01*
X110766870Y-63353542D01*
X110578512Y-63431563D01*
X110408994Y-63544831D01*
X110264831Y-63688994D01*
X110151563Y-63858512D01*
X110073542Y-64046870D01*
X110033768Y-64246829D01*
X110033768Y-64450707D01*
X110073542Y-64650666D01*
X110151563Y-64839024D01*
X110264831Y-65008542D01*
X110408994Y-65152705D01*
X110578512Y-65265973D01*
X110766870Y-65343994D01*
X110807854Y-65352146D01*
X110816006Y-65393130D01*
X110894027Y-65581488D01*
X111007295Y-65751006D01*
X111151458Y-65895169D01*
X111320976Y-66008437D01*
X111509334Y-66086458D01*
X111709293Y-66126232D01*
X111913171Y-66126232D01*
X112113130Y-66086458D01*
X112301488Y-66008437D01*
X112471006Y-65895169D01*
X112615169Y-65751006D01*
X112728437Y-65581488D01*
X112803612Y-65400000D01*
X114392836Y-65400000D01*
X114411928Y-65410205D01*
X114411928Y-65592500D01*
X114423500Y-65710000D01*
X114411928Y-65827500D01*
X114411928Y-66227500D01*
X114423500Y-66345000D01*
X114411928Y-66462500D01*
X114411928Y-66537500D01*
X111139822Y-66537500D01*
X111102499Y-66533824D01*
X111065176Y-66537500D01*
X111065167Y-66537500D01*
X110953514Y-66548497D01*
X110812412Y-66591299D01*
X110810253Y-66591954D01*
X110678223Y-66662526D01*
X110615399Y-66714085D01*
X110562499Y-66757499D01*
X110538701Y-66786497D01*
X107079003Y-70246196D01*
X107049999Y-70269999D01*
X107020636Y-70305779D01*
X107017348Y-70304765D01*
X106895750Y-70295000D01*
X106737000Y-70453750D01*
X106737000Y-70723892D01*
X106711155Y-70772245D01*
X106666878Y-70918206D01*
X106651928Y-71070000D01*
X106651928Y-71410000D01*
X106666878Y-71561794D01*
X106711155Y-71707755D01*
X106737000Y-71756108D01*
X106737000Y-72026250D01*
X106830000Y-72119250D01*
X106830001Y-79895197D01*
X97860000Y-88865199D01*
X97860000Y-71547077D01*
X105691935Y-71547077D01*
X105703625Y-71671613D01*
X105739386Y-71791476D01*
X105797844Y-71902059D01*
X105876753Y-71999113D01*
X105973079Y-72078908D01*
X106083122Y-72138377D01*
X106202652Y-72175235D01*
X106324250Y-72185000D01*
X106483000Y-72026250D01*
X106483000Y-71367000D01*
X105853750Y-71367000D01*
X105695000Y-71525750D01*
X105691935Y-71547077D01*
X97860000Y-71547077D01*
X97860000Y-71500499D01*
X98427576Y-70932923D01*
X105691935Y-70932923D01*
X105695000Y-70954250D01*
X105853750Y-71113000D01*
X106483000Y-71113000D01*
X106483000Y-70453750D01*
X106324250Y-70295000D01*
X106202652Y-70304765D01*
X106083122Y-70341623D01*
X105973079Y-70401092D01*
X105876753Y-70480887D01*
X105797844Y-70577941D01*
X105739386Y-70688524D01*
X105703625Y-70808387D01*
X105691935Y-70932923D01*
X98427576Y-70932923D01*
X104532651Y-64827849D01*
X104594788Y-64827849D01*
X104794747Y-64788075D01*
X104983105Y-64710054D01*
X105152623Y-64596786D01*
X105296786Y-64452623D01*
X105410054Y-64283105D01*
X105488075Y-64094747D01*
X105527849Y-63894788D01*
X105527849Y-63690910D01*
X105488075Y-63490951D01*
X105410054Y-63302593D01*
X105296786Y-63133075D01*
X105152623Y-62988912D01*
X104983105Y-62875644D01*
X104794747Y-62797623D01*
X104594788Y-62757849D01*
X104390910Y-62757849D01*
X104190951Y-62797623D01*
X104002593Y-62875644D01*
X103833075Y-62988912D01*
X103688912Y-63133075D01*
X103575644Y-63302593D01*
X103497623Y-63490951D01*
X103457849Y-63690910D01*
X103457849Y-63753047D01*
X97100000Y-70110896D01*
X85678106Y-58689003D01*
X85654303Y-58659999D01*
X85612872Y-58625997D01*
X85612872Y-57795500D01*
X85600612Y-57671018D01*
X85564302Y-57551320D01*
X85534800Y-57496127D01*
X85534800Y-55351852D01*
X85652727Y-55303005D01*
X85881535Y-55150120D01*
X86001090Y-55030565D01*
X86704040Y-55030565D01*
X86771020Y-55270656D01*
X87020048Y-55387756D01*
X87287135Y-55454023D01*
X87562017Y-55466910D01*
X87834133Y-55425922D01*
X88093023Y-55332636D01*
X88208980Y-55270656D01*
X88275960Y-55030565D01*
X87490000Y-54244605D01*
X86704040Y-55030565D01*
X86001090Y-55030565D01*
X86076120Y-54955535D01*
X86229005Y-54726727D01*
X86239805Y-54700653D01*
X86284344Y-54783980D01*
X86524435Y-54850960D01*
X87310395Y-54065000D01*
X87669605Y-54065000D01*
X88455565Y-54850960D01*
X88695656Y-54783980D01*
X88812756Y-54534952D01*
X88879023Y-54267865D01*
X88891910Y-53992983D01*
X88850922Y-53720867D01*
X88757636Y-53461977D01*
X88695656Y-53346020D01*
X88455565Y-53279040D01*
X87669605Y-54065000D01*
X87310395Y-54065000D01*
X86524435Y-53279040D01*
X86284344Y-53346020D01*
X86242314Y-53435403D01*
X86229005Y-53403273D01*
X86076120Y-53174465D01*
X86001090Y-53099435D01*
X86704040Y-53099435D01*
X87490000Y-53885395D01*
X88275960Y-53099435D01*
X88208980Y-52859344D01*
X87959952Y-52742244D01*
X87958969Y-52742000D01*
X89354000Y-52742000D01*
X89354000Y-53442000D01*
X89402507Y-53680496D01*
X89496610Y-53904946D01*
X89632693Y-54106725D01*
X89805526Y-54278078D01*
X90008467Y-54412421D01*
X90233718Y-54504591D01*
X90271391Y-54508462D01*
X90462000Y-54383731D01*
X90462000Y-52742000D01*
X90716000Y-52742000D01*
X90716000Y-54383731D01*
X90906609Y-54508462D01*
X90944282Y-54504591D01*
X91169533Y-54412421D01*
X91372474Y-54278078D01*
X91545307Y-54106725D01*
X91681390Y-53904946D01*
X91775493Y-53680496D01*
X91824000Y-53442000D01*
X91824000Y-52742000D01*
X103164000Y-52742000D01*
X103164000Y-53442000D01*
X103212507Y-53680496D01*
X103306610Y-53904946D01*
X103442693Y-54106725D01*
X103615526Y-54278078D01*
X103818467Y-54412421D01*
X104043718Y-54504591D01*
X104081391Y-54508462D01*
X104272000Y-54383731D01*
X104272000Y-52742000D01*
X104526000Y-52742000D01*
X104526000Y-54383731D01*
X104716609Y-54508462D01*
X104754282Y-54504591D01*
X104979533Y-54412421D01*
X105182474Y-54278078D01*
X105355307Y-54106725D01*
X105491390Y-53904946D01*
X105585493Y-53680496D01*
X105634000Y-53442000D01*
X105634000Y-52742000D01*
X104526000Y-52742000D01*
X104272000Y-52742000D01*
X103164000Y-52742000D01*
X91824000Y-52742000D01*
X90716000Y-52742000D01*
X90462000Y-52742000D01*
X89354000Y-52742000D01*
X87958969Y-52742000D01*
X87692865Y-52675977D01*
X87417983Y-52663090D01*
X87145867Y-52704078D01*
X86886977Y-52797364D01*
X86771020Y-52859344D01*
X86704040Y-53099435D01*
X86001090Y-53099435D01*
X85881535Y-52979880D01*
X85652727Y-52826995D01*
X85398490Y-52721686D01*
X85128592Y-52668000D01*
X84853408Y-52668000D01*
X84583510Y-52721686D01*
X84329273Y-52826995D01*
X84100465Y-52979880D01*
X83990000Y-53090345D01*
X83879535Y-52979880D01*
X83650727Y-52826995D01*
X83396490Y-52721686D01*
X83126592Y-52668000D01*
X82851408Y-52668000D01*
X82581510Y-52721686D01*
X82327273Y-52826995D01*
X82098465Y-52979880D01*
X81903880Y-53174465D01*
X81750995Y-53403273D01*
X81739500Y-53431024D01*
X81728005Y-53403273D01*
X81575120Y-53174465D01*
X81380535Y-52979880D01*
X81151727Y-52826995D01*
X80897490Y-52721686D01*
X80627592Y-52668000D01*
X80352408Y-52668000D01*
X80082510Y-52721686D01*
X79828273Y-52826995D01*
X79599465Y-52979880D01*
X79404880Y-53174465D01*
X79251995Y-53403273D01*
X79146686Y-53657510D01*
X79093000Y-53927408D01*
X79093000Y-54202592D01*
X79146686Y-54472490D01*
X79251995Y-54726727D01*
X79404880Y-54955535D01*
X79599465Y-55150120D01*
X79828273Y-55303005D01*
X79854640Y-55313927D01*
X79854641Y-72277307D01*
X79850964Y-72314640D01*
X79854641Y-72351973D01*
X79864104Y-72448046D01*
X79865638Y-72463625D01*
X79909094Y-72606886D01*
X79979666Y-72738916D01*
X80050841Y-72825642D01*
X80074640Y-72854641D01*
X80103638Y-72878439D01*
X84875198Y-77650000D01*
X74689007Y-87836192D01*
X74688996Y-87836201D01*
X69804898Y-92720301D01*
X69775900Y-92744099D01*
X69752102Y-92773097D01*
X69752101Y-92773098D01*
X69680926Y-92859824D01*
X69610354Y-92991854D01*
X69587825Y-93066126D01*
X69566898Y-93135114D01*
X69565435Y-93149967D01*
X69552224Y-93284100D01*
X69555901Y-93321432D01*
X69555901Y-93759041D01*
X69554150Y-93758900D01*
X69395400Y-93917650D01*
X69395400Y-94187792D01*
X69369555Y-94236145D01*
X69325278Y-94382106D01*
X69310328Y-94533900D01*
X69310328Y-94873900D01*
X69325278Y-95025694D01*
X69345300Y-95091697D01*
X69345299Y-96519051D01*
X69282299Y-96582051D01*
X69282299Y-96664160D01*
X69249762Y-96703807D01*
X69190797Y-96814121D01*
X69155299Y-96931142D01*
X69119801Y-96814121D01*
X69060836Y-96703807D01*
X69028299Y-96664160D01*
X69028299Y-96582051D01*
X68869549Y-96423301D01*
X68830299Y-96420229D01*
X68705817Y-96432489D01*
X68680299Y-96440230D01*
X68654781Y-96432489D01*
X68530299Y-96420229D01*
X67880299Y-96420229D01*
X67755817Y-96432489D01*
X67636119Y-96468799D01*
X67525805Y-96527764D01*
X67429114Y-96607116D01*
X67349762Y-96703807D01*
X67290797Y-96814121D01*
X67254487Y-96933819D01*
X67242227Y-97058301D01*
X67242227Y-97284600D01*
X66697187Y-97284600D01*
X66702900Y-97222850D01*
X66544150Y-97064100D01*
X66084438Y-97064100D01*
X66083719Y-97063882D01*
X65932900Y-97049028D01*
X65562900Y-97049028D01*
X65412081Y-97063882D01*
X65411362Y-97064100D01*
X64951650Y-97064100D01*
X64792900Y-97222850D01*
X64803674Y-97339302D01*
X64841459Y-97458542D01*
X64863484Y-97498551D01*
X64848675Y-97526258D01*
X64804682Y-97671281D01*
X64789828Y-97822100D01*
X64789828Y-98092100D01*
X64804682Y-98242919D01*
X64848675Y-98387942D01*
X64920114Y-98521596D01*
X65016256Y-98638744D01*
X65133404Y-98734886D01*
X65267058Y-98806325D01*
X65412081Y-98850318D01*
X65562900Y-98865172D01*
X65932900Y-98865172D01*
X66083719Y-98850318D01*
X66228742Y-98806325D01*
X66231969Y-98804600D01*
X67273239Y-98804600D01*
X67290797Y-98862481D01*
X67349762Y-98972795D01*
X67429114Y-99069486D01*
X67525805Y-99148838D01*
X67599634Y-99188301D01*
X67525805Y-99227764D01*
X67429114Y-99307116D01*
X67349762Y-99403807D01*
X67290797Y-99514121D01*
X67254487Y-99633819D01*
X67242227Y-99758301D01*
X67242227Y-99778301D01*
X66503424Y-99778301D01*
X66466099Y-99774625D01*
X66428774Y-99778301D01*
X66428766Y-99778301D01*
X66317113Y-99789298D01*
X66173852Y-99832755D01*
X66041823Y-99903327D01*
X65926098Y-99998300D01*
X65902300Y-100027299D01*
X65486107Y-100443491D01*
X65412081Y-100450782D01*
X65267058Y-100494775D01*
X65133404Y-100566214D01*
X65016256Y-100662356D01*
X64920114Y-100779504D01*
X64848675Y-100913158D01*
X64804682Y-101058181D01*
X64789828Y-101209000D01*
X64789828Y-101479000D01*
X64804682Y-101629819D01*
X64848675Y-101774842D01*
X64890986Y-101854000D01*
X64848675Y-101933158D01*
X64804682Y-102078181D01*
X64789828Y-102229000D01*
X64789828Y-102499000D01*
X64804682Y-102649819D01*
X64848675Y-102794842D01*
X64920114Y-102928496D01*
X65016256Y-103045644D01*
X65133404Y-103141786D01*
X65267058Y-103213225D01*
X65412081Y-103257218D01*
X65562900Y-103272072D01*
X65932900Y-103272072D01*
X66083719Y-103257218D01*
X66228742Y-103213225D01*
X66231969Y-103211500D01*
X68777798Y-103211500D01*
X69209338Y-103643040D01*
X69216178Y-103712494D01*
X69260455Y-103858455D01*
X69332357Y-103992974D01*
X69429120Y-104110880D01*
X69547026Y-104207643D01*
X69681545Y-104279545D01*
X69827506Y-104323822D01*
X69979300Y-104338772D01*
X70259300Y-104338772D01*
X70411094Y-104323822D01*
X70542791Y-104283872D01*
X70552422Y-104289077D01*
X70671952Y-104325935D01*
X70793550Y-104335700D01*
X70952300Y-104176950D01*
X70952300Y-103906808D01*
X70978145Y-103858455D01*
X71022422Y-103712494D01*
X71037372Y-103560700D01*
X71037372Y-103517700D01*
X71206300Y-103517700D01*
X71206300Y-104176950D01*
X71365050Y-104335700D01*
X71486648Y-104325935D01*
X71606178Y-104289077D01*
X71716221Y-104229608D01*
X71812547Y-104149813D01*
X71891456Y-104052759D01*
X71949914Y-103942176D01*
X71985675Y-103822313D01*
X71997365Y-103697777D01*
X71994300Y-103676450D01*
X71835550Y-103517700D01*
X71206300Y-103517700D01*
X71037372Y-103517700D01*
X71037372Y-103220700D01*
X71022422Y-103068906D01*
X70978145Y-102922945D01*
X70952300Y-102874592D01*
X70952300Y-102604450D01*
X71206300Y-102604450D01*
X71206300Y-103263700D01*
X71835550Y-103263700D01*
X71994300Y-103104950D01*
X71997365Y-103083623D01*
X71985675Y-102959087D01*
X71949914Y-102839224D01*
X71891456Y-102728641D01*
X71812547Y-102631587D01*
X71716221Y-102551792D01*
X71606178Y-102492323D01*
X71486648Y-102455465D01*
X71365050Y-102445700D01*
X71206300Y-102604450D01*
X70952300Y-102604450D01*
X70865299Y-102517449D01*
X70865299Y-101782769D01*
X70881484Y-101769486D01*
X70960836Y-101672795D01*
X70995601Y-101607755D01*
X71009744Y-101617205D01*
X71198102Y-101695226D01*
X71398061Y-101735000D01*
X71601939Y-101735000D01*
X71801898Y-101695226D01*
X71990256Y-101617205D01*
X72159774Y-101503937D01*
X72303937Y-101359774D01*
X72417205Y-101190256D01*
X72495226Y-101001898D01*
X72535000Y-100801939D01*
X72535000Y-100598061D01*
X72495226Y-100398102D01*
X72417205Y-100209744D01*
X72303937Y-100040226D01*
X72159774Y-99896063D01*
X71990256Y-99782795D01*
X71801898Y-99704774D01*
X71601939Y-99665000D01*
X71398061Y-99665000D01*
X71198102Y-99704774D01*
X71068371Y-99758511D01*
X71068371Y-99758301D01*
X71056111Y-99633819D01*
X71019801Y-99514121D01*
X70960836Y-99403807D01*
X70881484Y-99307116D01*
X70784793Y-99227764D01*
X70710964Y-99188301D01*
X70784793Y-99148838D01*
X70881484Y-99069486D01*
X70960836Y-98972795D01*
X71019801Y-98862481D01*
X71056111Y-98742783D01*
X71068371Y-98618301D01*
X71068371Y-97058301D01*
X71056111Y-96933819D01*
X71019801Y-96814121D01*
X70960836Y-96703807D01*
X70881484Y-96607116D01*
X70865299Y-96593833D01*
X70865299Y-95467807D01*
X70918580Y-95424080D01*
X71015343Y-95306174D01*
X71087245Y-95171655D01*
X71131522Y-95025694D01*
X71146472Y-94873900D01*
X71146472Y-94533900D01*
X71131522Y-94382106D01*
X71087245Y-94236145D01*
X71075900Y-94214920D01*
X71075900Y-93598901D01*
X75763799Y-88911004D01*
X75763808Y-88910993D01*
X85989802Y-78685000D01*
X86051939Y-78685000D01*
X86251898Y-78645226D01*
X86440256Y-78567205D01*
X86609774Y-78453937D01*
X86753937Y-78309774D01*
X86867205Y-78140256D01*
X86945226Y-77951898D01*
X86985000Y-77751939D01*
X86985000Y-77548061D01*
X86945226Y-77348102D01*
X86867205Y-77159744D01*
X86753937Y-76990226D01*
X86609774Y-76846063D01*
X86440256Y-76732795D01*
X86251898Y-76654774D01*
X86051939Y-76615000D01*
X85989803Y-76615000D01*
X81374640Y-71999839D01*
X81374640Y-55154059D01*
X81380535Y-55150120D01*
X81575120Y-54955535D01*
X81728005Y-54726727D01*
X81739500Y-54698976D01*
X81750995Y-54726727D01*
X81903880Y-54955535D01*
X82098465Y-55150120D01*
X82327273Y-55303005D01*
X82581510Y-55408314D01*
X82714801Y-55434827D01*
X82714800Y-57496126D01*
X82685298Y-57551320D01*
X82648988Y-57671018D01*
X82636728Y-57795500D01*
X82636728Y-58845500D01*
X82648988Y-58969982D01*
X82685298Y-59089680D01*
X82744263Y-59199994D01*
X82781609Y-59245500D01*
X82744263Y-59291006D01*
X82685298Y-59401320D01*
X82648988Y-59521018D01*
X82642488Y-59587012D01*
X82589499Y-59630499D01*
X82565696Y-59659503D01*
X82189003Y-60036196D01*
X82159999Y-60059999D01*
X82129363Y-60097330D01*
X82065026Y-60175724D01*
X82046705Y-60210000D01*
X81994454Y-60307754D01*
X81950997Y-60451015D01*
X81940000Y-60562668D01*
X81940000Y-60562678D01*
X81936324Y-60600000D01*
X81940000Y-60637322D01*
X81940000Y-61362678D01*
X81936324Y-61400000D01*
X81940000Y-61437322D01*
X81940000Y-61437333D01*
X81950997Y-61548986D01*
X81970869Y-61614494D01*
X81994454Y-61692246D01*
X82065026Y-61824276D01*
X82125590Y-61898072D01*
X82160000Y-61940001D01*
X82188998Y-61963799D01*
X82963797Y-62738599D01*
X82963803Y-62738604D01*
X83140001Y-62914802D01*
X83140000Y-66757095D01*
X83136444Y-66793200D01*
X83142365Y-66853320D01*
X83150635Y-66937284D01*
X83192663Y-67075832D01*
X83260913Y-67203519D01*
X83352762Y-67315437D01*
X83380808Y-67338454D01*
X87930001Y-71887648D01*
X87930001Y-87072928D01*
X87895226Y-86898102D01*
X87817205Y-86709744D01*
X87703937Y-86540226D01*
X87559774Y-86396063D01*
X87390256Y-86282795D01*
X87201898Y-86204774D01*
X87001939Y-86165000D01*
X86798061Y-86165000D01*
X86598102Y-86204774D01*
X86409744Y-86282795D01*
X86240226Y-86396063D01*
X86096063Y-86540226D01*
X85982795Y-86709744D01*
X85904774Y-86898102D01*
X85865000Y-87098061D01*
X85865000Y-87301939D01*
X85904774Y-87501898D01*
X85982795Y-87690256D01*
X86096063Y-87859774D01*
X86140001Y-87903712D01*
X86140000Y-112285197D01*
X77185199Y-121240000D01*
X69404320Y-121240000D01*
X69380537Y-121195506D01*
X69301185Y-121098815D01*
X69210000Y-121023982D01*
X69210000Y-120189823D01*
X69213676Y-120152500D01*
X69210000Y-120115177D01*
X69210000Y-120115167D01*
X69199003Y-120003514D01*
X69155546Y-119860253D01*
X69084974Y-119728224D01*
X69010428Y-119637390D01*
X69003218Y-119564181D01*
X68959225Y-119419158D01*
X68887786Y-119285504D01*
X68791644Y-119168356D01*
X68674496Y-119072214D01*
X68540842Y-119000775D01*
X68395819Y-118956782D01*
X68245000Y-118941928D01*
X67975000Y-118941928D01*
X67824181Y-118956782D01*
X67679158Y-119000775D01*
X67651451Y-119015584D01*
X67611442Y-118993559D01*
X67492202Y-118955774D01*
X67375750Y-118945000D01*
X67217000Y-119103750D01*
X67217000Y-119563462D01*
X67216782Y-119564181D01*
X67201928Y-119715000D01*
X67201928Y-120085000D01*
X67216782Y-120235819D01*
X67217000Y-120236538D01*
X67217000Y-120696250D01*
X67375750Y-120855000D01*
X67492202Y-120844226D01*
X67611442Y-120806441D01*
X67651451Y-120784416D01*
X67679158Y-120799225D01*
X67690001Y-120802514D01*
X67690001Y-121023981D01*
X67598815Y-121098815D01*
X67519463Y-121195506D01*
X67500000Y-121231918D01*
X67480537Y-121195506D01*
X67401185Y-121098815D01*
X67304494Y-121019463D01*
X67194180Y-120960498D01*
X67074482Y-120924188D01*
X66950000Y-120911928D01*
X66835750Y-120915000D01*
X66677000Y-121073750D01*
X66677000Y-121873000D01*
X66697000Y-121873000D01*
X66697000Y-122127000D01*
X66677000Y-122127000D01*
X66677000Y-122926250D01*
X66761607Y-123010857D01*
X66745506Y-123019463D01*
X66648815Y-123098815D01*
X66569463Y-123195506D01*
X66510498Y-123305820D01*
X66474188Y-123425518D01*
X66461928Y-123550000D01*
X66461928Y-124450000D01*
X66474188Y-124574482D01*
X66510498Y-124694180D01*
X66569463Y-124804494D01*
X66648815Y-124901185D01*
X66745506Y-124980537D01*
X66855820Y-125039502D01*
X66975518Y-125075812D01*
X67100000Y-125088072D01*
X67513271Y-125088072D01*
X72440001Y-130014803D01*
X72440000Y-132151067D01*
X72322499Y-132247498D01*
X72168168Y-132435551D01*
X72053489Y-132650099D01*
X71982870Y-132882898D01*
X71965000Y-133064335D01*
X71965000Y-133735664D01*
X71982870Y-133917101D01*
X72053489Y-134149900D01*
X72168167Y-134364448D01*
X72322498Y-134552502D01*
X72510551Y-134706833D01*
X72725099Y-134821511D01*
X72957898Y-134892130D01*
X73200000Y-134915975D01*
X73442101Y-134892130D01*
X73674900Y-134821511D01*
X73889448Y-134706833D01*
X74077502Y-134552502D01*
X74109191Y-134513889D01*
X74111595Y-134518387D01*
X74222038Y-134652962D01*
X74356613Y-134763405D01*
X74510149Y-134845472D01*
X74676745Y-134896008D01*
X74849999Y-134913072D01*
X75550001Y-134913072D01*
X75723255Y-134896008D01*
X75889851Y-134845472D01*
X76043387Y-134763405D01*
X76177962Y-134652962D01*
X76288405Y-134518387D01*
X76370472Y-134364851D01*
X76421008Y-134198255D01*
X76438072Y-134025001D01*
X76438072Y-132774999D01*
X76421008Y-132601745D01*
X76370472Y-132435149D01*
X76288405Y-132281613D01*
X76177962Y-132147038D01*
X76043387Y-132036595D01*
X75889851Y-131954528D01*
X75723255Y-131903992D01*
X75550001Y-131886928D01*
X74849999Y-131886928D01*
X74676745Y-131903992D01*
X74510149Y-131954528D01*
X74356613Y-132036595D01*
X74222038Y-132147038D01*
X74111595Y-132281613D01*
X74109191Y-132286111D01*
X74077502Y-132247498D01*
X73960000Y-132151067D01*
X73960000Y-129737322D01*
X73963676Y-129699999D01*
X73960000Y-129662676D01*
X73960000Y-129662667D01*
X73949003Y-129551014D01*
X73905546Y-129407753D01*
X73834974Y-129275724D01*
X73740001Y-129159999D01*
X73711003Y-129136201D01*
X68538072Y-123963271D01*
X68538072Y-123550000D01*
X68525812Y-123425518D01*
X68489502Y-123305820D01*
X68430537Y-123195506D01*
X68351185Y-123098815D01*
X68338095Y-123088072D01*
X68850000Y-123088072D01*
X68974482Y-123075812D01*
X69094180Y-123039502D01*
X69204494Y-122980537D01*
X69301185Y-122901185D01*
X69380537Y-122804494D01*
X69404320Y-122760000D01*
X77462678Y-122760000D01*
X77500000Y-122763676D01*
X77537322Y-122760000D01*
X77537333Y-122760000D01*
X77648986Y-122749003D01*
X77792247Y-122705546D01*
X77924276Y-122634974D01*
X78040001Y-122540001D01*
X78063804Y-122510997D01*
X87411009Y-113163793D01*
X87440001Y-113140001D01*
X87463795Y-113111008D01*
X87463799Y-113111004D01*
X87534973Y-113024277D01*
X87534974Y-113024276D01*
X87605546Y-112892247D01*
X87649003Y-112748986D01*
X87660000Y-112637333D01*
X87660000Y-112637324D01*
X87663676Y-112600001D01*
X87660000Y-112562678D01*
X87660000Y-87903711D01*
X87703937Y-87859774D01*
X87817205Y-87690256D01*
X87895226Y-87501898D01*
X87930001Y-87327072D01*
X87930000Y-139107475D01*
X87875914Y-139173379D01*
X87825704Y-139267316D01*
X87807664Y-139301066D01*
X87765635Y-139439614D01*
X87751444Y-139583699D01*
X87754948Y-139619275D01*
X87738815Y-139632515D01*
X87690000Y-139691996D01*
X87650000Y-139643256D01*
X87650000Y-136727322D01*
X87653676Y-136689999D01*
X87650000Y-136652676D01*
X87650000Y-136652667D01*
X87639003Y-136541014D01*
X87595546Y-136397753D01*
X87524974Y-136265724D01*
X87430001Y-136149999D01*
X87401003Y-136126201D01*
X82235000Y-130960199D01*
X82235000Y-130898061D01*
X82195226Y-130698102D01*
X82117205Y-130509744D01*
X82003937Y-130340226D01*
X81859774Y-130196063D01*
X81690256Y-130082795D01*
X81501898Y-130004774D01*
X81301939Y-129965000D01*
X81098061Y-129965000D01*
X80898102Y-130004774D01*
X80709744Y-130082795D01*
X80540226Y-130196063D01*
X80396063Y-130340226D01*
X80282795Y-130509744D01*
X80254018Y-130579217D01*
X80060000Y-130385199D01*
X80060000Y-129103711D01*
X80103937Y-129059774D01*
X80217205Y-128890256D01*
X80295226Y-128701898D01*
X80335000Y-128501939D01*
X80335000Y-128298061D01*
X80295226Y-128098102D01*
X80217205Y-127909744D01*
X80103937Y-127740226D01*
X79959774Y-127596063D01*
X79790256Y-127482795D01*
X79601898Y-127404774D01*
X79401939Y-127365000D01*
X79198061Y-127365000D01*
X78998102Y-127404774D01*
X78809744Y-127482795D01*
X78640226Y-127596063D01*
X78496063Y-127740226D01*
X78382795Y-127909744D01*
X78304774Y-128098102D01*
X78265000Y-128298061D01*
X78265000Y-128501939D01*
X78304774Y-128701898D01*
X78382795Y-128890256D01*
X78496063Y-129059774D01*
X78540000Y-129103711D01*
X78540001Y-130662668D01*
X78536324Y-130700000D01*
X78540001Y-130737333D01*
X78550998Y-130848986D01*
X78564180Y-130892442D01*
X78594454Y-130992246D01*
X78665026Y-131124276D01*
X78736201Y-131211002D01*
X78760000Y-131240001D01*
X78788998Y-131263799D01*
X80236200Y-132711002D01*
X80259999Y-132740001D01*
X80375724Y-132834974D01*
X80507753Y-132905546D01*
X80651014Y-132949003D01*
X80762667Y-132960000D01*
X80762676Y-132960000D01*
X80799999Y-132963676D01*
X80837322Y-132960000D01*
X81285199Y-132960000D01*
X83393815Y-135068617D01*
X63032845Y-135068617D01*
X62363411Y-135002979D01*
X61754045Y-134819000D01*
X61192029Y-134520170D01*
X60698755Y-134117867D01*
X60293016Y-133627412D01*
X59990266Y-133067490D01*
X59802040Y-132459428D01*
X59731900Y-131792095D01*
X59731900Y-129484571D01*
X61757574Y-129484571D01*
X61757574Y-130122663D01*
X61882059Y-130748494D01*
X62126246Y-131338013D01*
X62480751Y-131868567D01*
X62931950Y-132319766D01*
X63462504Y-132674271D01*
X64052023Y-132918458D01*
X64677854Y-133042943D01*
X65315946Y-133042943D01*
X65941777Y-132918458D01*
X66531296Y-132674271D01*
X67061850Y-132319766D01*
X67513049Y-131868567D01*
X67867554Y-131338013D01*
X68111741Y-130748494D01*
X68236226Y-130122663D01*
X68236226Y-129484571D01*
X68111741Y-128858740D01*
X67867554Y-128269221D01*
X67513049Y-127738667D01*
X67061850Y-127287468D01*
X66531296Y-126932963D01*
X65941777Y-126688776D01*
X65315946Y-126564291D01*
X64677854Y-126564291D01*
X64052023Y-126688776D01*
X63462504Y-126932963D01*
X62931950Y-127287468D01*
X62480751Y-127738667D01*
X62126246Y-128269221D01*
X61882059Y-128858740D01*
X61757574Y-129484571D01*
X59731900Y-129484571D01*
X59731900Y-121398061D01*
X61565000Y-121398061D01*
X61565000Y-121601939D01*
X61604774Y-121801898D01*
X61682795Y-121990256D01*
X61796063Y-122159774D01*
X61940226Y-122303937D01*
X62109744Y-122417205D01*
X62298102Y-122495226D01*
X62498061Y-122535000D01*
X62701939Y-122535000D01*
X62901898Y-122495226D01*
X63011082Y-122450000D01*
X65511928Y-122450000D01*
X65524188Y-122574482D01*
X65560498Y-122694180D01*
X65619463Y-122804494D01*
X65698815Y-122901185D01*
X65795506Y-122980537D01*
X65905820Y-123039502D01*
X66025518Y-123075812D01*
X66150000Y-123088072D01*
X66264250Y-123085000D01*
X66423000Y-122926250D01*
X66423000Y-122127000D01*
X65673750Y-122127000D01*
X65515000Y-122285750D01*
X65511928Y-122450000D01*
X63011082Y-122450000D01*
X63090256Y-122417205D01*
X63259774Y-122303937D01*
X63403937Y-122159774D01*
X63517205Y-121990256D01*
X63595226Y-121801898D01*
X63635000Y-121601939D01*
X63635000Y-121550000D01*
X65511928Y-121550000D01*
X65515000Y-121714250D01*
X65673750Y-121873000D01*
X66423000Y-121873000D01*
X66423000Y-121073750D01*
X66264250Y-120915000D01*
X66150000Y-120911928D01*
X66025518Y-120924188D01*
X65905820Y-120960498D01*
X65795506Y-121019463D01*
X65698815Y-121098815D01*
X65619463Y-121195506D01*
X65560498Y-121305820D01*
X65524188Y-121425518D01*
X65511928Y-121550000D01*
X63635000Y-121550000D01*
X63635000Y-121398061D01*
X63595226Y-121198102D01*
X63517205Y-121009744D01*
X63403937Y-120840226D01*
X63360000Y-120796289D01*
X63360000Y-120212119D01*
X66181977Y-120212119D01*
X66192699Y-120336742D01*
X66227527Y-120456879D01*
X66285124Y-120567914D01*
X66363276Y-120665578D01*
X66458980Y-120746118D01*
X66568558Y-120806441D01*
X66687798Y-120844226D01*
X66804250Y-120855000D01*
X66963000Y-120696250D01*
X66963000Y-120027000D01*
X66343750Y-120027000D01*
X66185000Y-120185750D01*
X66181977Y-120212119D01*
X63360000Y-120212119D01*
X63360000Y-119587881D01*
X66181977Y-119587881D01*
X66185000Y-119614250D01*
X66343750Y-119773000D01*
X66963000Y-119773000D01*
X66963000Y-119103750D01*
X66804250Y-118945000D01*
X66687798Y-118955774D01*
X66568558Y-118993559D01*
X66458980Y-119053882D01*
X66363276Y-119134422D01*
X66285124Y-119232086D01*
X66227527Y-119343121D01*
X66192699Y-119463258D01*
X66181977Y-119587881D01*
X63360000Y-119587881D01*
X63360000Y-117214801D01*
X66339802Y-114235000D01*
X66401939Y-114235000D01*
X66601898Y-114195226D01*
X66790256Y-114117205D01*
X66959774Y-114003937D01*
X67103937Y-113859774D01*
X67217205Y-113690256D01*
X67295226Y-113501898D01*
X67335000Y-113301939D01*
X67335000Y-113098061D01*
X67295226Y-112898102D01*
X67217205Y-112709744D01*
X67103937Y-112540226D01*
X66959774Y-112396063D01*
X66790256Y-112282795D01*
X66601898Y-112204774D01*
X66401939Y-112165000D01*
X66198061Y-112165000D01*
X65998102Y-112204774D01*
X65809744Y-112282795D01*
X65640226Y-112396063D01*
X65496063Y-112540226D01*
X65382795Y-112709744D01*
X65304774Y-112898102D01*
X65265000Y-113098061D01*
X65265000Y-113160198D01*
X62088998Y-116336201D01*
X62060000Y-116359999D01*
X62036202Y-116388997D01*
X62036201Y-116388998D01*
X61965026Y-116475724D01*
X61894454Y-116607754D01*
X61850998Y-116751015D01*
X61836324Y-116900000D01*
X61840001Y-116937332D01*
X61840000Y-120796289D01*
X61796063Y-120840226D01*
X61682795Y-121009744D01*
X61604774Y-121198102D01*
X61565000Y-121398061D01*
X59731900Y-121398061D01*
X59731900Y-109195757D01*
X81632244Y-109195757D01*
X81632244Y-109456483D01*
X81683109Y-109712199D01*
X81782885Y-109953078D01*
X81927736Y-110169863D01*
X82112097Y-110354224D01*
X82328882Y-110499075D01*
X82569761Y-110598851D01*
X82825477Y-110649716D01*
X83086203Y-110649716D01*
X83341919Y-110598851D01*
X83582798Y-110499075D01*
X83799583Y-110354224D01*
X83983944Y-110169863D01*
X84128795Y-109953078D01*
X84228571Y-109712199D01*
X84279436Y-109456483D01*
X84279436Y-109195757D01*
X84228571Y-108940041D01*
X84128795Y-108699162D01*
X83983944Y-108482377D01*
X83799583Y-108298016D01*
X83582798Y-108153165D01*
X83341919Y-108053389D01*
X83086203Y-108002524D01*
X82825477Y-108002524D01*
X82569761Y-108053389D01*
X82328882Y-108153165D01*
X82112097Y-108298016D01*
X81927736Y-108482377D01*
X81782885Y-108699162D01*
X81683109Y-108940041D01*
X81632244Y-109195757D01*
X59731900Y-109195757D01*
X59731900Y-96651350D01*
X64792900Y-96651350D01*
X64951650Y-96810100D01*
X65620900Y-96810100D01*
X65620900Y-96190850D01*
X65874900Y-96190850D01*
X65874900Y-96810100D01*
X66544150Y-96810100D01*
X66702900Y-96651350D01*
X66692126Y-96534898D01*
X66654341Y-96415658D01*
X66594018Y-96306080D01*
X66513478Y-96210376D01*
X66415814Y-96132224D01*
X66304779Y-96074627D01*
X66184642Y-96039799D01*
X66060019Y-96029077D01*
X66033650Y-96032100D01*
X65874900Y-96190850D01*
X65620900Y-96190850D01*
X65462150Y-96032100D01*
X65435781Y-96029077D01*
X65311158Y-96039799D01*
X65191021Y-96074627D01*
X65079986Y-96132224D01*
X64982322Y-96210376D01*
X64901782Y-96306080D01*
X64841459Y-96415658D01*
X64803674Y-96534898D01*
X64792900Y-96651350D01*
X59731900Y-96651350D01*
X59731900Y-95010977D01*
X68350335Y-95010977D01*
X68362025Y-95135513D01*
X68397786Y-95255376D01*
X68456244Y-95365959D01*
X68535153Y-95463013D01*
X68631479Y-95542808D01*
X68741522Y-95602277D01*
X68861052Y-95639135D01*
X68982650Y-95648900D01*
X69141400Y-95490150D01*
X69141400Y-94830900D01*
X68512150Y-94830900D01*
X68353400Y-94989650D01*
X68350335Y-95010977D01*
X59731900Y-95010977D01*
X59731900Y-94396823D01*
X68350335Y-94396823D01*
X68353400Y-94418150D01*
X68512150Y-94576900D01*
X69141400Y-94576900D01*
X69141400Y-93917650D01*
X68982650Y-93758900D01*
X68861052Y-93768665D01*
X68741522Y-93805523D01*
X68631479Y-93864992D01*
X68535153Y-93944787D01*
X68456244Y-94041841D01*
X68397786Y-94152424D01*
X68362025Y-94272287D01*
X68350335Y-94396823D01*
X59731900Y-94396823D01*
X59731900Y-65298061D01*
X61565000Y-65298061D01*
X61565000Y-65501939D01*
X61604774Y-65701898D01*
X61682795Y-65890256D01*
X61796063Y-66059774D01*
X61940226Y-66203937D01*
X62109744Y-66317205D01*
X62298102Y-66395226D01*
X62498061Y-66435000D01*
X62701939Y-66435000D01*
X62901898Y-66395226D01*
X63090256Y-66317205D01*
X63259774Y-66203937D01*
X63403937Y-66059774D01*
X63517205Y-65890256D01*
X63595226Y-65701898D01*
X63635000Y-65501939D01*
X63635000Y-65298061D01*
X63595226Y-65098102D01*
X63517205Y-64909744D01*
X63403937Y-64740226D01*
X63360000Y-64696289D01*
X63360000Y-62914801D01*
X66239802Y-60035000D01*
X66301939Y-60035000D01*
X66501898Y-59995226D01*
X66690256Y-59917205D01*
X66859774Y-59803937D01*
X67003937Y-59659774D01*
X67117205Y-59490256D01*
X67195226Y-59301898D01*
X67235000Y-59101939D01*
X67235000Y-58898061D01*
X67195226Y-58698102D01*
X67117205Y-58509744D01*
X67003937Y-58340226D01*
X66859774Y-58196063D01*
X66690256Y-58082795D01*
X66501898Y-58004774D01*
X66301939Y-57965000D01*
X66098061Y-57965000D01*
X65898102Y-58004774D01*
X65709744Y-58082795D01*
X65540226Y-58196063D01*
X65396063Y-58340226D01*
X65282795Y-58509744D01*
X65204774Y-58698102D01*
X65165000Y-58898061D01*
X65165000Y-58960198D01*
X62088998Y-62036201D01*
X62060000Y-62059999D01*
X62036202Y-62088997D01*
X62036201Y-62088998D01*
X61965026Y-62175724D01*
X61894454Y-62307754D01*
X61850998Y-62451015D01*
X61836324Y-62600000D01*
X61840001Y-62637332D01*
X61840000Y-64696289D01*
X61796063Y-64740226D01*
X61682795Y-64909744D01*
X61604774Y-65098102D01*
X61565000Y-65298061D01*
X59731900Y-65298061D01*
X59731900Y-52742000D01*
X76156000Y-52742000D01*
X76156000Y-53442000D01*
X76204507Y-53680496D01*
X76298610Y-53904946D01*
X76434693Y-54106725D01*
X76607526Y-54278078D01*
X76810467Y-54412421D01*
X77035718Y-54504591D01*
X77073391Y-54508462D01*
X77264000Y-54383731D01*
X77264000Y-52742000D01*
X77518000Y-52742000D01*
X77518000Y-54383731D01*
X77708609Y-54508462D01*
X77746282Y-54504591D01*
X77971533Y-54412421D01*
X78174474Y-54278078D01*
X78347307Y-54106725D01*
X78483390Y-53904946D01*
X78577493Y-53680496D01*
X78626000Y-53442000D01*
X78626000Y-52742000D01*
X77518000Y-52742000D01*
X77264000Y-52742000D01*
X76156000Y-52742000D01*
X59731900Y-52742000D01*
X59731900Y-47484571D01*
X61757574Y-47484571D01*
X61757574Y-48122663D01*
X61882059Y-48748494D01*
X62126246Y-49338013D01*
X62480751Y-49868567D01*
X62931950Y-50319766D01*
X63462504Y-50674271D01*
X64052023Y-50918458D01*
X64677854Y-51042943D01*
X65315946Y-51042943D01*
X65941777Y-50918458D01*
X66531296Y-50674271D01*
X67061850Y-50319766D01*
X67513049Y-49868567D01*
X67867554Y-49338013D01*
X68111741Y-48748494D01*
X68236226Y-48122663D01*
X68236226Y-47484571D01*
X68111741Y-46858740D01*
X67867554Y-46269221D01*
X67513049Y-45738667D01*
X67061850Y-45287468D01*
X66531296Y-44932963D01*
X65941777Y-44688776D01*
X65315946Y-44564291D01*
X64677854Y-44564291D01*
X64052023Y-44688776D01*
X63462504Y-44932963D01*
X62931950Y-45287468D01*
X62480751Y-45738667D01*
X62126246Y-46269221D01*
X61882059Y-46858740D01*
X61757574Y-47484571D01*
X59731900Y-47484571D01*
X59731900Y-45839562D01*
X59797538Y-45170129D01*
X59981517Y-44560763D01*
X60280349Y-43998742D01*
X60682653Y-43505470D01*
X61173105Y-43099733D01*
X61733028Y-42796983D01*
X62341088Y-42608757D01*
X63045804Y-42534688D01*
X63053348Y-42533139D01*
X63142165Y-42524119D01*
X63279346Y-42482181D01*
X63313170Y-42464045D01*
X75066939Y-42479956D01*
X75067175Y-42479979D01*
X75098500Y-42479998D01*
X75131525Y-42480043D01*
X75131774Y-42480019D01*
X76581400Y-42480912D01*
X76581400Y-42588782D01*
X76581401Y-44406460D01*
X76581253Y-44408040D01*
X76581401Y-44438969D01*
X76581401Y-44469719D01*
X76581556Y-44471289D01*
X76594100Y-47093110D01*
X76594101Y-50965232D01*
X76434693Y-51123275D01*
X76298610Y-51325054D01*
X76204507Y-51549504D01*
X76156000Y-51788000D01*
X76156000Y-52488000D01*
X77264000Y-52488000D01*
X77264000Y-52468000D01*
X77518000Y-52468000D01*
X77518000Y-52488000D01*
X78626000Y-52488000D01*
X78626000Y-51790200D01*
X89354000Y-51790200D01*
X89354000Y-52488000D01*
X90462000Y-52488000D01*
X90462000Y-52468000D01*
X90716000Y-52468000D01*
X90716000Y-52488000D01*
X91824000Y-52488000D01*
X91824000Y-51788000D01*
X91775493Y-51549504D01*
X91681390Y-51325054D01*
X91567268Y-51155838D01*
X91569793Y-51130200D01*
X91566600Y-51097781D01*
X91566600Y-42480701D01*
X92727303Y-42480000D01*
X102140318Y-42480000D01*
X103302200Y-42480701D01*
X103302201Y-51097771D01*
X103299007Y-51130200D01*
X103311750Y-51259583D01*
X103323854Y-51299485D01*
X103306610Y-51325054D01*
X103212507Y-51549504D01*
X103164000Y-51788000D01*
X103164000Y-52488000D01*
X104272000Y-52488000D01*
X104272000Y-52468000D01*
X104526000Y-52468000D01*
X104526000Y-52488000D01*
X105634000Y-52488000D01*
X105634000Y-51790200D01*
X116362000Y-51790200D01*
X116362000Y-52488000D01*
X117470000Y-52488000D01*
X117470000Y-52468000D01*
X117724000Y-52468000D01*
X117724000Y-52488000D01*
X118832000Y-52488000D01*
X118832000Y-51788000D01*
X118783493Y-51549504D01*
X118689390Y-51325054D01*
X118553307Y-51123275D01*
X118380474Y-50951922D01*
X118363600Y-50940752D01*
X118363600Y-47484571D01*
X126757574Y-47484571D01*
X126757574Y-48122663D01*
X126882059Y-48748494D01*
X127126246Y-49338013D01*
X127480751Y-49868567D01*
X127931950Y-50319766D01*
X128462504Y-50674271D01*
X129052023Y-50918458D01*
X129677854Y-51042943D01*
X130315946Y-51042943D01*
X130941777Y-50918458D01*
X131531296Y-50674271D01*
X132061850Y-50319766D01*
X132513049Y-49868567D01*
X132867554Y-49338013D01*
X133111741Y-48748494D01*
X133236226Y-48122663D01*
X133236226Y-47484571D01*
X133111741Y-46858740D01*
X132867554Y-46269221D01*
X132513049Y-45738667D01*
X132061850Y-45287468D01*
X131531296Y-44932963D01*
X130941777Y-44688776D01*
X130315946Y-44564291D01*
X129677854Y-44564291D01*
X129052023Y-44688776D01*
X128462504Y-44932963D01*
X127931950Y-45287468D01*
X127480751Y-45738667D01*
X127126246Y-46269221D01*
X126882059Y-46858740D01*
X126757574Y-47484571D01*
X118363600Y-47484571D01*
X118363600Y-43423802D01*
X118371084Y-42480905D01*
X119735839Y-42480020D01*
X119736066Y-42480042D01*
X119768250Y-42479999D01*
X119800446Y-42479978D01*
X119800673Y-42479955D01*
X131680931Y-42464040D01*
X131774659Y-42504212D01*
G37*
G04 #@! TD.AperFunction*
D24*
X96340000Y-71500500D02*
X96340001Y-93662667D01*
X96336324Y-93700000D01*
X96340001Y-93737333D01*
X96350998Y-93848986D01*
X96356922Y-93868514D01*
X96394454Y-93992246D01*
X96465026Y-94124276D01*
X96525202Y-94197600D01*
X96560000Y-94240001D01*
X96588998Y-94263799D01*
X105540000Y-103214802D01*
X105540001Y-106379195D01*
X105540001Y-109762658D01*
X105540000Y-109762668D01*
X105540001Y-117285197D01*
X95179003Y-127646196D01*
X95149999Y-127669999D01*
X95099539Y-127731485D01*
X95055026Y-127785724D01*
X95015325Y-127859999D01*
X94984454Y-127917754D01*
X94940997Y-128061015D01*
X94930000Y-128172668D01*
X94930000Y-128172678D01*
X94926324Y-128210000D01*
X94930000Y-128247322D01*
X94930001Y-138512511D01*
X94909819Y-138475801D01*
X94872186Y-138420840D01*
X94835322Y-138365355D01*
X94828781Y-138357447D01*
X94734694Y-138245317D01*
X94687063Y-138198672D01*
X94640150Y-138151432D01*
X94632198Y-138144945D01*
X94518121Y-138053227D01*
X94462350Y-138016732D01*
X94407158Y-137979504D01*
X94398097Y-137974686D01*
X94398093Y-137974684D01*
X94398090Y-137974682D01*
X94398087Y-137974681D01*
X94268380Y-137906871D01*
X94206590Y-137881906D01*
X94145197Y-137856099D01*
X94135373Y-137853132D01*
X93994954Y-137811805D01*
X93929479Y-137799315D01*
X93864267Y-137785929D01*
X93854054Y-137784927D01*
X93708282Y-137771660D01*
X93641625Y-137772125D01*
X93575045Y-137771661D01*
X93564842Y-137772661D01*
X93564839Y-137772661D01*
X93564836Y-137772662D01*
X93564832Y-137772662D01*
X93419260Y-137787963D01*
X93354019Y-137801356D01*
X93288572Y-137813840D01*
X93278748Y-137816806D01*
X93138919Y-137860090D01*
X93077464Y-137885923D01*
X93015741Y-137910861D01*
X93006680Y-137915678D01*
X92877922Y-137985297D01*
X92822678Y-138022559D01*
X92766952Y-138059025D01*
X92758999Y-138065511D01*
X92646216Y-138158813D01*
X92599255Y-138206104D01*
X92551680Y-138252692D01*
X92545138Y-138260599D01*
X92452625Y-138374031D01*
X92415735Y-138429555D01*
X92378125Y-138484483D01*
X92373243Y-138493510D01*
X92304524Y-138622751D01*
X92279127Y-138684370D01*
X92252894Y-138745576D01*
X92250000Y-138754925D01*
X92250000Y-137207646D01*
X92519197Y-136938450D01*
X92547237Y-136915438D01*
X92570250Y-136887397D01*
X92570253Y-136887394D01*
X92594337Y-136858048D01*
X92640226Y-136903937D01*
X92809744Y-137017205D01*
X92998102Y-137095226D01*
X93198061Y-137135000D01*
X93401939Y-137135000D01*
X93601898Y-137095226D01*
X93790256Y-137017205D01*
X93959774Y-136903937D01*
X94103937Y-136759774D01*
X94217205Y-136590256D01*
X94295226Y-136401898D01*
X94335000Y-136201939D01*
X94335000Y-136139802D01*
X94611002Y-135863799D01*
X94640001Y-135840001D01*
X94734974Y-135724276D01*
X94805546Y-135592247D01*
X94849003Y-135448986D01*
X94860000Y-135337333D01*
X94860000Y-135337323D01*
X94863676Y-135300000D01*
X94860000Y-135262677D01*
X94860000Y-111203711D01*
X94903937Y-111159774D01*
X95017205Y-110990256D01*
X95095226Y-110801898D01*
X95135000Y-110601939D01*
X95135000Y-110398061D01*
X95095226Y-110198102D01*
X95017205Y-110009744D01*
X94903937Y-109840226D01*
X94759774Y-109696063D01*
X94590256Y-109582795D01*
X94401898Y-109504774D01*
X94201939Y-109465000D01*
X93998061Y-109465000D01*
X93860000Y-109492462D01*
X93860000Y-105429738D01*
X93890256Y-105417205D01*
X94059774Y-105303937D01*
X94203937Y-105159774D01*
X94317205Y-104990256D01*
X94395226Y-104801898D01*
X94435000Y-104601939D01*
X94435000Y-104398061D01*
X94395226Y-104198102D01*
X94317205Y-104009744D01*
X94203937Y-103840226D01*
X94059774Y-103696063D01*
X93890256Y-103582795D01*
X93701898Y-103504774D01*
X93501939Y-103465000D01*
X93298061Y-103465000D01*
X93098102Y-103504774D01*
X92909744Y-103582795D01*
X92760000Y-103682850D01*
X92760000Y-101197646D01*
X95119197Y-98838450D01*
X95147237Y-98815438D01*
X95170250Y-98787397D01*
X95170253Y-98787394D01*
X95239086Y-98703521D01*
X95239087Y-98703520D01*
X95307337Y-98575833D01*
X95349365Y-98437285D01*
X95360000Y-98329305D01*
X95360000Y-98329296D01*
X95363555Y-98293201D01*
X95360000Y-98257106D01*
X95360000Y-75140093D01*
X95415256Y-75117205D01*
X95584774Y-75003937D01*
X95728937Y-74859774D01*
X95842205Y-74690256D01*
X95920226Y-74501898D01*
X95960000Y-74301939D01*
X95960000Y-74098061D01*
X95920226Y-73898102D01*
X95842205Y-73709744D01*
X95728937Y-73540226D01*
X95584774Y-73396063D01*
X95415256Y-73282795D01*
X95226898Y-73204774D01*
X95026939Y-73165000D01*
X94823061Y-73165000D01*
X94623102Y-73204774D01*
X94434744Y-73282795D01*
X94400000Y-73306010D01*
X94365256Y-73282795D01*
X94176898Y-73204774D01*
X93976939Y-73165000D01*
X93773061Y-73165000D01*
X93573102Y-73204774D01*
X93384744Y-73282795D01*
X93215226Y-73396063D01*
X93071063Y-73540226D01*
X92957795Y-73709744D01*
X92879774Y-73898102D01*
X92840000Y-74098061D01*
X92840000Y-74301939D01*
X92879774Y-74501898D01*
X92957795Y-74690256D01*
X93071063Y-74859774D01*
X93215226Y-75003937D01*
X93384744Y-75117205D01*
X93440001Y-75140093D01*
X93440000Y-97802353D01*
X91080808Y-100161546D01*
X91052763Y-100184562D01*
X90960914Y-100296480D01*
X90921103Y-100370962D01*
X90892664Y-100424167D01*
X90850635Y-100562715D01*
X90836444Y-100706800D01*
X90840001Y-100742915D01*
X90840000Y-135902353D01*
X90570808Y-136171546D01*
X90542763Y-136194562D01*
X90450914Y-136306480D01*
X90393283Y-136414300D01*
X90382664Y-136434167D01*
X90340635Y-136572715D01*
X90326444Y-136716800D01*
X90330001Y-136752915D01*
X90330000Y-139107475D01*
X90275914Y-139173379D01*
X90225704Y-139267316D01*
X90207664Y-139301066D01*
X90165635Y-139439614D01*
X90151444Y-139583699D01*
X90154948Y-139619275D01*
X90138815Y-139632515D01*
X90090000Y-139691996D01*
X90041185Y-139632515D01*
X90025051Y-139619274D01*
X90028555Y-139583698D01*
X90025000Y-139547603D01*
X90025000Y-139547594D01*
X90014365Y-139439614D01*
X89972337Y-139301066D01*
X89904087Y-139173379D01*
X89850000Y-139107474D01*
X89850000Y-71432905D01*
X89853556Y-71396800D01*
X89839365Y-71252714D01*
X89819736Y-71188006D01*
X89797337Y-71114167D01*
X89729087Y-70986480D01*
X89637238Y-70874562D01*
X89609193Y-70851546D01*
X85060000Y-66302354D01*
X85060000Y-63470149D01*
X85074003Y-63423986D01*
X85085000Y-63312333D01*
X85085000Y-62889801D01*
X85113799Y-62861002D01*
X86111003Y-61863799D01*
X86140001Y-61840001D01*
X86234974Y-61724276D01*
X86305546Y-61592247D01*
X86334918Y-61495418D01*
X96340000Y-71500500D01*
G04 #@! TA.AperFunction,Conductor*
D25*
G36*
X96340000Y-71500500D02*
G01*
X96340001Y-93662667D01*
X96336324Y-93700000D01*
X96340001Y-93737333D01*
X96350998Y-93848986D01*
X96356922Y-93868514D01*
X96394454Y-93992246D01*
X96465026Y-94124276D01*
X96525202Y-94197600D01*
X96560000Y-94240001D01*
X96588998Y-94263799D01*
X105540000Y-103214802D01*
X105540001Y-106379195D01*
X105540001Y-109762658D01*
X105540000Y-109762668D01*
X105540001Y-117285197D01*
X95179003Y-127646196D01*
X95149999Y-127669999D01*
X95099539Y-127731485D01*
X95055026Y-127785724D01*
X95015325Y-127859999D01*
X94984454Y-127917754D01*
X94940997Y-128061015D01*
X94930000Y-128172668D01*
X94930000Y-128172678D01*
X94926324Y-128210000D01*
X94930000Y-128247322D01*
X94930001Y-138512511D01*
X94909819Y-138475801D01*
X94872186Y-138420840D01*
X94835322Y-138365355D01*
X94828781Y-138357447D01*
X94734694Y-138245317D01*
X94687063Y-138198672D01*
X94640150Y-138151432D01*
X94632198Y-138144945D01*
X94518121Y-138053227D01*
X94462350Y-138016732D01*
X94407158Y-137979504D01*
X94398097Y-137974686D01*
X94398093Y-137974684D01*
X94398090Y-137974682D01*
X94398087Y-137974681D01*
X94268380Y-137906871D01*
X94206590Y-137881906D01*
X94145197Y-137856099D01*
X94135373Y-137853132D01*
X93994954Y-137811805D01*
X93929479Y-137799315D01*
X93864267Y-137785929D01*
X93854054Y-137784927D01*
X93708282Y-137771660D01*
X93641625Y-137772125D01*
X93575045Y-137771661D01*
X93564842Y-137772661D01*
X93564839Y-137772661D01*
X93564836Y-137772662D01*
X93564832Y-137772662D01*
X93419260Y-137787963D01*
X93354019Y-137801356D01*
X93288572Y-137813840D01*
X93278748Y-137816806D01*
X93138919Y-137860090D01*
X93077464Y-137885923D01*
X93015741Y-137910861D01*
X93006680Y-137915678D01*
X92877922Y-137985297D01*
X92822678Y-138022559D01*
X92766952Y-138059025D01*
X92758999Y-138065511D01*
X92646216Y-138158813D01*
X92599255Y-138206104D01*
X92551680Y-138252692D01*
X92545138Y-138260599D01*
X92452625Y-138374031D01*
X92415735Y-138429555D01*
X92378125Y-138484483D01*
X92373243Y-138493510D01*
X92304524Y-138622751D01*
X92279127Y-138684370D01*
X92252894Y-138745576D01*
X92250000Y-138754925D01*
X92250000Y-137207646D01*
X92519197Y-136938450D01*
X92547237Y-136915438D01*
X92570250Y-136887397D01*
X92570253Y-136887394D01*
X92594337Y-136858048D01*
X92640226Y-136903937D01*
X92809744Y-137017205D01*
X92998102Y-137095226D01*
X93198061Y-137135000D01*
X93401939Y-137135000D01*
X93601898Y-137095226D01*
X93790256Y-137017205D01*
X93959774Y-136903937D01*
X94103937Y-136759774D01*
X94217205Y-136590256D01*
X94295226Y-136401898D01*
X94335000Y-136201939D01*
X94335000Y-136139802D01*
X94611002Y-135863799D01*
X94640001Y-135840001D01*
X94734974Y-135724276D01*
X94805546Y-135592247D01*
X94849003Y-135448986D01*
X94860000Y-135337333D01*
X94860000Y-135337323D01*
X94863676Y-135300000D01*
X94860000Y-135262677D01*
X94860000Y-111203711D01*
X94903937Y-111159774D01*
X95017205Y-110990256D01*
X95095226Y-110801898D01*
X95135000Y-110601939D01*
X95135000Y-110398061D01*
X95095226Y-110198102D01*
X95017205Y-110009744D01*
X94903937Y-109840226D01*
X94759774Y-109696063D01*
X94590256Y-109582795D01*
X94401898Y-109504774D01*
X94201939Y-109465000D01*
X93998061Y-109465000D01*
X93860000Y-109492462D01*
X93860000Y-105429738D01*
X93890256Y-105417205D01*
X94059774Y-105303937D01*
X94203937Y-105159774D01*
X94317205Y-104990256D01*
X94395226Y-104801898D01*
X94435000Y-104601939D01*
X94435000Y-104398061D01*
X94395226Y-104198102D01*
X94317205Y-104009744D01*
X94203937Y-103840226D01*
X94059774Y-103696063D01*
X93890256Y-103582795D01*
X93701898Y-103504774D01*
X93501939Y-103465000D01*
X93298061Y-103465000D01*
X93098102Y-103504774D01*
X92909744Y-103582795D01*
X92760000Y-103682850D01*
X92760000Y-101197646D01*
X95119197Y-98838450D01*
X95147237Y-98815438D01*
X95170250Y-98787397D01*
X95170253Y-98787394D01*
X95239086Y-98703521D01*
X95239087Y-98703520D01*
X95307337Y-98575833D01*
X95349365Y-98437285D01*
X95360000Y-98329305D01*
X95360000Y-98329296D01*
X95363555Y-98293201D01*
X95360000Y-98257106D01*
X95360000Y-75140093D01*
X95415256Y-75117205D01*
X95584774Y-75003937D01*
X95728937Y-74859774D01*
X95842205Y-74690256D01*
X95920226Y-74501898D01*
X95960000Y-74301939D01*
X95960000Y-74098061D01*
X95920226Y-73898102D01*
X95842205Y-73709744D01*
X95728937Y-73540226D01*
X95584774Y-73396063D01*
X95415256Y-73282795D01*
X95226898Y-73204774D01*
X95026939Y-73165000D01*
X94823061Y-73165000D01*
X94623102Y-73204774D01*
X94434744Y-73282795D01*
X94400000Y-73306010D01*
X94365256Y-73282795D01*
X94176898Y-73204774D01*
X93976939Y-73165000D01*
X93773061Y-73165000D01*
X93573102Y-73204774D01*
X93384744Y-73282795D01*
X93215226Y-73396063D01*
X93071063Y-73540226D01*
X92957795Y-73709744D01*
X92879774Y-73898102D01*
X92840000Y-74098061D01*
X92840000Y-74301939D01*
X92879774Y-74501898D01*
X92957795Y-74690256D01*
X93071063Y-74859774D01*
X93215226Y-75003937D01*
X93384744Y-75117205D01*
X93440001Y-75140093D01*
X93440000Y-97802353D01*
X91080808Y-100161546D01*
X91052763Y-100184562D01*
X90960914Y-100296480D01*
X90921103Y-100370962D01*
X90892664Y-100424167D01*
X90850635Y-100562715D01*
X90836444Y-100706800D01*
X90840001Y-100742915D01*
X90840000Y-135902353D01*
X90570808Y-136171546D01*
X90542763Y-136194562D01*
X90450914Y-136306480D01*
X90393283Y-136414300D01*
X90382664Y-136434167D01*
X90340635Y-136572715D01*
X90326444Y-136716800D01*
X90330001Y-136752915D01*
X90330000Y-139107475D01*
X90275914Y-139173379D01*
X90225704Y-139267316D01*
X90207664Y-139301066D01*
X90165635Y-139439614D01*
X90151444Y-139583699D01*
X90154948Y-139619275D01*
X90138815Y-139632515D01*
X90090000Y-139691996D01*
X90041185Y-139632515D01*
X90025051Y-139619274D01*
X90028555Y-139583698D01*
X90025000Y-139547603D01*
X90025000Y-139547594D01*
X90014365Y-139439614D01*
X89972337Y-139301066D01*
X89904087Y-139173379D01*
X89850000Y-139107474D01*
X89850000Y-71432905D01*
X89853556Y-71396800D01*
X89839365Y-71252714D01*
X89819736Y-71188006D01*
X89797337Y-71114167D01*
X89729087Y-70986480D01*
X89637238Y-70874562D01*
X89609193Y-70851546D01*
X85060000Y-66302354D01*
X85060000Y-63470149D01*
X85074003Y-63423986D01*
X85085000Y-63312333D01*
X85085000Y-62889801D01*
X85113799Y-62861002D01*
X86111003Y-61863799D01*
X86140001Y-61840001D01*
X86234974Y-61724276D01*
X86305546Y-61592247D01*
X86334918Y-61495418D01*
X96340000Y-71500500D01*
G37*
G04 #@! TD.AperFunction*
D24*
X99930000Y-139107475D02*
X99875914Y-139173379D01*
X99825704Y-139267316D01*
X99807664Y-139301066D01*
X99765635Y-139439614D01*
X99751444Y-139583699D01*
X99754948Y-139619275D01*
X99738815Y-139632515D01*
X99690000Y-139691996D01*
X99641185Y-139632515D01*
X99625051Y-139619274D01*
X99628555Y-139583698D01*
X99625000Y-139547603D01*
X99625000Y-139547594D01*
X99614365Y-139439614D01*
X99572337Y-139301066D01*
X99504087Y-139173379D01*
X99450000Y-139107474D01*
X99450000Y-129307646D01*
X99930001Y-128827645D01*
X99930000Y-139107475D01*
G04 #@! TA.AperFunction,Conductor*
D25*
G36*
X99930000Y-139107475D02*
G01*
X99875914Y-139173379D01*
X99825704Y-139267316D01*
X99807664Y-139301066D01*
X99765635Y-139439614D01*
X99751444Y-139583699D01*
X99754948Y-139619275D01*
X99738815Y-139632515D01*
X99690000Y-139691996D01*
X99641185Y-139632515D01*
X99625051Y-139619274D01*
X99628555Y-139583698D01*
X99625000Y-139547603D01*
X99625000Y-139547594D01*
X99614365Y-139439614D01*
X99572337Y-139301066D01*
X99504087Y-139173379D01*
X99450000Y-139107474D01*
X99450000Y-129307646D01*
X99930001Y-128827645D01*
X99930000Y-139107475D01*
G37*
G04 #@! TD.AperFunction*
D24*
X114280808Y-101661546D02*
X114252762Y-101684563D01*
X114160913Y-101796481D01*
X114092663Y-101924168D01*
X114086613Y-101944113D01*
X114050635Y-102062715D01*
X114036444Y-102206800D01*
X114040000Y-102242905D01*
X114040001Y-119402352D01*
X102570808Y-130871546D01*
X102542762Y-130894563D01*
X102450913Y-131006481D01*
X102382663Y-131134168D01*
X102364862Y-131192850D01*
X102340635Y-131272715D01*
X102326444Y-131416800D01*
X102330000Y-131452905D01*
X102330001Y-139107474D01*
X102275913Y-139173380D01*
X102207663Y-139301067D01*
X102178798Y-139396222D01*
X102165635Y-139439614D01*
X102151444Y-139583699D01*
X102154948Y-139619275D01*
X102138815Y-139632515D01*
X102090000Y-139691996D01*
X102041185Y-139632515D01*
X102025051Y-139619274D01*
X102028555Y-139583698D01*
X102025000Y-139547603D01*
X102025000Y-139547594D01*
X102014365Y-139439614D01*
X101972337Y-139301066D01*
X101904087Y-139173379D01*
X101850000Y-139107474D01*
X101850000Y-129007646D01*
X113119198Y-117738449D01*
X113147237Y-117715438D01*
X113170250Y-117687397D01*
X113170253Y-117687394D01*
X113211337Y-117637333D01*
X113239087Y-117603520D01*
X113307337Y-117475833D01*
X113349365Y-117337285D01*
X113360000Y-117229305D01*
X113360000Y-117229298D01*
X113363555Y-117193201D01*
X113360000Y-117157104D01*
X113360000Y-101197646D01*
X120390047Y-94167600D01*
X121774753Y-94167600D01*
X114280808Y-101661546D01*
G04 #@! TA.AperFunction,Conductor*
D25*
G36*
X114280808Y-101661546D02*
G01*
X114252762Y-101684563D01*
X114160913Y-101796481D01*
X114092663Y-101924168D01*
X114086613Y-101944113D01*
X114050635Y-102062715D01*
X114036444Y-102206800D01*
X114040000Y-102242905D01*
X114040001Y-119402352D01*
X102570808Y-130871546D01*
X102542762Y-130894563D01*
X102450913Y-131006481D01*
X102382663Y-131134168D01*
X102364862Y-131192850D01*
X102340635Y-131272715D01*
X102326444Y-131416800D01*
X102330000Y-131452905D01*
X102330001Y-139107474D01*
X102275913Y-139173380D01*
X102207663Y-139301067D01*
X102178798Y-139396222D01*
X102165635Y-139439614D01*
X102151444Y-139583699D01*
X102154948Y-139619275D01*
X102138815Y-139632515D01*
X102090000Y-139691996D01*
X102041185Y-139632515D01*
X102025051Y-139619274D01*
X102028555Y-139583698D01*
X102025000Y-139547603D01*
X102025000Y-139547594D01*
X102014365Y-139439614D01*
X101972337Y-139301066D01*
X101904087Y-139173379D01*
X101850000Y-139107474D01*
X101850000Y-129007646D01*
X113119198Y-117738449D01*
X113147237Y-117715438D01*
X113170250Y-117687397D01*
X113170253Y-117687394D01*
X113211337Y-117637333D01*
X113239087Y-117603520D01*
X113307337Y-117475833D01*
X113349365Y-117337285D01*
X113360000Y-117229305D01*
X113360000Y-117229298D01*
X113363555Y-117193201D01*
X113360000Y-117157104D01*
X113360000Y-101197646D01*
X120390047Y-94167600D01*
X121774753Y-94167600D01*
X114280808Y-101661546D01*
G37*
G04 #@! TD.AperFunction*
D24*
X117280808Y-102861546D02*
X117252763Y-102884562D01*
X117160914Y-102996480D01*
X117106408Y-103098454D01*
X117092664Y-103124167D01*
X117050635Y-103262715D01*
X117036444Y-103406800D01*
X117040001Y-103442915D01*
X117040000Y-124002353D01*
X104970808Y-136071546D01*
X104942763Y-136094562D01*
X104850914Y-136206480D01*
X104791947Y-136316800D01*
X104782664Y-136334167D01*
X104740635Y-136472715D01*
X104726444Y-136616800D01*
X104730001Y-136652915D01*
X104730000Y-139107475D01*
X104675914Y-139173379D01*
X104625704Y-139267316D01*
X104607664Y-139301066D01*
X104565635Y-139439614D01*
X104551444Y-139583699D01*
X104554948Y-139619275D01*
X104538815Y-139632515D01*
X104490000Y-139691996D01*
X104441185Y-139632515D01*
X104425051Y-139619274D01*
X104428555Y-139583698D01*
X104425000Y-139547603D01*
X104425000Y-139547594D01*
X104414365Y-139439614D01*
X104372337Y-139301066D01*
X104304087Y-139173379D01*
X104250000Y-139107475D01*
X104250000Y-131907646D01*
X107383569Y-128774077D01*
X107829804Y-128774077D01*
X107829804Y-129034803D01*
X107880669Y-129290519D01*
X107980445Y-129531398D01*
X108125296Y-129748183D01*
X108309657Y-129932544D01*
X108526442Y-130077395D01*
X108767321Y-130177171D01*
X109023037Y-130228036D01*
X109283763Y-130228036D01*
X109539479Y-130177171D01*
X109780358Y-130077395D01*
X109997143Y-129932544D01*
X110181504Y-129748183D01*
X110326355Y-129531398D01*
X110426131Y-129290519D01*
X110476996Y-129034803D01*
X110476996Y-128774077D01*
X110426131Y-128518361D01*
X110326355Y-128277482D01*
X110181504Y-128060697D01*
X109997143Y-127876336D01*
X109780358Y-127731485D01*
X109539479Y-127631709D01*
X109283763Y-127580844D01*
X109023037Y-127580844D01*
X108767321Y-127631709D01*
X108526442Y-127731485D01*
X108309657Y-127876336D01*
X108125296Y-128060697D01*
X107980445Y-128277482D01*
X107880669Y-128518361D01*
X107829804Y-128774077D01*
X107383569Y-128774077D01*
X115719193Y-120438454D01*
X115747238Y-120415438D01*
X115839087Y-120303520D01*
X115907337Y-120175833D01*
X115949365Y-120037285D01*
X115960000Y-119929305D01*
X115963556Y-119893200D01*
X115960000Y-119857095D01*
X115960000Y-102697646D01*
X122990047Y-95667600D01*
X124474753Y-95667600D01*
X117280808Y-102861546D01*
G04 #@! TA.AperFunction,Conductor*
D25*
G36*
X117280808Y-102861546D02*
G01*
X117252763Y-102884562D01*
X117160914Y-102996480D01*
X117106408Y-103098454D01*
X117092664Y-103124167D01*
X117050635Y-103262715D01*
X117036444Y-103406800D01*
X117040001Y-103442915D01*
X117040000Y-124002353D01*
X104970808Y-136071546D01*
X104942763Y-136094562D01*
X104850914Y-136206480D01*
X104791947Y-136316800D01*
X104782664Y-136334167D01*
X104740635Y-136472715D01*
X104726444Y-136616800D01*
X104730001Y-136652915D01*
X104730000Y-139107475D01*
X104675914Y-139173379D01*
X104625704Y-139267316D01*
X104607664Y-139301066D01*
X104565635Y-139439614D01*
X104551444Y-139583699D01*
X104554948Y-139619275D01*
X104538815Y-139632515D01*
X104490000Y-139691996D01*
X104441185Y-139632515D01*
X104425051Y-139619274D01*
X104428555Y-139583698D01*
X104425000Y-139547603D01*
X104425000Y-139547594D01*
X104414365Y-139439614D01*
X104372337Y-139301066D01*
X104304087Y-139173379D01*
X104250000Y-139107475D01*
X104250000Y-131907646D01*
X107383569Y-128774077D01*
X107829804Y-128774077D01*
X107829804Y-129034803D01*
X107880669Y-129290519D01*
X107980445Y-129531398D01*
X108125296Y-129748183D01*
X108309657Y-129932544D01*
X108526442Y-130077395D01*
X108767321Y-130177171D01*
X109023037Y-130228036D01*
X109283763Y-130228036D01*
X109539479Y-130177171D01*
X109780358Y-130077395D01*
X109997143Y-129932544D01*
X110181504Y-129748183D01*
X110326355Y-129531398D01*
X110426131Y-129290519D01*
X110476996Y-129034803D01*
X110476996Y-128774077D01*
X110426131Y-128518361D01*
X110326355Y-128277482D01*
X110181504Y-128060697D01*
X109997143Y-127876336D01*
X109780358Y-127731485D01*
X109539479Y-127631709D01*
X109283763Y-127580844D01*
X109023037Y-127580844D01*
X108767321Y-127631709D01*
X108526442Y-127731485D01*
X108309657Y-127876336D01*
X108125296Y-128060697D01*
X107980445Y-128277482D01*
X107880669Y-128518361D01*
X107829804Y-128774077D01*
X107383569Y-128774077D01*
X115719193Y-120438454D01*
X115747238Y-120415438D01*
X115839087Y-120303520D01*
X115907337Y-120175833D01*
X115949365Y-120037285D01*
X115960000Y-119929305D01*
X115963556Y-119893200D01*
X115960000Y-119857095D01*
X115960000Y-102697646D01*
X122990047Y-95667600D01*
X124474753Y-95667600D01*
X117280808Y-102861546D01*
G37*
G04 #@! TD.AperFunction*
D24*
X107975365Y-105833198D02*
X108120216Y-106049983D01*
X108304577Y-106234344D01*
X108521362Y-106379195D01*
X108762241Y-106478971D01*
X109017957Y-106529836D01*
X109278683Y-106529836D01*
X109534399Y-106478971D01*
X109775278Y-106379195D01*
X109940001Y-106269131D01*
X109940000Y-116102353D01*
X107910000Y-118132353D01*
X107910000Y-105675394D01*
X107975365Y-105833198D01*
G04 #@! TA.AperFunction,Conductor*
D25*
G36*
X107975365Y-105833198D02*
G01*
X108120216Y-106049983D01*
X108304577Y-106234344D01*
X108521362Y-106379195D01*
X108762241Y-106478971D01*
X109017957Y-106529836D01*
X109278683Y-106529836D01*
X109534399Y-106478971D01*
X109775278Y-106379195D01*
X109940001Y-106269131D01*
X109940000Y-116102353D01*
X107910000Y-118132353D01*
X107910000Y-105675394D01*
X107975365Y-105833198D01*
G37*
G04 #@! TD.AperFunction*
D24*
X110180808Y-97761546D02*
X110152763Y-97784562D01*
X110060914Y-97896480D01*
X110012377Y-97987286D01*
X109992664Y-98024167D01*
X109950635Y-98162715D01*
X109936444Y-98306800D01*
X109940001Y-98342915D01*
X109940001Y-104143349D01*
X109775278Y-104033285D01*
X109534399Y-103933509D01*
X109278683Y-103882644D01*
X109017957Y-103882644D01*
X108762241Y-103933509D01*
X108521362Y-104033285D01*
X108304577Y-104178136D01*
X108120216Y-104362497D01*
X107975365Y-104579282D01*
X107910000Y-104737086D01*
X107910000Y-99664801D01*
X116357202Y-91217600D01*
X116724753Y-91217600D01*
X110180808Y-97761546D01*
G04 #@! TA.AperFunction,Conductor*
D25*
G36*
X110180808Y-97761546D02*
G01*
X110152763Y-97784562D01*
X110060914Y-97896480D01*
X110012377Y-97987286D01*
X109992664Y-98024167D01*
X109950635Y-98162715D01*
X109936444Y-98306800D01*
X109940001Y-98342915D01*
X109940001Y-104143349D01*
X109775278Y-104033285D01*
X109534399Y-103933509D01*
X109278683Y-103882644D01*
X109017957Y-103882644D01*
X108762241Y-103933509D01*
X108521362Y-104033285D01*
X108304577Y-104178136D01*
X108120216Y-104362497D01*
X107975365Y-104579282D01*
X107910000Y-104737086D01*
X107910000Y-99664801D01*
X116357202Y-91217600D01*
X116724753Y-91217600D01*
X110180808Y-97761546D01*
G37*
G04 #@! TD.AperFunction*
D24*
X112004774Y-68175602D02*
X111990970Y-68245000D01*
X111818061Y-68245000D01*
X111618102Y-68284774D01*
X111429744Y-68362795D01*
X111260226Y-68476063D01*
X111116063Y-68620226D01*
X111002795Y-68789744D01*
X110924774Y-68978102D01*
X110885000Y-69178061D01*
X110885000Y-69381939D01*
X110924774Y-69581898D01*
X111002795Y-69770256D01*
X111116063Y-69939774D01*
X111190195Y-70013906D01*
X111112795Y-70129744D01*
X111034774Y-70318102D01*
X110995000Y-70518061D01*
X110995000Y-70721939D01*
X111034774Y-70921898D01*
X111112795Y-71110256D01*
X111226063Y-71279774D01*
X111370226Y-71423937D01*
X111539744Y-71537205D01*
X111728102Y-71615226D01*
X111928061Y-71655000D01*
X112131939Y-71655000D01*
X112331898Y-71615226D01*
X112487190Y-71550901D01*
X112570226Y-71633937D01*
X112739744Y-71747205D01*
X112928102Y-71825226D01*
X113128061Y-71865000D01*
X113295000Y-71865000D01*
X113295000Y-72051939D01*
X113334774Y-72251898D01*
X113412795Y-72440256D01*
X113526063Y-72609774D01*
X113670226Y-72753937D01*
X113839744Y-72867205D01*
X114028102Y-72945226D01*
X114228061Y-72985000D01*
X114431939Y-72985000D01*
X114544577Y-72962595D01*
X114598815Y-73028685D01*
X114695506Y-73108037D01*
X114805820Y-73167002D01*
X114925518Y-73203312D01*
X115050000Y-73215572D01*
X116250000Y-73215572D01*
X116374482Y-73203312D01*
X116494180Y-73167002D01*
X116508289Y-73159460D01*
X116579744Y-73207205D01*
X116734069Y-73271129D01*
X114267814Y-75737384D01*
X114255812Y-75615518D01*
X114219502Y-75495820D01*
X114160537Y-75385506D01*
X114081185Y-75288815D01*
X113984494Y-75209463D01*
X113874180Y-75150498D01*
X113754482Y-75114188D01*
X113630000Y-75101928D01*
X109130000Y-75101928D01*
X109005518Y-75114188D01*
X108885820Y-75150498D01*
X108775506Y-75209463D01*
X108678815Y-75288815D01*
X108599463Y-75385506D01*
X108540498Y-75495820D01*
X108504188Y-75615518D01*
X108491928Y-75740000D01*
X108491928Y-77740000D01*
X108504188Y-77864482D01*
X108540498Y-77984180D01*
X108599463Y-78094494D01*
X108678815Y-78191185D01*
X108775506Y-78270537D01*
X108885820Y-78329502D01*
X109005518Y-78365812D01*
X109130000Y-78378072D01*
X113630000Y-78378072D01*
X113754482Y-78365812D01*
X113874180Y-78329502D01*
X113984494Y-78270537D01*
X114081185Y-78191185D01*
X114160537Y-78094494D01*
X114219502Y-77984180D01*
X114255812Y-77864482D01*
X114268072Y-77740000D01*
X114268072Y-77500000D01*
X114302678Y-77500000D01*
X114340000Y-77503676D01*
X114377322Y-77500000D01*
X114377333Y-77500000D01*
X114488986Y-77489003D01*
X114632247Y-77445546D01*
X114764276Y-77374974D01*
X114880001Y-77280001D01*
X114903804Y-77250997D01*
X118420000Y-73734802D01*
X118420001Y-75101928D01*
X117630000Y-75101928D01*
X117505518Y-75114188D01*
X117385820Y-75150498D01*
X117275506Y-75209463D01*
X117178815Y-75288815D01*
X117099463Y-75385506D01*
X117040498Y-75495820D01*
X117004188Y-75615518D01*
X116991928Y-75740000D01*
X116991928Y-77740000D01*
X117004188Y-77864482D01*
X117040498Y-77984180D01*
X117099463Y-78094494D01*
X117178815Y-78191185D01*
X117275506Y-78270537D01*
X117385820Y-78329502D01*
X117505518Y-78365812D01*
X117630000Y-78378072D01*
X122130000Y-78378072D01*
X122254482Y-78365812D01*
X122374180Y-78329502D01*
X122484494Y-78270537D01*
X122581185Y-78191185D01*
X122660537Y-78094494D01*
X122719502Y-77984180D01*
X122755812Y-77864482D01*
X122768072Y-77740000D01*
X122768072Y-75740000D01*
X122755812Y-75615518D01*
X122719502Y-75495820D01*
X122660537Y-75385506D01*
X122581185Y-75288815D01*
X122484494Y-75209463D01*
X122374180Y-75150498D01*
X122254482Y-75114188D01*
X122130000Y-75101928D01*
X119940000Y-75101928D01*
X119940000Y-73132162D01*
X120016055Y-73171138D01*
X120136363Y-73205371D01*
X120261039Y-73215477D01*
X120564250Y-73212500D01*
X120723000Y-73053750D01*
X120723000Y-72580572D01*
X120977000Y-72580572D01*
X120977000Y-73053750D01*
X121135750Y-73212500D01*
X121438961Y-73215477D01*
X121563637Y-73205371D01*
X121683945Y-73171138D01*
X121795263Y-73114091D01*
X121893312Y-73036423D01*
X121974325Y-72941119D01*
X122035189Y-72831841D01*
X122073564Y-72712789D01*
X122085000Y-72609250D01*
X121926250Y-72450500D01*
X121831956Y-72450500D01*
X121901185Y-72393685D01*
X121980537Y-72296994D01*
X122034256Y-72196494D01*
X122085000Y-72145750D01*
X122076042Y-72064646D01*
X122088072Y-71942500D01*
X122088072Y-71685718D01*
X122840000Y-72437647D01*
X122840001Y-77287085D01*
X122836444Y-77323200D01*
X122850635Y-77467285D01*
X122878392Y-77558785D01*
X122892664Y-77605833D01*
X122960914Y-77733520D01*
X123052763Y-77845438D01*
X123080808Y-77868454D01*
X124409953Y-79197600D01*
X108350000Y-79197600D01*
X108350000Y-71850734D01*
X108356943Y-71842274D01*
X108428845Y-71707755D01*
X108473122Y-71561794D01*
X108488072Y-71410000D01*
X108488072Y-71070000D01*
X108480606Y-70994195D01*
X111417302Y-68057500D01*
X112053694Y-68057500D01*
X112004774Y-68175602D01*
G04 #@! TA.AperFunction,Conductor*
D25*
G36*
X112004774Y-68175602D02*
G01*
X111990970Y-68245000D01*
X111818061Y-68245000D01*
X111618102Y-68284774D01*
X111429744Y-68362795D01*
X111260226Y-68476063D01*
X111116063Y-68620226D01*
X111002795Y-68789744D01*
X110924774Y-68978102D01*
X110885000Y-69178061D01*
X110885000Y-69381939D01*
X110924774Y-69581898D01*
X111002795Y-69770256D01*
X111116063Y-69939774D01*
X111190195Y-70013906D01*
X111112795Y-70129744D01*
X111034774Y-70318102D01*
X110995000Y-70518061D01*
X110995000Y-70721939D01*
X111034774Y-70921898D01*
X111112795Y-71110256D01*
X111226063Y-71279774D01*
X111370226Y-71423937D01*
X111539744Y-71537205D01*
X111728102Y-71615226D01*
X111928061Y-71655000D01*
X112131939Y-71655000D01*
X112331898Y-71615226D01*
X112487190Y-71550901D01*
X112570226Y-71633937D01*
X112739744Y-71747205D01*
X112928102Y-71825226D01*
X113128061Y-71865000D01*
X113295000Y-71865000D01*
X113295000Y-72051939D01*
X113334774Y-72251898D01*
X113412795Y-72440256D01*
X113526063Y-72609774D01*
X113670226Y-72753937D01*
X113839744Y-72867205D01*
X114028102Y-72945226D01*
X114228061Y-72985000D01*
X114431939Y-72985000D01*
X114544577Y-72962595D01*
X114598815Y-73028685D01*
X114695506Y-73108037D01*
X114805820Y-73167002D01*
X114925518Y-73203312D01*
X115050000Y-73215572D01*
X116250000Y-73215572D01*
X116374482Y-73203312D01*
X116494180Y-73167002D01*
X116508289Y-73159460D01*
X116579744Y-73207205D01*
X116734069Y-73271129D01*
X114267814Y-75737384D01*
X114255812Y-75615518D01*
X114219502Y-75495820D01*
X114160537Y-75385506D01*
X114081185Y-75288815D01*
X113984494Y-75209463D01*
X113874180Y-75150498D01*
X113754482Y-75114188D01*
X113630000Y-75101928D01*
X109130000Y-75101928D01*
X109005518Y-75114188D01*
X108885820Y-75150498D01*
X108775506Y-75209463D01*
X108678815Y-75288815D01*
X108599463Y-75385506D01*
X108540498Y-75495820D01*
X108504188Y-75615518D01*
X108491928Y-75740000D01*
X108491928Y-77740000D01*
X108504188Y-77864482D01*
X108540498Y-77984180D01*
X108599463Y-78094494D01*
X108678815Y-78191185D01*
X108775506Y-78270537D01*
X108885820Y-78329502D01*
X109005518Y-78365812D01*
X109130000Y-78378072D01*
X113630000Y-78378072D01*
X113754482Y-78365812D01*
X113874180Y-78329502D01*
X113984494Y-78270537D01*
X114081185Y-78191185D01*
X114160537Y-78094494D01*
X114219502Y-77984180D01*
X114255812Y-77864482D01*
X114268072Y-77740000D01*
X114268072Y-77500000D01*
X114302678Y-77500000D01*
X114340000Y-77503676D01*
X114377322Y-77500000D01*
X114377333Y-77500000D01*
X114488986Y-77489003D01*
X114632247Y-77445546D01*
X114764276Y-77374974D01*
X114880001Y-77280001D01*
X114903804Y-77250997D01*
X118420000Y-73734802D01*
X118420001Y-75101928D01*
X117630000Y-75101928D01*
X117505518Y-75114188D01*
X117385820Y-75150498D01*
X117275506Y-75209463D01*
X117178815Y-75288815D01*
X117099463Y-75385506D01*
X117040498Y-75495820D01*
X117004188Y-75615518D01*
X116991928Y-75740000D01*
X116991928Y-77740000D01*
X117004188Y-77864482D01*
X117040498Y-77984180D01*
X117099463Y-78094494D01*
X117178815Y-78191185D01*
X117275506Y-78270537D01*
X117385820Y-78329502D01*
X117505518Y-78365812D01*
X117630000Y-78378072D01*
X122130000Y-78378072D01*
X122254482Y-78365812D01*
X122374180Y-78329502D01*
X122484494Y-78270537D01*
X122581185Y-78191185D01*
X122660537Y-78094494D01*
X122719502Y-77984180D01*
X122755812Y-77864482D01*
X122768072Y-77740000D01*
X122768072Y-75740000D01*
X122755812Y-75615518D01*
X122719502Y-75495820D01*
X122660537Y-75385506D01*
X122581185Y-75288815D01*
X122484494Y-75209463D01*
X122374180Y-75150498D01*
X122254482Y-75114188D01*
X122130000Y-75101928D01*
X119940000Y-75101928D01*
X119940000Y-73132162D01*
X120016055Y-73171138D01*
X120136363Y-73205371D01*
X120261039Y-73215477D01*
X120564250Y-73212500D01*
X120723000Y-73053750D01*
X120723000Y-72580572D01*
X120977000Y-72580572D01*
X120977000Y-73053750D01*
X121135750Y-73212500D01*
X121438961Y-73215477D01*
X121563637Y-73205371D01*
X121683945Y-73171138D01*
X121795263Y-73114091D01*
X121893312Y-73036423D01*
X121974325Y-72941119D01*
X122035189Y-72831841D01*
X122073564Y-72712789D01*
X122085000Y-72609250D01*
X121926250Y-72450500D01*
X121831956Y-72450500D01*
X121901185Y-72393685D01*
X121980537Y-72296994D01*
X122034256Y-72196494D01*
X122085000Y-72145750D01*
X122076042Y-72064646D01*
X122088072Y-71942500D01*
X122088072Y-71685718D01*
X122840000Y-72437647D01*
X122840001Y-77287085D01*
X122836444Y-77323200D01*
X122850635Y-77467285D01*
X122878392Y-77558785D01*
X122892664Y-77605833D01*
X122960914Y-77733520D01*
X123052763Y-77845438D01*
X123080808Y-77868454D01*
X124409953Y-79197600D01*
X108350000Y-79197600D01*
X108350000Y-71850734D01*
X108356943Y-71842274D01*
X108428845Y-71707755D01*
X108473122Y-71561794D01*
X108488072Y-71410000D01*
X108488072Y-71070000D01*
X108480606Y-70994195D01*
X111417302Y-68057500D01*
X112053694Y-68057500D01*
X112004774Y-68175602D01*
G37*
G04 #@! TD.AperFunction*
D24*
X84220306Y-61226037D02*
X84288582Y-61262532D01*
X84356550Y-61330500D01*
X84447277Y-61320390D01*
X84450318Y-61321312D01*
X84499084Y-61326115D01*
X84100000Y-61725199D01*
X84038604Y-61663803D01*
X84038599Y-61663797D01*
X83705363Y-61330562D01*
X83799282Y-61321312D01*
X83802323Y-61320390D01*
X83893050Y-61330500D01*
X83961018Y-61262532D01*
X84029294Y-61226037D01*
X84124800Y-61147658D01*
X84220306Y-61226037D01*
G04 #@! TA.AperFunction,Conductor*
D25*
G36*
X84220306Y-61226037D02*
G01*
X84288582Y-61262532D01*
X84356550Y-61330500D01*
X84447277Y-61320390D01*
X84450318Y-61321312D01*
X84499084Y-61326115D01*
X84100000Y-61725199D01*
X84038604Y-61663803D01*
X84038599Y-61663797D01*
X83705363Y-61330562D01*
X83799282Y-61321312D01*
X83802323Y-61320390D01*
X83893050Y-61330500D01*
X83961018Y-61262532D01*
X84029294Y-61226037D01*
X84124800Y-61147658D01*
X84220306Y-61226037D01*
G37*
G04 #@! TD.AperFunction*
M02*
