%FSLAX45Y45*%
G04 Gerber Fmt 4.5, Leading zero omitted, Abs format (unit mm)*
G04 Created by KiCad (PCBNEW (5.1.10-1-10_14)) date 2021-12-01 22:19:56*
%MOMM*%
%LPD*%
G01*
G04 APERTURE LIST*
%TA.AperFunction,Profile*%
%ADD10C,0.050000*%
%TD*%
%TA.AperFunction,Profile*%
%ADD11C,0.150000*%
%TD*%
%TA.AperFunction,Profile*%
%ADD12C,0.200000*%
%TD*%
%ADD13C,0.200000*%
%ADD14C,0.300000*%
G04 APERTURE END LIST*
D10*
X7725410Y-5113020D02*
X7760970Y-5113020D01*
X7725410Y-5111750D02*
X7725410Y-5113020D01*
X7725410Y-5109210D02*
X7725410Y-5111750D01*
X7725410Y-4709160D02*
X7725410Y-5109210D01*
X7724140Y-4443730D02*
X7725410Y-4709160D01*
X7724140Y-4262120D02*
X7724140Y-4443730D01*
X7724140Y-4182110D02*
X7724140Y-4262120D01*
X7688580Y-4182110D02*
X7724140Y-4182110D01*
X7510000Y-4182000D02*
X7688580Y-4182110D01*
X11770360Y-5113020D02*
X11760200Y-5113020D01*
X11770360Y-4657090D02*
X11770360Y-5113020D01*
X11770360Y-4342130D02*
X11770360Y-4657090D01*
X11771630Y-4182110D02*
X11770360Y-4342130D01*
X11807190Y-4182110D02*
X11771630Y-4182110D01*
X10396220Y-5113020D02*
X10414000Y-5113020D01*
X10396220Y-4220210D02*
X10396220Y-5113020D01*
X10396220Y-4182110D02*
X10396220Y-4220210D01*
X10414000Y-5113020D02*
X10462260Y-5113020D01*
X11760200Y-5113020D02*
X11746230Y-5113020D01*
X7760970Y-5113020D02*
X9090660Y-5113020D01*
X9090660Y-5113020D02*
X9090660Y-5020310D01*
X9090660Y-4682490D02*
X9090660Y-5020310D01*
X9090660Y-4257040D02*
X9090660Y-4682490D01*
X9090660Y-4182110D02*
X9090660Y-4257040D01*
X9272760Y-4182000D02*
X9090660Y-4182110D01*
X10462260Y-5113020D02*
X11746230Y-5113020D01*
X10214000Y-4182000D02*
X10396220Y-4182110D01*
X11976760Y-4182000D02*
X11807190Y-4182110D01*
X7510000Y-4182000D02*
X6299690Y-4180362D01*
X11976760Y-4182000D02*
X13199690Y-4180362D01*
X10214000Y-4182000D02*
X9272760Y-4182000D01*
D11*
X8355584Y-10932612D02*
G75*
G03*
X8355584Y-10932612I-60000J0D01*
G01*
X10975340Y-12890444D02*
G75*
G03*
X10975340Y-12890444I-60000J0D01*
G01*
X10974832Y-10520624D02*
G75*
G03*
X10974832Y-10520624I-60000J0D01*
G01*
D12*
X6749690Y-12980362D02*
G75*
G03*
X6749690Y-12980362I-250000J0D01*
G01*
X13249690Y-12980362D02*
G75*
G03*
X13249690Y-12980362I-250000J0D01*
G01*
X9289690Y-14200362D02*
G75*
G02*
X9239690Y-14250362I-50000J0D01*
G01*
X5899690Y-4580362D02*
G75*
G02*
X6299690Y-4180362I400000J0D01*
G01*
X9489690Y-14250362D02*
G75*
G02*
X9439690Y-14200362I0J50000D01*
G01*
X6299690Y-13580362D02*
G75*
G02*
X5899690Y-13180362I0J400000D01*
G01*
X6299690Y-13580362D02*
X8364690Y-13580362D01*
X8564690Y-14250362D02*
G75*
G02*
X8464690Y-14150362I0J100000D01*
G01*
X8464690Y-13680362D02*
X8464690Y-14150362D01*
X11034690Y-14150362D02*
G75*
G02*
X10934690Y-14250362I-100000J0D01*
G01*
X13599690Y-13180362D02*
X13599690Y-4580362D01*
X11034690Y-14150362D02*
X11034690Y-13680362D01*
X9289690Y-14200362D02*
X9289690Y-13925362D01*
X5899690Y-4580362D02*
X5899690Y-13180362D01*
X8364690Y-13580362D02*
G75*
G02*
X8464690Y-13680362I0J-100000D01*
G01*
X9439690Y-14200362D02*
X9439690Y-13925362D01*
X13599690Y-13180362D02*
G75*
G02*
X13199690Y-13580362I-400000J0D01*
G01*
X9289690Y-13925362D02*
G75*
G02*
X9439690Y-13925362I75000J0D01*
G01*
X11034690Y-13680362D02*
G75*
G02*
X11134690Y-13580362I100000J0D01*
G01*
X13249690Y-4780362D02*
G75*
G03*
X13249690Y-4780362I-250000J0D01*
G01*
X11134690Y-13580362D02*
X13199690Y-13580362D01*
X13199690Y-4180362D02*
G75*
G02*
X13599690Y-4580362I0J-400000D01*
G01*
X9489690Y-14250362D02*
X10934690Y-14250362D01*
X8564690Y-14250362D02*
X9239690Y-14250362D01*
X6749690Y-4780362D02*
G75*
G03*
X6749690Y-4780362I-250000J0D01*
G01*
D13*
X6240000Y-6520000D02*
X6280000Y-6560000D01*
X6280000Y-6520000D02*
X6240000Y-6560000D01*
X6240000Y-12130000D02*
X6280000Y-12170000D01*
X6280000Y-12130000D02*
X6240000Y-12170000D01*
X6430000Y-7370000D02*
X6470000Y-7410000D01*
X6470000Y-7370000D02*
X6430000Y-7410000D01*
X6600000Y-5880000D02*
X6640000Y-5920000D01*
X6640000Y-5880000D02*
X6600000Y-5920000D01*
X6610000Y-11300000D02*
X6650000Y-11340000D01*
X6650000Y-11300000D02*
X6610000Y-11340000D01*
X6980000Y-7030000D02*
X7020000Y-7070000D01*
X7020000Y-7030000D02*
X6980000Y-7070000D01*
X7130000Y-10050000D02*
X7170000Y-10090000D01*
X7170000Y-10050000D02*
X7130000Y-10090000D01*
X7910000Y-12820000D02*
X7950000Y-12860000D01*
X7950000Y-12820000D02*
X7910000Y-12860000D01*
X8100000Y-13080000D02*
X8140000Y-13120000D01*
X8140000Y-13080000D02*
X8100000Y-13120000D01*
X8400000Y-6100000D02*
X8440000Y-6140000D01*
X8440000Y-6100000D02*
X8400000Y-6140000D01*
X8560000Y-13080000D02*
X8600000Y-13120000D01*
X8600000Y-13080000D02*
X8560000Y-13120000D01*
X8575000Y-7745000D02*
X8615000Y-7785000D01*
X8615000Y-7745000D02*
X8575000Y-7785000D01*
X8670000Y-8700000D02*
X8710000Y-8740000D01*
X8710000Y-8700000D02*
X8670000Y-8740000D01*
X9050000Y-13480000D02*
X9090000Y-13520000D01*
X9090000Y-13480000D02*
X9050000Y-13520000D01*
X9190000Y-7490000D02*
X9230000Y-7530000D01*
X9230000Y-7490000D02*
X9190000Y-7530000D01*
X9200000Y-8610000D02*
X9240000Y-8650000D01*
X9240000Y-8610000D02*
X9200000Y-8650000D01*
X9200000Y-9680000D02*
X9240000Y-9720000D01*
X9240000Y-9680000D02*
X9200000Y-9720000D01*
X9290000Y-13080000D02*
X9330000Y-13120000D01*
X9330000Y-13080000D02*
X9290000Y-13120000D01*
X9310000Y-13590000D02*
X9350000Y-13630000D01*
X9350000Y-13590000D02*
X9310000Y-13630000D01*
X9320000Y-10430000D02*
X9360000Y-10470000D01*
X9360000Y-10430000D02*
X9320000Y-10470000D01*
X9367500Y-7400000D02*
X9407500Y-7440000D01*
X9407500Y-7400000D02*
X9367500Y-7440000D01*
X9390000Y-11030000D02*
X9430000Y-11070000D01*
X9430000Y-11030000D02*
X9390000Y-11070000D01*
X9472500Y-7400000D02*
X9512500Y-7440000D01*
X9512500Y-7400000D02*
X9472500Y-7440000D01*
X9560000Y-12670000D02*
X9600000Y-12710000D01*
X9600000Y-12670000D02*
X9560000Y-12710000D01*
X9650000Y-6120000D02*
X9690000Y-6160000D01*
X9690000Y-6120000D02*
X9650000Y-6160000D01*
X9680000Y-6750000D02*
X9720000Y-6790000D01*
X9720000Y-6750000D02*
X9680000Y-6790000D01*
X9800000Y-9010000D02*
X9840000Y-9050000D01*
X9840000Y-9010000D02*
X9800000Y-9050000D01*
X9920000Y-9080000D02*
X9960000Y-9120000D01*
X9960000Y-9080000D02*
X9920000Y-9120000D01*
X10070000Y-9270000D02*
X10110000Y-9310000D01*
X10110000Y-9270000D02*
X10070000Y-9310000D01*
X10170000Y-9100000D02*
X10210000Y-9140000D01*
X10210000Y-9100000D02*
X10170000Y-9140000D01*
X10260000Y-9270000D02*
X10300000Y-9310000D01*
X10300000Y-9270000D02*
X10260000Y-9310000D01*
X10340000Y-9100000D02*
X10380000Y-9140000D01*
X10380000Y-9100000D02*
X10340000Y-9140000D01*
X10429285Y-6359285D02*
X10469285Y-6399285D01*
X10469285Y-6359285D02*
X10429285Y-6399285D01*
X10440000Y-7520000D02*
X10480000Y-7560000D01*
X10480000Y-7520000D02*
X10440000Y-7560000D01*
X10450000Y-9260000D02*
X10490000Y-9300000D01*
X10490000Y-9260000D02*
X10450000Y-9300000D01*
X10580000Y-9090000D02*
X10620000Y-9130000D01*
X10620000Y-9090000D02*
X10580000Y-9130000D01*
X10650000Y-9200000D02*
X10690000Y-9240000D01*
X10690000Y-9200000D02*
X10650000Y-9240000D01*
X10870000Y-10040000D02*
X10910000Y-10080000D01*
X10910000Y-10040000D02*
X10870000Y-10080000D01*
X10890000Y-10930000D02*
X10930000Y-10970000D01*
X10930000Y-10930000D02*
X10890000Y-10970000D01*
X11086877Y-6414877D02*
X11126877Y-6454877D01*
X11126877Y-6414877D02*
X11086877Y-6454877D01*
X11161123Y-6489123D02*
X11201123Y-6529123D01*
X11201123Y-6489123D02*
X11161123Y-6529123D01*
X11172000Y-6908000D02*
X11212000Y-6948000D01*
X11212000Y-6908000D02*
X11172000Y-6948000D01*
X11183000Y-7042000D02*
X11223000Y-7082000D01*
X11223000Y-7042000D02*
X11183000Y-7082000D01*
X11280000Y-6827750D02*
X11320000Y-6867750D01*
X11320000Y-6827750D02*
X11280000Y-6867750D01*
X11303000Y-7063000D02*
X11343000Y-7103000D01*
X11343000Y-7063000D02*
X11303000Y-7103000D01*
X11413000Y-7175000D02*
X11453000Y-7215000D01*
X11453000Y-7175000D02*
X11413000Y-7215000D01*
X11602000Y-5960000D02*
X11642000Y-6000000D01*
X11642000Y-5960000D02*
X11602000Y-6000000D01*
X11639000Y-7806000D02*
X11679000Y-7846000D01*
X11679000Y-7806000D02*
X11639000Y-7846000D01*
X11687000Y-7209000D02*
X11727000Y-7249000D01*
X11727000Y-7209000D02*
X11687000Y-7249000D01*
X11700000Y-5739000D02*
X11740000Y-5779000D01*
X11740000Y-5739000D02*
X11700000Y-5779000D01*
X11718000Y-6675000D02*
X11758000Y-6715000D01*
X11758000Y-6675000D02*
X11718000Y-6715000D01*
X12030000Y-8620000D02*
X12070000Y-8660000D01*
X12070000Y-8620000D02*
X12030000Y-8660000D01*
X12064000Y-7320000D02*
X12104000Y-7360000D01*
X12104000Y-7320000D02*
X12064000Y-7360000D01*
X12150000Y-8670000D02*
X12190000Y-8710000D01*
X12190000Y-8670000D02*
X12150000Y-8710000D01*
X12199000Y-6464750D02*
X12239000Y-6504750D01*
X12239000Y-6464750D02*
X12199000Y-6504750D01*
X12234000Y-6562000D02*
X12274000Y-6602000D01*
X12274000Y-6562000D02*
X12234000Y-6602000D01*
X12280000Y-8720000D02*
X12320000Y-8760000D01*
X12320000Y-8720000D02*
X12280000Y-8760000D01*
X12380000Y-8780000D02*
X12420000Y-8820000D01*
X12420000Y-8780000D02*
X12380000Y-8820000D01*
X12500000Y-8830000D02*
X12540000Y-8870000D01*
X12540000Y-8830000D02*
X12500000Y-8870000D01*
X12590000Y-8900000D02*
X12630000Y-8940000D01*
X12630000Y-8900000D02*
X12590000Y-8940000D01*
X12920000Y-8600000D02*
X12960000Y-8640000D01*
X12960000Y-8600000D02*
X12920000Y-8640000D01*
X12960000Y-8920000D02*
X13000000Y-8960000D01*
X13000000Y-8920000D02*
X12960000Y-8960000D01*
X12990000Y-8520000D02*
X13030000Y-8560000D01*
X13030000Y-8520000D02*
X12990000Y-8560000D01*
X13080000Y-8460000D02*
X13120000Y-8500000D01*
X13120000Y-8460000D02*
X13080000Y-8500000D01*
X13110000Y-8720000D02*
X13150000Y-8760000D01*
X13150000Y-8720000D02*
X13110000Y-8760000D01*
X13160000Y-8390000D02*
X13200000Y-8430000D01*
X13200000Y-8390000D02*
X13160000Y-8430000D01*
X7357500Y-13340000D02*
G75*
G03*
X7357500Y-13340000I-37500J0D01*
G01*
X7557500Y-13340000D02*
G75*
G03*
X7557500Y-13340000I-37500J0D01*
G01*
X7739100Y-5221500D02*
X7739100Y-5301500D01*
X7699100Y-5261500D02*
X7779100Y-5261500D01*
X7769100Y-5336500D02*
X7769100Y-5186500D01*
X7709100Y-5336500D02*
X7709100Y-5186500D01*
X7769100Y-5186500D02*
G75*
G03*
X7709100Y-5186500I-30000J0D01*
G01*
X7709100Y-5336500D02*
G75*
G03*
X7769100Y-5336500I30000J0D01*
G01*
X9058900Y-5221500D02*
X9058900Y-5301500D01*
X9018900Y-5261500D02*
X9098900Y-5261500D01*
X9028900Y-5186500D02*
X9028900Y-5336500D01*
X9088900Y-5186500D02*
X9088900Y-5336500D01*
X9028900Y-5336500D02*
G75*
G03*
X9088900Y-5336500I30000J0D01*
G01*
X9088900Y-5186500D02*
G75*
G03*
X9028900Y-5186500I-30000J0D01*
G01*
X10439900Y-5221500D02*
X10439900Y-5301500D01*
X10399900Y-5261500D02*
X10479900Y-5261500D01*
X10469900Y-5336500D02*
X10469900Y-5186500D01*
X10409900Y-5336500D02*
X10409900Y-5186500D01*
X10469900Y-5186500D02*
G75*
G03*
X10409900Y-5186500I-30000J0D01*
G01*
X10409900Y-5336500D02*
G75*
G03*
X10469900Y-5336500I30000J0D01*
G01*
X11759700Y-5221500D02*
X11759700Y-5301500D01*
X11719700Y-5261500D02*
X11799700Y-5261500D01*
X11729700Y-5186500D02*
X11729700Y-5336500D01*
X11789700Y-5186500D02*
X11789700Y-5336500D01*
X11729700Y-5336500D02*
G75*
G03*
X11789700Y-5336500I30000J0D01*
G01*
X11789700Y-5186500D02*
G75*
G03*
X11729700Y-5186500I-30000J0D01*
G01*
X8081315Y-5438815D02*
X8081315Y-5374185D01*
X8016685Y-5374185D01*
X8016685Y-5438815D01*
X8081315Y-5438815D01*
X8331215Y-5438815D02*
X8331215Y-5374185D01*
X8266585Y-5374185D01*
X8266585Y-5438815D01*
X8331215Y-5438815D01*
X8531415Y-5438815D02*
X8531415Y-5374185D01*
X8466785Y-5374185D01*
X8466785Y-5438815D01*
X8531415Y-5438815D01*
X10782115Y-5438815D02*
X10782115Y-5374185D01*
X10717485Y-5374185D01*
X10717485Y-5438815D01*
X10782115Y-5438815D01*
X11032015Y-5438815D02*
X11032015Y-5374185D01*
X10967385Y-5374185D01*
X10967385Y-5438815D01*
X11032015Y-5438815D01*
X11232215Y-5438815D02*
X11232215Y-5374185D01*
X11167585Y-5374185D01*
X11167585Y-5438815D01*
X11232215Y-5438815D01*
X8749000Y-5456500D02*
X8799000Y-5406500D01*
X8749000Y-5356500D01*
X8699000Y-5406500D01*
X8749000Y-5456500D01*
X11449800Y-5456500D02*
X11499800Y-5406500D01*
X11449800Y-5356500D01*
X11399800Y-5406500D01*
X11449800Y-5456500D01*
D14*
X6176118Y-14726076D02*
X6176118Y-14426076D01*
X6247547Y-14426076D01*
X6290404Y-14440362D01*
X6318976Y-14468933D01*
X6333261Y-14497505D01*
X6347547Y-14554647D01*
X6347547Y-14597505D01*
X6333261Y-14654647D01*
X6318976Y-14683219D01*
X6290404Y-14711790D01*
X6247547Y-14726076D01*
X6176118Y-14726076D01*
X6476118Y-14726076D02*
X6476118Y-14526076D01*
X6476118Y-14583219D02*
X6490404Y-14554647D01*
X6504690Y-14540362D01*
X6533261Y-14526076D01*
X6561833Y-14526076D01*
X6661833Y-14726076D02*
X6661833Y-14526076D01*
X6661833Y-14426076D02*
X6647547Y-14440362D01*
X6661833Y-14454647D01*
X6676118Y-14440362D01*
X6661833Y-14426076D01*
X6661833Y-14454647D01*
X6847547Y-14726076D02*
X6818976Y-14711790D01*
X6804690Y-14683219D01*
X6804690Y-14426076D01*
X7004690Y-14726076D02*
X6976118Y-14711790D01*
X6961833Y-14683219D01*
X6961833Y-14426076D01*
X7347547Y-14726076D02*
X7347547Y-14426076D01*
X7447547Y-14640362D01*
X7547547Y-14426076D01*
X7547547Y-14726076D01*
X7818976Y-14726076D02*
X7818976Y-14568933D01*
X7804690Y-14540362D01*
X7776118Y-14526076D01*
X7718976Y-14526076D01*
X7690404Y-14540362D01*
X7818976Y-14711790D02*
X7790404Y-14726076D01*
X7718976Y-14726076D01*
X7690404Y-14711790D01*
X7676118Y-14683219D01*
X7676118Y-14654647D01*
X7690404Y-14626076D01*
X7718976Y-14611790D01*
X7790404Y-14611790D01*
X7818976Y-14597505D01*
X7961833Y-14526076D02*
X7961833Y-14826076D01*
X7961833Y-14540362D02*
X7990404Y-14526076D01*
X8047547Y-14526076D01*
X8076118Y-14540362D01*
X8090404Y-14554647D01*
X8104690Y-14583219D01*
X8104690Y-14668933D01*
X8090404Y-14697505D01*
X8076118Y-14711790D01*
X8047547Y-14726076D01*
X7990404Y-14726076D01*
X7961833Y-14711790D01*
X8233261Y-14697505D02*
X8247547Y-14711790D01*
X8233261Y-14726076D01*
X8218976Y-14711790D01*
X8233261Y-14697505D01*
X8233261Y-14726076D01*
X8233261Y-14540362D02*
X8247547Y-14554647D01*
X8233261Y-14568933D01*
X8218976Y-14554647D01*
X8233261Y-14540362D01*
X8233261Y-14568933D01*
X5849690Y-15200362D02*
X5889690Y-15240362D01*
X5889690Y-15200362D02*
X5849690Y-15240362D01*
X6233261Y-15056076D02*
X6261833Y-15056076D01*
X6290404Y-15070362D01*
X6304690Y-15084647D01*
X6318976Y-15113219D01*
X6333261Y-15170362D01*
X6333261Y-15241790D01*
X6318976Y-15298933D01*
X6304690Y-15327505D01*
X6290404Y-15341790D01*
X6261833Y-15356076D01*
X6233261Y-15356076D01*
X6204690Y-15341790D01*
X6190404Y-15327505D01*
X6176118Y-15298933D01*
X6161833Y-15241790D01*
X6161833Y-15170362D01*
X6176118Y-15113219D01*
X6190404Y-15084647D01*
X6204690Y-15070362D01*
X6233261Y-15056076D01*
X6461833Y-15327505D02*
X6476118Y-15341790D01*
X6461833Y-15356076D01*
X6447547Y-15341790D01*
X6461833Y-15327505D01*
X6461833Y-15356076D01*
X6733261Y-15156076D02*
X6733261Y-15356076D01*
X6661833Y-15041790D02*
X6590404Y-15256076D01*
X6776118Y-15256076D01*
X6947547Y-15056076D02*
X6976118Y-15056076D01*
X7004690Y-15070362D01*
X7018976Y-15084647D01*
X7033261Y-15113219D01*
X7047547Y-15170362D01*
X7047547Y-15241790D01*
X7033261Y-15298933D01*
X7018976Y-15327505D01*
X7004690Y-15341790D01*
X6976118Y-15356076D01*
X6947547Y-15356076D01*
X6918976Y-15341790D01*
X6904690Y-15327505D01*
X6890404Y-15298933D01*
X6876118Y-15241790D01*
X6876118Y-15170362D01*
X6890404Y-15113219D01*
X6904690Y-15084647D01*
X6918976Y-15070362D01*
X6947547Y-15056076D01*
X7233261Y-15056076D02*
X7261833Y-15056076D01*
X7290404Y-15070362D01*
X7304690Y-15084647D01*
X7318976Y-15113219D01*
X7333261Y-15170362D01*
X7333261Y-15241790D01*
X7318976Y-15298933D01*
X7304690Y-15327505D01*
X7290404Y-15341790D01*
X7261833Y-15356076D01*
X7233261Y-15356076D01*
X7204690Y-15341790D01*
X7190404Y-15327505D01*
X7176118Y-15298933D01*
X7161833Y-15241790D01*
X7161833Y-15170362D01*
X7176118Y-15113219D01*
X7190404Y-15084647D01*
X7204690Y-15070362D01*
X7233261Y-15056076D01*
X7461833Y-15356076D02*
X7461833Y-15156076D01*
X7461833Y-15184647D02*
X7476118Y-15170362D01*
X7504690Y-15156076D01*
X7547547Y-15156076D01*
X7576118Y-15170362D01*
X7590404Y-15198933D01*
X7590404Y-15356076D01*
X7590404Y-15198933D02*
X7604690Y-15170362D01*
X7633261Y-15156076D01*
X7676118Y-15156076D01*
X7704690Y-15170362D01*
X7718976Y-15198933D01*
X7718976Y-15356076D01*
X7861833Y-15356076D02*
X7861833Y-15156076D01*
X7861833Y-15184647D02*
X7876118Y-15170362D01*
X7904690Y-15156076D01*
X7947547Y-15156076D01*
X7976118Y-15170362D01*
X7990404Y-15198933D01*
X7990404Y-15356076D01*
X7990404Y-15198933D02*
X8004690Y-15170362D01*
X8033261Y-15156076D01*
X8076118Y-15156076D01*
X8104690Y-15170362D01*
X8118976Y-15198933D01*
X8118976Y-15356076D01*
X8704690Y-15041790D02*
X8447547Y-15427505D01*
X9090404Y-15056076D02*
X9118976Y-15056076D01*
X9147547Y-15070362D01*
X9161833Y-15084647D01*
X9176118Y-15113219D01*
X9190404Y-15170362D01*
X9190404Y-15241790D01*
X9176118Y-15298933D01*
X9161833Y-15327505D01*
X9147547Y-15341790D01*
X9118976Y-15356076D01*
X9090404Y-15356076D01*
X9061833Y-15341790D01*
X9047547Y-15327505D01*
X9033261Y-15298933D01*
X9018976Y-15241790D01*
X9018976Y-15170362D01*
X9033261Y-15113219D01*
X9047547Y-15084647D01*
X9061833Y-15070362D01*
X9090404Y-15056076D01*
X9318976Y-15327505D02*
X9333261Y-15341790D01*
X9318976Y-15356076D01*
X9304690Y-15341790D01*
X9318976Y-15327505D01*
X9318976Y-15356076D01*
X9518976Y-15056076D02*
X9547547Y-15056076D01*
X9576118Y-15070362D01*
X9590404Y-15084647D01*
X9604690Y-15113219D01*
X9618976Y-15170362D01*
X9618976Y-15241790D01*
X9604690Y-15298933D01*
X9590404Y-15327505D01*
X9576118Y-15341790D01*
X9547547Y-15356076D01*
X9518976Y-15356076D01*
X9490404Y-15341790D01*
X9476118Y-15327505D01*
X9461833Y-15298933D01*
X9447547Y-15241790D01*
X9447547Y-15170362D01*
X9461833Y-15113219D01*
X9476118Y-15084647D01*
X9490404Y-15070362D01*
X9518976Y-15056076D01*
X9904690Y-15356076D02*
X9733261Y-15356076D01*
X9818976Y-15356076D02*
X9818976Y-15056076D01*
X9790404Y-15098933D01*
X9761833Y-15127505D01*
X9733261Y-15141790D01*
X10176118Y-15056076D02*
X10033261Y-15056076D01*
X10018976Y-15198933D01*
X10033261Y-15184647D01*
X10061833Y-15170362D01*
X10133261Y-15170362D01*
X10161833Y-15184647D01*
X10176118Y-15198933D01*
X10190404Y-15227505D01*
X10190404Y-15298933D01*
X10176118Y-15327505D01*
X10161833Y-15341790D01*
X10133261Y-15356076D01*
X10061833Y-15356076D01*
X10033261Y-15341790D01*
X10018976Y-15327505D01*
X10290404Y-15056076D02*
X10490404Y-15056076D01*
X10361833Y-15356076D01*
X10590404Y-15056076D02*
X10590404Y-15113219D01*
X10704690Y-15056076D02*
X10704690Y-15113219D01*
X11147547Y-15470362D02*
X11133261Y-15456076D01*
X11104690Y-15413219D01*
X11090404Y-15384647D01*
X11076118Y-15341790D01*
X11061833Y-15270362D01*
X11061833Y-15213219D01*
X11076118Y-15141790D01*
X11090404Y-15098933D01*
X11104690Y-15070362D01*
X11133261Y-15027505D01*
X11147547Y-15013219D01*
X11390404Y-15056076D02*
X11333261Y-15056076D01*
X11304690Y-15070362D01*
X11290404Y-15084647D01*
X11261833Y-15127505D01*
X11247547Y-15184647D01*
X11247547Y-15298933D01*
X11261833Y-15327505D01*
X11276118Y-15341790D01*
X11304690Y-15356076D01*
X11361833Y-15356076D01*
X11390404Y-15341790D01*
X11404690Y-15327505D01*
X11418976Y-15298933D01*
X11418976Y-15227505D01*
X11404690Y-15198933D01*
X11390404Y-15184647D01*
X11361833Y-15170362D01*
X11304690Y-15170362D01*
X11276118Y-15184647D01*
X11261833Y-15198933D01*
X11247547Y-15227505D01*
X11676118Y-15056076D02*
X11618976Y-15056076D01*
X11590404Y-15070362D01*
X11576118Y-15084647D01*
X11547547Y-15127505D01*
X11533261Y-15184647D01*
X11533261Y-15298933D01*
X11547547Y-15327505D01*
X11561833Y-15341790D01*
X11590404Y-15356076D01*
X11647547Y-15356076D01*
X11676118Y-15341790D01*
X11690404Y-15327505D01*
X11704690Y-15298933D01*
X11704690Y-15227505D01*
X11690404Y-15198933D01*
X11676118Y-15184647D01*
X11647547Y-15170362D01*
X11590404Y-15170362D01*
X11561833Y-15184647D01*
X11547547Y-15198933D01*
X11533261Y-15227505D01*
X12061833Y-15356076D02*
X12061833Y-15056076D01*
X12190404Y-15356076D02*
X12190404Y-15198933D01*
X12176118Y-15170362D01*
X12147547Y-15156076D01*
X12104690Y-15156076D01*
X12076118Y-15170362D01*
X12061833Y-15184647D01*
X12376118Y-15356076D02*
X12347547Y-15341790D01*
X12333261Y-15327505D01*
X12318976Y-15298933D01*
X12318976Y-15213219D01*
X12333261Y-15184647D01*
X12347547Y-15170362D01*
X12376118Y-15156076D01*
X12418976Y-15156076D01*
X12447547Y-15170362D01*
X12461833Y-15184647D01*
X12476118Y-15213219D01*
X12476118Y-15298933D01*
X12461833Y-15327505D01*
X12447547Y-15341790D01*
X12418976Y-15356076D01*
X12376118Y-15356076D01*
X12647547Y-15356076D02*
X12618976Y-15341790D01*
X12604690Y-15313219D01*
X12604690Y-15056076D01*
X12876118Y-15341790D02*
X12847547Y-15356076D01*
X12790404Y-15356076D01*
X12761833Y-15341790D01*
X12747547Y-15313219D01*
X12747547Y-15198933D01*
X12761833Y-15170362D01*
X12790404Y-15156076D01*
X12847547Y-15156076D01*
X12876118Y-15170362D01*
X12890404Y-15198933D01*
X12890404Y-15227505D01*
X12747547Y-15256076D01*
X13004690Y-15341790D02*
X13033261Y-15356076D01*
X13090404Y-15356076D01*
X13118976Y-15341790D01*
X13133261Y-15313219D01*
X13133261Y-15298933D01*
X13118976Y-15270362D01*
X13090404Y-15256076D01*
X13047547Y-15256076D01*
X13018976Y-15241790D01*
X13004690Y-15213219D01*
X13004690Y-15198933D01*
X13018976Y-15170362D01*
X13047547Y-15156076D01*
X13090404Y-15156076D01*
X13118976Y-15170362D01*
X13233261Y-15470362D02*
X13247547Y-15456076D01*
X13276118Y-15413219D01*
X13290404Y-15384647D01*
X13304690Y-15341790D01*
X13318976Y-15270362D01*
X13318976Y-15213219D01*
X13304690Y-15141790D01*
X13290404Y-15098933D01*
X13276118Y-15070362D01*
X13247547Y-15027505D01*
X13233261Y-15013219D01*
X5889690Y-15616362D02*
G75*
G03*
X5889690Y-15616362I-37500J0D01*
G01*
X6233261Y-15452076D02*
X6261833Y-15452076D01*
X6290404Y-15466362D01*
X6304690Y-15480647D01*
X6318976Y-15509219D01*
X6333261Y-15566362D01*
X6333261Y-15637790D01*
X6318976Y-15694933D01*
X6304690Y-15723505D01*
X6290404Y-15737790D01*
X6261833Y-15752076D01*
X6233261Y-15752076D01*
X6204690Y-15737790D01*
X6190404Y-15723505D01*
X6176118Y-15694933D01*
X6161833Y-15637790D01*
X6161833Y-15566362D01*
X6176118Y-15509219D01*
X6190404Y-15480647D01*
X6204690Y-15466362D01*
X6233261Y-15452076D01*
X6461833Y-15723505D02*
X6476118Y-15737790D01*
X6461833Y-15752076D01*
X6447547Y-15737790D01*
X6461833Y-15723505D01*
X6461833Y-15752076D01*
X6576118Y-15452076D02*
X6776118Y-15452076D01*
X6647547Y-15752076D01*
X7033261Y-15452076D02*
X6890404Y-15452076D01*
X6876118Y-15594933D01*
X6890404Y-15580647D01*
X6918976Y-15566362D01*
X6990404Y-15566362D01*
X7018976Y-15580647D01*
X7033261Y-15594933D01*
X7047547Y-15623505D01*
X7047547Y-15694933D01*
X7033261Y-15723505D01*
X7018976Y-15737790D01*
X6990404Y-15752076D01*
X6918976Y-15752076D01*
X6890404Y-15737790D01*
X6876118Y-15723505D01*
X7233261Y-15452076D02*
X7261833Y-15452076D01*
X7290404Y-15466362D01*
X7304690Y-15480647D01*
X7318976Y-15509219D01*
X7333261Y-15566362D01*
X7333261Y-15637790D01*
X7318976Y-15694933D01*
X7304690Y-15723505D01*
X7290404Y-15737790D01*
X7261833Y-15752076D01*
X7233261Y-15752076D01*
X7204690Y-15737790D01*
X7190404Y-15723505D01*
X7176118Y-15694933D01*
X7161833Y-15637790D01*
X7161833Y-15566362D01*
X7176118Y-15509219D01*
X7190404Y-15480647D01*
X7204690Y-15466362D01*
X7233261Y-15452076D01*
X7461833Y-15752076D02*
X7461833Y-15552076D01*
X7461833Y-15580647D02*
X7476118Y-15566362D01*
X7504690Y-15552076D01*
X7547547Y-15552076D01*
X7576118Y-15566362D01*
X7590404Y-15594933D01*
X7590404Y-15752076D01*
X7590404Y-15594933D02*
X7604690Y-15566362D01*
X7633261Y-15552076D01*
X7676118Y-15552076D01*
X7704690Y-15566362D01*
X7718976Y-15594933D01*
X7718976Y-15752076D01*
X7861833Y-15752076D02*
X7861833Y-15552076D01*
X7861833Y-15580647D02*
X7876118Y-15566362D01*
X7904690Y-15552076D01*
X7947547Y-15552076D01*
X7976118Y-15566362D01*
X7990404Y-15594933D01*
X7990404Y-15752076D01*
X7990404Y-15594933D02*
X8004690Y-15566362D01*
X8033261Y-15552076D01*
X8076118Y-15552076D01*
X8104690Y-15566362D01*
X8118976Y-15594933D01*
X8118976Y-15752076D01*
X8704690Y-15437790D02*
X8447547Y-15823505D01*
X9090404Y-15452076D02*
X9118976Y-15452076D01*
X9147547Y-15466362D01*
X9161833Y-15480647D01*
X9176118Y-15509219D01*
X9190404Y-15566362D01*
X9190404Y-15637790D01*
X9176118Y-15694933D01*
X9161833Y-15723505D01*
X9147547Y-15737790D01*
X9118976Y-15752076D01*
X9090404Y-15752076D01*
X9061833Y-15737790D01*
X9047547Y-15723505D01*
X9033261Y-15694933D01*
X9018976Y-15637790D01*
X9018976Y-15566362D01*
X9033261Y-15509219D01*
X9047547Y-15480647D01*
X9061833Y-15466362D01*
X9090404Y-15452076D01*
X9318976Y-15723505D02*
X9333261Y-15737790D01*
X9318976Y-15752076D01*
X9304690Y-15737790D01*
X9318976Y-15723505D01*
X9318976Y-15752076D01*
X9518976Y-15452076D02*
X9547547Y-15452076D01*
X9576118Y-15466362D01*
X9590404Y-15480647D01*
X9604690Y-15509219D01*
X9618976Y-15566362D01*
X9618976Y-15637790D01*
X9604690Y-15694933D01*
X9590404Y-15723505D01*
X9576118Y-15737790D01*
X9547547Y-15752076D01*
X9518976Y-15752076D01*
X9490404Y-15737790D01*
X9476118Y-15723505D01*
X9461833Y-15694933D01*
X9447547Y-15637790D01*
X9447547Y-15566362D01*
X9461833Y-15509219D01*
X9476118Y-15480647D01*
X9490404Y-15466362D01*
X9518976Y-15452076D01*
X9733261Y-15480647D02*
X9747547Y-15466362D01*
X9776118Y-15452076D01*
X9847547Y-15452076D01*
X9876118Y-15466362D01*
X9890404Y-15480647D01*
X9904690Y-15509219D01*
X9904690Y-15537790D01*
X9890404Y-15580647D01*
X9718976Y-15752076D01*
X9904690Y-15752076D01*
X10047547Y-15752076D02*
X10104690Y-15752076D01*
X10133261Y-15737790D01*
X10147547Y-15723505D01*
X10176118Y-15680647D01*
X10190404Y-15623505D01*
X10190404Y-15509219D01*
X10176118Y-15480647D01*
X10161833Y-15466362D01*
X10133261Y-15452076D01*
X10076118Y-15452076D01*
X10047547Y-15466362D01*
X10033261Y-15480647D01*
X10018976Y-15509219D01*
X10018976Y-15580647D01*
X10033261Y-15609219D01*
X10047547Y-15623505D01*
X10076118Y-15637790D01*
X10133261Y-15637790D01*
X10161833Y-15623505D01*
X10176118Y-15609219D01*
X10190404Y-15580647D01*
X10461833Y-15452076D02*
X10318976Y-15452076D01*
X10304690Y-15594933D01*
X10318976Y-15580647D01*
X10347547Y-15566362D01*
X10418976Y-15566362D01*
X10447547Y-15580647D01*
X10461833Y-15594933D01*
X10476118Y-15623505D01*
X10476118Y-15694933D01*
X10461833Y-15723505D01*
X10447547Y-15737790D01*
X10418976Y-15752076D01*
X10347547Y-15752076D01*
X10318976Y-15737790D01*
X10304690Y-15723505D01*
X10590404Y-15452076D02*
X10590404Y-15509219D01*
X10704690Y-15452076D02*
X10704690Y-15509219D01*
X11147547Y-15866362D02*
X11133261Y-15852076D01*
X11104690Y-15809219D01*
X11090404Y-15780647D01*
X11076118Y-15737790D01*
X11061833Y-15666362D01*
X11061833Y-15609219D01*
X11076118Y-15537790D01*
X11090404Y-15494933D01*
X11104690Y-15466362D01*
X11133261Y-15423505D01*
X11147547Y-15409219D01*
X11247547Y-15480647D02*
X11261833Y-15466362D01*
X11290404Y-15452076D01*
X11361833Y-15452076D01*
X11390404Y-15466362D01*
X11404690Y-15480647D01*
X11418976Y-15509219D01*
X11418976Y-15537790D01*
X11404690Y-15580647D01*
X11233261Y-15752076D01*
X11418976Y-15752076D01*
X11776118Y-15752076D02*
X11776118Y-15452076D01*
X11904690Y-15752076D02*
X11904690Y-15594933D01*
X11890404Y-15566362D01*
X11861833Y-15552076D01*
X11818976Y-15552076D01*
X11790404Y-15566362D01*
X11776118Y-15580647D01*
X12090404Y-15752076D02*
X12061833Y-15737790D01*
X12047547Y-15723505D01*
X12033261Y-15694933D01*
X12033261Y-15609219D01*
X12047547Y-15580647D01*
X12061833Y-15566362D01*
X12090404Y-15552076D01*
X12133261Y-15552076D01*
X12161833Y-15566362D01*
X12176118Y-15580647D01*
X12190404Y-15609219D01*
X12190404Y-15694933D01*
X12176118Y-15723505D01*
X12161833Y-15737790D01*
X12133261Y-15752076D01*
X12090404Y-15752076D01*
X12361833Y-15752076D02*
X12333261Y-15737790D01*
X12318976Y-15709219D01*
X12318976Y-15452076D01*
X12590404Y-15737790D02*
X12561833Y-15752076D01*
X12504690Y-15752076D01*
X12476118Y-15737790D01*
X12461833Y-15709219D01*
X12461833Y-15594933D01*
X12476118Y-15566362D01*
X12504690Y-15552076D01*
X12561833Y-15552076D01*
X12590404Y-15566362D01*
X12604690Y-15594933D01*
X12604690Y-15623505D01*
X12461833Y-15652076D01*
X12718976Y-15737790D02*
X12747547Y-15752076D01*
X12804690Y-15752076D01*
X12833261Y-15737790D01*
X12847547Y-15709219D01*
X12847547Y-15694933D01*
X12833261Y-15666362D01*
X12804690Y-15652076D01*
X12761833Y-15652076D01*
X12733261Y-15637790D01*
X12718976Y-15609219D01*
X12718976Y-15594933D01*
X12733261Y-15566362D01*
X12761833Y-15552076D01*
X12804690Y-15552076D01*
X12833261Y-15566362D01*
X12947547Y-15866362D02*
X12961833Y-15852076D01*
X12990404Y-15809219D01*
X13004690Y-15780647D01*
X13018976Y-15737790D01*
X13033261Y-15666362D01*
X13033261Y-15609219D01*
X13018976Y-15537790D01*
X13004690Y-15494933D01*
X12990404Y-15466362D01*
X12961833Y-15423505D01*
X12947547Y-15409219D01*
X5849690Y-15972362D02*
X5849690Y-16052362D01*
X5809690Y-16012362D02*
X5889690Y-16012362D01*
X6233261Y-15848076D02*
X6261833Y-15848076D01*
X6290404Y-15862362D01*
X6304690Y-15876647D01*
X6318976Y-15905219D01*
X6333261Y-15962362D01*
X6333261Y-16033790D01*
X6318976Y-16090933D01*
X6304690Y-16119505D01*
X6290404Y-16133790D01*
X6261833Y-16148076D01*
X6233261Y-16148076D01*
X6204690Y-16133790D01*
X6190404Y-16119505D01*
X6176118Y-16090933D01*
X6161833Y-16033790D01*
X6161833Y-15962362D01*
X6176118Y-15905219D01*
X6190404Y-15876647D01*
X6204690Y-15862362D01*
X6233261Y-15848076D01*
X6461833Y-16119505D02*
X6476118Y-16133790D01*
X6461833Y-16148076D01*
X6447547Y-16133790D01*
X6461833Y-16119505D01*
X6461833Y-16148076D01*
X6647547Y-15976647D02*
X6618976Y-15962362D01*
X6604690Y-15948076D01*
X6590404Y-15919505D01*
X6590404Y-15905219D01*
X6604690Y-15876647D01*
X6618976Y-15862362D01*
X6647547Y-15848076D01*
X6704690Y-15848076D01*
X6733261Y-15862362D01*
X6747547Y-15876647D01*
X6761833Y-15905219D01*
X6761833Y-15919505D01*
X6747547Y-15948076D01*
X6733261Y-15962362D01*
X6704690Y-15976647D01*
X6647547Y-15976647D01*
X6618976Y-15990933D01*
X6604690Y-16005219D01*
X6590404Y-16033790D01*
X6590404Y-16090933D01*
X6604690Y-16119505D01*
X6618976Y-16133790D01*
X6647547Y-16148076D01*
X6704690Y-16148076D01*
X6733261Y-16133790D01*
X6747547Y-16119505D01*
X6761833Y-16090933D01*
X6761833Y-16033790D01*
X6747547Y-16005219D01*
X6733261Y-15990933D01*
X6704690Y-15976647D01*
X6947547Y-15848076D02*
X6976118Y-15848076D01*
X7004690Y-15862362D01*
X7018976Y-15876647D01*
X7033261Y-15905219D01*
X7047547Y-15962362D01*
X7047547Y-16033790D01*
X7033261Y-16090933D01*
X7018976Y-16119505D01*
X7004690Y-16133790D01*
X6976118Y-16148076D01*
X6947547Y-16148076D01*
X6918976Y-16133790D01*
X6904690Y-16119505D01*
X6890404Y-16090933D01*
X6876118Y-16033790D01*
X6876118Y-15962362D01*
X6890404Y-15905219D01*
X6904690Y-15876647D01*
X6918976Y-15862362D01*
X6947547Y-15848076D01*
X7233261Y-15848076D02*
X7261833Y-15848076D01*
X7290404Y-15862362D01*
X7304690Y-15876647D01*
X7318976Y-15905219D01*
X7333261Y-15962362D01*
X7333261Y-16033790D01*
X7318976Y-16090933D01*
X7304690Y-16119505D01*
X7290404Y-16133790D01*
X7261833Y-16148076D01*
X7233261Y-16148076D01*
X7204690Y-16133790D01*
X7190404Y-16119505D01*
X7176118Y-16090933D01*
X7161833Y-16033790D01*
X7161833Y-15962362D01*
X7176118Y-15905219D01*
X7190404Y-15876647D01*
X7204690Y-15862362D01*
X7233261Y-15848076D01*
X7461833Y-16148076D02*
X7461833Y-15948076D01*
X7461833Y-15976647D02*
X7476118Y-15962362D01*
X7504690Y-15948076D01*
X7547547Y-15948076D01*
X7576118Y-15962362D01*
X7590404Y-15990933D01*
X7590404Y-16148076D01*
X7590404Y-15990933D02*
X7604690Y-15962362D01*
X7633261Y-15948076D01*
X7676118Y-15948076D01*
X7704690Y-15962362D01*
X7718976Y-15990933D01*
X7718976Y-16148076D01*
X7861833Y-16148076D02*
X7861833Y-15948076D01*
X7861833Y-15976647D02*
X7876118Y-15962362D01*
X7904690Y-15948076D01*
X7947547Y-15948076D01*
X7976118Y-15962362D01*
X7990404Y-15990933D01*
X7990404Y-16148076D01*
X7990404Y-15990933D02*
X8004690Y-15962362D01*
X8033261Y-15948076D01*
X8076118Y-15948076D01*
X8104690Y-15962362D01*
X8118976Y-15990933D01*
X8118976Y-16148076D01*
X8704690Y-15833790D02*
X8447547Y-16219505D01*
X9090404Y-15848076D02*
X9118976Y-15848076D01*
X9147547Y-15862362D01*
X9161833Y-15876647D01*
X9176118Y-15905219D01*
X9190404Y-15962362D01*
X9190404Y-16033790D01*
X9176118Y-16090933D01*
X9161833Y-16119505D01*
X9147547Y-16133790D01*
X9118976Y-16148076D01*
X9090404Y-16148076D01*
X9061833Y-16133790D01*
X9047547Y-16119505D01*
X9033261Y-16090933D01*
X9018976Y-16033790D01*
X9018976Y-15962362D01*
X9033261Y-15905219D01*
X9047547Y-15876647D01*
X9061833Y-15862362D01*
X9090404Y-15848076D01*
X9318976Y-16119505D02*
X9333261Y-16133790D01*
X9318976Y-16148076D01*
X9304690Y-16133790D01*
X9318976Y-16119505D01*
X9318976Y-16148076D01*
X9518976Y-15848076D02*
X9547547Y-15848076D01*
X9576118Y-15862362D01*
X9590404Y-15876647D01*
X9604690Y-15905219D01*
X9618976Y-15962362D01*
X9618976Y-16033790D01*
X9604690Y-16090933D01*
X9590404Y-16119505D01*
X9576118Y-16133790D01*
X9547547Y-16148076D01*
X9518976Y-16148076D01*
X9490404Y-16133790D01*
X9476118Y-16119505D01*
X9461833Y-16090933D01*
X9447547Y-16033790D01*
X9447547Y-15962362D01*
X9461833Y-15905219D01*
X9476118Y-15876647D01*
X9490404Y-15862362D01*
X9518976Y-15848076D01*
X9718976Y-15848076D02*
X9904690Y-15848076D01*
X9804690Y-15962362D01*
X9847547Y-15962362D01*
X9876118Y-15976647D01*
X9890404Y-15990933D01*
X9904690Y-16019505D01*
X9904690Y-16090933D01*
X9890404Y-16119505D01*
X9876118Y-16133790D01*
X9847547Y-16148076D01*
X9761833Y-16148076D01*
X9733261Y-16133790D01*
X9718976Y-16119505D01*
X10190404Y-16148076D02*
X10018976Y-16148076D01*
X10104690Y-16148076D02*
X10104690Y-15848076D01*
X10076118Y-15890933D01*
X10047547Y-15919505D01*
X10018976Y-15933790D01*
X10461833Y-15848076D02*
X10318976Y-15848076D01*
X10304690Y-15990933D01*
X10318976Y-15976647D01*
X10347547Y-15962362D01*
X10418976Y-15962362D01*
X10447547Y-15976647D01*
X10461833Y-15990933D01*
X10476118Y-16019505D01*
X10476118Y-16090933D01*
X10461833Y-16119505D01*
X10447547Y-16133790D01*
X10418976Y-16148076D01*
X10347547Y-16148076D01*
X10318976Y-16133790D01*
X10304690Y-16119505D01*
X10590404Y-15848076D02*
X10590404Y-15905219D01*
X10704690Y-15848076D02*
X10704690Y-15905219D01*
X11147547Y-16262362D02*
X11133261Y-16248076D01*
X11104690Y-16205219D01*
X11090404Y-16176647D01*
X11076118Y-16133790D01*
X11061833Y-16062362D01*
X11061833Y-16005219D01*
X11076118Y-15933790D01*
X11090404Y-15890933D01*
X11104690Y-15862362D01*
X11133261Y-15819505D01*
X11147547Y-15805219D01*
X11318976Y-15848076D02*
X11347547Y-15848076D01*
X11376118Y-15862362D01*
X11390404Y-15876647D01*
X11404690Y-15905219D01*
X11418976Y-15962362D01*
X11418976Y-16033790D01*
X11404690Y-16090933D01*
X11390404Y-16119505D01*
X11376118Y-16133790D01*
X11347547Y-16148076D01*
X11318976Y-16148076D01*
X11290404Y-16133790D01*
X11276118Y-16119505D01*
X11261833Y-16090933D01*
X11247547Y-16033790D01*
X11247547Y-15962362D01*
X11261833Y-15905219D01*
X11276118Y-15876647D01*
X11290404Y-15862362D01*
X11318976Y-15848076D01*
X11776118Y-16148076D02*
X11776118Y-15848076D01*
X11904690Y-16148076D02*
X11904690Y-15990933D01*
X11890404Y-15962362D01*
X11861833Y-15948076D01*
X11818976Y-15948076D01*
X11790404Y-15962362D01*
X11776118Y-15976647D01*
X12090404Y-16148076D02*
X12061833Y-16133790D01*
X12047547Y-16119505D01*
X12033261Y-16090933D01*
X12033261Y-16005219D01*
X12047547Y-15976647D01*
X12061833Y-15962362D01*
X12090404Y-15948076D01*
X12133261Y-15948076D01*
X12161833Y-15962362D01*
X12176118Y-15976647D01*
X12190404Y-16005219D01*
X12190404Y-16090933D01*
X12176118Y-16119505D01*
X12161833Y-16133790D01*
X12133261Y-16148076D01*
X12090404Y-16148076D01*
X12361833Y-16148076D02*
X12333261Y-16133790D01*
X12318976Y-16105219D01*
X12318976Y-15848076D01*
X12590404Y-16133790D02*
X12561833Y-16148076D01*
X12504690Y-16148076D01*
X12476118Y-16133790D01*
X12461833Y-16105219D01*
X12461833Y-15990933D01*
X12476118Y-15962362D01*
X12504690Y-15948076D01*
X12561833Y-15948076D01*
X12590404Y-15962362D01*
X12604690Y-15990933D01*
X12604690Y-16019505D01*
X12461833Y-16048076D01*
X12718976Y-16133790D02*
X12747547Y-16148076D01*
X12804690Y-16148076D01*
X12833261Y-16133790D01*
X12847547Y-16105219D01*
X12847547Y-16090933D01*
X12833261Y-16062362D01*
X12804690Y-16048076D01*
X12761833Y-16048076D01*
X12733261Y-16033790D01*
X12718976Y-16005219D01*
X12718976Y-15990933D01*
X12733261Y-15962362D01*
X12761833Y-15948076D01*
X12804690Y-15948076D01*
X12833261Y-15962362D01*
X13204690Y-16033790D02*
X13433261Y-16033790D01*
X13318976Y-16148076D02*
X13318976Y-15919505D01*
X13933261Y-15948076D02*
X13933261Y-16148076D01*
X13861833Y-15833790D02*
X13790404Y-16048076D01*
X13976118Y-16048076D01*
X14304690Y-16133790D02*
X14333261Y-16148076D01*
X14390404Y-16148076D01*
X14418976Y-16133790D01*
X14433261Y-16105219D01*
X14433261Y-16090933D01*
X14418976Y-16062362D01*
X14390404Y-16048076D01*
X14347547Y-16048076D01*
X14318976Y-16033790D01*
X14304690Y-16005219D01*
X14304690Y-15990933D01*
X14318976Y-15962362D01*
X14347547Y-15948076D01*
X14390404Y-15948076D01*
X14418976Y-15962362D01*
X14604690Y-16148076D02*
X14576118Y-16133790D01*
X14561833Y-16105219D01*
X14561833Y-15848076D01*
X14761833Y-16148076D02*
X14733261Y-16133790D01*
X14718976Y-16119505D01*
X14704690Y-16090933D01*
X14704690Y-16005219D01*
X14718976Y-15976647D01*
X14733261Y-15962362D01*
X14761833Y-15948076D01*
X14804690Y-15948076D01*
X14833261Y-15962362D01*
X14847547Y-15976647D01*
X14861833Y-16005219D01*
X14861833Y-16090933D01*
X14847547Y-16119505D01*
X14833261Y-16133790D01*
X14804690Y-16148076D01*
X14761833Y-16148076D01*
X14947547Y-15948076D02*
X15061833Y-15948076D01*
X14990404Y-15848076D02*
X14990404Y-16105219D01*
X15004690Y-16133790D01*
X15033261Y-16148076D01*
X15061833Y-16148076D01*
X15147547Y-16133790D02*
X15176118Y-16148076D01*
X15233261Y-16148076D01*
X15261833Y-16133790D01*
X15276118Y-16105219D01*
X15276118Y-16090933D01*
X15261833Y-16062362D01*
X15233261Y-16048076D01*
X15190404Y-16048076D01*
X15161833Y-16033790D01*
X15147547Y-16005219D01*
X15147547Y-15990933D01*
X15161833Y-15962362D01*
X15190404Y-15948076D01*
X15233261Y-15948076D01*
X15261833Y-15962362D01*
X15376118Y-16262362D02*
X15390404Y-16248076D01*
X15418976Y-16205219D01*
X15433261Y-16176647D01*
X15447547Y-16133790D01*
X15461833Y-16062362D01*
X15461833Y-16005219D01*
X15447547Y-15933790D01*
X15433261Y-15890933D01*
X15418976Y-15862362D01*
X15390404Y-15819505D01*
X15376118Y-15805219D01*
X5876305Y-16440677D02*
X5876305Y-16376047D01*
X5811675Y-16376047D01*
X5811675Y-16440677D01*
X5876305Y-16440677D01*
X6233261Y-16244076D02*
X6261833Y-16244076D01*
X6290404Y-16258362D01*
X6304690Y-16272647D01*
X6318976Y-16301219D01*
X6333261Y-16358362D01*
X6333261Y-16429790D01*
X6318976Y-16486933D01*
X6304690Y-16515505D01*
X6290404Y-16529790D01*
X6261833Y-16544076D01*
X6233261Y-16544076D01*
X6204690Y-16529790D01*
X6190404Y-16515505D01*
X6176118Y-16486933D01*
X6161833Y-16429790D01*
X6161833Y-16358362D01*
X6176118Y-16301219D01*
X6190404Y-16272647D01*
X6204690Y-16258362D01*
X6233261Y-16244076D01*
X6461833Y-16515505D02*
X6476118Y-16529790D01*
X6461833Y-16544076D01*
X6447547Y-16529790D01*
X6461833Y-16515505D01*
X6461833Y-16544076D01*
X6618976Y-16544076D02*
X6676118Y-16544076D01*
X6704690Y-16529790D01*
X6718976Y-16515505D01*
X6747547Y-16472647D01*
X6761833Y-16415505D01*
X6761833Y-16301219D01*
X6747547Y-16272647D01*
X6733261Y-16258362D01*
X6704690Y-16244076D01*
X6647547Y-16244076D01*
X6618976Y-16258362D01*
X6604690Y-16272647D01*
X6590404Y-16301219D01*
X6590404Y-16372647D01*
X6604690Y-16401219D01*
X6618976Y-16415505D01*
X6647547Y-16429790D01*
X6704690Y-16429790D01*
X6733261Y-16415505D01*
X6747547Y-16401219D01*
X6761833Y-16372647D01*
X7047547Y-16544076D02*
X6876118Y-16544076D01*
X6961833Y-16544076D02*
X6961833Y-16244076D01*
X6933261Y-16286933D01*
X6904690Y-16315505D01*
X6876118Y-16329790D01*
X7304690Y-16344076D02*
X7304690Y-16544076D01*
X7233261Y-16229790D02*
X7161833Y-16444076D01*
X7347547Y-16444076D01*
X7461833Y-16544076D02*
X7461833Y-16344076D01*
X7461833Y-16372647D02*
X7476118Y-16358362D01*
X7504690Y-16344076D01*
X7547547Y-16344076D01*
X7576118Y-16358362D01*
X7590404Y-16386933D01*
X7590404Y-16544076D01*
X7590404Y-16386933D02*
X7604690Y-16358362D01*
X7633261Y-16344076D01*
X7676118Y-16344076D01*
X7704690Y-16358362D01*
X7718976Y-16386933D01*
X7718976Y-16544076D01*
X7861833Y-16544076D02*
X7861833Y-16344076D01*
X7861833Y-16372647D02*
X7876118Y-16358362D01*
X7904690Y-16344076D01*
X7947547Y-16344076D01*
X7976118Y-16358362D01*
X7990404Y-16386933D01*
X7990404Y-16544076D01*
X7990404Y-16386933D02*
X8004690Y-16358362D01*
X8033261Y-16344076D01*
X8076118Y-16344076D01*
X8104690Y-16358362D01*
X8118976Y-16386933D01*
X8118976Y-16544076D01*
X8704690Y-16229790D02*
X8447547Y-16615505D01*
X9090404Y-16244076D02*
X9118976Y-16244076D01*
X9147547Y-16258362D01*
X9161833Y-16272647D01*
X9176118Y-16301219D01*
X9190404Y-16358362D01*
X9190404Y-16429790D01*
X9176118Y-16486933D01*
X9161833Y-16515505D01*
X9147547Y-16529790D01*
X9118976Y-16544076D01*
X9090404Y-16544076D01*
X9061833Y-16529790D01*
X9047547Y-16515505D01*
X9033261Y-16486933D01*
X9018976Y-16429790D01*
X9018976Y-16358362D01*
X9033261Y-16301219D01*
X9047547Y-16272647D01*
X9061833Y-16258362D01*
X9090404Y-16244076D01*
X9318976Y-16515505D02*
X9333261Y-16529790D01*
X9318976Y-16544076D01*
X9304690Y-16529790D01*
X9318976Y-16515505D01*
X9318976Y-16544076D01*
X9518976Y-16244076D02*
X9547547Y-16244076D01*
X9576118Y-16258362D01*
X9590404Y-16272647D01*
X9604690Y-16301219D01*
X9618976Y-16358362D01*
X9618976Y-16429790D01*
X9604690Y-16486933D01*
X9590404Y-16515505D01*
X9576118Y-16529790D01*
X9547547Y-16544076D01*
X9518976Y-16544076D01*
X9490404Y-16529790D01*
X9476118Y-16515505D01*
X9461833Y-16486933D01*
X9447547Y-16429790D01*
X9447547Y-16358362D01*
X9461833Y-16301219D01*
X9476118Y-16272647D01*
X9490404Y-16258362D01*
X9518976Y-16244076D01*
X9718976Y-16244076D02*
X9904690Y-16244076D01*
X9804690Y-16358362D01*
X9847547Y-16358362D01*
X9876118Y-16372647D01*
X9890404Y-16386933D01*
X9904690Y-16415505D01*
X9904690Y-16486933D01*
X9890404Y-16515505D01*
X9876118Y-16529790D01*
X9847547Y-16544076D01*
X9761833Y-16544076D01*
X9733261Y-16529790D01*
X9718976Y-16515505D01*
X10161833Y-16244076D02*
X10104690Y-16244076D01*
X10076118Y-16258362D01*
X10061833Y-16272647D01*
X10033261Y-16315505D01*
X10018976Y-16372647D01*
X10018976Y-16486933D01*
X10033261Y-16515505D01*
X10047547Y-16529790D01*
X10076118Y-16544076D01*
X10133261Y-16544076D01*
X10161833Y-16529790D01*
X10176118Y-16515505D01*
X10190404Y-16486933D01*
X10190404Y-16415505D01*
X10176118Y-16386933D01*
X10161833Y-16372647D01*
X10133261Y-16358362D01*
X10076118Y-16358362D01*
X10047547Y-16372647D01*
X10033261Y-16386933D01*
X10018976Y-16415505D01*
X10376118Y-16244076D02*
X10404690Y-16244076D01*
X10433261Y-16258362D01*
X10447547Y-16272647D01*
X10461833Y-16301219D01*
X10476118Y-16358362D01*
X10476118Y-16429790D01*
X10461833Y-16486933D01*
X10447547Y-16515505D01*
X10433261Y-16529790D01*
X10404690Y-16544076D01*
X10376118Y-16544076D01*
X10347547Y-16529790D01*
X10333261Y-16515505D01*
X10318976Y-16486933D01*
X10304690Y-16429790D01*
X10304690Y-16358362D01*
X10318976Y-16301219D01*
X10333261Y-16272647D01*
X10347547Y-16258362D01*
X10376118Y-16244076D01*
X10590404Y-16244076D02*
X10590404Y-16301219D01*
X10704690Y-16244076D02*
X10704690Y-16301219D01*
X11147547Y-16658362D02*
X11133261Y-16644076D01*
X11104690Y-16601219D01*
X11090404Y-16572647D01*
X11076118Y-16529790D01*
X11061833Y-16458362D01*
X11061833Y-16401219D01*
X11076118Y-16329790D01*
X11090404Y-16286933D01*
X11104690Y-16258362D01*
X11133261Y-16215505D01*
X11147547Y-16201219D01*
X11390404Y-16244076D02*
X11333261Y-16244076D01*
X11304690Y-16258362D01*
X11290404Y-16272647D01*
X11261833Y-16315505D01*
X11247547Y-16372647D01*
X11247547Y-16486933D01*
X11261833Y-16515505D01*
X11276118Y-16529790D01*
X11304690Y-16544076D01*
X11361833Y-16544076D01*
X11390404Y-16529790D01*
X11404690Y-16515505D01*
X11418976Y-16486933D01*
X11418976Y-16415505D01*
X11404690Y-16386933D01*
X11390404Y-16372647D01*
X11361833Y-16358362D01*
X11304690Y-16358362D01*
X11276118Y-16372647D01*
X11261833Y-16386933D01*
X11247547Y-16415505D01*
X11776118Y-16544076D02*
X11776118Y-16244076D01*
X11904690Y-16544076D02*
X11904690Y-16386933D01*
X11890404Y-16358362D01*
X11861833Y-16344076D01*
X11818976Y-16344076D01*
X11790404Y-16358362D01*
X11776118Y-16372647D01*
X12090404Y-16544076D02*
X12061833Y-16529790D01*
X12047547Y-16515505D01*
X12033261Y-16486933D01*
X12033261Y-16401219D01*
X12047547Y-16372647D01*
X12061833Y-16358362D01*
X12090404Y-16344076D01*
X12133261Y-16344076D01*
X12161833Y-16358362D01*
X12176118Y-16372647D01*
X12190404Y-16401219D01*
X12190404Y-16486933D01*
X12176118Y-16515505D01*
X12161833Y-16529790D01*
X12133261Y-16544076D01*
X12090404Y-16544076D01*
X12361833Y-16544076D02*
X12333261Y-16529790D01*
X12318976Y-16501219D01*
X12318976Y-16244076D01*
X12590404Y-16529790D02*
X12561833Y-16544076D01*
X12504690Y-16544076D01*
X12476118Y-16529790D01*
X12461833Y-16501219D01*
X12461833Y-16386933D01*
X12476118Y-16358362D01*
X12504690Y-16344076D01*
X12561833Y-16344076D01*
X12590404Y-16358362D01*
X12604690Y-16386933D01*
X12604690Y-16415505D01*
X12461833Y-16444076D01*
X12718976Y-16529790D02*
X12747547Y-16544076D01*
X12804690Y-16544076D01*
X12833261Y-16529790D01*
X12847547Y-16501219D01*
X12847547Y-16486933D01*
X12833261Y-16458362D01*
X12804690Y-16444076D01*
X12761833Y-16444076D01*
X12733261Y-16429790D01*
X12718976Y-16401219D01*
X12718976Y-16386933D01*
X12733261Y-16358362D01*
X12761833Y-16344076D01*
X12804690Y-16344076D01*
X12833261Y-16358362D01*
X12947547Y-16658362D02*
X12961833Y-16644076D01*
X12990404Y-16601219D01*
X13004690Y-16572647D01*
X13018976Y-16529790D01*
X13033261Y-16458362D01*
X13033261Y-16401219D01*
X13018976Y-16329790D01*
X13004690Y-16286933D01*
X12990404Y-16258362D01*
X12961833Y-16215505D01*
X12947547Y-16201219D01*
X5839690Y-16854362D02*
X5889690Y-16804362D01*
X5839690Y-16754362D01*
X5789690Y-16804362D01*
X5839690Y-16854362D01*
X6333261Y-16940076D02*
X6161833Y-16940076D01*
X6247547Y-16940076D02*
X6247547Y-16640076D01*
X6218976Y-16682933D01*
X6190404Y-16711505D01*
X6161833Y-16725790D01*
X6461833Y-16911505D02*
X6476118Y-16925790D01*
X6461833Y-16940076D01*
X6447547Y-16925790D01*
X6461833Y-16911505D01*
X6461833Y-16940076D01*
X6661833Y-16640076D02*
X6690404Y-16640076D01*
X6718976Y-16654362D01*
X6733261Y-16668647D01*
X6747547Y-16697219D01*
X6761833Y-16754362D01*
X6761833Y-16825790D01*
X6747547Y-16882933D01*
X6733261Y-16911505D01*
X6718976Y-16925790D01*
X6690404Y-16940076D01*
X6661833Y-16940076D01*
X6633261Y-16925790D01*
X6618976Y-16911505D01*
X6604690Y-16882933D01*
X6590404Y-16825790D01*
X6590404Y-16754362D01*
X6604690Y-16697219D01*
X6618976Y-16668647D01*
X6633261Y-16654362D01*
X6661833Y-16640076D01*
X6947547Y-16640076D02*
X6976118Y-16640076D01*
X7004690Y-16654362D01*
X7018976Y-16668647D01*
X7033261Y-16697219D01*
X7047547Y-16754362D01*
X7047547Y-16825790D01*
X7033261Y-16882933D01*
X7018976Y-16911505D01*
X7004690Y-16925790D01*
X6976118Y-16940076D01*
X6947547Y-16940076D01*
X6918976Y-16925790D01*
X6904690Y-16911505D01*
X6890404Y-16882933D01*
X6876118Y-16825790D01*
X6876118Y-16754362D01*
X6890404Y-16697219D01*
X6904690Y-16668647D01*
X6918976Y-16654362D01*
X6947547Y-16640076D01*
X7233261Y-16640076D02*
X7261833Y-16640076D01*
X7290404Y-16654362D01*
X7304690Y-16668647D01*
X7318976Y-16697219D01*
X7333261Y-16754362D01*
X7333261Y-16825790D01*
X7318976Y-16882933D01*
X7304690Y-16911505D01*
X7290404Y-16925790D01*
X7261833Y-16940076D01*
X7233261Y-16940076D01*
X7204690Y-16925790D01*
X7190404Y-16911505D01*
X7176118Y-16882933D01*
X7161833Y-16825790D01*
X7161833Y-16754362D01*
X7176118Y-16697219D01*
X7190404Y-16668647D01*
X7204690Y-16654362D01*
X7233261Y-16640076D01*
X7461833Y-16940076D02*
X7461833Y-16740076D01*
X7461833Y-16768647D02*
X7476118Y-16754362D01*
X7504690Y-16740076D01*
X7547547Y-16740076D01*
X7576118Y-16754362D01*
X7590404Y-16782933D01*
X7590404Y-16940076D01*
X7590404Y-16782933D02*
X7604690Y-16754362D01*
X7633261Y-16740076D01*
X7676118Y-16740076D01*
X7704690Y-16754362D01*
X7718976Y-16782933D01*
X7718976Y-16940076D01*
X7861833Y-16940076D02*
X7861833Y-16740076D01*
X7861833Y-16768647D02*
X7876118Y-16754362D01*
X7904690Y-16740076D01*
X7947547Y-16740076D01*
X7976118Y-16754362D01*
X7990404Y-16782933D01*
X7990404Y-16940076D01*
X7990404Y-16782933D02*
X8004690Y-16754362D01*
X8033261Y-16740076D01*
X8076118Y-16740076D01*
X8104690Y-16754362D01*
X8118976Y-16782933D01*
X8118976Y-16940076D01*
X8704690Y-16625790D02*
X8447547Y-17011505D01*
X9090404Y-16640076D02*
X9118976Y-16640076D01*
X9147547Y-16654362D01*
X9161833Y-16668647D01*
X9176118Y-16697219D01*
X9190404Y-16754362D01*
X9190404Y-16825790D01*
X9176118Y-16882933D01*
X9161833Y-16911505D01*
X9147547Y-16925790D01*
X9118976Y-16940076D01*
X9090404Y-16940076D01*
X9061833Y-16925790D01*
X9047547Y-16911505D01*
X9033261Y-16882933D01*
X9018976Y-16825790D01*
X9018976Y-16754362D01*
X9033261Y-16697219D01*
X9047547Y-16668647D01*
X9061833Y-16654362D01*
X9090404Y-16640076D01*
X9318976Y-16911505D02*
X9333261Y-16925790D01*
X9318976Y-16940076D01*
X9304690Y-16925790D01*
X9318976Y-16911505D01*
X9318976Y-16940076D01*
X9518976Y-16640076D02*
X9547547Y-16640076D01*
X9576118Y-16654362D01*
X9590404Y-16668647D01*
X9604690Y-16697219D01*
X9618976Y-16754362D01*
X9618976Y-16825790D01*
X9604690Y-16882933D01*
X9590404Y-16911505D01*
X9576118Y-16925790D01*
X9547547Y-16940076D01*
X9518976Y-16940076D01*
X9490404Y-16925790D01*
X9476118Y-16911505D01*
X9461833Y-16882933D01*
X9447547Y-16825790D01*
X9447547Y-16754362D01*
X9461833Y-16697219D01*
X9476118Y-16668647D01*
X9490404Y-16654362D01*
X9518976Y-16640076D01*
X9718976Y-16640076D02*
X9904690Y-16640076D01*
X9804690Y-16754362D01*
X9847547Y-16754362D01*
X9876118Y-16768647D01*
X9890404Y-16782933D01*
X9904690Y-16811505D01*
X9904690Y-16882933D01*
X9890404Y-16911505D01*
X9876118Y-16925790D01*
X9847547Y-16940076D01*
X9761833Y-16940076D01*
X9733261Y-16925790D01*
X9718976Y-16911505D01*
X10047547Y-16940076D02*
X10104690Y-16940076D01*
X10133261Y-16925790D01*
X10147547Y-16911505D01*
X10176118Y-16868648D01*
X10190404Y-16811505D01*
X10190404Y-16697219D01*
X10176118Y-16668647D01*
X10161833Y-16654362D01*
X10133261Y-16640076D01*
X10076118Y-16640076D01*
X10047547Y-16654362D01*
X10033261Y-16668647D01*
X10018976Y-16697219D01*
X10018976Y-16768647D01*
X10033261Y-16797219D01*
X10047547Y-16811505D01*
X10076118Y-16825790D01*
X10133261Y-16825790D01*
X10161833Y-16811505D01*
X10176118Y-16797219D01*
X10190404Y-16768647D01*
X10447547Y-16740076D02*
X10447547Y-16940076D01*
X10376118Y-16625790D02*
X10304690Y-16840076D01*
X10490404Y-16840076D01*
X10590404Y-16640076D02*
X10590404Y-16697219D01*
X10704690Y-16640076D02*
X10704690Y-16697219D01*
X11147547Y-17054362D02*
X11133261Y-17040076D01*
X11104690Y-16997219D01*
X11090404Y-16968648D01*
X11076118Y-16925790D01*
X11061833Y-16854362D01*
X11061833Y-16797219D01*
X11076118Y-16725790D01*
X11090404Y-16682933D01*
X11104690Y-16654362D01*
X11133261Y-16611505D01*
X11147547Y-16597219D01*
X11247547Y-16668647D02*
X11261833Y-16654362D01*
X11290404Y-16640076D01*
X11361833Y-16640076D01*
X11390404Y-16654362D01*
X11404690Y-16668647D01*
X11418976Y-16697219D01*
X11418976Y-16725790D01*
X11404690Y-16768647D01*
X11233261Y-16940076D01*
X11418976Y-16940076D01*
X11776118Y-16940076D02*
X11776118Y-16640076D01*
X11904690Y-16940076D02*
X11904690Y-16782933D01*
X11890404Y-16754362D01*
X11861833Y-16740076D01*
X11818976Y-16740076D01*
X11790404Y-16754362D01*
X11776118Y-16768647D01*
X12090404Y-16940076D02*
X12061833Y-16925790D01*
X12047547Y-16911505D01*
X12033261Y-16882933D01*
X12033261Y-16797219D01*
X12047547Y-16768647D01*
X12061833Y-16754362D01*
X12090404Y-16740076D01*
X12133261Y-16740076D01*
X12161833Y-16754362D01*
X12176118Y-16768647D01*
X12190404Y-16797219D01*
X12190404Y-16882933D01*
X12176118Y-16911505D01*
X12161833Y-16925790D01*
X12133261Y-16940076D01*
X12090404Y-16940076D01*
X12361833Y-16940076D02*
X12333261Y-16925790D01*
X12318976Y-16897219D01*
X12318976Y-16640076D01*
X12590404Y-16925790D02*
X12561833Y-16940076D01*
X12504690Y-16940076D01*
X12476118Y-16925790D01*
X12461833Y-16897219D01*
X12461833Y-16782933D01*
X12476118Y-16754362D01*
X12504690Y-16740076D01*
X12561833Y-16740076D01*
X12590404Y-16754362D01*
X12604690Y-16782933D01*
X12604690Y-16811505D01*
X12461833Y-16840076D01*
X12718976Y-16925790D02*
X12747547Y-16940076D01*
X12804690Y-16940076D01*
X12833261Y-16925790D01*
X12847547Y-16897219D01*
X12847547Y-16882933D01*
X12833261Y-16854362D01*
X12804690Y-16840076D01*
X12761833Y-16840076D01*
X12733261Y-16825790D01*
X12718976Y-16797219D01*
X12718976Y-16782933D01*
X12733261Y-16754362D01*
X12761833Y-16740076D01*
X12804690Y-16740076D01*
X12833261Y-16754362D01*
X12947547Y-17054362D02*
X12961833Y-17040076D01*
X12990404Y-16997219D01*
X13004690Y-16968648D01*
X13018976Y-16925790D01*
X13033261Y-16854362D01*
X13033261Y-16797219D01*
X13018976Y-16725790D01*
X13004690Y-16682933D01*
X12990404Y-16654362D01*
X12961833Y-16611505D01*
X12947547Y-16597219D01*
M02*
