M48
; DRILL file {KiCad (5.1.10-1-10_14)} date Wednesday, December 01, 2021 at 10:19:55 PM
; FORMAT={-:-/ absolute / metric / decimal}
; #@! TF.CreationDate,2021-12-01T22:19:55+01:00
; #@! TF.GenerationSoftware,Kicad,Pcbnew,(5.1.10-1-10_14)
; #@! TF.FileFunction,Plated,1,2,PTH
FMAT,2
METRIC
T1C0.400
T2C0.750
T3C0.800
T4C0.914
T5C1.000
%
G90
G05
T1
X62.6Y-65.4
X62.6Y-121.5
X64.5Y-73.9
X66.2Y-59.0
X66.3Y-113.2
X70.0Y-70.5
X71.5Y-100.7
X79.3Y-128.4
X81.2Y-131.0
X84.2Y-61.2
X85.8Y-131.0
X85.95Y-77.65
X86.9Y-87.2
X90.7Y-135.0
X92.1Y-75.1
X92.2Y-86.3
X92.2Y-97.0
X93.1Y-131.0
X93.3Y-136.1
X93.4Y-104.5
X93.875Y-74.2
X94.1Y-110.5
X94.925Y-74.2
X95.8Y-126.9
X96.7Y-61.4
X97.0Y-67.7
X98.2Y-90.3
X99.4Y-91.0
X100.9Y-92.9
X101.9Y-91.2
X102.8Y-92.9
X103.6Y-91.2
X104.493Y-63.793
X104.6Y-75.4
X104.7Y-92.8
X106.0Y-91.1
X106.7Y-92.2
X108.9Y-100.6
X109.1Y-109.5
X111.069Y-64.349
X111.811Y-65.091
X111.92Y-69.28
X112.03Y-70.62
X113.0Y-68.477
X113.23Y-70.83
X114.33Y-71.95
X116.22Y-59.8
X116.59Y-78.26
X117.07Y-72.29
X117.2Y-57.59
X117.38Y-66.95
X120.5Y-86.4
X120.84Y-73.4
X121.7Y-86.9
X122.19Y-64.847
X122.54Y-65.82
X123.0Y-87.4
X124.0Y-88.0
X125.2Y-88.5
X126.1Y-89.2
X129.4Y-86.2
X129.8Y-89.4
X130.1Y-85.4
X131.0Y-84.8
X131.3Y-87.4
X131.8Y-84.1
T2
X73.2Y-133.4
X75.2Y-133.4
T4
X80.49Y-54.065
X82.989Y-54.065
X84.991Y-54.065
X107.498Y-54.065
X109.997Y-54.065
X111.999Y-54.065
T5
X87.49Y-54.065
X114.498Y-54.065
T3
X77.391Y-53.365G85X77.391Y-51.865
G05
X90.589Y-51.865G85X90.589Y-53.365
G05
X104.399Y-53.365G85X104.399Y-51.865
G05
X117.597Y-51.865G85X117.597Y-53.365
G05
T0
M30
