G04 #@! TF.GenerationSoftware,KiCad,Pcbnew,(5.1.10-1-10_14)*
G04 #@! TF.CreationDate,2021-12-01T22:20:01+01:00*
G04 #@! TF.ProjectId,DCEXT,44434558-542e-46b6-9963-61645f706362,rev?*
G04 #@! TF.SameCoordinates,Original*
G04 #@! TF.FileFunction,Copper,L2,Bot*
G04 #@! TF.FilePolarity,Positive*
%FSLAX46Y46*%
G04 Gerber Fmt 4.6, Leading zero omitted, Abs format (unit mm)*
G04 Created by KiCad (PCBNEW (5.1.10-1-10_14)) date 2021-12-01 22:20:01*
%MOMM*%
%LPD*%
G01*
G04 APERTURE LIST*
G04 #@! TA.AperFunction,ComponentPad*
%ADD10O,1.200000X2.600000*%
G04 #@! TD*
G04 #@! TA.AperFunction,ComponentPad*
%ADD11C,1.524000*%
G04 #@! TD*
G04 #@! TA.AperFunction,SMDPad,CuDef*
%ADD12R,1.500000X1.500000*%
G04 #@! TD*
G04 #@! TA.AperFunction,SMDPad,CuDef*
%ADD13R,3.000000X3.000000*%
G04 #@! TD*
G04 #@! TA.AperFunction,ComponentPad*
%ADD14O,1.200000X1.750000*%
G04 #@! TD*
G04 #@! TA.AperFunction,SMDPad,CuDef*
%ADD15R,0.600000X2.000000*%
G04 #@! TD*
G04 #@! TA.AperFunction,ViaPad*
%ADD16C,0.800000*%
G04 #@! TD*
G04 #@! TA.AperFunction,Conductor*
%ADD17C,0.250000*%
G04 #@! TD*
G04 #@! TA.AperFunction,Conductor*
%ADD18C,0.200000*%
G04 #@! TD*
G04 #@! TA.AperFunction,Conductor*
%ADD19C,0.254000*%
G04 #@! TD*
G04 #@! TA.AperFunction,Conductor*
%ADD20C,0.100000*%
G04 #@! TD*
G04 APERTURE END LIST*
D10*
X117597000Y-52615000D03*
X104399000Y-52615000D03*
D11*
X114498000Y-54065000D03*
X111999000Y-54065000D03*
X109997000Y-54065000D03*
X107498000Y-54065000D03*
D10*
X90589000Y-52615000D03*
X77391000Y-52615000D03*
D11*
X87490000Y-54065000D03*
X84991000Y-54065000D03*
X82989000Y-54065000D03*
X80490000Y-54065000D03*
D12*
X104400000Y-77760000D03*
X104320000Y-69310000D03*
X101770000Y-74900000D03*
X101760000Y-71990000D03*
X107300000Y-77780000D03*
D13*
X66400000Y-53300000D03*
X62500000Y-53300000D03*
X62600000Y-68300000D03*
X66400000Y-68300000D03*
X62600000Y-124300000D03*
X62600000Y-109300000D03*
X66400000Y-109300000D03*
X66400000Y-124300000D03*
D14*
X73200000Y-133400000D03*
G04 #@! TA.AperFunction,ComponentPad*
G36*
G01*
X75800000Y-132774999D02*
X75800000Y-134025001D01*
G75*
G02*
X75550001Y-134275000I-249999J0D01*
G01*
X74849999Y-134275000D01*
G75*
G02*
X74600000Y-134025001I0J249999D01*
G01*
X74600000Y-132774999D01*
G75*
G02*
X74849999Y-132525000I249999J0D01*
G01*
X75550001Y-132525000D01*
G75*
G02*
X75800000Y-132774999I0J-249999D01*
G01*
G37*
G04 #@! TD.AperFunction*
D15*
X86490000Y-141083700D03*
X87290000Y-141083700D03*
X88090000Y-141083700D03*
X88890000Y-141083700D03*
X89690000Y-141083700D03*
X90490000Y-141083700D03*
X91290000Y-141083700D03*
X92090000Y-141083700D03*
X96090000Y-141083700D03*
X96890000Y-141083700D03*
X97690000Y-141083700D03*
X98490000Y-141083700D03*
X99290000Y-141083700D03*
X100090000Y-141083700D03*
X100890000Y-141083700D03*
X101690000Y-141083700D03*
X102490000Y-141083700D03*
X103290000Y-141083700D03*
X104090000Y-141083700D03*
X104890000Y-141083700D03*
X105690000Y-141083700D03*
X106490000Y-141083700D03*
X107290000Y-141083700D03*
X108090000Y-141083700D03*
X108890000Y-141083700D03*
X109690000Y-141083700D03*
D16*
X90700000Y-135000000D03*
X109100000Y-109500000D03*
X84200000Y-61200000D03*
X92100000Y-75100000D03*
X92200000Y-86300000D03*
X92200000Y-97000000D03*
X85800000Y-131000000D03*
X96700000Y-61400000D03*
X104600000Y-75400000D03*
X70000000Y-70500000D03*
X95800000Y-126900000D03*
X108900000Y-100600000D03*
X64500000Y-73900000D03*
X120840000Y-73400000D03*
X116590000Y-78260000D03*
X116220000Y-59800000D03*
X85950000Y-77650000D03*
X97000000Y-67700000D03*
X79300000Y-128400000D03*
X62600000Y-121500000D03*
X66300000Y-113200000D03*
X81200000Y-131000000D03*
X93875000Y-74200000D03*
X111068768Y-64348768D03*
X94925000Y-74200000D03*
X111811232Y-65091232D03*
X117200000Y-57590000D03*
X104492849Y-63792849D03*
X99400000Y-91000000D03*
X98200000Y-90300000D03*
X71500000Y-100700000D03*
X131000000Y-84800000D03*
X130100000Y-85400000D03*
X129400000Y-86200000D03*
X100900000Y-92900000D03*
X120500000Y-86400000D03*
X101900000Y-91200000D03*
X121700000Y-86900000D03*
X102800000Y-92900000D03*
X123000000Y-87400000D03*
X86900000Y-87200000D03*
X131300000Y-87400000D03*
X103600000Y-91200000D03*
X124000000Y-88000000D03*
X104700000Y-92800000D03*
X125200000Y-88500000D03*
X106000000Y-91100000D03*
X126100000Y-89200000D03*
X106700000Y-92200000D03*
X129800000Y-89400000D03*
X131800000Y-84100000D03*
X93100000Y-131000000D03*
X93400000Y-104500000D03*
X62600000Y-65400000D03*
X66200000Y-59000000D03*
X94100000Y-110500000D03*
X93300000Y-136100000D03*
X117380000Y-66950000D03*
X122190000Y-64847500D03*
X117070000Y-72290000D03*
X122540000Y-65820000D03*
X114330000Y-71950000D03*
X111920000Y-69280000D03*
X112030000Y-70620000D03*
X113000000Y-68477500D03*
X113230000Y-70830000D03*
D17*
X90490000Y-135210000D02*
X90700000Y-135000000D01*
X90490000Y-141083700D02*
X90490000Y-135210000D01*
X90700000Y-135000000D02*
X90700000Y-131900000D01*
X95700000Y-126900000D02*
X95800000Y-126900000D01*
X90700000Y-131900000D02*
X95700000Y-126900000D01*
X87050000Y-77650000D02*
X97000000Y-67700000D01*
X85950000Y-77650000D02*
X87050000Y-77650000D01*
X62600000Y-109300000D02*
X62600000Y-113900000D01*
X66400000Y-117700000D02*
X66400000Y-124300000D01*
X62600000Y-113900000D02*
X66400000Y-117700000D01*
X66400000Y-124300000D02*
X66400000Y-125300000D01*
X69500000Y-128400000D02*
X79300000Y-128400000D01*
X66400000Y-125300000D02*
X69500000Y-128400000D01*
X62600000Y-124300000D02*
X62600000Y-121500000D01*
X66300000Y-109400000D02*
X66400000Y-109300000D01*
X66300000Y-113200000D02*
X66300000Y-109400000D01*
X81200000Y-131000000D02*
X79600000Y-129400000D01*
X79600000Y-129400000D02*
X69400000Y-129400000D01*
X69400000Y-129400000D02*
X66876993Y-126876993D01*
X62600000Y-125900000D02*
X63576993Y-126876993D01*
X62600000Y-124300000D02*
X62600000Y-125900000D01*
X66876993Y-126876993D02*
X63576993Y-126876993D01*
D18*
X109666801Y-66175000D02*
X111068768Y-64773033D01*
X101900000Y-66175000D02*
X109666801Y-66175000D01*
X93875000Y-74200000D02*
X101900000Y-66175000D01*
X111068768Y-64773033D02*
X111068768Y-64348768D01*
X94925000Y-73786397D02*
X102086397Y-66625000D01*
X94925000Y-74200000D02*
X94925000Y-73786397D01*
X111386967Y-65091232D02*
X111811232Y-65091232D01*
X109853199Y-66625000D02*
X111386967Y-65091232D01*
X102086397Y-66625000D02*
X109853199Y-66625000D01*
D17*
X110695698Y-57590000D02*
X104492849Y-63792849D01*
X117200000Y-57590000D02*
X110695698Y-57590000D01*
X89690000Y-131910000D02*
X89690000Y-141083700D01*
X99400000Y-122200000D02*
X89690000Y-131910000D01*
X99400000Y-91000000D02*
X99400000Y-122200000D01*
X88890000Y-141083700D02*
X88890000Y-131310000D01*
X88890000Y-131310000D02*
X98300000Y-121900000D01*
X98300000Y-90400000D02*
X98200000Y-90300000D01*
X98300000Y-121900000D02*
X98300000Y-90400000D01*
X86490000Y-141083700D02*
X89690000Y-141083700D01*
X87290000Y-124390000D02*
X86350000Y-123450000D01*
X87290000Y-141083700D02*
X87290000Y-124390000D01*
X86350000Y-123450000D02*
X74300000Y-111400000D01*
X86490000Y-123590000D02*
X86350000Y-123450000D01*
X86490000Y-141083700D02*
X86490000Y-135390000D01*
X84500000Y-133400000D02*
X75200000Y-133400000D01*
X86490000Y-135390000D02*
X84500000Y-133400000D01*
X71500000Y-100700000D02*
X74300000Y-103500000D01*
X74300000Y-103500000D02*
X74300000Y-111200000D01*
X74300000Y-111400000D02*
X74300000Y-111200000D01*
X102490000Y-130210000D02*
X102490000Y-141083700D01*
X117900000Y-83900000D02*
X110400000Y-91400000D01*
X110400000Y-122300000D02*
X102490000Y-130210000D01*
X110400000Y-91400000D02*
X110400000Y-122300000D01*
X130100000Y-83900000D02*
X117900000Y-83900000D01*
X131000000Y-84800000D02*
X130100000Y-83900000D01*
X103290000Y-130210000D02*
X103290000Y-141083700D01*
X111000000Y-122500000D02*
X103290000Y-130210000D01*
X118700000Y-84600000D02*
X111000000Y-92300000D01*
X111000000Y-92300000D02*
X111000000Y-122500000D01*
X129300000Y-84600000D02*
X118700000Y-84600000D01*
X130100000Y-85400000D02*
X129300000Y-84600000D01*
X111500000Y-122863590D02*
X104090000Y-130273590D01*
X129400000Y-86200000D02*
X128600000Y-85400000D01*
X111500000Y-93200000D02*
X111500000Y-122863590D01*
X119300000Y-85400000D02*
X111500000Y-93200000D01*
X104090000Y-130273590D02*
X104090000Y-141083700D01*
X128600000Y-85400000D02*
X119300000Y-85400000D01*
X96090000Y-141083700D02*
X96090000Y-128510000D01*
X96090000Y-128510000D02*
X101300000Y-123300000D01*
X101300000Y-93300000D02*
X100900000Y-92900000D01*
X101300000Y-123300000D02*
X101300000Y-93300000D01*
X104890000Y-141083700D02*
X104890000Y-130110000D01*
X104890000Y-130110000D02*
X112200000Y-122800000D01*
X112200000Y-94700000D02*
X120500000Y-86400000D01*
X112200000Y-122800000D02*
X112200000Y-94700000D01*
X96890000Y-128710000D02*
X96890000Y-141083700D01*
X101900000Y-123700000D02*
X96890000Y-128710000D01*
X101900000Y-91200000D02*
X101900000Y-123700000D01*
X105690000Y-134910000D02*
X105690000Y-141083700D01*
X112800000Y-127800000D02*
X105690000Y-134910000D01*
X112800000Y-95800000D02*
X112800000Y-127800000D01*
X121700000Y-86900000D02*
X112800000Y-95800000D01*
X97690000Y-141083700D02*
X97690000Y-128810000D01*
X97690000Y-128810000D02*
X102900000Y-123600000D01*
X102900000Y-93000000D02*
X102800000Y-92900000D01*
X102900000Y-123600000D02*
X102900000Y-93000000D01*
X106490000Y-141083700D02*
X106490000Y-134910000D01*
X106490000Y-134910000D02*
X113400000Y-128000000D01*
X113400000Y-97000000D02*
X123000000Y-87400000D01*
X113400000Y-128000000D02*
X113400000Y-97000000D01*
X91800000Y-82300000D02*
X90300000Y-83800000D01*
X90300000Y-83800000D02*
X86900000Y-87200000D01*
X132100000Y-82300000D02*
X91800000Y-82300000D01*
X133400000Y-83600000D02*
X132100000Y-82300000D01*
X133400000Y-85300000D02*
X133400000Y-83600000D01*
X131300000Y-87400000D02*
X133400000Y-85300000D01*
X103600000Y-91200000D02*
X103600000Y-124000000D01*
X98490000Y-129110000D02*
X98490000Y-141083700D01*
X103600000Y-124000000D02*
X98490000Y-129110000D01*
X124000000Y-88000000D02*
X113900000Y-98100000D01*
X113900000Y-98100000D02*
X113900000Y-128300000D01*
X107290000Y-134910000D02*
X107290000Y-141083700D01*
X113900000Y-128300000D02*
X107290000Y-134910000D01*
X99290000Y-141083700D02*
X99290000Y-129210000D01*
X104700000Y-123800000D02*
X104700000Y-92800000D01*
X99290000Y-129210000D02*
X104700000Y-123800000D01*
X108090000Y-134810000D02*
X108090000Y-141083700D01*
X114500000Y-128400000D02*
X108090000Y-134810000D01*
X114500000Y-99100000D02*
X114500000Y-128400000D01*
X125100000Y-88500000D02*
X114500000Y-99100000D01*
X125200000Y-88500000D02*
X125100000Y-88500000D01*
X105600001Y-91499999D02*
X105600001Y-124299999D01*
X106000000Y-91100000D02*
X105600001Y-91499999D01*
X100090000Y-129810000D02*
X100090000Y-141083700D01*
X105600001Y-124299999D02*
X100090000Y-129810000D01*
X115049990Y-128550010D02*
X115049990Y-103513600D01*
X108890000Y-134710000D02*
X115049990Y-128550010D01*
X108890000Y-141083700D02*
X108890000Y-134710000D01*
X115049990Y-100250010D02*
X115049990Y-103513600D01*
X126100000Y-89200000D02*
X115049990Y-100250010D01*
X100890000Y-141083700D02*
X100890000Y-129910000D01*
X100890000Y-129910000D02*
X106600000Y-124200000D01*
X106700000Y-92200000D02*
X106700000Y-93800000D01*
X106700000Y-108400000D02*
X106600000Y-108500000D01*
X106700000Y-92200000D02*
X106700000Y-108400000D01*
X106600000Y-124200000D02*
X106600000Y-108500000D01*
X109690000Y-136436276D02*
X109700000Y-136426276D01*
X109690000Y-141083700D02*
X109690000Y-136436276D01*
X109700000Y-136426276D02*
X109700000Y-134700000D01*
X109700000Y-134700000D02*
X115500000Y-128900000D01*
X115500000Y-103700000D02*
X129800000Y-89400000D01*
X115500000Y-128900000D02*
X115500000Y-103700000D01*
X101690000Y-130110000D02*
X101690000Y-141083700D01*
X131800000Y-84100000D02*
X130800000Y-83100000D01*
X107300000Y-124500000D02*
X101690000Y-130110000D01*
X107300000Y-93400000D02*
X107300000Y-124500000D01*
X117600000Y-83100000D02*
X107300000Y-93400000D01*
X130800000Y-83100000D02*
X117600000Y-83100000D01*
X62500000Y-53300000D02*
X62500000Y-59100000D01*
X66400000Y-63000000D02*
X66400000Y-68300000D01*
X62500000Y-59100000D02*
X66400000Y-63000000D01*
X91290000Y-140810000D02*
X91300000Y-140800000D01*
X91290000Y-141083700D02*
X91290000Y-140810000D01*
X91300000Y-140800000D02*
X91300000Y-136400000D01*
X93100000Y-134600000D02*
X93100000Y-131000000D01*
X91300000Y-136400000D02*
X93100000Y-134600000D01*
X66400000Y-77500000D02*
X66400000Y-68300000D01*
X93400000Y-104500000D02*
X66400000Y-77500000D01*
X62600000Y-68300000D02*
X62600000Y-65400000D01*
X66200000Y-53500000D02*
X66400000Y-53300000D01*
X66200000Y-59000000D02*
X66200000Y-53500000D01*
X62600000Y-68300000D02*
X62600000Y-76100000D01*
X94100000Y-107600000D02*
X94100000Y-110500000D01*
X62600000Y-76100000D02*
X94100000Y-107600000D01*
X92090000Y-137310000D02*
X92090000Y-141083700D01*
X93300000Y-136100000D02*
X92090000Y-137310000D01*
X119482500Y-64847500D02*
X122190000Y-64847500D01*
X117380000Y-66950000D02*
X119482500Y-64847500D01*
X122540000Y-65820000D02*
X119900000Y-65820000D01*
X117070000Y-68650000D02*
X117070000Y-72290000D01*
X119900000Y-65820000D02*
X117070000Y-68650000D01*
X108340000Y-77780000D02*
X107300000Y-77780000D01*
X108500000Y-77780000D02*
X107300000Y-77780000D01*
X114330000Y-71950000D02*
X108500000Y-77780000D01*
X109210000Y-71990000D02*
X101760000Y-71990000D01*
X111920000Y-69280000D02*
X109210000Y-71990000D01*
X112030000Y-70620000D02*
X108480000Y-74170000D01*
X103140000Y-74900000D02*
X103870000Y-74170000D01*
X101770000Y-74900000D02*
X103140000Y-74900000D01*
X108480000Y-74170000D02*
X103870000Y-74170000D01*
X104380000Y-69250000D02*
X104320000Y-69310000D01*
X104320000Y-69310000D02*
X109705000Y-69310000D01*
X109705000Y-69310000D02*
X110537500Y-68477500D01*
X113000000Y-68477500D02*
X110537500Y-68477500D01*
X104400000Y-77760000D02*
X104400000Y-77680000D01*
X104400000Y-77680000D02*
X107030000Y-75050000D01*
X109010000Y-75050000D02*
X113230000Y-70830000D01*
X107030000Y-75050000D02*
X109010000Y-75050000D01*
D19*
X100240226Y-93703937D02*
X100409744Y-93817205D01*
X100540001Y-93871160D01*
X100540000Y-122985198D01*
X95578998Y-127946201D01*
X95550000Y-127969999D01*
X95526202Y-127998997D01*
X95526201Y-127998998D01*
X95455026Y-128085724D01*
X95384454Y-128217754D01*
X95363836Y-128285725D01*
X95340998Y-128361014D01*
X95333481Y-128437333D01*
X95326324Y-128510000D01*
X95330001Y-128547332D01*
X95330000Y-139643256D01*
X95259463Y-139729206D01*
X95200498Y-139839520D01*
X95164188Y-139959218D01*
X95151928Y-140083700D01*
X95151928Y-141768617D01*
X95131900Y-141768617D01*
X95131900Y-139217512D01*
X95128319Y-139181153D01*
X95128319Y-139171422D01*
X95127246Y-139161216D01*
X95110931Y-139015754D01*
X95097078Y-138950583D01*
X95084141Y-138885245D01*
X95081106Y-138875441D01*
X95036847Y-138735919D01*
X95010595Y-138674669D01*
X94985217Y-138613098D01*
X94980336Y-138604070D01*
X94909819Y-138475801D01*
X94872186Y-138420840D01*
X94835322Y-138365355D01*
X94828781Y-138357447D01*
X94734694Y-138245317D01*
X94687063Y-138198672D01*
X94640150Y-138151432D01*
X94632198Y-138144945D01*
X94518121Y-138053227D01*
X94462350Y-138016732D01*
X94407158Y-137979504D01*
X94398097Y-137974686D01*
X94398093Y-137974684D01*
X94398090Y-137974682D01*
X94398087Y-137974681D01*
X94268380Y-137906871D01*
X94206590Y-137881906D01*
X94145197Y-137856099D01*
X94135373Y-137853132D01*
X93994954Y-137811805D01*
X93929479Y-137799315D01*
X93864267Y-137785929D01*
X93854054Y-137784927D01*
X93708282Y-137771660D01*
X93641625Y-137772125D01*
X93575045Y-137771661D01*
X93564842Y-137772661D01*
X93564839Y-137772661D01*
X93564836Y-137772662D01*
X93564832Y-137772662D01*
X93419260Y-137787963D01*
X93354019Y-137801356D01*
X93288572Y-137813840D01*
X93278748Y-137816806D01*
X93138919Y-137860090D01*
X93077464Y-137885923D01*
X93015741Y-137910861D01*
X93006680Y-137915678D01*
X92877922Y-137985297D01*
X92850000Y-138004130D01*
X92850000Y-137624801D01*
X93339802Y-137135000D01*
X93401939Y-137135000D01*
X93601898Y-137095226D01*
X93790256Y-137017205D01*
X93959774Y-136903937D01*
X94103937Y-136759774D01*
X94217205Y-136590256D01*
X94295226Y-136401898D01*
X94335000Y-136201939D01*
X94335000Y-135998061D01*
X94295226Y-135798102D01*
X94217205Y-135609744D01*
X94103937Y-135440226D01*
X93959774Y-135296063D01*
X93790256Y-135182795D01*
X93651910Y-135125490D01*
X93663795Y-135111008D01*
X93663799Y-135111004D01*
X93734973Y-135024277D01*
X93734974Y-135024276D01*
X93805546Y-134892247D01*
X93849003Y-134748986D01*
X93860000Y-134637333D01*
X93860000Y-134637324D01*
X93863676Y-134600001D01*
X93860000Y-134562678D01*
X93860000Y-131703711D01*
X93903937Y-131659774D01*
X94017205Y-131490256D01*
X94095226Y-131301898D01*
X94135000Y-131101939D01*
X94135000Y-130898061D01*
X94095226Y-130698102D01*
X94017205Y-130509744D01*
X93903937Y-130340226D01*
X93759774Y-130196063D01*
X93590256Y-130082795D01*
X93401898Y-130004774D01*
X93201939Y-129965000D01*
X92998061Y-129965000D01*
X92798102Y-130004774D01*
X92609744Y-130082795D01*
X92556289Y-130118513D01*
X99911003Y-122763799D01*
X99940001Y-122740001D01*
X100034974Y-122624276D01*
X100105546Y-122492247D01*
X100149003Y-122348986D01*
X100160000Y-122237333D01*
X100160000Y-122237325D01*
X100163676Y-122200000D01*
X100160000Y-122162675D01*
X100160000Y-93623711D01*
X100240226Y-93703937D01*
G04 #@! TA.AperFunction,Conductor*
D20*
G36*
X100240226Y-93703937D02*
G01*
X100409744Y-93817205D01*
X100540001Y-93871160D01*
X100540000Y-122985198D01*
X95578998Y-127946201D01*
X95550000Y-127969999D01*
X95526202Y-127998997D01*
X95526201Y-127998998D01*
X95455026Y-128085724D01*
X95384454Y-128217754D01*
X95363836Y-128285725D01*
X95340998Y-128361014D01*
X95333481Y-128437333D01*
X95326324Y-128510000D01*
X95330001Y-128547332D01*
X95330000Y-139643256D01*
X95259463Y-139729206D01*
X95200498Y-139839520D01*
X95164188Y-139959218D01*
X95151928Y-140083700D01*
X95151928Y-141768617D01*
X95131900Y-141768617D01*
X95131900Y-139217512D01*
X95128319Y-139181153D01*
X95128319Y-139171422D01*
X95127246Y-139161216D01*
X95110931Y-139015754D01*
X95097078Y-138950583D01*
X95084141Y-138885245D01*
X95081106Y-138875441D01*
X95036847Y-138735919D01*
X95010595Y-138674669D01*
X94985217Y-138613098D01*
X94980336Y-138604070D01*
X94909819Y-138475801D01*
X94872186Y-138420840D01*
X94835322Y-138365355D01*
X94828781Y-138357447D01*
X94734694Y-138245317D01*
X94687063Y-138198672D01*
X94640150Y-138151432D01*
X94632198Y-138144945D01*
X94518121Y-138053227D01*
X94462350Y-138016732D01*
X94407158Y-137979504D01*
X94398097Y-137974686D01*
X94398093Y-137974684D01*
X94398090Y-137974682D01*
X94398087Y-137974681D01*
X94268380Y-137906871D01*
X94206590Y-137881906D01*
X94145197Y-137856099D01*
X94135373Y-137853132D01*
X93994954Y-137811805D01*
X93929479Y-137799315D01*
X93864267Y-137785929D01*
X93854054Y-137784927D01*
X93708282Y-137771660D01*
X93641625Y-137772125D01*
X93575045Y-137771661D01*
X93564842Y-137772661D01*
X93564839Y-137772661D01*
X93564836Y-137772662D01*
X93564832Y-137772662D01*
X93419260Y-137787963D01*
X93354019Y-137801356D01*
X93288572Y-137813840D01*
X93278748Y-137816806D01*
X93138919Y-137860090D01*
X93077464Y-137885923D01*
X93015741Y-137910861D01*
X93006680Y-137915678D01*
X92877922Y-137985297D01*
X92850000Y-138004130D01*
X92850000Y-137624801D01*
X93339802Y-137135000D01*
X93401939Y-137135000D01*
X93601898Y-137095226D01*
X93790256Y-137017205D01*
X93959774Y-136903937D01*
X94103937Y-136759774D01*
X94217205Y-136590256D01*
X94295226Y-136401898D01*
X94335000Y-136201939D01*
X94335000Y-135998061D01*
X94295226Y-135798102D01*
X94217205Y-135609744D01*
X94103937Y-135440226D01*
X93959774Y-135296063D01*
X93790256Y-135182795D01*
X93651910Y-135125490D01*
X93663795Y-135111008D01*
X93663799Y-135111004D01*
X93734973Y-135024277D01*
X93734974Y-135024276D01*
X93805546Y-134892247D01*
X93849003Y-134748986D01*
X93860000Y-134637333D01*
X93860000Y-134637324D01*
X93863676Y-134600001D01*
X93860000Y-134562678D01*
X93860000Y-131703711D01*
X93903937Y-131659774D01*
X94017205Y-131490256D01*
X94095226Y-131301898D01*
X94135000Y-131101939D01*
X94135000Y-130898061D01*
X94095226Y-130698102D01*
X94017205Y-130509744D01*
X93903937Y-130340226D01*
X93759774Y-130196063D01*
X93590256Y-130082795D01*
X93401898Y-130004774D01*
X93201939Y-129965000D01*
X92998061Y-129965000D01*
X92798102Y-130004774D01*
X92609744Y-130082795D01*
X92556289Y-130118513D01*
X99911003Y-122763799D01*
X99940001Y-122740001D01*
X100034974Y-122624276D01*
X100105546Y-122492247D01*
X100149003Y-122348986D01*
X100160000Y-122237333D01*
X100160000Y-122237325D01*
X100163676Y-122200000D01*
X100160000Y-122162675D01*
X100160000Y-93623711D01*
X100240226Y-93703937D01*
G37*
G04 #@! TD.AperFunction*
D19*
X131774659Y-42504212D02*
X131914971Y-42534036D01*
X131925177Y-42535109D01*
X132630388Y-42604255D01*
X133239754Y-42788234D01*
X133801775Y-43087066D01*
X134295047Y-43489370D01*
X134700784Y-43979822D01*
X135003534Y-44539745D01*
X135191760Y-45147805D01*
X135261901Y-45815149D01*
X135261900Y-131767672D01*
X135196262Y-132437106D01*
X135012283Y-133046472D01*
X134713453Y-133608488D01*
X134311150Y-134101762D01*
X133820695Y-134507501D01*
X133260773Y-134810251D01*
X132652711Y-134998477D01*
X131985378Y-135068617D01*
X111310795Y-135068617D01*
X111279396Y-135071710D01*
X111273302Y-135071667D01*
X111263088Y-135072668D01*
X111068991Y-135093069D01*
X111003743Y-135106462D01*
X110938302Y-135118946D01*
X110928477Y-135121912D01*
X110742039Y-135179624D01*
X110680620Y-135205442D01*
X110618862Y-135230394D01*
X110609801Y-135235212D01*
X110460000Y-135316209D01*
X110460000Y-135014801D01*
X115990230Y-129484571D01*
X126757574Y-129484571D01*
X126757574Y-130122663D01*
X126882059Y-130748494D01*
X127126246Y-131338013D01*
X127480751Y-131868567D01*
X127931950Y-132319766D01*
X128462504Y-132674271D01*
X129052023Y-132918458D01*
X129677854Y-133042943D01*
X130315946Y-133042943D01*
X130941777Y-132918458D01*
X131531296Y-132674271D01*
X132061850Y-132319766D01*
X132513049Y-131868567D01*
X132867554Y-131338013D01*
X133111741Y-130748494D01*
X133236226Y-130122663D01*
X133236226Y-129484571D01*
X133111741Y-128858740D01*
X132867554Y-128269221D01*
X132513049Y-127738667D01*
X132061850Y-127287468D01*
X131531296Y-126932963D01*
X130941777Y-126688776D01*
X130315946Y-126564291D01*
X129677854Y-126564291D01*
X129052023Y-126688776D01*
X128462504Y-126932963D01*
X127931950Y-127287468D01*
X127480751Y-127738667D01*
X127126246Y-128269221D01*
X126882059Y-128858740D01*
X126757574Y-129484571D01*
X115990230Y-129484571D01*
X116011004Y-129463798D01*
X116040001Y-129440001D01*
X116134974Y-129324276D01*
X116205546Y-129192247D01*
X116249003Y-129048986D01*
X116260000Y-128937333D01*
X116260000Y-128937325D01*
X116263676Y-128900000D01*
X116260000Y-128862675D01*
X116260000Y-104014801D01*
X129839802Y-90435000D01*
X129901939Y-90435000D01*
X130101898Y-90395226D01*
X130290256Y-90317205D01*
X130459774Y-90203937D01*
X130603937Y-90059774D01*
X130717205Y-89890256D01*
X130795226Y-89701898D01*
X130835000Y-89501939D01*
X130835000Y-89298061D01*
X130795226Y-89098102D01*
X130717205Y-88909744D01*
X130603937Y-88740226D01*
X130459774Y-88596063D01*
X130290256Y-88482795D01*
X130101898Y-88404774D01*
X129901939Y-88365000D01*
X129698061Y-88365000D01*
X129498102Y-88404774D01*
X129309744Y-88482795D01*
X129140226Y-88596063D01*
X128996063Y-88740226D01*
X128882795Y-88909744D01*
X128804774Y-89098102D01*
X128765000Y-89298061D01*
X128765000Y-89360198D01*
X115809990Y-102315209D01*
X115809990Y-100564811D01*
X126139802Y-90235000D01*
X126201939Y-90235000D01*
X126401898Y-90195226D01*
X126590256Y-90117205D01*
X126759774Y-90003937D01*
X126903937Y-89859774D01*
X127017205Y-89690256D01*
X127095226Y-89501898D01*
X127135000Y-89301939D01*
X127135000Y-89098061D01*
X127095226Y-88898102D01*
X127017205Y-88709744D01*
X126903937Y-88540226D01*
X126759774Y-88396063D01*
X126590256Y-88282795D01*
X126401898Y-88204774D01*
X126201939Y-88165000D01*
X126181515Y-88165000D01*
X126117205Y-88009744D01*
X126003937Y-87840226D01*
X125859774Y-87696063D01*
X125690256Y-87582795D01*
X125501898Y-87504774D01*
X125301939Y-87465000D01*
X125098061Y-87465000D01*
X124912033Y-87502003D01*
X124803937Y-87340226D01*
X124659774Y-87196063D01*
X124490256Y-87082795D01*
X124301898Y-87004774D01*
X124101939Y-86965000D01*
X123940093Y-86965000D01*
X123917205Y-86909744D01*
X123803937Y-86740226D01*
X123659774Y-86596063D01*
X123490256Y-86482795D01*
X123301898Y-86404774D01*
X123101939Y-86365000D01*
X122898061Y-86365000D01*
X122698102Y-86404774D01*
X122627295Y-86434103D01*
X122617205Y-86409744D01*
X122503937Y-86240226D01*
X122423711Y-86160000D01*
X128285199Y-86160000D01*
X128365000Y-86239801D01*
X128365000Y-86301939D01*
X128404774Y-86501898D01*
X128482795Y-86690256D01*
X128596063Y-86859774D01*
X128740226Y-87003937D01*
X128909744Y-87117205D01*
X129098102Y-87195226D01*
X129298061Y-87235000D01*
X129501939Y-87235000D01*
X129701898Y-87195226D01*
X129890256Y-87117205D01*
X130059774Y-87003937D01*
X130203937Y-86859774D01*
X130317205Y-86690256D01*
X130395226Y-86501898D01*
X130417750Y-86388660D01*
X130590256Y-86317205D01*
X130759774Y-86203937D01*
X130903937Y-86059774D01*
X131017205Y-85890256D01*
X131040093Y-85835000D01*
X131101939Y-85835000D01*
X131301898Y-85795226D01*
X131490256Y-85717205D01*
X131659774Y-85603937D01*
X131803937Y-85459774D01*
X131917205Y-85290256D01*
X131988660Y-85117750D01*
X132101898Y-85095226D01*
X132290256Y-85017205D01*
X132459774Y-84903937D01*
X132603937Y-84759774D01*
X132640000Y-84705801D01*
X132640000Y-84985197D01*
X131260199Y-86365000D01*
X131198061Y-86365000D01*
X130998102Y-86404774D01*
X130809744Y-86482795D01*
X130640226Y-86596063D01*
X130496063Y-86740226D01*
X130382795Y-86909744D01*
X130304774Y-87098102D01*
X130265000Y-87298061D01*
X130265000Y-87501939D01*
X130304774Y-87701898D01*
X130382795Y-87890256D01*
X130496063Y-88059774D01*
X130640226Y-88203937D01*
X130809744Y-88317205D01*
X130998102Y-88395226D01*
X131198061Y-88435000D01*
X131401939Y-88435000D01*
X131601898Y-88395226D01*
X131790256Y-88317205D01*
X131959774Y-88203937D01*
X132103937Y-88059774D01*
X132217205Y-87890256D01*
X132295226Y-87701898D01*
X132335000Y-87501939D01*
X132335000Y-87439801D01*
X133911009Y-85863794D01*
X133940001Y-85840001D01*
X133963795Y-85811008D01*
X133963799Y-85811004D01*
X134034973Y-85724277D01*
X134034974Y-85724276D01*
X134105546Y-85592247D01*
X134149003Y-85448986D01*
X134160000Y-85337333D01*
X134160000Y-85337324D01*
X134163676Y-85300001D01*
X134160000Y-85262678D01*
X134160000Y-83637325D01*
X134163676Y-83600000D01*
X134160000Y-83562675D01*
X134160000Y-83562667D01*
X134149003Y-83451014D01*
X134105546Y-83307753D01*
X134034974Y-83175724D01*
X133940001Y-83059999D01*
X133911003Y-83036201D01*
X132663804Y-81789003D01*
X132640001Y-81759999D01*
X132524276Y-81665026D01*
X132392247Y-81594454D01*
X132248986Y-81550997D01*
X132137333Y-81540000D01*
X132137322Y-81540000D01*
X132100000Y-81536324D01*
X132062678Y-81540000D01*
X91837322Y-81540000D01*
X91799999Y-81536324D01*
X91762676Y-81540000D01*
X91762667Y-81540000D01*
X91651014Y-81550997D01*
X91507753Y-81594454D01*
X91375724Y-81665026D01*
X91259999Y-81759999D01*
X91236201Y-81788997D01*
X89789002Y-83236197D01*
X89788997Y-83236201D01*
X86860199Y-86165000D01*
X86798061Y-86165000D01*
X86598102Y-86204774D01*
X86409744Y-86282795D01*
X86240226Y-86396063D01*
X86096063Y-86540226D01*
X85982795Y-86709744D01*
X85904774Y-86898102D01*
X85865000Y-87098061D01*
X85865000Y-87301939D01*
X85904774Y-87501898D01*
X85982795Y-87690256D01*
X86096063Y-87859774D01*
X86240226Y-88003937D01*
X86409744Y-88117205D01*
X86598102Y-88195226D01*
X86798061Y-88235000D01*
X87001939Y-88235000D01*
X87201898Y-88195226D01*
X87390256Y-88117205D01*
X87559774Y-88003937D01*
X87703937Y-87859774D01*
X87817205Y-87690256D01*
X87895226Y-87501898D01*
X87935000Y-87301939D01*
X87935000Y-87239801D01*
X90863799Y-84311003D01*
X90863803Y-84310998D01*
X92114802Y-83060000D01*
X116565198Y-83060000D01*
X107700514Y-91924685D01*
X107695226Y-91898102D01*
X107617205Y-91709744D01*
X107503937Y-91540226D01*
X107359774Y-91396063D01*
X107190256Y-91282795D01*
X107031959Y-91217226D01*
X107035000Y-91201939D01*
X107035000Y-90998061D01*
X106995226Y-90798102D01*
X106917205Y-90609744D01*
X106803937Y-90440226D01*
X106659774Y-90296063D01*
X106490256Y-90182795D01*
X106301898Y-90104774D01*
X106101939Y-90065000D01*
X105898061Y-90065000D01*
X105698102Y-90104774D01*
X105509744Y-90182795D01*
X105340226Y-90296063D01*
X105196063Y-90440226D01*
X105082795Y-90609744D01*
X105004774Y-90798102D01*
X104965000Y-90998061D01*
X104965000Y-91075774D01*
X104918554Y-91162667D01*
X104894455Y-91207753D01*
X104850998Y-91351014D01*
X104840001Y-91462667D01*
X104840001Y-91462677D01*
X104836325Y-91499999D01*
X104840001Y-91537321D01*
X104840001Y-91772571D01*
X104801939Y-91765000D01*
X104598061Y-91765000D01*
X104447214Y-91795005D01*
X104517205Y-91690256D01*
X104595226Y-91501898D01*
X104635000Y-91301939D01*
X104635000Y-91098061D01*
X104595226Y-90898102D01*
X104517205Y-90709744D01*
X104403937Y-90540226D01*
X104259774Y-90396063D01*
X104090256Y-90282795D01*
X103901898Y-90204774D01*
X103701939Y-90165000D01*
X103498061Y-90165000D01*
X103298102Y-90204774D01*
X103109744Y-90282795D01*
X102940226Y-90396063D01*
X102796063Y-90540226D01*
X102750000Y-90609164D01*
X102703937Y-90540226D01*
X102559774Y-90396063D01*
X102390256Y-90282795D01*
X102201898Y-90204774D01*
X102001939Y-90165000D01*
X101798061Y-90165000D01*
X101598102Y-90204774D01*
X101409744Y-90282795D01*
X101240226Y-90396063D01*
X101096063Y-90540226D01*
X100982795Y-90709744D01*
X100904774Y-90898102D01*
X100865000Y-91098061D01*
X100865000Y-91301939D01*
X100904774Y-91501898D01*
X100982795Y-91690256D01*
X101096063Y-91859774D01*
X101125958Y-91889669D01*
X101001939Y-91865000D01*
X100798061Y-91865000D01*
X100598102Y-91904774D01*
X100409744Y-91982795D01*
X100240226Y-92096063D01*
X100160000Y-92176289D01*
X100160000Y-91703711D01*
X100203937Y-91659774D01*
X100317205Y-91490256D01*
X100395226Y-91301898D01*
X100435000Y-91101939D01*
X100435000Y-90898061D01*
X100395226Y-90698102D01*
X100317205Y-90509744D01*
X100203937Y-90340226D01*
X100059774Y-90196063D01*
X99890256Y-90082795D01*
X99701898Y-90004774D01*
X99501939Y-89965000D01*
X99298061Y-89965000D01*
X99190386Y-89986418D01*
X99117205Y-89809744D01*
X99003937Y-89640226D01*
X98859774Y-89496063D01*
X98690256Y-89382795D01*
X98501898Y-89304774D01*
X98301939Y-89265000D01*
X98098061Y-89265000D01*
X97898102Y-89304774D01*
X97709744Y-89382795D01*
X97540226Y-89496063D01*
X97396063Y-89640226D01*
X97282795Y-89809744D01*
X97204774Y-89998102D01*
X97165000Y-90198061D01*
X97165000Y-90401939D01*
X97204774Y-90601898D01*
X97282795Y-90790256D01*
X97396063Y-90959774D01*
X97540001Y-91103712D01*
X97540000Y-121585198D01*
X88378998Y-130746201D01*
X88350000Y-130769999D01*
X88326202Y-130798997D01*
X88326201Y-130798998D01*
X88255026Y-130885724D01*
X88184454Y-131017754D01*
X88164930Y-131082119D01*
X88140998Y-131161014D01*
X88131056Y-131261958D01*
X88126324Y-131310000D01*
X88130001Y-131347332D01*
X88130000Y-139445628D01*
X88050000Y-139445628D01*
X88050000Y-124427325D01*
X88053676Y-124390000D01*
X88050000Y-124352675D01*
X88050000Y-124352667D01*
X88039003Y-124241014D01*
X87995546Y-124097753D01*
X87924974Y-123965724D01*
X87830001Y-123849999D01*
X87801003Y-123826201D01*
X86913808Y-122939007D01*
X86913799Y-122938996D01*
X75060000Y-111085199D01*
X75060000Y-109195757D01*
X81632244Y-109195757D01*
X81632244Y-109456483D01*
X81683109Y-109712199D01*
X81782885Y-109953078D01*
X81927736Y-110169863D01*
X82112097Y-110354224D01*
X82328882Y-110499075D01*
X82569761Y-110598851D01*
X82825477Y-110649716D01*
X83086203Y-110649716D01*
X83341919Y-110598851D01*
X83582798Y-110499075D01*
X83799583Y-110354224D01*
X83983944Y-110169863D01*
X84128795Y-109953078D01*
X84228571Y-109712199D01*
X84279436Y-109456483D01*
X84279436Y-109195757D01*
X84228571Y-108940041D01*
X84128795Y-108699162D01*
X83983944Y-108482377D01*
X83799583Y-108298016D01*
X83582798Y-108153165D01*
X83341919Y-108053389D01*
X83086203Y-108002524D01*
X82825477Y-108002524D01*
X82569761Y-108053389D01*
X82328882Y-108153165D01*
X82112097Y-108298016D01*
X81927736Y-108482377D01*
X81782885Y-108699162D01*
X81683109Y-108940041D01*
X81632244Y-109195757D01*
X75060000Y-109195757D01*
X75060000Y-103537323D01*
X75063676Y-103500000D01*
X75060000Y-103462677D01*
X75060000Y-103462667D01*
X75049003Y-103351014D01*
X75005546Y-103207753D01*
X74980021Y-103159999D01*
X74934974Y-103075723D01*
X74863799Y-102988997D01*
X74840001Y-102959999D01*
X74811004Y-102936202D01*
X72535000Y-100660199D01*
X72535000Y-100598061D01*
X72495226Y-100398102D01*
X72417205Y-100209744D01*
X72303937Y-100040226D01*
X72159774Y-99896063D01*
X71990256Y-99782795D01*
X71801898Y-99704774D01*
X71601939Y-99665000D01*
X71398061Y-99665000D01*
X71198102Y-99704774D01*
X71009744Y-99782795D01*
X70840226Y-99896063D01*
X70696063Y-100040226D01*
X70582795Y-100209744D01*
X70504774Y-100398102D01*
X70465000Y-100598061D01*
X70465000Y-100801939D01*
X70504774Y-101001898D01*
X70582795Y-101190256D01*
X70696063Y-101359774D01*
X70840226Y-101503937D01*
X71009744Y-101617205D01*
X71198102Y-101695226D01*
X71398061Y-101735000D01*
X71460199Y-101735000D01*
X73540000Y-103814802D01*
X73540001Y-111162657D01*
X73540000Y-111162667D01*
X73540000Y-111362678D01*
X73536324Y-111400000D01*
X73540000Y-111437322D01*
X73540000Y-111437332D01*
X73550997Y-111548985D01*
X73573836Y-111624276D01*
X73594454Y-111692246D01*
X73665026Y-111824276D01*
X73673806Y-111834974D01*
X73759999Y-111940001D01*
X73789003Y-111963804D01*
X85838996Y-124013799D01*
X85839007Y-124013808D01*
X86530001Y-124704803D01*
X86530000Y-134355199D01*
X85063804Y-132889003D01*
X85040001Y-132859999D01*
X84924276Y-132765026D01*
X84792247Y-132694454D01*
X84648986Y-132650997D01*
X84537333Y-132640000D01*
X84537322Y-132640000D01*
X84500000Y-132636324D01*
X84462678Y-132640000D01*
X76424776Y-132640000D01*
X76421008Y-132601745D01*
X76370472Y-132435149D01*
X76288405Y-132281613D01*
X76177962Y-132147038D01*
X76043387Y-132036595D01*
X75889851Y-131954528D01*
X75723255Y-131903992D01*
X75550001Y-131886928D01*
X74849999Y-131886928D01*
X74676745Y-131903992D01*
X74510149Y-131954528D01*
X74356613Y-132036595D01*
X74222038Y-132147038D01*
X74111595Y-132281613D01*
X74109191Y-132286111D01*
X74077502Y-132247498D01*
X73889449Y-132093167D01*
X73674901Y-131978489D01*
X73442102Y-131907870D01*
X73200000Y-131884025D01*
X72957899Y-131907870D01*
X72725100Y-131978489D01*
X72510552Y-132093167D01*
X72322499Y-132247498D01*
X72168168Y-132435551D01*
X72053489Y-132650099D01*
X71982870Y-132882898D01*
X71965000Y-133064335D01*
X71965000Y-133735664D01*
X71982870Y-133917101D01*
X72053489Y-134149900D01*
X72168167Y-134364448D01*
X72322498Y-134552502D01*
X72510551Y-134706833D01*
X72725099Y-134821511D01*
X72957898Y-134892130D01*
X73200000Y-134915975D01*
X73442101Y-134892130D01*
X73674900Y-134821511D01*
X73889448Y-134706833D01*
X74077502Y-134552502D01*
X74109191Y-134513889D01*
X74111595Y-134518387D01*
X74222038Y-134652962D01*
X74356613Y-134763405D01*
X74510149Y-134845472D01*
X74676745Y-134896008D01*
X74849999Y-134913072D01*
X75550001Y-134913072D01*
X75723255Y-134896008D01*
X75889851Y-134845472D01*
X76043387Y-134763405D01*
X76177962Y-134652962D01*
X76288405Y-134518387D01*
X76370472Y-134364851D01*
X76421008Y-134198255D01*
X76424776Y-134160000D01*
X84185199Y-134160000D01*
X85730001Y-135704803D01*
X85730000Y-139643256D01*
X85659463Y-139729206D01*
X85600498Y-139839520D01*
X85564188Y-139959218D01*
X85551928Y-140083700D01*
X85551928Y-141746772D01*
X85547260Y-141745363D01*
X85502201Y-141721405D01*
X85462654Y-141689151D01*
X85430127Y-141649832D01*
X85405857Y-141604946D01*
X85390765Y-141556190D01*
X85381900Y-141471852D01*
X85381900Y-136767512D01*
X85378807Y-136736113D01*
X85378850Y-136730019D01*
X85377849Y-136719805D01*
X85357448Y-136525708D01*
X85344055Y-136460460D01*
X85331571Y-136395019D01*
X85328605Y-136385194D01*
X85270893Y-136198756D01*
X85245075Y-136137337D01*
X85220123Y-136075579D01*
X85215305Y-136066518D01*
X85122480Y-135894841D01*
X85085215Y-135839594D01*
X85048750Y-135783869D01*
X85042264Y-135775916D01*
X84917860Y-135625538D01*
X84870554Y-135578561D01*
X84823983Y-135531004D01*
X84816076Y-135524462D01*
X84664834Y-135401112D01*
X84609315Y-135364225D01*
X84554380Y-135326611D01*
X84545353Y-135321729D01*
X84373031Y-135230104D01*
X84311404Y-135204703D01*
X84250211Y-135178476D01*
X84240408Y-135175441D01*
X84053572Y-135119032D01*
X83988180Y-135106084D01*
X83923064Y-135092243D01*
X83912858Y-135091170D01*
X83718624Y-135072125D01*
X83718623Y-135072125D01*
X83683005Y-135068617D01*
X63032845Y-135068617D01*
X62363411Y-135002979D01*
X61754045Y-134819000D01*
X61192029Y-134520170D01*
X60698755Y-134117867D01*
X60293016Y-133627412D01*
X59990266Y-133067490D01*
X59802040Y-132459428D01*
X59731900Y-131792095D01*
X59731900Y-107800000D01*
X60461928Y-107800000D01*
X60461928Y-110800000D01*
X60474188Y-110924482D01*
X60510498Y-111044180D01*
X60569463Y-111154494D01*
X60648815Y-111251185D01*
X60745506Y-111330537D01*
X60855820Y-111389502D01*
X60975518Y-111425812D01*
X61100000Y-111438072D01*
X61840000Y-111438072D01*
X61840001Y-113862668D01*
X61836324Y-113900000D01*
X61850998Y-114048985D01*
X61894454Y-114192246D01*
X61965026Y-114324276D01*
X62036201Y-114411002D01*
X62060000Y-114440001D01*
X62088998Y-114463799D01*
X65640000Y-118014802D01*
X65640001Y-122161928D01*
X64900000Y-122161928D01*
X64775518Y-122174188D01*
X64655820Y-122210498D01*
X64545506Y-122269463D01*
X64500000Y-122306809D01*
X64454494Y-122269463D01*
X64344180Y-122210498D01*
X64224482Y-122174188D01*
X64100000Y-122161928D01*
X63401783Y-122161928D01*
X63403937Y-122159774D01*
X63517205Y-121990256D01*
X63595226Y-121801898D01*
X63635000Y-121601939D01*
X63635000Y-121398061D01*
X63595226Y-121198102D01*
X63517205Y-121009744D01*
X63403937Y-120840226D01*
X63259774Y-120696063D01*
X63090256Y-120582795D01*
X62901898Y-120504774D01*
X62701939Y-120465000D01*
X62498061Y-120465000D01*
X62298102Y-120504774D01*
X62109744Y-120582795D01*
X61940226Y-120696063D01*
X61796063Y-120840226D01*
X61682795Y-121009744D01*
X61604774Y-121198102D01*
X61565000Y-121398061D01*
X61565000Y-121601939D01*
X61604774Y-121801898D01*
X61682795Y-121990256D01*
X61796063Y-122159774D01*
X61798217Y-122161928D01*
X61100000Y-122161928D01*
X60975518Y-122174188D01*
X60855820Y-122210498D01*
X60745506Y-122269463D01*
X60648815Y-122348815D01*
X60569463Y-122445506D01*
X60510498Y-122555820D01*
X60474188Y-122675518D01*
X60461928Y-122800000D01*
X60461928Y-125800000D01*
X60474188Y-125924482D01*
X60510498Y-126044180D01*
X60569463Y-126154494D01*
X60648815Y-126251185D01*
X60745506Y-126330537D01*
X60855820Y-126389502D01*
X60975518Y-126425812D01*
X61100000Y-126438072D01*
X62058417Y-126438072D01*
X62060000Y-126440001D01*
X62088998Y-126463799D01*
X62922308Y-127297110D01*
X62480751Y-127738667D01*
X62126246Y-128269221D01*
X61882059Y-128858740D01*
X61757574Y-129484571D01*
X61757574Y-130122663D01*
X61882059Y-130748494D01*
X62126246Y-131338013D01*
X62480751Y-131868567D01*
X62931950Y-132319766D01*
X63462504Y-132674271D01*
X64052023Y-132918458D01*
X64677854Y-133042943D01*
X65315946Y-133042943D01*
X65941777Y-132918458D01*
X66531296Y-132674271D01*
X67061850Y-132319766D01*
X67513049Y-131868567D01*
X67867554Y-131338013D01*
X68111741Y-130748494D01*
X68236226Y-130122663D01*
X68236226Y-129484571D01*
X68193135Y-129267937D01*
X68836200Y-129911002D01*
X68859999Y-129940001D01*
X68975724Y-130034974D01*
X69107753Y-130105546D01*
X69251014Y-130149003D01*
X69362667Y-130160000D01*
X69362675Y-130160000D01*
X69400000Y-130163676D01*
X69437325Y-130160000D01*
X79285199Y-130160000D01*
X80165000Y-131039802D01*
X80165000Y-131101939D01*
X80204774Y-131301898D01*
X80282795Y-131490256D01*
X80396063Y-131659774D01*
X80540226Y-131803937D01*
X80709744Y-131917205D01*
X80898102Y-131995226D01*
X81098061Y-132035000D01*
X81301939Y-132035000D01*
X81501898Y-131995226D01*
X81690256Y-131917205D01*
X81859774Y-131803937D01*
X82003937Y-131659774D01*
X82117205Y-131490256D01*
X82195226Y-131301898D01*
X82235000Y-131101939D01*
X82235000Y-130898061D01*
X82195226Y-130698102D01*
X82117205Y-130509744D01*
X82003937Y-130340226D01*
X81859774Y-130196063D01*
X81690256Y-130082795D01*
X81501898Y-130004774D01*
X81301939Y-129965000D01*
X81239802Y-129965000D01*
X80196317Y-128921516D01*
X80217205Y-128890256D01*
X80295226Y-128701898D01*
X80335000Y-128501939D01*
X80335000Y-128298061D01*
X80295226Y-128098102D01*
X80217205Y-127909744D01*
X80103937Y-127740226D01*
X79959774Y-127596063D01*
X79790256Y-127482795D01*
X79601898Y-127404774D01*
X79401939Y-127365000D01*
X79198061Y-127365000D01*
X78998102Y-127404774D01*
X78809744Y-127482795D01*
X78640226Y-127596063D01*
X78596289Y-127640000D01*
X69814802Y-127640000D01*
X68384902Y-126210101D01*
X68430537Y-126154494D01*
X68489502Y-126044180D01*
X68525812Y-125924482D01*
X68538072Y-125800000D01*
X68538072Y-122800000D01*
X68525812Y-122675518D01*
X68489502Y-122555820D01*
X68430537Y-122445506D01*
X68351185Y-122348815D01*
X68254494Y-122269463D01*
X68144180Y-122210498D01*
X68024482Y-122174188D01*
X67900000Y-122161928D01*
X67160000Y-122161928D01*
X67160000Y-117737333D01*
X67163677Y-117700000D01*
X67149003Y-117551014D01*
X67105546Y-117407753D01*
X67034974Y-117275724D01*
X66963799Y-117188997D01*
X66940001Y-117159999D01*
X66911004Y-117136202D01*
X63360000Y-113585199D01*
X63360000Y-111438072D01*
X64100000Y-111438072D01*
X64224482Y-111425812D01*
X64344180Y-111389502D01*
X64454494Y-111330537D01*
X64500000Y-111293191D01*
X64545506Y-111330537D01*
X64655820Y-111389502D01*
X64775518Y-111425812D01*
X64900000Y-111438072D01*
X65540000Y-111438072D01*
X65540000Y-112496289D01*
X65496063Y-112540226D01*
X65382795Y-112709744D01*
X65304774Y-112898102D01*
X65265000Y-113098061D01*
X65265000Y-113301939D01*
X65304774Y-113501898D01*
X65382795Y-113690256D01*
X65496063Y-113859774D01*
X65640226Y-114003937D01*
X65809744Y-114117205D01*
X65998102Y-114195226D01*
X66198061Y-114235000D01*
X66401939Y-114235000D01*
X66601898Y-114195226D01*
X66790256Y-114117205D01*
X66959774Y-114003937D01*
X67103937Y-113859774D01*
X67217205Y-113690256D01*
X67295226Y-113501898D01*
X67335000Y-113301939D01*
X67335000Y-113098061D01*
X67295226Y-112898102D01*
X67217205Y-112709744D01*
X67103937Y-112540226D01*
X67060000Y-112496289D01*
X67060000Y-111438072D01*
X67900000Y-111438072D01*
X68024482Y-111425812D01*
X68144180Y-111389502D01*
X68254494Y-111330537D01*
X68351185Y-111251185D01*
X68430537Y-111154494D01*
X68489502Y-111044180D01*
X68525812Y-110924482D01*
X68538072Y-110800000D01*
X68538072Y-107800000D01*
X68525812Y-107675518D01*
X68489502Y-107555820D01*
X68430537Y-107445506D01*
X68351185Y-107348815D01*
X68254494Y-107269463D01*
X68144180Y-107210498D01*
X68024482Y-107174188D01*
X67900000Y-107161928D01*
X64900000Y-107161928D01*
X64775518Y-107174188D01*
X64655820Y-107210498D01*
X64545506Y-107269463D01*
X64500000Y-107306809D01*
X64454494Y-107269463D01*
X64344180Y-107210498D01*
X64224482Y-107174188D01*
X64100000Y-107161928D01*
X61100000Y-107161928D01*
X60975518Y-107174188D01*
X60855820Y-107210498D01*
X60745506Y-107269463D01*
X60648815Y-107348815D01*
X60569463Y-107445506D01*
X60510498Y-107555820D01*
X60474188Y-107675518D01*
X60461928Y-107800000D01*
X59731900Y-107800000D01*
X59731900Y-51800000D01*
X60361928Y-51800000D01*
X60361928Y-54800000D01*
X60374188Y-54924482D01*
X60410498Y-55044180D01*
X60469463Y-55154494D01*
X60548815Y-55251185D01*
X60645506Y-55330537D01*
X60755820Y-55389502D01*
X60875518Y-55425812D01*
X61000000Y-55438072D01*
X61740000Y-55438072D01*
X61740001Y-59062668D01*
X61736324Y-59100000D01*
X61750998Y-59248985D01*
X61794454Y-59392246D01*
X61865026Y-59524276D01*
X61936201Y-59611002D01*
X61960000Y-59640001D01*
X61988998Y-59663799D01*
X65640000Y-63314802D01*
X65640001Y-66161928D01*
X64900000Y-66161928D01*
X64775518Y-66174188D01*
X64655820Y-66210498D01*
X64545506Y-66269463D01*
X64500000Y-66306809D01*
X64454494Y-66269463D01*
X64344180Y-66210498D01*
X64224482Y-66174188D01*
X64100000Y-66161928D01*
X63360000Y-66161928D01*
X63360000Y-66103711D01*
X63403937Y-66059774D01*
X63517205Y-65890256D01*
X63595226Y-65701898D01*
X63635000Y-65501939D01*
X63635000Y-65298061D01*
X63595226Y-65098102D01*
X63517205Y-64909744D01*
X63403937Y-64740226D01*
X63259774Y-64596063D01*
X63090256Y-64482795D01*
X62901898Y-64404774D01*
X62701939Y-64365000D01*
X62498061Y-64365000D01*
X62298102Y-64404774D01*
X62109744Y-64482795D01*
X61940226Y-64596063D01*
X61796063Y-64740226D01*
X61682795Y-64909744D01*
X61604774Y-65098102D01*
X61565000Y-65298061D01*
X61565000Y-65501939D01*
X61604774Y-65701898D01*
X61682795Y-65890256D01*
X61796063Y-66059774D01*
X61840001Y-66103712D01*
X61840001Y-66161928D01*
X61100000Y-66161928D01*
X60975518Y-66174188D01*
X60855820Y-66210498D01*
X60745506Y-66269463D01*
X60648815Y-66348815D01*
X60569463Y-66445506D01*
X60510498Y-66555820D01*
X60474188Y-66675518D01*
X60461928Y-66800000D01*
X60461928Y-69800000D01*
X60474188Y-69924482D01*
X60510498Y-70044180D01*
X60569463Y-70154494D01*
X60648815Y-70251185D01*
X60745506Y-70330537D01*
X60855820Y-70389502D01*
X60975518Y-70425812D01*
X61100000Y-70438072D01*
X61840000Y-70438072D01*
X61840001Y-76062668D01*
X61836324Y-76100000D01*
X61840001Y-76137333D01*
X61850998Y-76248986D01*
X61862854Y-76288072D01*
X61894454Y-76392246D01*
X61965026Y-76524276D01*
X61993372Y-76558815D01*
X62060000Y-76640001D01*
X62088998Y-76663799D01*
X93340000Y-107914802D01*
X93340001Y-109796288D01*
X93296063Y-109840226D01*
X93182795Y-110009744D01*
X93104774Y-110198102D01*
X93065000Y-110398061D01*
X93065000Y-110601939D01*
X93104774Y-110801898D01*
X93182795Y-110990256D01*
X93296063Y-111159774D01*
X93440226Y-111303937D01*
X93609744Y-111417205D01*
X93798102Y-111495226D01*
X93998061Y-111535000D01*
X94201939Y-111535000D01*
X94401898Y-111495226D01*
X94590256Y-111417205D01*
X94759774Y-111303937D01*
X94903937Y-111159774D01*
X95017205Y-110990256D01*
X95095226Y-110801898D01*
X95135000Y-110601939D01*
X95135000Y-110398061D01*
X95095226Y-110198102D01*
X95017205Y-110009744D01*
X94903937Y-109840226D01*
X94860000Y-109796289D01*
X94860000Y-107637322D01*
X94863676Y-107599999D01*
X94860000Y-107562676D01*
X94860000Y-107562667D01*
X94849003Y-107451014D01*
X94805546Y-107307753D01*
X94734974Y-107175724D01*
X94640001Y-107059999D01*
X94611004Y-107036202D01*
X93050176Y-105475374D01*
X93098102Y-105495226D01*
X93298061Y-105535000D01*
X93501939Y-105535000D01*
X93701898Y-105495226D01*
X93890256Y-105417205D01*
X94059774Y-105303937D01*
X94203937Y-105159774D01*
X94317205Y-104990256D01*
X94395226Y-104801898D01*
X94435000Y-104601939D01*
X94435000Y-104398061D01*
X94395226Y-104198102D01*
X94317205Y-104009744D01*
X94203937Y-103840226D01*
X94059774Y-103696063D01*
X93890256Y-103582795D01*
X93701898Y-103504774D01*
X93501939Y-103465000D01*
X93439802Y-103465000D01*
X67522863Y-77548061D01*
X84915000Y-77548061D01*
X84915000Y-77751939D01*
X84954774Y-77951898D01*
X85032795Y-78140256D01*
X85146063Y-78309774D01*
X85290226Y-78453937D01*
X85459744Y-78567205D01*
X85648102Y-78645226D01*
X85848061Y-78685000D01*
X86051939Y-78685000D01*
X86251898Y-78645226D01*
X86440256Y-78567205D01*
X86609774Y-78453937D01*
X86653711Y-78410000D01*
X87012678Y-78410000D01*
X87050000Y-78413676D01*
X87087322Y-78410000D01*
X87087333Y-78410000D01*
X87198986Y-78399003D01*
X87342247Y-78355546D01*
X87474276Y-78284974D01*
X87590001Y-78190001D01*
X87613804Y-78160997D01*
X91676740Y-74098061D01*
X92840000Y-74098061D01*
X92840000Y-74301939D01*
X92879774Y-74501898D01*
X92957795Y-74690256D01*
X93071063Y-74859774D01*
X93215226Y-75003937D01*
X93384744Y-75117205D01*
X93573102Y-75195226D01*
X93773061Y-75235000D01*
X93976939Y-75235000D01*
X94176898Y-75195226D01*
X94365256Y-75117205D01*
X94400000Y-75093990D01*
X94434744Y-75117205D01*
X94623102Y-75195226D01*
X94823061Y-75235000D01*
X95026939Y-75235000D01*
X95226898Y-75195226D01*
X95415256Y-75117205D01*
X95584774Y-75003937D01*
X95728937Y-74859774D01*
X95842205Y-74690256D01*
X95920226Y-74501898D01*
X95960000Y-74301939D01*
X95960000Y-74098061D01*
X95920226Y-73898102D01*
X95900460Y-73850383D01*
X98510843Y-71240000D01*
X100371928Y-71240000D01*
X100371928Y-72740000D01*
X100384188Y-72864482D01*
X100420498Y-72984180D01*
X100479463Y-73094494D01*
X100558815Y-73191185D01*
X100655506Y-73270537D01*
X100765820Y-73329502D01*
X100885518Y-73365812D01*
X101010000Y-73378072D01*
X102510000Y-73378072D01*
X102634482Y-73365812D01*
X102754180Y-73329502D01*
X102864494Y-73270537D01*
X102961185Y-73191185D01*
X103040537Y-73094494D01*
X103099502Y-72984180D01*
X103135812Y-72864482D01*
X103147087Y-72750000D01*
X108825199Y-72750000D01*
X108165199Y-73410000D01*
X103907323Y-73410000D01*
X103870000Y-73406324D01*
X103832677Y-73410000D01*
X103832667Y-73410000D01*
X103721014Y-73420997D01*
X103577753Y-73464454D01*
X103445723Y-73535026D01*
X103414686Y-73560498D01*
X103329999Y-73629999D01*
X103306201Y-73658998D01*
X103092042Y-73873156D01*
X103050537Y-73795506D01*
X102971185Y-73698815D01*
X102874494Y-73619463D01*
X102764180Y-73560498D01*
X102644482Y-73524188D01*
X102520000Y-73511928D01*
X101020000Y-73511928D01*
X100895518Y-73524188D01*
X100775820Y-73560498D01*
X100665506Y-73619463D01*
X100568815Y-73698815D01*
X100489463Y-73795506D01*
X100430498Y-73905820D01*
X100394188Y-74025518D01*
X100381928Y-74150000D01*
X100381928Y-75650000D01*
X100394188Y-75774482D01*
X100430498Y-75894180D01*
X100489463Y-76004494D01*
X100568815Y-76101185D01*
X100665506Y-76180537D01*
X100775820Y-76239502D01*
X100895518Y-76275812D01*
X101020000Y-76288072D01*
X102520000Y-76288072D01*
X102644482Y-76275812D01*
X102764180Y-76239502D01*
X102874494Y-76180537D01*
X102971185Y-76101185D01*
X103050537Y-76004494D01*
X103109502Y-75894180D01*
X103145812Y-75774482D01*
X103156889Y-75662013D01*
X103177322Y-75660000D01*
X103177333Y-75660000D01*
X103288986Y-75649003D01*
X103432247Y-75605546D01*
X103564276Y-75534974D01*
X103680001Y-75440001D01*
X103703803Y-75410998D01*
X104184802Y-74930000D01*
X106075198Y-74930000D01*
X104633271Y-76371928D01*
X103650000Y-76371928D01*
X103525518Y-76384188D01*
X103405820Y-76420498D01*
X103295506Y-76479463D01*
X103198815Y-76558815D01*
X103119463Y-76655506D01*
X103060498Y-76765820D01*
X103024188Y-76885518D01*
X103011928Y-77010000D01*
X103011928Y-78510000D01*
X103024188Y-78634482D01*
X103060498Y-78754180D01*
X103119463Y-78864494D01*
X103198815Y-78961185D01*
X103295506Y-79040537D01*
X103405820Y-79099502D01*
X103525518Y-79135812D01*
X103650000Y-79148072D01*
X105150000Y-79148072D01*
X105274482Y-79135812D01*
X105394180Y-79099502D01*
X105504494Y-79040537D01*
X105601185Y-78961185D01*
X105680537Y-78864494D01*
X105739502Y-78754180D01*
X105775812Y-78634482D01*
X105788072Y-78510000D01*
X105788072Y-77366729D01*
X105911928Y-77242873D01*
X105911928Y-78530000D01*
X105924188Y-78654482D01*
X105960498Y-78774180D01*
X106019463Y-78884494D01*
X106098815Y-78981185D01*
X106195506Y-79060537D01*
X106305820Y-79119502D01*
X106425518Y-79155812D01*
X106550000Y-79168072D01*
X108050000Y-79168072D01*
X108174482Y-79155812D01*
X108294180Y-79119502D01*
X108404494Y-79060537D01*
X108501185Y-78981185D01*
X108580537Y-78884494D01*
X108639502Y-78774180D01*
X108675812Y-78654482D01*
X108688072Y-78530000D01*
X108688072Y-78517147D01*
X108792247Y-78485546D01*
X108924276Y-78414974D01*
X109040001Y-78320001D01*
X109063804Y-78290997D01*
X114369802Y-72985000D01*
X114431939Y-72985000D01*
X114631898Y-72945226D01*
X114820256Y-72867205D01*
X114989774Y-72753937D01*
X115133937Y-72609774D01*
X115247205Y-72440256D01*
X115325226Y-72251898D01*
X115337923Y-72188061D01*
X116035000Y-72188061D01*
X116035000Y-72391939D01*
X116074774Y-72591898D01*
X116152795Y-72780256D01*
X116266063Y-72949774D01*
X116410226Y-73093937D01*
X116579744Y-73207205D01*
X116768102Y-73285226D01*
X116968061Y-73325000D01*
X117171939Y-73325000D01*
X117371898Y-73285226D01*
X117560256Y-73207205D01*
X117729774Y-73093937D01*
X117873937Y-72949774D01*
X117987205Y-72780256D01*
X118065226Y-72591898D01*
X118105000Y-72391939D01*
X118105000Y-72188061D01*
X118065226Y-71988102D01*
X117987205Y-71799744D01*
X117873937Y-71630226D01*
X117830000Y-71586289D01*
X117830000Y-68964801D01*
X120214803Y-66580000D01*
X121836289Y-66580000D01*
X121880226Y-66623937D01*
X122049744Y-66737205D01*
X122238102Y-66815226D01*
X122438061Y-66855000D01*
X122641939Y-66855000D01*
X122841898Y-66815226D01*
X123030256Y-66737205D01*
X123199774Y-66623937D01*
X123343937Y-66479774D01*
X123457205Y-66310256D01*
X123535226Y-66121898D01*
X123575000Y-65921939D01*
X123575000Y-65718061D01*
X123535226Y-65518102D01*
X123457205Y-65329744D01*
X123343937Y-65160226D01*
X123209761Y-65026050D01*
X123225000Y-64949439D01*
X123225000Y-64745561D01*
X123185226Y-64545602D01*
X123107205Y-64357244D01*
X122993937Y-64187726D01*
X122849774Y-64043563D01*
X122680256Y-63930295D01*
X122491898Y-63852274D01*
X122291939Y-63812500D01*
X122088061Y-63812500D01*
X121888102Y-63852274D01*
X121699744Y-63930295D01*
X121530226Y-64043563D01*
X121486289Y-64087500D01*
X119519822Y-64087500D01*
X119482499Y-64083824D01*
X119445177Y-64087500D01*
X119445167Y-64087500D01*
X119333514Y-64098497D01*
X119190253Y-64141954D01*
X119058223Y-64212526D01*
X119011593Y-64250795D01*
X118942499Y-64307499D01*
X118918701Y-64336497D01*
X117340199Y-65915000D01*
X117278061Y-65915000D01*
X117078102Y-65954774D01*
X116889744Y-66032795D01*
X116720226Y-66146063D01*
X116576063Y-66290226D01*
X116462795Y-66459744D01*
X116384774Y-66648102D01*
X116345000Y-66848061D01*
X116345000Y-67051939D01*
X116384774Y-67251898D01*
X116462795Y-67440256D01*
X116576063Y-67609774D01*
X116720226Y-67753937D01*
X116822755Y-67822444D01*
X116559003Y-68086196D01*
X116529999Y-68109999D01*
X116476161Y-68175602D01*
X116435026Y-68225724D01*
X116380083Y-68328514D01*
X116364454Y-68357754D01*
X116320997Y-68501015D01*
X116310000Y-68612668D01*
X116310000Y-68612678D01*
X116306324Y-68650000D01*
X116310000Y-68687323D01*
X116310001Y-71586288D01*
X116266063Y-71630226D01*
X116152795Y-71799744D01*
X116074774Y-71988102D01*
X116035000Y-72188061D01*
X115337923Y-72188061D01*
X115365000Y-72051939D01*
X115365000Y-71848061D01*
X115325226Y-71648102D01*
X115247205Y-71459744D01*
X115133937Y-71290226D01*
X114989774Y-71146063D01*
X114820256Y-71032795D01*
X114631898Y-70954774D01*
X114431939Y-70915000D01*
X114265000Y-70915000D01*
X114265000Y-70728061D01*
X114225226Y-70528102D01*
X114147205Y-70339744D01*
X114033937Y-70170226D01*
X113889774Y-70026063D01*
X113720256Y-69912795D01*
X113531898Y-69834774D01*
X113331939Y-69795000D01*
X113128061Y-69795000D01*
X112928102Y-69834774D01*
X112772810Y-69899099D01*
X112759805Y-69886094D01*
X112837205Y-69770256D01*
X112915226Y-69581898D01*
X112929030Y-69512500D01*
X113101939Y-69512500D01*
X113301898Y-69472726D01*
X113490256Y-69394705D01*
X113659774Y-69281437D01*
X113803937Y-69137274D01*
X113917205Y-68967756D01*
X113995226Y-68779398D01*
X114035000Y-68579439D01*
X114035000Y-68375561D01*
X113995226Y-68175602D01*
X113917205Y-67987244D01*
X113803937Y-67817726D01*
X113659774Y-67673563D01*
X113490256Y-67560295D01*
X113301898Y-67482274D01*
X113101939Y-67442500D01*
X112898061Y-67442500D01*
X112698102Y-67482274D01*
X112509744Y-67560295D01*
X112340226Y-67673563D01*
X112296289Y-67717500D01*
X110574825Y-67717500D01*
X110537500Y-67713824D01*
X110500175Y-67717500D01*
X110500167Y-67717500D01*
X110388514Y-67728497D01*
X110245253Y-67771954D01*
X110113224Y-67842526D01*
X109997499Y-67937499D01*
X109973701Y-67966498D01*
X109390199Y-68550000D01*
X105707087Y-68550000D01*
X105695812Y-68435518D01*
X105659502Y-68315820D01*
X105600537Y-68205506D01*
X105521185Y-68108815D01*
X105424494Y-68029463D01*
X105314180Y-67970498D01*
X105194482Y-67934188D01*
X105070000Y-67921928D01*
X103570000Y-67921928D01*
X103445518Y-67934188D01*
X103325820Y-67970498D01*
X103215506Y-68029463D01*
X103118815Y-68108815D01*
X103039463Y-68205506D01*
X102980498Y-68315820D01*
X102944188Y-68435518D01*
X102931928Y-68560000D01*
X102931928Y-70060000D01*
X102944188Y-70184482D01*
X102980498Y-70304180D01*
X103039463Y-70414494D01*
X103118815Y-70511185D01*
X103215506Y-70590537D01*
X103325820Y-70649502D01*
X103445518Y-70685812D01*
X103570000Y-70698072D01*
X105070000Y-70698072D01*
X105194482Y-70685812D01*
X105314180Y-70649502D01*
X105424494Y-70590537D01*
X105521185Y-70511185D01*
X105600537Y-70414494D01*
X105659502Y-70304180D01*
X105695812Y-70184482D01*
X105707087Y-70070000D01*
X109667678Y-70070000D01*
X109705000Y-70073676D01*
X109742322Y-70070000D01*
X109742333Y-70070000D01*
X109853986Y-70059003D01*
X109997247Y-70015546D01*
X110129276Y-69944974D01*
X110245001Y-69850001D01*
X110268803Y-69820998D01*
X110852302Y-69237500D01*
X110885000Y-69237500D01*
X110885000Y-69240198D01*
X108895199Y-71230000D01*
X103147087Y-71230000D01*
X103135812Y-71115518D01*
X103099502Y-70995820D01*
X103040537Y-70885506D01*
X102961185Y-70788815D01*
X102864494Y-70709463D01*
X102754180Y-70650498D01*
X102634482Y-70614188D01*
X102510000Y-70601928D01*
X101010000Y-70601928D01*
X100885518Y-70614188D01*
X100765820Y-70650498D01*
X100655506Y-70709463D01*
X100558815Y-70788815D01*
X100479463Y-70885506D01*
X100420498Y-70995820D01*
X100384188Y-71115518D01*
X100371928Y-71240000D01*
X98510843Y-71240000D01*
X102390844Y-67360000D01*
X109817094Y-67360000D01*
X109853199Y-67363556D01*
X109889304Y-67360000D01*
X109997284Y-67349365D01*
X110135832Y-67307337D01*
X110263519Y-67239087D01*
X110375437Y-67147238D01*
X110398457Y-67119188D01*
X111454076Y-66063569D01*
X111509334Y-66086458D01*
X111709293Y-66126232D01*
X111913171Y-66126232D01*
X112113130Y-66086458D01*
X112301488Y-66008437D01*
X112471006Y-65895169D01*
X112615169Y-65751006D01*
X112728437Y-65581488D01*
X112806458Y-65393130D01*
X112846232Y-65193171D01*
X112846232Y-64989293D01*
X112806458Y-64789334D01*
X112728437Y-64600976D01*
X112615169Y-64431458D01*
X112471006Y-64287295D01*
X112301488Y-64174027D01*
X112113130Y-64096006D01*
X112072146Y-64087854D01*
X112063994Y-64046870D01*
X111985973Y-63858512D01*
X111872705Y-63688994D01*
X111728542Y-63544831D01*
X111559024Y-63431563D01*
X111370666Y-63353542D01*
X111170707Y-63313768D01*
X110966829Y-63313768D01*
X110766870Y-63353542D01*
X110578512Y-63431563D01*
X110408994Y-63544831D01*
X110264831Y-63688994D01*
X110151563Y-63858512D01*
X110073542Y-64046870D01*
X110033768Y-64246829D01*
X110033768Y-64450707D01*
X110073542Y-64650666D01*
X110096431Y-64705924D01*
X109362355Y-65440000D01*
X101936105Y-65440000D01*
X101900000Y-65436444D01*
X101863895Y-65440000D01*
X101755915Y-65450635D01*
X101617367Y-65492663D01*
X101489680Y-65560913D01*
X101377762Y-65652762D01*
X101354746Y-65680807D01*
X93870554Y-73165000D01*
X93773061Y-73165000D01*
X93573102Y-73204774D01*
X93384744Y-73282795D01*
X93215226Y-73396063D01*
X93071063Y-73540226D01*
X92957795Y-73709744D01*
X92879774Y-73898102D01*
X92840000Y-74098061D01*
X91676740Y-74098061D01*
X97039802Y-68735000D01*
X97101939Y-68735000D01*
X97301898Y-68695226D01*
X97490256Y-68617205D01*
X97659774Y-68503937D01*
X97803937Y-68359774D01*
X97917205Y-68190256D01*
X97995226Y-68001898D01*
X98035000Y-67801939D01*
X98035000Y-67598061D01*
X97995226Y-67398102D01*
X97917205Y-67209744D01*
X97803937Y-67040226D01*
X97659774Y-66896063D01*
X97490256Y-66782795D01*
X97301898Y-66704774D01*
X97101939Y-66665000D01*
X96898061Y-66665000D01*
X96698102Y-66704774D01*
X96509744Y-66782795D01*
X96340226Y-66896063D01*
X96196063Y-67040226D01*
X96082795Y-67209744D01*
X96004774Y-67398102D01*
X95965000Y-67598061D01*
X95965000Y-67660198D01*
X86735199Y-76890000D01*
X86653711Y-76890000D01*
X86609774Y-76846063D01*
X86440256Y-76732795D01*
X86251898Y-76654774D01*
X86051939Y-76615000D01*
X85848061Y-76615000D01*
X85648102Y-76654774D01*
X85459744Y-76732795D01*
X85290226Y-76846063D01*
X85146063Y-76990226D01*
X85032795Y-77159744D01*
X84954774Y-77348102D01*
X84915000Y-77548061D01*
X67522863Y-77548061D01*
X67160000Y-77185199D01*
X67160000Y-70438072D01*
X67900000Y-70438072D01*
X68024482Y-70425812D01*
X68144180Y-70389502D01*
X68254494Y-70330537D01*
X68351185Y-70251185D01*
X68430537Y-70154494D01*
X68489502Y-70044180D01*
X68525812Y-69924482D01*
X68538072Y-69800000D01*
X68538072Y-66800000D01*
X68525812Y-66675518D01*
X68489502Y-66555820D01*
X68430537Y-66445506D01*
X68351185Y-66348815D01*
X68254494Y-66269463D01*
X68144180Y-66210498D01*
X68024482Y-66174188D01*
X67900000Y-66161928D01*
X67160000Y-66161928D01*
X67160000Y-63690910D01*
X103457849Y-63690910D01*
X103457849Y-63894788D01*
X103497623Y-64094747D01*
X103575644Y-64283105D01*
X103688912Y-64452623D01*
X103833075Y-64596786D01*
X104002593Y-64710054D01*
X104190951Y-64788075D01*
X104390910Y-64827849D01*
X104594788Y-64827849D01*
X104794747Y-64788075D01*
X104983105Y-64710054D01*
X105152623Y-64596786D01*
X105296786Y-64452623D01*
X105410054Y-64283105D01*
X105488075Y-64094747D01*
X105527849Y-63894788D01*
X105527849Y-63832650D01*
X111010500Y-58350000D01*
X116496289Y-58350000D01*
X116540226Y-58393937D01*
X116709744Y-58507205D01*
X116898102Y-58585226D01*
X117098061Y-58625000D01*
X117301939Y-58625000D01*
X117501898Y-58585226D01*
X117690256Y-58507205D01*
X117859774Y-58393937D01*
X118003937Y-58249774D01*
X118117205Y-58080256D01*
X118195226Y-57891898D01*
X118235000Y-57691939D01*
X118235000Y-57488061D01*
X118195226Y-57288102D01*
X118117205Y-57099744D01*
X118003937Y-56930226D01*
X117859774Y-56786063D01*
X117690256Y-56672795D01*
X117501898Y-56594774D01*
X117301939Y-56555000D01*
X117098061Y-56555000D01*
X116898102Y-56594774D01*
X116709744Y-56672795D01*
X116540226Y-56786063D01*
X116496289Y-56830000D01*
X110733020Y-56830000D01*
X110695697Y-56826324D01*
X110658374Y-56830000D01*
X110658365Y-56830000D01*
X110546712Y-56840997D01*
X110403451Y-56884454D01*
X110271422Y-56955026D01*
X110155697Y-57049999D01*
X110131899Y-57078997D01*
X104453048Y-62757849D01*
X104390910Y-62757849D01*
X104190951Y-62797623D01*
X104002593Y-62875644D01*
X103833075Y-62988912D01*
X103688912Y-63133075D01*
X103575644Y-63302593D01*
X103497623Y-63490951D01*
X103457849Y-63690910D01*
X67160000Y-63690910D01*
X67160000Y-63037323D01*
X67163676Y-63000000D01*
X67160000Y-62962677D01*
X67160000Y-62962667D01*
X67149003Y-62851014D01*
X67105546Y-62707753D01*
X67034975Y-62575725D01*
X67034974Y-62575723D01*
X66963799Y-62488997D01*
X66940001Y-62459999D01*
X66911004Y-62436202D01*
X63260000Y-58785199D01*
X63260000Y-55438072D01*
X64000000Y-55438072D01*
X64124482Y-55425812D01*
X64244180Y-55389502D01*
X64354494Y-55330537D01*
X64450000Y-55252158D01*
X64545506Y-55330537D01*
X64655820Y-55389502D01*
X64775518Y-55425812D01*
X64900000Y-55438072D01*
X65440001Y-55438072D01*
X65440000Y-58296289D01*
X65396063Y-58340226D01*
X65282795Y-58509744D01*
X65204774Y-58698102D01*
X65165000Y-58898061D01*
X65165000Y-59101939D01*
X65204774Y-59301898D01*
X65282795Y-59490256D01*
X65396063Y-59659774D01*
X65540226Y-59803937D01*
X65709744Y-59917205D01*
X65898102Y-59995226D01*
X66098061Y-60035000D01*
X66301939Y-60035000D01*
X66501898Y-59995226D01*
X66690256Y-59917205D01*
X66859774Y-59803937D01*
X67003937Y-59659774D01*
X67117205Y-59490256D01*
X67195226Y-59301898D01*
X67235000Y-59101939D01*
X67235000Y-58898061D01*
X67195226Y-58698102D01*
X67117205Y-58509744D01*
X67003937Y-58340226D01*
X66960000Y-58296289D01*
X66960000Y-55438072D01*
X67900000Y-55438072D01*
X68024482Y-55425812D01*
X68144180Y-55389502D01*
X68254494Y-55330537D01*
X68351185Y-55251185D01*
X68430537Y-55154494D01*
X68489502Y-55044180D01*
X68525812Y-54924482D01*
X68538072Y-54800000D01*
X68538072Y-52742000D01*
X76156000Y-52742000D01*
X76156000Y-53442000D01*
X76204507Y-53680496D01*
X76298610Y-53904946D01*
X76434693Y-54106725D01*
X76607526Y-54278078D01*
X76810467Y-54412421D01*
X77035718Y-54504591D01*
X77073391Y-54508462D01*
X77264000Y-54383731D01*
X77264000Y-52742000D01*
X77518000Y-52742000D01*
X77518000Y-54383731D01*
X77708609Y-54508462D01*
X77746282Y-54504591D01*
X77971533Y-54412421D01*
X78174474Y-54278078D01*
X78347307Y-54106725D01*
X78468241Y-53927408D01*
X79093000Y-53927408D01*
X79093000Y-54202592D01*
X79146686Y-54472490D01*
X79251995Y-54726727D01*
X79404880Y-54955535D01*
X79599465Y-55150120D01*
X79828273Y-55303005D01*
X80082510Y-55408314D01*
X80352408Y-55462000D01*
X80627592Y-55462000D01*
X80897490Y-55408314D01*
X81151727Y-55303005D01*
X81380535Y-55150120D01*
X81575120Y-54955535D01*
X81728005Y-54726727D01*
X81739500Y-54698976D01*
X81750995Y-54726727D01*
X81903880Y-54955535D01*
X82098465Y-55150120D01*
X82327273Y-55303005D01*
X82581510Y-55408314D01*
X82851408Y-55462000D01*
X83126592Y-55462000D01*
X83396490Y-55408314D01*
X83650727Y-55303005D01*
X83879535Y-55150120D01*
X83990000Y-55039655D01*
X84100465Y-55150120D01*
X84329273Y-55303005D01*
X84583510Y-55408314D01*
X84853408Y-55462000D01*
X85128592Y-55462000D01*
X85398490Y-55408314D01*
X85652727Y-55303005D01*
X85881535Y-55150120D01*
X86001090Y-55030565D01*
X86704040Y-55030565D01*
X86771020Y-55270656D01*
X87020048Y-55387756D01*
X87287135Y-55454023D01*
X87562017Y-55466910D01*
X87834133Y-55425922D01*
X88093023Y-55332636D01*
X88208980Y-55270656D01*
X88275960Y-55030565D01*
X87490000Y-54244605D01*
X86704040Y-55030565D01*
X86001090Y-55030565D01*
X86076120Y-54955535D01*
X86229005Y-54726727D01*
X86239805Y-54700653D01*
X86284344Y-54783980D01*
X86524435Y-54850960D01*
X87310395Y-54065000D01*
X87669605Y-54065000D01*
X88455565Y-54850960D01*
X88695656Y-54783980D01*
X88812756Y-54534952D01*
X88879023Y-54267865D01*
X88891910Y-53992983D01*
X88850922Y-53720867D01*
X88757636Y-53461977D01*
X88695656Y-53346020D01*
X88455565Y-53279040D01*
X87669605Y-54065000D01*
X87310395Y-54065000D01*
X86524435Y-53279040D01*
X86284344Y-53346020D01*
X86242314Y-53435403D01*
X86229005Y-53403273D01*
X86076120Y-53174465D01*
X86001090Y-53099435D01*
X86704040Y-53099435D01*
X87490000Y-53885395D01*
X88275960Y-53099435D01*
X88208980Y-52859344D01*
X87959952Y-52742244D01*
X87958969Y-52742000D01*
X89354000Y-52742000D01*
X89354000Y-53442000D01*
X89402507Y-53680496D01*
X89496610Y-53904946D01*
X89632693Y-54106725D01*
X89805526Y-54278078D01*
X90008467Y-54412421D01*
X90233718Y-54504591D01*
X90271391Y-54508462D01*
X90462000Y-54383731D01*
X90462000Y-52742000D01*
X90716000Y-52742000D01*
X90716000Y-54383731D01*
X90906609Y-54508462D01*
X90944282Y-54504591D01*
X91169533Y-54412421D01*
X91372474Y-54278078D01*
X91545307Y-54106725D01*
X91681390Y-53904946D01*
X91775493Y-53680496D01*
X91824000Y-53442000D01*
X91824000Y-52742000D01*
X103164000Y-52742000D01*
X103164000Y-53442000D01*
X103212507Y-53680496D01*
X103306610Y-53904946D01*
X103442693Y-54106725D01*
X103615526Y-54278078D01*
X103818467Y-54412421D01*
X104043718Y-54504591D01*
X104081391Y-54508462D01*
X104272000Y-54383731D01*
X104272000Y-52742000D01*
X104526000Y-52742000D01*
X104526000Y-54383731D01*
X104716609Y-54508462D01*
X104754282Y-54504591D01*
X104979533Y-54412421D01*
X105182474Y-54278078D01*
X105355307Y-54106725D01*
X105476241Y-53927408D01*
X106101000Y-53927408D01*
X106101000Y-54202592D01*
X106154686Y-54472490D01*
X106259995Y-54726727D01*
X106412880Y-54955535D01*
X106607465Y-55150120D01*
X106836273Y-55303005D01*
X107090510Y-55408314D01*
X107360408Y-55462000D01*
X107635592Y-55462000D01*
X107905490Y-55408314D01*
X108159727Y-55303005D01*
X108388535Y-55150120D01*
X108583120Y-54955535D01*
X108736005Y-54726727D01*
X108747500Y-54698976D01*
X108758995Y-54726727D01*
X108911880Y-54955535D01*
X109106465Y-55150120D01*
X109335273Y-55303005D01*
X109589510Y-55408314D01*
X109859408Y-55462000D01*
X110134592Y-55462000D01*
X110404490Y-55408314D01*
X110658727Y-55303005D01*
X110887535Y-55150120D01*
X110998000Y-55039655D01*
X111108465Y-55150120D01*
X111337273Y-55303005D01*
X111591510Y-55408314D01*
X111861408Y-55462000D01*
X112136592Y-55462000D01*
X112406490Y-55408314D01*
X112660727Y-55303005D01*
X112889535Y-55150120D01*
X113009090Y-55030565D01*
X113712040Y-55030565D01*
X113779020Y-55270656D01*
X114028048Y-55387756D01*
X114295135Y-55454023D01*
X114570017Y-55466910D01*
X114842133Y-55425922D01*
X115101023Y-55332636D01*
X115216980Y-55270656D01*
X115283960Y-55030565D01*
X114498000Y-54244605D01*
X113712040Y-55030565D01*
X113009090Y-55030565D01*
X113084120Y-54955535D01*
X113237005Y-54726727D01*
X113247805Y-54700653D01*
X113292344Y-54783980D01*
X113532435Y-54850960D01*
X114318395Y-54065000D01*
X114677605Y-54065000D01*
X115463565Y-54850960D01*
X115703656Y-54783980D01*
X115820756Y-54534952D01*
X115887023Y-54267865D01*
X115899910Y-53992983D01*
X115858922Y-53720867D01*
X115765636Y-53461977D01*
X115703656Y-53346020D01*
X115463565Y-53279040D01*
X114677605Y-54065000D01*
X114318395Y-54065000D01*
X113532435Y-53279040D01*
X113292344Y-53346020D01*
X113250314Y-53435403D01*
X113237005Y-53403273D01*
X113084120Y-53174465D01*
X113009090Y-53099435D01*
X113712040Y-53099435D01*
X114498000Y-53885395D01*
X115283960Y-53099435D01*
X115216980Y-52859344D01*
X114967952Y-52742244D01*
X114966969Y-52742000D01*
X116362000Y-52742000D01*
X116362000Y-53442000D01*
X116410507Y-53680496D01*
X116504610Y-53904946D01*
X116640693Y-54106725D01*
X116813526Y-54278078D01*
X117016467Y-54412421D01*
X117241718Y-54504591D01*
X117279391Y-54508462D01*
X117470000Y-54383731D01*
X117470000Y-52742000D01*
X117724000Y-52742000D01*
X117724000Y-54383731D01*
X117914609Y-54508462D01*
X117952282Y-54504591D01*
X118177533Y-54412421D01*
X118380474Y-54278078D01*
X118553307Y-54106725D01*
X118689390Y-53904946D01*
X118783493Y-53680496D01*
X118832000Y-53442000D01*
X118832000Y-52742000D01*
X117724000Y-52742000D01*
X117470000Y-52742000D01*
X116362000Y-52742000D01*
X114966969Y-52742000D01*
X114700865Y-52675977D01*
X114425983Y-52663090D01*
X114153867Y-52704078D01*
X113894977Y-52797364D01*
X113779020Y-52859344D01*
X113712040Y-53099435D01*
X113009090Y-53099435D01*
X112889535Y-52979880D01*
X112660727Y-52826995D01*
X112406490Y-52721686D01*
X112136592Y-52668000D01*
X111861408Y-52668000D01*
X111591510Y-52721686D01*
X111337273Y-52826995D01*
X111108465Y-52979880D01*
X110998000Y-53090345D01*
X110887535Y-52979880D01*
X110658727Y-52826995D01*
X110404490Y-52721686D01*
X110134592Y-52668000D01*
X109859408Y-52668000D01*
X109589510Y-52721686D01*
X109335273Y-52826995D01*
X109106465Y-52979880D01*
X108911880Y-53174465D01*
X108758995Y-53403273D01*
X108747500Y-53431024D01*
X108736005Y-53403273D01*
X108583120Y-53174465D01*
X108388535Y-52979880D01*
X108159727Y-52826995D01*
X107905490Y-52721686D01*
X107635592Y-52668000D01*
X107360408Y-52668000D01*
X107090510Y-52721686D01*
X106836273Y-52826995D01*
X106607465Y-52979880D01*
X106412880Y-53174465D01*
X106259995Y-53403273D01*
X106154686Y-53657510D01*
X106101000Y-53927408D01*
X105476241Y-53927408D01*
X105491390Y-53904946D01*
X105585493Y-53680496D01*
X105634000Y-53442000D01*
X105634000Y-52742000D01*
X104526000Y-52742000D01*
X104272000Y-52742000D01*
X103164000Y-52742000D01*
X91824000Y-52742000D01*
X90716000Y-52742000D01*
X90462000Y-52742000D01*
X89354000Y-52742000D01*
X87958969Y-52742000D01*
X87692865Y-52675977D01*
X87417983Y-52663090D01*
X87145867Y-52704078D01*
X86886977Y-52797364D01*
X86771020Y-52859344D01*
X86704040Y-53099435D01*
X86001090Y-53099435D01*
X85881535Y-52979880D01*
X85652727Y-52826995D01*
X85398490Y-52721686D01*
X85128592Y-52668000D01*
X84853408Y-52668000D01*
X84583510Y-52721686D01*
X84329273Y-52826995D01*
X84100465Y-52979880D01*
X83990000Y-53090345D01*
X83879535Y-52979880D01*
X83650727Y-52826995D01*
X83396490Y-52721686D01*
X83126592Y-52668000D01*
X82851408Y-52668000D01*
X82581510Y-52721686D01*
X82327273Y-52826995D01*
X82098465Y-52979880D01*
X81903880Y-53174465D01*
X81750995Y-53403273D01*
X81739500Y-53431024D01*
X81728005Y-53403273D01*
X81575120Y-53174465D01*
X81380535Y-52979880D01*
X81151727Y-52826995D01*
X80897490Y-52721686D01*
X80627592Y-52668000D01*
X80352408Y-52668000D01*
X80082510Y-52721686D01*
X79828273Y-52826995D01*
X79599465Y-52979880D01*
X79404880Y-53174465D01*
X79251995Y-53403273D01*
X79146686Y-53657510D01*
X79093000Y-53927408D01*
X78468241Y-53927408D01*
X78483390Y-53904946D01*
X78577493Y-53680496D01*
X78626000Y-53442000D01*
X78626000Y-52742000D01*
X77518000Y-52742000D01*
X77264000Y-52742000D01*
X76156000Y-52742000D01*
X68538072Y-52742000D01*
X68538072Y-51800000D01*
X68525812Y-51675518D01*
X68489502Y-51555820D01*
X68430537Y-51445506D01*
X68351185Y-51348815D01*
X68254494Y-51269463D01*
X68144180Y-51210498D01*
X68024482Y-51174188D01*
X67900000Y-51161928D01*
X64900000Y-51161928D01*
X64775518Y-51174188D01*
X64655820Y-51210498D01*
X64545506Y-51269463D01*
X64450000Y-51347842D01*
X64354494Y-51269463D01*
X64244180Y-51210498D01*
X64124482Y-51174188D01*
X64000000Y-51161928D01*
X61000000Y-51161928D01*
X60875518Y-51174188D01*
X60755820Y-51210498D01*
X60645506Y-51269463D01*
X60548815Y-51348815D01*
X60469463Y-51445506D01*
X60410498Y-51555820D01*
X60374188Y-51675518D01*
X60361928Y-51800000D01*
X59731900Y-51800000D01*
X59731900Y-47484571D01*
X61757574Y-47484571D01*
X61757574Y-48122663D01*
X61882059Y-48748494D01*
X62126246Y-49338013D01*
X62480751Y-49868567D01*
X62931950Y-50319766D01*
X63462504Y-50674271D01*
X64052023Y-50918458D01*
X64677854Y-51042943D01*
X65315946Y-51042943D01*
X65941777Y-50918458D01*
X66531296Y-50674271D01*
X67061850Y-50319766D01*
X67513049Y-49868567D01*
X67867554Y-49338013D01*
X68111741Y-48748494D01*
X68236226Y-48122663D01*
X68236226Y-47484571D01*
X68111741Y-46858740D01*
X67867554Y-46269221D01*
X67513049Y-45738667D01*
X67061850Y-45287468D01*
X66531296Y-44932963D01*
X65941777Y-44688776D01*
X65315946Y-44564291D01*
X64677854Y-44564291D01*
X64052023Y-44688776D01*
X63462504Y-44932963D01*
X62931950Y-45287468D01*
X62480751Y-45738667D01*
X62126246Y-46269221D01*
X61882059Y-46858740D01*
X61757574Y-47484571D01*
X59731900Y-47484571D01*
X59731900Y-45839562D01*
X59797538Y-45170129D01*
X59981517Y-44560763D01*
X60280349Y-43998742D01*
X60682653Y-43505470D01*
X61173105Y-43099733D01*
X61733028Y-42796983D01*
X62341088Y-42608757D01*
X63045804Y-42534688D01*
X63053348Y-42533139D01*
X63142165Y-42524119D01*
X63279346Y-42482181D01*
X63313170Y-42464045D01*
X75066939Y-42479956D01*
X75067175Y-42479979D01*
X75098500Y-42479998D01*
X75131525Y-42480043D01*
X75131774Y-42480019D01*
X76581400Y-42480912D01*
X76581400Y-42588782D01*
X76581401Y-44406460D01*
X76581253Y-44408040D01*
X76581401Y-44438969D01*
X76581401Y-44469719D01*
X76581556Y-44471289D01*
X76594100Y-47093110D01*
X76594101Y-50965232D01*
X76434693Y-51123275D01*
X76298610Y-51325054D01*
X76204507Y-51549504D01*
X76156000Y-51788000D01*
X76156000Y-52488000D01*
X77264000Y-52488000D01*
X77264000Y-52468000D01*
X77518000Y-52468000D01*
X77518000Y-52488000D01*
X78626000Y-52488000D01*
X78626000Y-51790200D01*
X89354000Y-51790200D01*
X89354000Y-52488000D01*
X90462000Y-52488000D01*
X90462000Y-52468000D01*
X90716000Y-52468000D01*
X90716000Y-52488000D01*
X91824000Y-52488000D01*
X91824000Y-51788000D01*
X91775493Y-51549504D01*
X91681390Y-51325054D01*
X91567268Y-51155838D01*
X91569793Y-51130200D01*
X91566600Y-51097781D01*
X91566600Y-42480701D01*
X92727303Y-42480000D01*
X102140318Y-42480000D01*
X103302200Y-42480701D01*
X103302201Y-51097771D01*
X103299007Y-51130200D01*
X103311750Y-51259583D01*
X103323854Y-51299485D01*
X103306610Y-51325054D01*
X103212507Y-51549504D01*
X103164000Y-51788000D01*
X103164000Y-52488000D01*
X104272000Y-52488000D01*
X104272000Y-52468000D01*
X104526000Y-52468000D01*
X104526000Y-52488000D01*
X105634000Y-52488000D01*
X105634000Y-51790200D01*
X116362000Y-51790200D01*
X116362000Y-52488000D01*
X117470000Y-52488000D01*
X117470000Y-52468000D01*
X117724000Y-52468000D01*
X117724000Y-52488000D01*
X118832000Y-52488000D01*
X118832000Y-51788000D01*
X118783493Y-51549504D01*
X118689390Y-51325054D01*
X118553307Y-51123275D01*
X118380474Y-50951922D01*
X118363600Y-50940752D01*
X118363600Y-47484571D01*
X126757574Y-47484571D01*
X126757574Y-48122663D01*
X126882059Y-48748494D01*
X127126246Y-49338013D01*
X127480751Y-49868567D01*
X127931950Y-50319766D01*
X128462504Y-50674271D01*
X129052023Y-50918458D01*
X129677854Y-51042943D01*
X130315946Y-51042943D01*
X130941777Y-50918458D01*
X131531296Y-50674271D01*
X132061850Y-50319766D01*
X132513049Y-49868567D01*
X132867554Y-49338013D01*
X133111741Y-48748494D01*
X133236226Y-48122663D01*
X133236226Y-47484571D01*
X133111741Y-46858740D01*
X132867554Y-46269221D01*
X132513049Y-45738667D01*
X132061850Y-45287468D01*
X131531296Y-44932963D01*
X130941777Y-44688776D01*
X130315946Y-44564291D01*
X129677854Y-44564291D01*
X129052023Y-44688776D01*
X128462504Y-44932963D01*
X127931950Y-45287468D01*
X127480751Y-45738667D01*
X127126246Y-46269221D01*
X126882059Y-46858740D01*
X126757574Y-47484571D01*
X118363600Y-47484571D01*
X118363600Y-43423802D01*
X118371084Y-42480905D01*
X119735839Y-42480020D01*
X119736066Y-42480042D01*
X119768250Y-42479999D01*
X119800446Y-42479978D01*
X119800673Y-42479955D01*
X131680931Y-42464040D01*
X131774659Y-42504212D01*
G04 #@! TA.AperFunction,Conductor*
D20*
G36*
X131774659Y-42504212D02*
G01*
X131914971Y-42534036D01*
X131925177Y-42535109D01*
X132630388Y-42604255D01*
X133239754Y-42788234D01*
X133801775Y-43087066D01*
X134295047Y-43489370D01*
X134700784Y-43979822D01*
X135003534Y-44539745D01*
X135191760Y-45147805D01*
X135261901Y-45815149D01*
X135261900Y-131767672D01*
X135196262Y-132437106D01*
X135012283Y-133046472D01*
X134713453Y-133608488D01*
X134311150Y-134101762D01*
X133820695Y-134507501D01*
X133260773Y-134810251D01*
X132652711Y-134998477D01*
X131985378Y-135068617D01*
X111310795Y-135068617D01*
X111279396Y-135071710D01*
X111273302Y-135071667D01*
X111263088Y-135072668D01*
X111068991Y-135093069D01*
X111003743Y-135106462D01*
X110938302Y-135118946D01*
X110928477Y-135121912D01*
X110742039Y-135179624D01*
X110680620Y-135205442D01*
X110618862Y-135230394D01*
X110609801Y-135235212D01*
X110460000Y-135316209D01*
X110460000Y-135014801D01*
X115990230Y-129484571D01*
X126757574Y-129484571D01*
X126757574Y-130122663D01*
X126882059Y-130748494D01*
X127126246Y-131338013D01*
X127480751Y-131868567D01*
X127931950Y-132319766D01*
X128462504Y-132674271D01*
X129052023Y-132918458D01*
X129677854Y-133042943D01*
X130315946Y-133042943D01*
X130941777Y-132918458D01*
X131531296Y-132674271D01*
X132061850Y-132319766D01*
X132513049Y-131868567D01*
X132867554Y-131338013D01*
X133111741Y-130748494D01*
X133236226Y-130122663D01*
X133236226Y-129484571D01*
X133111741Y-128858740D01*
X132867554Y-128269221D01*
X132513049Y-127738667D01*
X132061850Y-127287468D01*
X131531296Y-126932963D01*
X130941777Y-126688776D01*
X130315946Y-126564291D01*
X129677854Y-126564291D01*
X129052023Y-126688776D01*
X128462504Y-126932963D01*
X127931950Y-127287468D01*
X127480751Y-127738667D01*
X127126246Y-128269221D01*
X126882059Y-128858740D01*
X126757574Y-129484571D01*
X115990230Y-129484571D01*
X116011004Y-129463798D01*
X116040001Y-129440001D01*
X116134974Y-129324276D01*
X116205546Y-129192247D01*
X116249003Y-129048986D01*
X116260000Y-128937333D01*
X116260000Y-128937325D01*
X116263676Y-128900000D01*
X116260000Y-128862675D01*
X116260000Y-104014801D01*
X129839802Y-90435000D01*
X129901939Y-90435000D01*
X130101898Y-90395226D01*
X130290256Y-90317205D01*
X130459774Y-90203937D01*
X130603937Y-90059774D01*
X130717205Y-89890256D01*
X130795226Y-89701898D01*
X130835000Y-89501939D01*
X130835000Y-89298061D01*
X130795226Y-89098102D01*
X130717205Y-88909744D01*
X130603937Y-88740226D01*
X130459774Y-88596063D01*
X130290256Y-88482795D01*
X130101898Y-88404774D01*
X129901939Y-88365000D01*
X129698061Y-88365000D01*
X129498102Y-88404774D01*
X129309744Y-88482795D01*
X129140226Y-88596063D01*
X128996063Y-88740226D01*
X128882795Y-88909744D01*
X128804774Y-89098102D01*
X128765000Y-89298061D01*
X128765000Y-89360198D01*
X115809990Y-102315209D01*
X115809990Y-100564811D01*
X126139802Y-90235000D01*
X126201939Y-90235000D01*
X126401898Y-90195226D01*
X126590256Y-90117205D01*
X126759774Y-90003937D01*
X126903937Y-89859774D01*
X127017205Y-89690256D01*
X127095226Y-89501898D01*
X127135000Y-89301939D01*
X127135000Y-89098061D01*
X127095226Y-88898102D01*
X127017205Y-88709744D01*
X126903937Y-88540226D01*
X126759774Y-88396063D01*
X126590256Y-88282795D01*
X126401898Y-88204774D01*
X126201939Y-88165000D01*
X126181515Y-88165000D01*
X126117205Y-88009744D01*
X126003937Y-87840226D01*
X125859774Y-87696063D01*
X125690256Y-87582795D01*
X125501898Y-87504774D01*
X125301939Y-87465000D01*
X125098061Y-87465000D01*
X124912033Y-87502003D01*
X124803937Y-87340226D01*
X124659774Y-87196063D01*
X124490256Y-87082795D01*
X124301898Y-87004774D01*
X124101939Y-86965000D01*
X123940093Y-86965000D01*
X123917205Y-86909744D01*
X123803937Y-86740226D01*
X123659774Y-86596063D01*
X123490256Y-86482795D01*
X123301898Y-86404774D01*
X123101939Y-86365000D01*
X122898061Y-86365000D01*
X122698102Y-86404774D01*
X122627295Y-86434103D01*
X122617205Y-86409744D01*
X122503937Y-86240226D01*
X122423711Y-86160000D01*
X128285199Y-86160000D01*
X128365000Y-86239801D01*
X128365000Y-86301939D01*
X128404774Y-86501898D01*
X128482795Y-86690256D01*
X128596063Y-86859774D01*
X128740226Y-87003937D01*
X128909744Y-87117205D01*
X129098102Y-87195226D01*
X129298061Y-87235000D01*
X129501939Y-87235000D01*
X129701898Y-87195226D01*
X129890256Y-87117205D01*
X130059774Y-87003937D01*
X130203937Y-86859774D01*
X130317205Y-86690256D01*
X130395226Y-86501898D01*
X130417750Y-86388660D01*
X130590256Y-86317205D01*
X130759774Y-86203937D01*
X130903937Y-86059774D01*
X131017205Y-85890256D01*
X131040093Y-85835000D01*
X131101939Y-85835000D01*
X131301898Y-85795226D01*
X131490256Y-85717205D01*
X131659774Y-85603937D01*
X131803937Y-85459774D01*
X131917205Y-85290256D01*
X131988660Y-85117750D01*
X132101898Y-85095226D01*
X132290256Y-85017205D01*
X132459774Y-84903937D01*
X132603937Y-84759774D01*
X132640000Y-84705801D01*
X132640000Y-84985197D01*
X131260199Y-86365000D01*
X131198061Y-86365000D01*
X130998102Y-86404774D01*
X130809744Y-86482795D01*
X130640226Y-86596063D01*
X130496063Y-86740226D01*
X130382795Y-86909744D01*
X130304774Y-87098102D01*
X130265000Y-87298061D01*
X130265000Y-87501939D01*
X130304774Y-87701898D01*
X130382795Y-87890256D01*
X130496063Y-88059774D01*
X130640226Y-88203937D01*
X130809744Y-88317205D01*
X130998102Y-88395226D01*
X131198061Y-88435000D01*
X131401939Y-88435000D01*
X131601898Y-88395226D01*
X131790256Y-88317205D01*
X131959774Y-88203937D01*
X132103937Y-88059774D01*
X132217205Y-87890256D01*
X132295226Y-87701898D01*
X132335000Y-87501939D01*
X132335000Y-87439801D01*
X133911009Y-85863794D01*
X133940001Y-85840001D01*
X133963795Y-85811008D01*
X133963799Y-85811004D01*
X134034973Y-85724277D01*
X134034974Y-85724276D01*
X134105546Y-85592247D01*
X134149003Y-85448986D01*
X134160000Y-85337333D01*
X134160000Y-85337324D01*
X134163676Y-85300001D01*
X134160000Y-85262678D01*
X134160000Y-83637325D01*
X134163676Y-83600000D01*
X134160000Y-83562675D01*
X134160000Y-83562667D01*
X134149003Y-83451014D01*
X134105546Y-83307753D01*
X134034974Y-83175724D01*
X133940001Y-83059999D01*
X133911003Y-83036201D01*
X132663804Y-81789003D01*
X132640001Y-81759999D01*
X132524276Y-81665026D01*
X132392247Y-81594454D01*
X132248986Y-81550997D01*
X132137333Y-81540000D01*
X132137322Y-81540000D01*
X132100000Y-81536324D01*
X132062678Y-81540000D01*
X91837322Y-81540000D01*
X91799999Y-81536324D01*
X91762676Y-81540000D01*
X91762667Y-81540000D01*
X91651014Y-81550997D01*
X91507753Y-81594454D01*
X91375724Y-81665026D01*
X91259999Y-81759999D01*
X91236201Y-81788997D01*
X89789002Y-83236197D01*
X89788997Y-83236201D01*
X86860199Y-86165000D01*
X86798061Y-86165000D01*
X86598102Y-86204774D01*
X86409744Y-86282795D01*
X86240226Y-86396063D01*
X86096063Y-86540226D01*
X85982795Y-86709744D01*
X85904774Y-86898102D01*
X85865000Y-87098061D01*
X85865000Y-87301939D01*
X85904774Y-87501898D01*
X85982795Y-87690256D01*
X86096063Y-87859774D01*
X86240226Y-88003937D01*
X86409744Y-88117205D01*
X86598102Y-88195226D01*
X86798061Y-88235000D01*
X87001939Y-88235000D01*
X87201898Y-88195226D01*
X87390256Y-88117205D01*
X87559774Y-88003937D01*
X87703937Y-87859774D01*
X87817205Y-87690256D01*
X87895226Y-87501898D01*
X87935000Y-87301939D01*
X87935000Y-87239801D01*
X90863799Y-84311003D01*
X90863803Y-84310998D01*
X92114802Y-83060000D01*
X116565198Y-83060000D01*
X107700514Y-91924685D01*
X107695226Y-91898102D01*
X107617205Y-91709744D01*
X107503937Y-91540226D01*
X107359774Y-91396063D01*
X107190256Y-91282795D01*
X107031959Y-91217226D01*
X107035000Y-91201939D01*
X107035000Y-90998061D01*
X106995226Y-90798102D01*
X106917205Y-90609744D01*
X106803937Y-90440226D01*
X106659774Y-90296063D01*
X106490256Y-90182795D01*
X106301898Y-90104774D01*
X106101939Y-90065000D01*
X105898061Y-90065000D01*
X105698102Y-90104774D01*
X105509744Y-90182795D01*
X105340226Y-90296063D01*
X105196063Y-90440226D01*
X105082795Y-90609744D01*
X105004774Y-90798102D01*
X104965000Y-90998061D01*
X104965000Y-91075774D01*
X104918554Y-91162667D01*
X104894455Y-91207753D01*
X104850998Y-91351014D01*
X104840001Y-91462667D01*
X104840001Y-91462677D01*
X104836325Y-91499999D01*
X104840001Y-91537321D01*
X104840001Y-91772571D01*
X104801939Y-91765000D01*
X104598061Y-91765000D01*
X104447214Y-91795005D01*
X104517205Y-91690256D01*
X104595226Y-91501898D01*
X104635000Y-91301939D01*
X104635000Y-91098061D01*
X104595226Y-90898102D01*
X104517205Y-90709744D01*
X104403937Y-90540226D01*
X104259774Y-90396063D01*
X104090256Y-90282795D01*
X103901898Y-90204774D01*
X103701939Y-90165000D01*
X103498061Y-90165000D01*
X103298102Y-90204774D01*
X103109744Y-90282795D01*
X102940226Y-90396063D01*
X102796063Y-90540226D01*
X102750000Y-90609164D01*
X102703937Y-90540226D01*
X102559774Y-90396063D01*
X102390256Y-90282795D01*
X102201898Y-90204774D01*
X102001939Y-90165000D01*
X101798061Y-90165000D01*
X101598102Y-90204774D01*
X101409744Y-90282795D01*
X101240226Y-90396063D01*
X101096063Y-90540226D01*
X100982795Y-90709744D01*
X100904774Y-90898102D01*
X100865000Y-91098061D01*
X100865000Y-91301939D01*
X100904774Y-91501898D01*
X100982795Y-91690256D01*
X101096063Y-91859774D01*
X101125958Y-91889669D01*
X101001939Y-91865000D01*
X100798061Y-91865000D01*
X100598102Y-91904774D01*
X100409744Y-91982795D01*
X100240226Y-92096063D01*
X100160000Y-92176289D01*
X100160000Y-91703711D01*
X100203937Y-91659774D01*
X100317205Y-91490256D01*
X100395226Y-91301898D01*
X100435000Y-91101939D01*
X100435000Y-90898061D01*
X100395226Y-90698102D01*
X100317205Y-90509744D01*
X100203937Y-90340226D01*
X100059774Y-90196063D01*
X99890256Y-90082795D01*
X99701898Y-90004774D01*
X99501939Y-89965000D01*
X99298061Y-89965000D01*
X99190386Y-89986418D01*
X99117205Y-89809744D01*
X99003937Y-89640226D01*
X98859774Y-89496063D01*
X98690256Y-89382795D01*
X98501898Y-89304774D01*
X98301939Y-89265000D01*
X98098061Y-89265000D01*
X97898102Y-89304774D01*
X97709744Y-89382795D01*
X97540226Y-89496063D01*
X97396063Y-89640226D01*
X97282795Y-89809744D01*
X97204774Y-89998102D01*
X97165000Y-90198061D01*
X97165000Y-90401939D01*
X97204774Y-90601898D01*
X97282795Y-90790256D01*
X97396063Y-90959774D01*
X97540001Y-91103712D01*
X97540000Y-121585198D01*
X88378998Y-130746201D01*
X88350000Y-130769999D01*
X88326202Y-130798997D01*
X88326201Y-130798998D01*
X88255026Y-130885724D01*
X88184454Y-131017754D01*
X88164930Y-131082119D01*
X88140998Y-131161014D01*
X88131056Y-131261958D01*
X88126324Y-131310000D01*
X88130001Y-131347332D01*
X88130000Y-139445628D01*
X88050000Y-139445628D01*
X88050000Y-124427325D01*
X88053676Y-124390000D01*
X88050000Y-124352675D01*
X88050000Y-124352667D01*
X88039003Y-124241014D01*
X87995546Y-124097753D01*
X87924974Y-123965724D01*
X87830001Y-123849999D01*
X87801003Y-123826201D01*
X86913808Y-122939007D01*
X86913799Y-122938996D01*
X75060000Y-111085199D01*
X75060000Y-109195757D01*
X81632244Y-109195757D01*
X81632244Y-109456483D01*
X81683109Y-109712199D01*
X81782885Y-109953078D01*
X81927736Y-110169863D01*
X82112097Y-110354224D01*
X82328882Y-110499075D01*
X82569761Y-110598851D01*
X82825477Y-110649716D01*
X83086203Y-110649716D01*
X83341919Y-110598851D01*
X83582798Y-110499075D01*
X83799583Y-110354224D01*
X83983944Y-110169863D01*
X84128795Y-109953078D01*
X84228571Y-109712199D01*
X84279436Y-109456483D01*
X84279436Y-109195757D01*
X84228571Y-108940041D01*
X84128795Y-108699162D01*
X83983944Y-108482377D01*
X83799583Y-108298016D01*
X83582798Y-108153165D01*
X83341919Y-108053389D01*
X83086203Y-108002524D01*
X82825477Y-108002524D01*
X82569761Y-108053389D01*
X82328882Y-108153165D01*
X82112097Y-108298016D01*
X81927736Y-108482377D01*
X81782885Y-108699162D01*
X81683109Y-108940041D01*
X81632244Y-109195757D01*
X75060000Y-109195757D01*
X75060000Y-103537323D01*
X75063676Y-103500000D01*
X75060000Y-103462677D01*
X75060000Y-103462667D01*
X75049003Y-103351014D01*
X75005546Y-103207753D01*
X74980021Y-103159999D01*
X74934974Y-103075723D01*
X74863799Y-102988997D01*
X74840001Y-102959999D01*
X74811004Y-102936202D01*
X72535000Y-100660199D01*
X72535000Y-100598061D01*
X72495226Y-100398102D01*
X72417205Y-100209744D01*
X72303937Y-100040226D01*
X72159774Y-99896063D01*
X71990256Y-99782795D01*
X71801898Y-99704774D01*
X71601939Y-99665000D01*
X71398061Y-99665000D01*
X71198102Y-99704774D01*
X71009744Y-99782795D01*
X70840226Y-99896063D01*
X70696063Y-100040226D01*
X70582795Y-100209744D01*
X70504774Y-100398102D01*
X70465000Y-100598061D01*
X70465000Y-100801939D01*
X70504774Y-101001898D01*
X70582795Y-101190256D01*
X70696063Y-101359774D01*
X70840226Y-101503937D01*
X71009744Y-101617205D01*
X71198102Y-101695226D01*
X71398061Y-101735000D01*
X71460199Y-101735000D01*
X73540000Y-103814802D01*
X73540001Y-111162657D01*
X73540000Y-111162667D01*
X73540000Y-111362678D01*
X73536324Y-111400000D01*
X73540000Y-111437322D01*
X73540000Y-111437332D01*
X73550997Y-111548985D01*
X73573836Y-111624276D01*
X73594454Y-111692246D01*
X73665026Y-111824276D01*
X73673806Y-111834974D01*
X73759999Y-111940001D01*
X73789003Y-111963804D01*
X85838996Y-124013799D01*
X85839007Y-124013808D01*
X86530001Y-124704803D01*
X86530000Y-134355199D01*
X85063804Y-132889003D01*
X85040001Y-132859999D01*
X84924276Y-132765026D01*
X84792247Y-132694454D01*
X84648986Y-132650997D01*
X84537333Y-132640000D01*
X84537322Y-132640000D01*
X84500000Y-132636324D01*
X84462678Y-132640000D01*
X76424776Y-132640000D01*
X76421008Y-132601745D01*
X76370472Y-132435149D01*
X76288405Y-132281613D01*
X76177962Y-132147038D01*
X76043387Y-132036595D01*
X75889851Y-131954528D01*
X75723255Y-131903992D01*
X75550001Y-131886928D01*
X74849999Y-131886928D01*
X74676745Y-131903992D01*
X74510149Y-131954528D01*
X74356613Y-132036595D01*
X74222038Y-132147038D01*
X74111595Y-132281613D01*
X74109191Y-132286111D01*
X74077502Y-132247498D01*
X73889449Y-132093167D01*
X73674901Y-131978489D01*
X73442102Y-131907870D01*
X73200000Y-131884025D01*
X72957899Y-131907870D01*
X72725100Y-131978489D01*
X72510552Y-132093167D01*
X72322499Y-132247498D01*
X72168168Y-132435551D01*
X72053489Y-132650099D01*
X71982870Y-132882898D01*
X71965000Y-133064335D01*
X71965000Y-133735664D01*
X71982870Y-133917101D01*
X72053489Y-134149900D01*
X72168167Y-134364448D01*
X72322498Y-134552502D01*
X72510551Y-134706833D01*
X72725099Y-134821511D01*
X72957898Y-134892130D01*
X73200000Y-134915975D01*
X73442101Y-134892130D01*
X73674900Y-134821511D01*
X73889448Y-134706833D01*
X74077502Y-134552502D01*
X74109191Y-134513889D01*
X74111595Y-134518387D01*
X74222038Y-134652962D01*
X74356613Y-134763405D01*
X74510149Y-134845472D01*
X74676745Y-134896008D01*
X74849999Y-134913072D01*
X75550001Y-134913072D01*
X75723255Y-134896008D01*
X75889851Y-134845472D01*
X76043387Y-134763405D01*
X76177962Y-134652962D01*
X76288405Y-134518387D01*
X76370472Y-134364851D01*
X76421008Y-134198255D01*
X76424776Y-134160000D01*
X84185199Y-134160000D01*
X85730001Y-135704803D01*
X85730000Y-139643256D01*
X85659463Y-139729206D01*
X85600498Y-139839520D01*
X85564188Y-139959218D01*
X85551928Y-140083700D01*
X85551928Y-141746772D01*
X85547260Y-141745363D01*
X85502201Y-141721405D01*
X85462654Y-141689151D01*
X85430127Y-141649832D01*
X85405857Y-141604946D01*
X85390765Y-141556190D01*
X85381900Y-141471852D01*
X85381900Y-136767512D01*
X85378807Y-136736113D01*
X85378850Y-136730019D01*
X85377849Y-136719805D01*
X85357448Y-136525708D01*
X85344055Y-136460460D01*
X85331571Y-136395019D01*
X85328605Y-136385194D01*
X85270893Y-136198756D01*
X85245075Y-136137337D01*
X85220123Y-136075579D01*
X85215305Y-136066518D01*
X85122480Y-135894841D01*
X85085215Y-135839594D01*
X85048750Y-135783869D01*
X85042264Y-135775916D01*
X84917860Y-135625538D01*
X84870554Y-135578561D01*
X84823983Y-135531004D01*
X84816076Y-135524462D01*
X84664834Y-135401112D01*
X84609315Y-135364225D01*
X84554380Y-135326611D01*
X84545353Y-135321729D01*
X84373031Y-135230104D01*
X84311404Y-135204703D01*
X84250211Y-135178476D01*
X84240408Y-135175441D01*
X84053572Y-135119032D01*
X83988180Y-135106084D01*
X83923064Y-135092243D01*
X83912858Y-135091170D01*
X83718624Y-135072125D01*
X83718623Y-135072125D01*
X83683005Y-135068617D01*
X63032845Y-135068617D01*
X62363411Y-135002979D01*
X61754045Y-134819000D01*
X61192029Y-134520170D01*
X60698755Y-134117867D01*
X60293016Y-133627412D01*
X59990266Y-133067490D01*
X59802040Y-132459428D01*
X59731900Y-131792095D01*
X59731900Y-107800000D01*
X60461928Y-107800000D01*
X60461928Y-110800000D01*
X60474188Y-110924482D01*
X60510498Y-111044180D01*
X60569463Y-111154494D01*
X60648815Y-111251185D01*
X60745506Y-111330537D01*
X60855820Y-111389502D01*
X60975518Y-111425812D01*
X61100000Y-111438072D01*
X61840000Y-111438072D01*
X61840001Y-113862668D01*
X61836324Y-113900000D01*
X61850998Y-114048985D01*
X61894454Y-114192246D01*
X61965026Y-114324276D01*
X62036201Y-114411002D01*
X62060000Y-114440001D01*
X62088998Y-114463799D01*
X65640000Y-118014802D01*
X65640001Y-122161928D01*
X64900000Y-122161928D01*
X64775518Y-122174188D01*
X64655820Y-122210498D01*
X64545506Y-122269463D01*
X64500000Y-122306809D01*
X64454494Y-122269463D01*
X64344180Y-122210498D01*
X64224482Y-122174188D01*
X64100000Y-122161928D01*
X63401783Y-122161928D01*
X63403937Y-122159774D01*
X63517205Y-121990256D01*
X63595226Y-121801898D01*
X63635000Y-121601939D01*
X63635000Y-121398061D01*
X63595226Y-121198102D01*
X63517205Y-121009744D01*
X63403937Y-120840226D01*
X63259774Y-120696063D01*
X63090256Y-120582795D01*
X62901898Y-120504774D01*
X62701939Y-120465000D01*
X62498061Y-120465000D01*
X62298102Y-120504774D01*
X62109744Y-120582795D01*
X61940226Y-120696063D01*
X61796063Y-120840226D01*
X61682795Y-121009744D01*
X61604774Y-121198102D01*
X61565000Y-121398061D01*
X61565000Y-121601939D01*
X61604774Y-121801898D01*
X61682795Y-121990256D01*
X61796063Y-122159774D01*
X61798217Y-122161928D01*
X61100000Y-122161928D01*
X60975518Y-122174188D01*
X60855820Y-122210498D01*
X60745506Y-122269463D01*
X60648815Y-122348815D01*
X60569463Y-122445506D01*
X60510498Y-122555820D01*
X60474188Y-122675518D01*
X60461928Y-122800000D01*
X60461928Y-125800000D01*
X60474188Y-125924482D01*
X60510498Y-126044180D01*
X60569463Y-126154494D01*
X60648815Y-126251185D01*
X60745506Y-126330537D01*
X60855820Y-126389502D01*
X60975518Y-126425812D01*
X61100000Y-126438072D01*
X62058417Y-126438072D01*
X62060000Y-126440001D01*
X62088998Y-126463799D01*
X62922308Y-127297110D01*
X62480751Y-127738667D01*
X62126246Y-128269221D01*
X61882059Y-128858740D01*
X61757574Y-129484571D01*
X61757574Y-130122663D01*
X61882059Y-130748494D01*
X62126246Y-131338013D01*
X62480751Y-131868567D01*
X62931950Y-132319766D01*
X63462504Y-132674271D01*
X64052023Y-132918458D01*
X64677854Y-133042943D01*
X65315946Y-133042943D01*
X65941777Y-132918458D01*
X66531296Y-132674271D01*
X67061850Y-132319766D01*
X67513049Y-131868567D01*
X67867554Y-131338013D01*
X68111741Y-130748494D01*
X68236226Y-130122663D01*
X68236226Y-129484571D01*
X68193135Y-129267937D01*
X68836200Y-129911002D01*
X68859999Y-129940001D01*
X68975724Y-130034974D01*
X69107753Y-130105546D01*
X69251014Y-130149003D01*
X69362667Y-130160000D01*
X69362675Y-130160000D01*
X69400000Y-130163676D01*
X69437325Y-130160000D01*
X79285199Y-130160000D01*
X80165000Y-131039802D01*
X80165000Y-131101939D01*
X80204774Y-131301898D01*
X80282795Y-131490256D01*
X80396063Y-131659774D01*
X80540226Y-131803937D01*
X80709744Y-131917205D01*
X80898102Y-131995226D01*
X81098061Y-132035000D01*
X81301939Y-132035000D01*
X81501898Y-131995226D01*
X81690256Y-131917205D01*
X81859774Y-131803937D01*
X82003937Y-131659774D01*
X82117205Y-131490256D01*
X82195226Y-131301898D01*
X82235000Y-131101939D01*
X82235000Y-130898061D01*
X82195226Y-130698102D01*
X82117205Y-130509744D01*
X82003937Y-130340226D01*
X81859774Y-130196063D01*
X81690256Y-130082795D01*
X81501898Y-130004774D01*
X81301939Y-129965000D01*
X81239802Y-129965000D01*
X80196317Y-128921516D01*
X80217205Y-128890256D01*
X80295226Y-128701898D01*
X80335000Y-128501939D01*
X80335000Y-128298061D01*
X80295226Y-128098102D01*
X80217205Y-127909744D01*
X80103937Y-127740226D01*
X79959774Y-127596063D01*
X79790256Y-127482795D01*
X79601898Y-127404774D01*
X79401939Y-127365000D01*
X79198061Y-127365000D01*
X78998102Y-127404774D01*
X78809744Y-127482795D01*
X78640226Y-127596063D01*
X78596289Y-127640000D01*
X69814802Y-127640000D01*
X68384902Y-126210101D01*
X68430537Y-126154494D01*
X68489502Y-126044180D01*
X68525812Y-125924482D01*
X68538072Y-125800000D01*
X68538072Y-122800000D01*
X68525812Y-122675518D01*
X68489502Y-122555820D01*
X68430537Y-122445506D01*
X68351185Y-122348815D01*
X68254494Y-122269463D01*
X68144180Y-122210498D01*
X68024482Y-122174188D01*
X67900000Y-122161928D01*
X67160000Y-122161928D01*
X67160000Y-117737333D01*
X67163677Y-117700000D01*
X67149003Y-117551014D01*
X67105546Y-117407753D01*
X67034974Y-117275724D01*
X66963799Y-117188997D01*
X66940001Y-117159999D01*
X66911004Y-117136202D01*
X63360000Y-113585199D01*
X63360000Y-111438072D01*
X64100000Y-111438072D01*
X64224482Y-111425812D01*
X64344180Y-111389502D01*
X64454494Y-111330537D01*
X64500000Y-111293191D01*
X64545506Y-111330537D01*
X64655820Y-111389502D01*
X64775518Y-111425812D01*
X64900000Y-111438072D01*
X65540000Y-111438072D01*
X65540000Y-112496289D01*
X65496063Y-112540226D01*
X65382795Y-112709744D01*
X65304774Y-112898102D01*
X65265000Y-113098061D01*
X65265000Y-113301939D01*
X65304774Y-113501898D01*
X65382795Y-113690256D01*
X65496063Y-113859774D01*
X65640226Y-114003937D01*
X65809744Y-114117205D01*
X65998102Y-114195226D01*
X66198061Y-114235000D01*
X66401939Y-114235000D01*
X66601898Y-114195226D01*
X66790256Y-114117205D01*
X66959774Y-114003937D01*
X67103937Y-113859774D01*
X67217205Y-113690256D01*
X67295226Y-113501898D01*
X67335000Y-113301939D01*
X67335000Y-113098061D01*
X67295226Y-112898102D01*
X67217205Y-112709744D01*
X67103937Y-112540226D01*
X67060000Y-112496289D01*
X67060000Y-111438072D01*
X67900000Y-111438072D01*
X68024482Y-111425812D01*
X68144180Y-111389502D01*
X68254494Y-111330537D01*
X68351185Y-111251185D01*
X68430537Y-111154494D01*
X68489502Y-111044180D01*
X68525812Y-110924482D01*
X68538072Y-110800000D01*
X68538072Y-107800000D01*
X68525812Y-107675518D01*
X68489502Y-107555820D01*
X68430537Y-107445506D01*
X68351185Y-107348815D01*
X68254494Y-107269463D01*
X68144180Y-107210498D01*
X68024482Y-107174188D01*
X67900000Y-107161928D01*
X64900000Y-107161928D01*
X64775518Y-107174188D01*
X64655820Y-107210498D01*
X64545506Y-107269463D01*
X64500000Y-107306809D01*
X64454494Y-107269463D01*
X64344180Y-107210498D01*
X64224482Y-107174188D01*
X64100000Y-107161928D01*
X61100000Y-107161928D01*
X60975518Y-107174188D01*
X60855820Y-107210498D01*
X60745506Y-107269463D01*
X60648815Y-107348815D01*
X60569463Y-107445506D01*
X60510498Y-107555820D01*
X60474188Y-107675518D01*
X60461928Y-107800000D01*
X59731900Y-107800000D01*
X59731900Y-51800000D01*
X60361928Y-51800000D01*
X60361928Y-54800000D01*
X60374188Y-54924482D01*
X60410498Y-55044180D01*
X60469463Y-55154494D01*
X60548815Y-55251185D01*
X60645506Y-55330537D01*
X60755820Y-55389502D01*
X60875518Y-55425812D01*
X61000000Y-55438072D01*
X61740000Y-55438072D01*
X61740001Y-59062668D01*
X61736324Y-59100000D01*
X61750998Y-59248985D01*
X61794454Y-59392246D01*
X61865026Y-59524276D01*
X61936201Y-59611002D01*
X61960000Y-59640001D01*
X61988998Y-59663799D01*
X65640000Y-63314802D01*
X65640001Y-66161928D01*
X64900000Y-66161928D01*
X64775518Y-66174188D01*
X64655820Y-66210498D01*
X64545506Y-66269463D01*
X64500000Y-66306809D01*
X64454494Y-66269463D01*
X64344180Y-66210498D01*
X64224482Y-66174188D01*
X64100000Y-66161928D01*
X63360000Y-66161928D01*
X63360000Y-66103711D01*
X63403937Y-66059774D01*
X63517205Y-65890256D01*
X63595226Y-65701898D01*
X63635000Y-65501939D01*
X63635000Y-65298061D01*
X63595226Y-65098102D01*
X63517205Y-64909744D01*
X63403937Y-64740226D01*
X63259774Y-64596063D01*
X63090256Y-64482795D01*
X62901898Y-64404774D01*
X62701939Y-64365000D01*
X62498061Y-64365000D01*
X62298102Y-64404774D01*
X62109744Y-64482795D01*
X61940226Y-64596063D01*
X61796063Y-64740226D01*
X61682795Y-64909744D01*
X61604774Y-65098102D01*
X61565000Y-65298061D01*
X61565000Y-65501939D01*
X61604774Y-65701898D01*
X61682795Y-65890256D01*
X61796063Y-66059774D01*
X61840001Y-66103712D01*
X61840001Y-66161928D01*
X61100000Y-66161928D01*
X60975518Y-66174188D01*
X60855820Y-66210498D01*
X60745506Y-66269463D01*
X60648815Y-66348815D01*
X60569463Y-66445506D01*
X60510498Y-66555820D01*
X60474188Y-66675518D01*
X60461928Y-66800000D01*
X60461928Y-69800000D01*
X60474188Y-69924482D01*
X60510498Y-70044180D01*
X60569463Y-70154494D01*
X60648815Y-70251185D01*
X60745506Y-70330537D01*
X60855820Y-70389502D01*
X60975518Y-70425812D01*
X61100000Y-70438072D01*
X61840000Y-70438072D01*
X61840001Y-76062668D01*
X61836324Y-76100000D01*
X61840001Y-76137333D01*
X61850998Y-76248986D01*
X61862854Y-76288072D01*
X61894454Y-76392246D01*
X61965026Y-76524276D01*
X61993372Y-76558815D01*
X62060000Y-76640001D01*
X62088998Y-76663799D01*
X93340000Y-107914802D01*
X93340001Y-109796288D01*
X93296063Y-109840226D01*
X93182795Y-110009744D01*
X93104774Y-110198102D01*
X93065000Y-110398061D01*
X93065000Y-110601939D01*
X93104774Y-110801898D01*
X93182795Y-110990256D01*
X93296063Y-111159774D01*
X93440226Y-111303937D01*
X93609744Y-111417205D01*
X93798102Y-111495226D01*
X93998061Y-111535000D01*
X94201939Y-111535000D01*
X94401898Y-111495226D01*
X94590256Y-111417205D01*
X94759774Y-111303937D01*
X94903937Y-111159774D01*
X95017205Y-110990256D01*
X95095226Y-110801898D01*
X95135000Y-110601939D01*
X95135000Y-110398061D01*
X95095226Y-110198102D01*
X95017205Y-110009744D01*
X94903937Y-109840226D01*
X94860000Y-109796289D01*
X94860000Y-107637322D01*
X94863676Y-107599999D01*
X94860000Y-107562676D01*
X94860000Y-107562667D01*
X94849003Y-107451014D01*
X94805546Y-107307753D01*
X94734974Y-107175724D01*
X94640001Y-107059999D01*
X94611004Y-107036202D01*
X93050176Y-105475374D01*
X93098102Y-105495226D01*
X93298061Y-105535000D01*
X93501939Y-105535000D01*
X93701898Y-105495226D01*
X93890256Y-105417205D01*
X94059774Y-105303937D01*
X94203937Y-105159774D01*
X94317205Y-104990256D01*
X94395226Y-104801898D01*
X94435000Y-104601939D01*
X94435000Y-104398061D01*
X94395226Y-104198102D01*
X94317205Y-104009744D01*
X94203937Y-103840226D01*
X94059774Y-103696063D01*
X93890256Y-103582795D01*
X93701898Y-103504774D01*
X93501939Y-103465000D01*
X93439802Y-103465000D01*
X67522863Y-77548061D01*
X84915000Y-77548061D01*
X84915000Y-77751939D01*
X84954774Y-77951898D01*
X85032795Y-78140256D01*
X85146063Y-78309774D01*
X85290226Y-78453937D01*
X85459744Y-78567205D01*
X85648102Y-78645226D01*
X85848061Y-78685000D01*
X86051939Y-78685000D01*
X86251898Y-78645226D01*
X86440256Y-78567205D01*
X86609774Y-78453937D01*
X86653711Y-78410000D01*
X87012678Y-78410000D01*
X87050000Y-78413676D01*
X87087322Y-78410000D01*
X87087333Y-78410000D01*
X87198986Y-78399003D01*
X87342247Y-78355546D01*
X87474276Y-78284974D01*
X87590001Y-78190001D01*
X87613804Y-78160997D01*
X91676740Y-74098061D01*
X92840000Y-74098061D01*
X92840000Y-74301939D01*
X92879774Y-74501898D01*
X92957795Y-74690256D01*
X93071063Y-74859774D01*
X93215226Y-75003937D01*
X93384744Y-75117205D01*
X93573102Y-75195226D01*
X93773061Y-75235000D01*
X93976939Y-75235000D01*
X94176898Y-75195226D01*
X94365256Y-75117205D01*
X94400000Y-75093990D01*
X94434744Y-75117205D01*
X94623102Y-75195226D01*
X94823061Y-75235000D01*
X95026939Y-75235000D01*
X95226898Y-75195226D01*
X95415256Y-75117205D01*
X95584774Y-75003937D01*
X95728937Y-74859774D01*
X95842205Y-74690256D01*
X95920226Y-74501898D01*
X95960000Y-74301939D01*
X95960000Y-74098061D01*
X95920226Y-73898102D01*
X95900460Y-73850383D01*
X98510843Y-71240000D01*
X100371928Y-71240000D01*
X100371928Y-72740000D01*
X100384188Y-72864482D01*
X100420498Y-72984180D01*
X100479463Y-73094494D01*
X100558815Y-73191185D01*
X100655506Y-73270537D01*
X100765820Y-73329502D01*
X100885518Y-73365812D01*
X101010000Y-73378072D01*
X102510000Y-73378072D01*
X102634482Y-73365812D01*
X102754180Y-73329502D01*
X102864494Y-73270537D01*
X102961185Y-73191185D01*
X103040537Y-73094494D01*
X103099502Y-72984180D01*
X103135812Y-72864482D01*
X103147087Y-72750000D01*
X108825199Y-72750000D01*
X108165199Y-73410000D01*
X103907323Y-73410000D01*
X103870000Y-73406324D01*
X103832677Y-73410000D01*
X103832667Y-73410000D01*
X103721014Y-73420997D01*
X103577753Y-73464454D01*
X103445723Y-73535026D01*
X103414686Y-73560498D01*
X103329999Y-73629999D01*
X103306201Y-73658998D01*
X103092042Y-73873156D01*
X103050537Y-73795506D01*
X102971185Y-73698815D01*
X102874494Y-73619463D01*
X102764180Y-73560498D01*
X102644482Y-73524188D01*
X102520000Y-73511928D01*
X101020000Y-73511928D01*
X100895518Y-73524188D01*
X100775820Y-73560498D01*
X100665506Y-73619463D01*
X100568815Y-73698815D01*
X100489463Y-73795506D01*
X100430498Y-73905820D01*
X100394188Y-74025518D01*
X100381928Y-74150000D01*
X100381928Y-75650000D01*
X100394188Y-75774482D01*
X100430498Y-75894180D01*
X100489463Y-76004494D01*
X100568815Y-76101185D01*
X100665506Y-76180537D01*
X100775820Y-76239502D01*
X100895518Y-76275812D01*
X101020000Y-76288072D01*
X102520000Y-76288072D01*
X102644482Y-76275812D01*
X102764180Y-76239502D01*
X102874494Y-76180537D01*
X102971185Y-76101185D01*
X103050537Y-76004494D01*
X103109502Y-75894180D01*
X103145812Y-75774482D01*
X103156889Y-75662013D01*
X103177322Y-75660000D01*
X103177333Y-75660000D01*
X103288986Y-75649003D01*
X103432247Y-75605546D01*
X103564276Y-75534974D01*
X103680001Y-75440001D01*
X103703803Y-75410998D01*
X104184802Y-74930000D01*
X106075198Y-74930000D01*
X104633271Y-76371928D01*
X103650000Y-76371928D01*
X103525518Y-76384188D01*
X103405820Y-76420498D01*
X103295506Y-76479463D01*
X103198815Y-76558815D01*
X103119463Y-76655506D01*
X103060498Y-76765820D01*
X103024188Y-76885518D01*
X103011928Y-77010000D01*
X103011928Y-78510000D01*
X103024188Y-78634482D01*
X103060498Y-78754180D01*
X103119463Y-78864494D01*
X103198815Y-78961185D01*
X103295506Y-79040537D01*
X103405820Y-79099502D01*
X103525518Y-79135812D01*
X103650000Y-79148072D01*
X105150000Y-79148072D01*
X105274482Y-79135812D01*
X105394180Y-79099502D01*
X105504494Y-79040537D01*
X105601185Y-78961185D01*
X105680537Y-78864494D01*
X105739502Y-78754180D01*
X105775812Y-78634482D01*
X105788072Y-78510000D01*
X105788072Y-77366729D01*
X105911928Y-77242873D01*
X105911928Y-78530000D01*
X105924188Y-78654482D01*
X105960498Y-78774180D01*
X106019463Y-78884494D01*
X106098815Y-78981185D01*
X106195506Y-79060537D01*
X106305820Y-79119502D01*
X106425518Y-79155812D01*
X106550000Y-79168072D01*
X108050000Y-79168072D01*
X108174482Y-79155812D01*
X108294180Y-79119502D01*
X108404494Y-79060537D01*
X108501185Y-78981185D01*
X108580537Y-78884494D01*
X108639502Y-78774180D01*
X108675812Y-78654482D01*
X108688072Y-78530000D01*
X108688072Y-78517147D01*
X108792247Y-78485546D01*
X108924276Y-78414974D01*
X109040001Y-78320001D01*
X109063804Y-78290997D01*
X114369802Y-72985000D01*
X114431939Y-72985000D01*
X114631898Y-72945226D01*
X114820256Y-72867205D01*
X114989774Y-72753937D01*
X115133937Y-72609774D01*
X115247205Y-72440256D01*
X115325226Y-72251898D01*
X115337923Y-72188061D01*
X116035000Y-72188061D01*
X116035000Y-72391939D01*
X116074774Y-72591898D01*
X116152795Y-72780256D01*
X116266063Y-72949774D01*
X116410226Y-73093937D01*
X116579744Y-73207205D01*
X116768102Y-73285226D01*
X116968061Y-73325000D01*
X117171939Y-73325000D01*
X117371898Y-73285226D01*
X117560256Y-73207205D01*
X117729774Y-73093937D01*
X117873937Y-72949774D01*
X117987205Y-72780256D01*
X118065226Y-72591898D01*
X118105000Y-72391939D01*
X118105000Y-72188061D01*
X118065226Y-71988102D01*
X117987205Y-71799744D01*
X117873937Y-71630226D01*
X117830000Y-71586289D01*
X117830000Y-68964801D01*
X120214803Y-66580000D01*
X121836289Y-66580000D01*
X121880226Y-66623937D01*
X122049744Y-66737205D01*
X122238102Y-66815226D01*
X122438061Y-66855000D01*
X122641939Y-66855000D01*
X122841898Y-66815226D01*
X123030256Y-66737205D01*
X123199774Y-66623937D01*
X123343937Y-66479774D01*
X123457205Y-66310256D01*
X123535226Y-66121898D01*
X123575000Y-65921939D01*
X123575000Y-65718061D01*
X123535226Y-65518102D01*
X123457205Y-65329744D01*
X123343937Y-65160226D01*
X123209761Y-65026050D01*
X123225000Y-64949439D01*
X123225000Y-64745561D01*
X123185226Y-64545602D01*
X123107205Y-64357244D01*
X122993937Y-64187726D01*
X122849774Y-64043563D01*
X122680256Y-63930295D01*
X122491898Y-63852274D01*
X122291939Y-63812500D01*
X122088061Y-63812500D01*
X121888102Y-63852274D01*
X121699744Y-63930295D01*
X121530226Y-64043563D01*
X121486289Y-64087500D01*
X119519822Y-64087500D01*
X119482499Y-64083824D01*
X119445177Y-64087500D01*
X119445167Y-64087500D01*
X119333514Y-64098497D01*
X119190253Y-64141954D01*
X119058223Y-64212526D01*
X119011593Y-64250795D01*
X118942499Y-64307499D01*
X118918701Y-64336497D01*
X117340199Y-65915000D01*
X117278061Y-65915000D01*
X117078102Y-65954774D01*
X116889744Y-66032795D01*
X116720226Y-66146063D01*
X116576063Y-66290226D01*
X116462795Y-66459744D01*
X116384774Y-66648102D01*
X116345000Y-66848061D01*
X116345000Y-67051939D01*
X116384774Y-67251898D01*
X116462795Y-67440256D01*
X116576063Y-67609774D01*
X116720226Y-67753937D01*
X116822755Y-67822444D01*
X116559003Y-68086196D01*
X116529999Y-68109999D01*
X116476161Y-68175602D01*
X116435026Y-68225724D01*
X116380083Y-68328514D01*
X116364454Y-68357754D01*
X116320997Y-68501015D01*
X116310000Y-68612668D01*
X116310000Y-68612678D01*
X116306324Y-68650000D01*
X116310000Y-68687323D01*
X116310001Y-71586288D01*
X116266063Y-71630226D01*
X116152795Y-71799744D01*
X116074774Y-71988102D01*
X116035000Y-72188061D01*
X115337923Y-72188061D01*
X115365000Y-72051939D01*
X115365000Y-71848061D01*
X115325226Y-71648102D01*
X115247205Y-71459744D01*
X115133937Y-71290226D01*
X114989774Y-71146063D01*
X114820256Y-71032795D01*
X114631898Y-70954774D01*
X114431939Y-70915000D01*
X114265000Y-70915000D01*
X114265000Y-70728061D01*
X114225226Y-70528102D01*
X114147205Y-70339744D01*
X114033937Y-70170226D01*
X113889774Y-70026063D01*
X113720256Y-69912795D01*
X113531898Y-69834774D01*
X113331939Y-69795000D01*
X113128061Y-69795000D01*
X112928102Y-69834774D01*
X112772810Y-69899099D01*
X112759805Y-69886094D01*
X112837205Y-69770256D01*
X112915226Y-69581898D01*
X112929030Y-69512500D01*
X113101939Y-69512500D01*
X113301898Y-69472726D01*
X113490256Y-69394705D01*
X113659774Y-69281437D01*
X113803937Y-69137274D01*
X113917205Y-68967756D01*
X113995226Y-68779398D01*
X114035000Y-68579439D01*
X114035000Y-68375561D01*
X113995226Y-68175602D01*
X113917205Y-67987244D01*
X113803937Y-67817726D01*
X113659774Y-67673563D01*
X113490256Y-67560295D01*
X113301898Y-67482274D01*
X113101939Y-67442500D01*
X112898061Y-67442500D01*
X112698102Y-67482274D01*
X112509744Y-67560295D01*
X112340226Y-67673563D01*
X112296289Y-67717500D01*
X110574825Y-67717500D01*
X110537500Y-67713824D01*
X110500175Y-67717500D01*
X110500167Y-67717500D01*
X110388514Y-67728497D01*
X110245253Y-67771954D01*
X110113224Y-67842526D01*
X109997499Y-67937499D01*
X109973701Y-67966498D01*
X109390199Y-68550000D01*
X105707087Y-68550000D01*
X105695812Y-68435518D01*
X105659502Y-68315820D01*
X105600537Y-68205506D01*
X105521185Y-68108815D01*
X105424494Y-68029463D01*
X105314180Y-67970498D01*
X105194482Y-67934188D01*
X105070000Y-67921928D01*
X103570000Y-67921928D01*
X103445518Y-67934188D01*
X103325820Y-67970498D01*
X103215506Y-68029463D01*
X103118815Y-68108815D01*
X103039463Y-68205506D01*
X102980498Y-68315820D01*
X102944188Y-68435518D01*
X102931928Y-68560000D01*
X102931928Y-70060000D01*
X102944188Y-70184482D01*
X102980498Y-70304180D01*
X103039463Y-70414494D01*
X103118815Y-70511185D01*
X103215506Y-70590537D01*
X103325820Y-70649502D01*
X103445518Y-70685812D01*
X103570000Y-70698072D01*
X105070000Y-70698072D01*
X105194482Y-70685812D01*
X105314180Y-70649502D01*
X105424494Y-70590537D01*
X105521185Y-70511185D01*
X105600537Y-70414494D01*
X105659502Y-70304180D01*
X105695812Y-70184482D01*
X105707087Y-70070000D01*
X109667678Y-70070000D01*
X109705000Y-70073676D01*
X109742322Y-70070000D01*
X109742333Y-70070000D01*
X109853986Y-70059003D01*
X109997247Y-70015546D01*
X110129276Y-69944974D01*
X110245001Y-69850001D01*
X110268803Y-69820998D01*
X110852302Y-69237500D01*
X110885000Y-69237500D01*
X110885000Y-69240198D01*
X108895199Y-71230000D01*
X103147087Y-71230000D01*
X103135812Y-71115518D01*
X103099502Y-70995820D01*
X103040537Y-70885506D01*
X102961185Y-70788815D01*
X102864494Y-70709463D01*
X102754180Y-70650498D01*
X102634482Y-70614188D01*
X102510000Y-70601928D01*
X101010000Y-70601928D01*
X100885518Y-70614188D01*
X100765820Y-70650498D01*
X100655506Y-70709463D01*
X100558815Y-70788815D01*
X100479463Y-70885506D01*
X100420498Y-70995820D01*
X100384188Y-71115518D01*
X100371928Y-71240000D01*
X98510843Y-71240000D01*
X102390844Y-67360000D01*
X109817094Y-67360000D01*
X109853199Y-67363556D01*
X109889304Y-67360000D01*
X109997284Y-67349365D01*
X110135832Y-67307337D01*
X110263519Y-67239087D01*
X110375437Y-67147238D01*
X110398457Y-67119188D01*
X111454076Y-66063569D01*
X111509334Y-66086458D01*
X111709293Y-66126232D01*
X111913171Y-66126232D01*
X112113130Y-66086458D01*
X112301488Y-66008437D01*
X112471006Y-65895169D01*
X112615169Y-65751006D01*
X112728437Y-65581488D01*
X112806458Y-65393130D01*
X112846232Y-65193171D01*
X112846232Y-64989293D01*
X112806458Y-64789334D01*
X112728437Y-64600976D01*
X112615169Y-64431458D01*
X112471006Y-64287295D01*
X112301488Y-64174027D01*
X112113130Y-64096006D01*
X112072146Y-64087854D01*
X112063994Y-64046870D01*
X111985973Y-63858512D01*
X111872705Y-63688994D01*
X111728542Y-63544831D01*
X111559024Y-63431563D01*
X111370666Y-63353542D01*
X111170707Y-63313768D01*
X110966829Y-63313768D01*
X110766870Y-63353542D01*
X110578512Y-63431563D01*
X110408994Y-63544831D01*
X110264831Y-63688994D01*
X110151563Y-63858512D01*
X110073542Y-64046870D01*
X110033768Y-64246829D01*
X110033768Y-64450707D01*
X110073542Y-64650666D01*
X110096431Y-64705924D01*
X109362355Y-65440000D01*
X101936105Y-65440000D01*
X101900000Y-65436444D01*
X101863895Y-65440000D01*
X101755915Y-65450635D01*
X101617367Y-65492663D01*
X101489680Y-65560913D01*
X101377762Y-65652762D01*
X101354746Y-65680807D01*
X93870554Y-73165000D01*
X93773061Y-73165000D01*
X93573102Y-73204774D01*
X93384744Y-73282795D01*
X93215226Y-73396063D01*
X93071063Y-73540226D01*
X92957795Y-73709744D01*
X92879774Y-73898102D01*
X92840000Y-74098061D01*
X91676740Y-74098061D01*
X97039802Y-68735000D01*
X97101939Y-68735000D01*
X97301898Y-68695226D01*
X97490256Y-68617205D01*
X97659774Y-68503937D01*
X97803937Y-68359774D01*
X97917205Y-68190256D01*
X97995226Y-68001898D01*
X98035000Y-67801939D01*
X98035000Y-67598061D01*
X97995226Y-67398102D01*
X97917205Y-67209744D01*
X97803937Y-67040226D01*
X97659774Y-66896063D01*
X97490256Y-66782795D01*
X97301898Y-66704774D01*
X97101939Y-66665000D01*
X96898061Y-66665000D01*
X96698102Y-66704774D01*
X96509744Y-66782795D01*
X96340226Y-66896063D01*
X96196063Y-67040226D01*
X96082795Y-67209744D01*
X96004774Y-67398102D01*
X95965000Y-67598061D01*
X95965000Y-67660198D01*
X86735199Y-76890000D01*
X86653711Y-76890000D01*
X86609774Y-76846063D01*
X86440256Y-76732795D01*
X86251898Y-76654774D01*
X86051939Y-76615000D01*
X85848061Y-76615000D01*
X85648102Y-76654774D01*
X85459744Y-76732795D01*
X85290226Y-76846063D01*
X85146063Y-76990226D01*
X85032795Y-77159744D01*
X84954774Y-77348102D01*
X84915000Y-77548061D01*
X67522863Y-77548061D01*
X67160000Y-77185199D01*
X67160000Y-70438072D01*
X67900000Y-70438072D01*
X68024482Y-70425812D01*
X68144180Y-70389502D01*
X68254494Y-70330537D01*
X68351185Y-70251185D01*
X68430537Y-70154494D01*
X68489502Y-70044180D01*
X68525812Y-69924482D01*
X68538072Y-69800000D01*
X68538072Y-66800000D01*
X68525812Y-66675518D01*
X68489502Y-66555820D01*
X68430537Y-66445506D01*
X68351185Y-66348815D01*
X68254494Y-66269463D01*
X68144180Y-66210498D01*
X68024482Y-66174188D01*
X67900000Y-66161928D01*
X67160000Y-66161928D01*
X67160000Y-63690910D01*
X103457849Y-63690910D01*
X103457849Y-63894788D01*
X103497623Y-64094747D01*
X103575644Y-64283105D01*
X103688912Y-64452623D01*
X103833075Y-64596786D01*
X104002593Y-64710054D01*
X104190951Y-64788075D01*
X104390910Y-64827849D01*
X104594788Y-64827849D01*
X104794747Y-64788075D01*
X104983105Y-64710054D01*
X105152623Y-64596786D01*
X105296786Y-64452623D01*
X105410054Y-64283105D01*
X105488075Y-64094747D01*
X105527849Y-63894788D01*
X105527849Y-63832650D01*
X111010500Y-58350000D01*
X116496289Y-58350000D01*
X116540226Y-58393937D01*
X116709744Y-58507205D01*
X116898102Y-58585226D01*
X117098061Y-58625000D01*
X117301939Y-58625000D01*
X117501898Y-58585226D01*
X117690256Y-58507205D01*
X117859774Y-58393937D01*
X118003937Y-58249774D01*
X118117205Y-58080256D01*
X118195226Y-57891898D01*
X118235000Y-57691939D01*
X118235000Y-57488061D01*
X118195226Y-57288102D01*
X118117205Y-57099744D01*
X118003937Y-56930226D01*
X117859774Y-56786063D01*
X117690256Y-56672795D01*
X117501898Y-56594774D01*
X117301939Y-56555000D01*
X117098061Y-56555000D01*
X116898102Y-56594774D01*
X116709744Y-56672795D01*
X116540226Y-56786063D01*
X116496289Y-56830000D01*
X110733020Y-56830000D01*
X110695697Y-56826324D01*
X110658374Y-56830000D01*
X110658365Y-56830000D01*
X110546712Y-56840997D01*
X110403451Y-56884454D01*
X110271422Y-56955026D01*
X110155697Y-57049999D01*
X110131899Y-57078997D01*
X104453048Y-62757849D01*
X104390910Y-62757849D01*
X104190951Y-62797623D01*
X104002593Y-62875644D01*
X103833075Y-62988912D01*
X103688912Y-63133075D01*
X103575644Y-63302593D01*
X103497623Y-63490951D01*
X103457849Y-63690910D01*
X67160000Y-63690910D01*
X67160000Y-63037323D01*
X67163676Y-63000000D01*
X67160000Y-62962677D01*
X67160000Y-62962667D01*
X67149003Y-62851014D01*
X67105546Y-62707753D01*
X67034975Y-62575725D01*
X67034974Y-62575723D01*
X66963799Y-62488997D01*
X66940001Y-62459999D01*
X66911004Y-62436202D01*
X63260000Y-58785199D01*
X63260000Y-55438072D01*
X64000000Y-55438072D01*
X64124482Y-55425812D01*
X64244180Y-55389502D01*
X64354494Y-55330537D01*
X64450000Y-55252158D01*
X64545506Y-55330537D01*
X64655820Y-55389502D01*
X64775518Y-55425812D01*
X64900000Y-55438072D01*
X65440001Y-55438072D01*
X65440000Y-58296289D01*
X65396063Y-58340226D01*
X65282795Y-58509744D01*
X65204774Y-58698102D01*
X65165000Y-58898061D01*
X65165000Y-59101939D01*
X65204774Y-59301898D01*
X65282795Y-59490256D01*
X65396063Y-59659774D01*
X65540226Y-59803937D01*
X65709744Y-59917205D01*
X65898102Y-59995226D01*
X66098061Y-60035000D01*
X66301939Y-60035000D01*
X66501898Y-59995226D01*
X66690256Y-59917205D01*
X66859774Y-59803937D01*
X67003937Y-59659774D01*
X67117205Y-59490256D01*
X67195226Y-59301898D01*
X67235000Y-59101939D01*
X67235000Y-58898061D01*
X67195226Y-58698102D01*
X67117205Y-58509744D01*
X67003937Y-58340226D01*
X66960000Y-58296289D01*
X66960000Y-55438072D01*
X67900000Y-55438072D01*
X68024482Y-55425812D01*
X68144180Y-55389502D01*
X68254494Y-55330537D01*
X68351185Y-55251185D01*
X68430537Y-55154494D01*
X68489502Y-55044180D01*
X68525812Y-54924482D01*
X68538072Y-54800000D01*
X68538072Y-52742000D01*
X76156000Y-52742000D01*
X76156000Y-53442000D01*
X76204507Y-53680496D01*
X76298610Y-53904946D01*
X76434693Y-54106725D01*
X76607526Y-54278078D01*
X76810467Y-54412421D01*
X77035718Y-54504591D01*
X77073391Y-54508462D01*
X77264000Y-54383731D01*
X77264000Y-52742000D01*
X77518000Y-52742000D01*
X77518000Y-54383731D01*
X77708609Y-54508462D01*
X77746282Y-54504591D01*
X77971533Y-54412421D01*
X78174474Y-54278078D01*
X78347307Y-54106725D01*
X78468241Y-53927408D01*
X79093000Y-53927408D01*
X79093000Y-54202592D01*
X79146686Y-54472490D01*
X79251995Y-54726727D01*
X79404880Y-54955535D01*
X79599465Y-55150120D01*
X79828273Y-55303005D01*
X80082510Y-55408314D01*
X80352408Y-55462000D01*
X80627592Y-55462000D01*
X80897490Y-55408314D01*
X81151727Y-55303005D01*
X81380535Y-55150120D01*
X81575120Y-54955535D01*
X81728005Y-54726727D01*
X81739500Y-54698976D01*
X81750995Y-54726727D01*
X81903880Y-54955535D01*
X82098465Y-55150120D01*
X82327273Y-55303005D01*
X82581510Y-55408314D01*
X82851408Y-55462000D01*
X83126592Y-55462000D01*
X83396490Y-55408314D01*
X83650727Y-55303005D01*
X83879535Y-55150120D01*
X83990000Y-55039655D01*
X84100465Y-55150120D01*
X84329273Y-55303005D01*
X84583510Y-55408314D01*
X84853408Y-55462000D01*
X85128592Y-55462000D01*
X85398490Y-55408314D01*
X85652727Y-55303005D01*
X85881535Y-55150120D01*
X86001090Y-55030565D01*
X86704040Y-55030565D01*
X86771020Y-55270656D01*
X87020048Y-55387756D01*
X87287135Y-55454023D01*
X87562017Y-55466910D01*
X87834133Y-55425922D01*
X88093023Y-55332636D01*
X88208980Y-55270656D01*
X88275960Y-55030565D01*
X87490000Y-54244605D01*
X86704040Y-55030565D01*
X86001090Y-55030565D01*
X86076120Y-54955535D01*
X86229005Y-54726727D01*
X86239805Y-54700653D01*
X86284344Y-54783980D01*
X86524435Y-54850960D01*
X87310395Y-54065000D01*
X87669605Y-54065000D01*
X88455565Y-54850960D01*
X88695656Y-54783980D01*
X88812756Y-54534952D01*
X88879023Y-54267865D01*
X88891910Y-53992983D01*
X88850922Y-53720867D01*
X88757636Y-53461977D01*
X88695656Y-53346020D01*
X88455565Y-53279040D01*
X87669605Y-54065000D01*
X87310395Y-54065000D01*
X86524435Y-53279040D01*
X86284344Y-53346020D01*
X86242314Y-53435403D01*
X86229005Y-53403273D01*
X86076120Y-53174465D01*
X86001090Y-53099435D01*
X86704040Y-53099435D01*
X87490000Y-53885395D01*
X88275960Y-53099435D01*
X88208980Y-52859344D01*
X87959952Y-52742244D01*
X87958969Y-52742000D01*
X89354000Y-52742000D01*
X89354000Y-53442000D01*
X89402507Y-53680496D01*
X89496610Y-53904946D01*
X89632693Y-54106725D01*
X89805526Y-54278078D01*
X90008467Y-54412421D01*
X90233718Y-54504591D01*
X90271391Y-54508462D01*
X90462000Y-54383731D01*
X90462000Y-52742000D01*
X90716000Y-52742000D01*
X90716000Y-54383731D01*
X90906609Y-54508462D01*
X90944282Y-54504591D01*
X91169533Y-54412421D01*
X91372474Y-54278078D01*
X91545307Y-54106725D01*
X91681390Y-53904946D01*
X91775493Y-53680496D01*
X91824000Y-53442000D01*
X91824000Y-52742000D01*
X103164000Y-52742000D01*
X103164000Y-53442000D01*
X103212507Y-53680496D01*
X103306610Y-53904946D01*
X103442693Y-54106725D01*
X103615526Y-54278078D01*
X103818467Y-54412421D01*
X104043718Y-54504591D01*
X104081391Y-54508462D01*
X104272000Y-54383731D01*
X104272000Y-52742000D01*
X104526000Y-52742000D01*
X104526000Y-54383731D01*
X104716609Y-54508462D01*
X104754282Y-54504591D01*
X104979533Y-54412421D01*
X105182474Y-54278078D01*
X105355307Y-54106725D01*
X105476241Y-53927408D01*
X106101000Y-53927408D01*
X106101000Y-54202592D01*
X106154686Y-54472490D01*
X106259995Y-54726727D01*
X106412880Y-54955535D01*
X106607465Y-55150120D01*
X106836273Y-55303005D01*
X107090510Y-55408314D01*
X107360408Y-55462000D01*
X107635592Y-55462000D01*
X107905490Y-55408314D01*
X108159727Y-55303005D01*
X108388535Y-55150120D01*
X108583120Y-54955535D01*
X108736005Y-54726727D01*
X108747500Y-54698976D01*
X108758995Y-54726727D01*
X108911880Y-54955535D01*
X109106465Y-55150120D01*
X109335273Y-55303005D01*
X109589510Y-55408314D01*
X109859408Y-55462000D01*
X110134592Y-55462000D01*
X110404490Y-55408314D01*
X110658727Y-55303005D01*
X110887535Y-55150120D01*
X110998000Y-55039655D01*
X111108465Y-55150120D01*
X111337273Y-55303005D01*
X111591510Y-55408314D01*
X111861408Y-55462000D01*
X112136592Y-55462000D01*
X112406490Y-55408314D01*
X112660727Y-55303005D01*
X112889535Y-55150120D01*
X113009090Y-55030565D01*
X113712040Y-55030565D01*
X113779020Y-55270656D01*
X114028048Y-55387756D01*
X114295135Y-55454023D01*
X114570017Y-55466910D01*
X114842133Y-55425922D01*
X115101023Y-55332636D01*
X115216980Y-55270656D01*
X115283960Y-55030565D01*
X114498000Y-54244605D01*
X113712040Y-55030565D01*
X113009090Y-55030565D01*
X113084120Y-54955535D01*
X113237005Y-54726727D01*
X113247805Y-54700653D01*
X113292344Y-54783980D01*
X113532435Y-54850960D01*
X114318395Y-54065000D01*
X114677605Y-54065000D01*
X115463565Y-54850960D01*
X115703656Y-54783980D01*
X115820756Y-54534952D01*
X115887023Y-54267865D01*
X115899910Y-53992983D01*
X115858922Y-53720867D01*
X115765636Y-53461977D01*
X115703656Y-53346020D01*
X115463565Y-53279040D01*
X114677605Y-54065000D01*
X114318395Y-54065000D01*
X113532435Y-53279040D01*
X113292344Y-53346020D01*
X113250314Y-53435403D01*
X113237005Y-53403273D01*
X113084120Y-53174465D01*
X113009090Y-53099435D01*
X113712040Y-53099435D01*
X114498000Y-53885395D01*
X115283960Y-53099435D01*
X115216980Y-52859344D01*
X114967952Y-52742244D01*
X114966969Y-52742000D01*
X116362000Y-52742000D01*
X116362000Y-53442000D01*
X116410507Y-53680496D01*
X116504610Y-53904946D01*
X116640693Y-54106725D01*
X116813526Y-54278078D01*
X117016467Y-54412421D01*
X117241718Y-54504591D01*
X117279391Y-54508462D01*
X117470000Y-54383731D01*
X117470000Y-52742000D01*
X117724000Y-52742000D01*
X117724000Y-54383731D01*
X117914609Y-54508462D01*
X117952282Y-54504591D01*
X118177533Y-54412421D01*
X118380474Y-54278078D01*
X118553307Y-54106725D01*
X118689390Y-53904946D01*
X118783493Y-53680496D01*
X118832000Y-53442000D01*
X118832000Y-52742000D01*
X117724000Y-52742000D01*
X117470000Y-52742000D01*
X116362000Y-52742000D01*
X114966969Y-52742000D01*
X114700865Y-52675977D01*
X114425983Y-52663090D01*
X114153867Y-52704078D01*
X113894977Y-52797364D01*
X113779020Y-52859344D01*
X113712040Y-53099435D01*
X113009090Y-53099435D01*
X112889535Y-52979880D01*
X112660727Y-52826995D01*
X112406490Y-52721686D01*
X112136592Y-52668000D01*
X111861408Y-52668000D01*
X111591510Y-52721686D01*
X111337273Y-52826995D01*
X111108465Y-52979880D01*
X110998000Y-53090345D01*
X110887535Y-52979880D01*
X110658727Y-52826995D01*
X110404490Y-52721686D01*
X110134592Y-52668000D01*
X109859408Y-52668000D01*
X109589510Y-52721686D01*
X109335273Y-52826995D01*
X109106465Y-52979880D01*
X108911880Y-53174465D01*
X108758995Y-53403273D01*
X108747500Y-53431024D01*
X108736005Y-53403273D01*
X108583120Y-53174465D01*
X108388535Y-52979880D01*
X108159727Y-52826995D01*
X107905490Y-52721686D01*
X107635592Y-52668000D01*
X107360408Y-52668000D01*
X107090510Y-52721686D01*
X106836273Y-52826995D01*
X106607465Y-52979880D01*
X106412880Y-53174465D01*
X106259995Y-53403273D01*
X106154686Y-53657510D01*
X106101000Y-53927408D01*
X105476241Y-53927408D01*
X105491390Y-53904946D01*
X105585493Y-53680496D01*
X105634000Y-53442000D01*
X105634000Y-52742000D01*
X104526000Y-52742000D01*
X104272000Y-52742000D01*
X103164000Y-52742000D01*
X91824000Y-52742000D01*
X90716000Y-52742000D01*
X90462000Y-52742000D01*
X89354000Y-52742000D01*
X87958969Y-52742000D01*
X87692865Y-52675977D01*
X87417983Y-52663090D01*
X87145867Y-52704078D01*
X86886977Y-52797364D01*
X86771020Y-52859344D01*
X86704040Y-53099435D01*
X86001090Y-53099435D01*
X85881535Y-52979880D01*
X85652727Y-52826995D01*
X85398490Y-52721686D01*
X85128592Y-52668000D01*
X84853408Y-52668000D01*
X84583510Y-52721686D01*
X84329273Y-52826995D01*
X84100465Y-52979880D01*
X83990000Y-53090345D01*
X83879535Y-52979880D01*
X83650727Y-52826995D01*
X83396490Y-52721686D01*
X83126592Y-52668000D01*
X82851408Y-52668000D01*
X82581510Y-52721686D01*
X82327273Y-52826995D01*
X82098465Y-52979880D01*
X81903880Y-53174465D01*
X81750995Y-53403273D01*
X81739500Y-53431024D01*
X81728005Y-53403273D01*
X81575120Y-53174465D01*
X81380535Y-52979880D01*
X81151727Y-52826995D01*
X80897490Y-52721686D01*
X80627592Y-52668000D01*
X80352408Y-52668000D01*
X80082510Y-52721686D01*
X79828273Y-52826995D01*
X79599465Y-52979880D01*
X79404880Y-53174465D01*
X79251995Y-53403273D01*
X79146686Y-53657510D01*
X79093000Y-53927408D01*
X78468241Y-53927408D01*
X78483390Y-53904946D01*
X78577493Y-53680496D01*
X78626000Y-53442000D01*
X78626000Y-52742000D01*
X77518000Y-52742000D01*
X77264000Y-52742000D01*
X76156000Y-52742000D01*
X68538072Y-52742000D01*
X68538072Y-51800000D01*
X68525812Y-51675518D01*
X68489502Y-51555820D01*
X68430537Y-51445506D01*
X68351185Y-51348815D01*
X68254494Y-51269463D01*
X68144180Y-51210498D01*
X68024482Y-51174188D01*
X67900000Y-51161928D01*
X64900000Y-51161928D01*
X64775518Y-51174188D01*
X64655820Y-51210498D01*
X64545506Y-51269463D01*
X64450000Y-51347842D01*
X64354494Y-51269463D01*
X64244180Y-51210498D01*
X64124482Y-51174188D01*
X64000000Y-51161928D01*
X61000000Y-51161928D01*
X60875518Y-51174188D01*
X60755820Y-51210498D01*
X60645506Y-51269463D01*
X60548815Y-51348815D01*
X60469463Y-51445506D01*
X60410498Y-51555820D01*
X60374188Y-51675518D01*
X60361928Y-51800000D01*
X59731900Y-51800000D01*
X59731900Y-47484571D01*
X61757574Y-47484571D01*
X61757574Y-48122663D01*
X61882059Y-48748494D01*
X62126246Y-49338013D01*
X62480751Y-49868567D01*
X62931950Y-50319766D01*
X63462504Y-50674271D01*
X64052023Y-50918458D01*
X64677854Y-51042943D01*
X65315946Y-51042943D01*
X65941777Y-50918458D01*
X66531296Y-50674271D01*
X67061850Y-50319766D01*
X67513049Y-49868567D01*
X67867554Y-49338013D01*
X68111741Y-48748494D01*
X68236226Y-48122663D01*
X68236226Y-47484571D01*
X68111741Y-46858740D01*
X67867554Y-46269221D01*
X67513049Y-45738667D01*
X67061850Y-45287468D01*
X66531296Y-44932963D01*
X65941777Y-44688776D01*
X65315946Y-44564291D01*
X64677854Y-44564291D01*
X64052023Y-44688776D01*
X63462504Y-44932963D01*
X62931950Y-45287468D01*
X62480751Y-45738667D01*
X62126246Y-46269221D01*
X61882059Y-46858740D01*
X61757574Y-47484571D01*
X59731900Y-47484571D01*
X59731900Y-45839562D01*
X59797538Y-45170129D01*
X59981517Y-44560763D01*
X60280349Y-43998742D01*
X60682653Y-43505470D01*
X61173105Y-43099733D01*
X61733028Y-42796983D01*
X62341088Y-42608757D01*
X63045804Y-42534688D01*
X63053348Y-42533139D01*
X63142165Y-42524119D01*
X63279346Y-42482181D01*
X63313170Y-42464045D01*
X75066939Y-42479956D01*
X75067175Y-42479979D01*
X75098500Y-42479998D01*
X75131525Y-42480043D01*
X75131774Y-42480019D01*
X76581400Y-42480912D01*
X76581400Y-42588782D01*
X76581401Y-44406460D01*
X76581253Y-44408040D01*
X76581401Y-44438969D01*
X76581401Y-44469719D01*
X76581556Y-44471289D01*
X76594100Y-47093110D01*
X76594101Y-50965232D01*
X76434693Y-51123275D01*
X76298610Y-51325054D01*
X76204507Y-51549504D01*
X76156000Y-51788000D01*
X76156000Y-52488000D01*
X77264000Y-52488000D01*
X77264000Y-52468000D01*
X77518000Y-52468000D01*
X77518000Y-52488000D01*
X78626000Y-52488000D01*
X78626000Y-51790200D01*
X89354000Y-51790200D01*
X89354000Y-52488000D01*
X90462000Y-52488000D01*
X90462000Y-52468000D01*
X90716000Y-52468000D01*
X90716000Y-52488000D01*
X91824000Y-52488000D01*
X91824000Y-51788000D01*
X91775493Y-51549504D01*
X91681390Y-51325054D01*
X91567268Y-51155838D01*
X91569793Y-51130200D01*
X91566600Y-51097781D01*
X91566600Y-42480701D01*
X92727303Y-42480000D01*
X102140318Y-42480000D01*
X103302200Y-42480701D01*
X103302201Y-51097771D01*
X103299007Y-51130200D01*
X103311750Y-51259583D01*
X103323854Y-51299485D01*
X103306610Y-51325054D01*
X103212507Y-51549504D01*
X103164000Y-51788000D01*
X103164000Y-52488000D01*
X104272000Y-52488000D01*
X104272000Y-52468000D01*
X104526000Y-52468000D01*
X104526000Y-52488000D01*
X105634000Y-52488000D01*
X105634000Y-51790200D01*
X116362000Y-51790200D01*
X116362000Y-52488000D01*
X117470000Y-52488000D01*
X117470000Y-52468000D01*
X117724000Y-52468000D01*
X117724000Y-52488000D01*
X118832000Y-52488000D01*
X118832000Y-51788000D01*
X118783493Y-51549504D01*
X118689390Y-51325054D01*
X118553307Y-51123275D01*
X118380474Y-50951922D01*
X118363600Y-50940752D01*
X118363600Y-47484571D01*
X126757574Y-47484571D01*
X126757574Y-48122663D01*
X126882059Y-48748494D01*
X127126246Y-49338013D01*
X127480751Y-49868567D01*
X127931950Y-50319766D01*
X128462504Y-50674271D01*
X129052023Y-50918458D01*
X129677854Y-51042943D01*
X130315946Y-51042943D01*
X130941777Y-50918458D01*
X131531296Y-50674271D01*
X132061850Y-50319766D01*
X132513049Y-49868567D01*
X132867554Y-49338013D01*
X133111741Y-48748494D01*
X133236226Y-48122663D01*
X133236226Y-47484571D01*
X133111741Y-46858740D01*
X132867554Y-46269221D01*
X132513049Y-45738667D01*
X132061850Y-45287468D01*
X131531296Y-44932963D01*
X130941777Y-44688776D01*
X130315946Y-44564291D01*
X129677854Y-44564291D01*
X129052023Y-44688776D01*
X128462504Y-44932963D01*
X127931950Y-45287468D01*
X127480751Y-45738667D01*
X127126246Y-46269221D01*
X126882059Y-46858740D01*
X126757574Y-47484571D01*
X118363600Y-47484571D01*
X118363600Y-43423802D01*
X118371084Y-42480905D01*
X119735839Y-42480020D01*
X119736066Y-42480042D01*
X119768250Y-42479999D01*
X119800446Y-42479978D01*
X119800673Y-42479955D01*
X131680931Y-42464040D01*
X131774659Y-42504212D01*
G37*
G04 #@! TD.AperFunction*
D19*
X64545506Y-70330537D02*
X64655820Y-70389502D01*
X64775518Y-70425812D01*
X64900000Y-70438072D01*
X65640001Y-70438072D01*
X65640000Y-77462678D01*
X65636324Y-77500000D01*
X65640000Y-77537322D01*
X65640000Y-77537332D01*
X65650997Y-77648985D01*
X65682227Y-77751939D01*
X65694454Y-77792246D01*
X65765026Y-77924276D01*
X65779774Y-77942246D01*
X65859999Y-78040001D01*
X65889003Y-78063804D01*
X92365000Y-104539802D01*
X92365000Y-104601939D01*
X92404774Y-104801898D01*
X92424626Y-104849824D01*
X63360000Y-75785199D01*
X63360000Y-70438072D01*
X64100000Y-70438072D01*
X64224482Y-70425812D01*
X64344180Y-70389502D01*
X64454494Y-70330537D01*
X64500000Y-70293191D01*
X64545506Y-70330537D01*
G04 #@! TA.AperFunction,Conductor*
D20*
G36*
X64545506Y-70330537D02*
G01*
X64655820Y-70389502D01*
X64775518Y-70425812D01*
X64900000Y-70438072D01*
X65640001Y-70438072D01*
X65640000Y-77462678D01*
X65636324Y-77500000D01*
X65640000Y-77537322D01*
X65640000Y-77537332D01*
X65650997Y-77648985D01*
X65682227Y-77751939D01*
X65694454Y-77792246D01*
X65765026Y-77924276D01*
X65779774Y-77942246D01*
X65859999Y-78040001D01*
X65889003Y-78063804D01*
X92365000Y-104539802D01*
X92365000Y-104601939D01*
X92404774Y-104801898D01*
X92424626Y-104849824D01*
X63360000Y-75785199D01*
X63360000Y-70438072D01*
X64100000Y-70438072D01*
X64224482Y-70425812D01*
X64344180Y-70389502D01*
X64454494Y-70330537D01*
X64500000Y-70293191D01*
X64545506Y-70330537D01*
G37*
G04 #@! TD.AperFunction*
D19*
X92182795Y-130509744D02*
X92104774Y-130698102D01*
X92065000Y-130898061D01*
X92065000Y-131101939D01*
X92104774Y-131301898D01*
X92182795Y-131490256D01*
X92296063Y-131659774D01*
X92340001Y-131703712D01*
X92340000Y-134285197D01*
X90788998Y-135836201D01*
X90760000Y-135859999D01*
X90736202Y-135888997D01*
X90736201Y-135888998D01*
X90665026Y-135975724D01*
X90594454Y-136107754D01*
X90570580Y-136186459D01*
X90550998Y-136251014D01*
X90541614Y-136346295D01*
X90536324Y-136400000D01*
X90540001Y-136437332D01*
X90540000Y-139631542D01*
X90538815Y-139632515D01*
X90490000Y-139691996D01*
X90450000Y-139643256D01*
X90450000Y-132224801D01*
X92218513Y-130456288D01*
X92182795Y-130509744D01*
G04 #@! TA.AperFunction,Conductor*
D20*
G36*
X92182795Y-130509744D02*
G01*
X92104774Y-130698102D01*
X92065000Y-130898061D01*
X92065000Y-131101939D01*
X92104774Y-131301898D01*
X92182795Y-131490256D01*
X92296063Y-131659774D01*
X92340001Y-131703712D01*
X92340000Y-134285197D01*
X90788998Y-135836201D01*
X90760000Y-135859999D01*
X90736202Y-135888997D01*
X90736201Y-135888998D01*
X90665026Y-135975724D01*
X90594454Y-136107754D01*
X90570580Y-136186459D01*
X90550998Y-136251014D01*
X90541614Y-136346295D01*
X90536324Y-136400000D01*
X90540001Y-136437332D01*
X90540000Y-139631542D01*
X90538815Y-139632515D01*
X90490000Y-139691996D01*
X90450000Y-139643256D01*
X90450000Y-132224801D01*
X92218513Y-130456288D01*
X92182795Y-130509744D01*
G37*
G04 #@! TD.AperFunction*
D19*
X108120216Y-106049983D02*
X108304577Y-106234344D01*
X108521362Y-106379195D01*
X108762241Y-106478971D01*
X109017957Y-106529836D01*
X109278683Y-106529836D01*
X109534399Y-106478971D01*
X109640000Y-106435229D01*
X109640001Y-121985197D01*
X108060000Y-123565198D01*
X108060000Y-105959863D01*
X108120216Y-106049983D01*
G04 #@! TA.AperFunction,Conductor*
D20*
G36*
X108120216Y-106049983D02*
G01*
X108304577Y-106234344D01*
X108521362Y-106379195D01*
X108762241Y-106478971D01*
X109017957Y-106529836D01*
X109278683Y-106529836D01*
X109534399Y-106478971D01*
X109640000Y-106435229D01*
X109640001Y-121985197D01*
X108060000Y-123565198D01*
X108060000Y-105959863D01*
X108120216Y-106049983D01*
G37*
G04 #@! TD.AperFunction*
D19*
X109640000Y-103977251D02*
X109534399Y-103933509D01*
X109278683Y-103882644D01*
X109017957Y-103882644D01*
X108762241Y-103933509D01*
X108521362Y-104033285D01*
X108304577Y-104178136D01*
X108120216Y-104362497D01*
X108060000Y-104452617D01*
X108060000Y-93714801D01*
X109640000Y-92134801D01*
X109640000Y-103977251D01*
G04 #@! TA.AperFunction,Conductor*
D20*
G36*
X109640000Y-103977251D02*
G01*
X109534399Y-103933509D01*
X109278683Y-103882644D01*
X109017957Y-103882644D01*
X108762241Y-103933509D01*
X108521362Y-104033285D01*
X108304577Y-104178136D01*
X108120216Y-104362497D01*
X108060000Y-104452617D01*
X108060000Y-93714801D01*
X109640000Y-92134801D01*
X109640000Y-103977251D01*
G37*
G04 #@! TD.AperFunction*
M02*
