G04 #@! TF.GenerationSoftware,KiCad,Pcbnew,(5.1.10-1-10_14)*
G04 #@! TF.CreationDate,2021-12-01T22:20:01+01:00*
G04 #@! TF.ProjectId,DCEXT,44434558-542e-46b6-9963-61645f706362,rev?*
G04 #@! TF.SameCoordinates,Original*
G04 #@! TF.FileFunction,Legend,Top*
G04 #@! TF.FilePolarity,Positive*
%FSLAX46Y46*%
G04 Gerber Fmt 4.6, Leading zero omitted, Abs format (unit mm)*
G04 Created by KiCad (PCBNEW (5.1.10-1-10_14)) date 2021-12-01 22:20:01*
%MOMM*%
%LPD*%
G01*
G04 APERTURE LIST*
%ADD10C,0.150000*%
%ADD11C,0.200000*%
%ADD12C,0.120000*%
%ADD13C,0.250000*%
%ADD14O,1.200000X2.600000*%
%ADD15C,1.524000*%
%ADD16R,4.500000X2.000000*%
%ADD17R,1.200000X0.400000*%
%ADD18O,1.200000X1.750000*%
%ADD19R,0.800000X0.900000*%
%ADD20R,1.300000X0.300000*%
%ADD21R,2.200000X1.800000*%
%ADD22R,0.650000X1.560000*%
%ADD23R,0.600000X2.000000*%
%ADD24R,0.400000X1.050000*%
G04 APERTURE END LIST*
D10*
X75790538Y-68920623D02*
X77790538Y-68920623D01*
X77790538Y-69396814D01*
X77695300Y-69682528D01*
X77504823Y-69873004D01*
X77314347Y-69968242D01*
X76933395Y-70063480D01*
X76647680Y-70063480D01*
X76266728Y-69968242D01*
X76076252Y-69873004D01*
X75885776Y-69682528D01*
X75790538Y-69396814D01*
X75790538Y-68920623D01*
X76838157Y-70920623D02*
X76838157Y-71587290D01*
X75790538Y-71873004D02*
X75790538Y-70920623D01*
X77790538Y-70920623D01*
X77790538Y-71873004D01*
X75981014Y-73873004D02*
X75885776Y-73777766D01*
X75790538Y-73492052D01*
X75790538Y-73301576D01*
X75885776Y-73015861D01*
X76076252Y-72825385D01*
X76266728Y-72730147D01*
X76647680Y-72634909D01*
X76933395Y-72634909D01*
X77314347Y-72730147D01*
X77504823Y-72825385D01*
X77695300Y-73015861D01*
X77790538Y-73301576D01*
X77790538Y-73492052D01*
X77695300Y-73777766D01*
X77600061Y-73873004D01*
X77790538Y-74444433D02*
X77790538Y-75587290D01*
X75790538Y-75015861D02*
X77790538Y-75015861D01*
X77790538Y-77492052D02*
X75790538Y-78158719D01*
X77790538Y-78825385D01*
X77790538Y-79873004D02*
X77790538Y-80063480D01*
X77695300Y-80253957D01*
X77600061Y-80349195D01*
X77409585Y-80444433D01*
X77028633Y-80539671D01*
X76552442Y-80539671D01*
X76171490Y-80444433D01*
X75981014Y-80349195D01*
X75885776Y-80253957D01*
X75790538Y-80063480D01*
X75790538Y-79873004D01*
X75885776Y-79682528D01*
X75981014Y-79587290D01*
X76171490Y-79492052D01*
X76552442Y-79396814D01*
X77028633Y-79396814D01*
X77409585Y-79492052D01*
X77600061Y-79587290D01*
X77695300Y-79682528D01*
X77790538Y-79873004D01*
X75981014Y-81396814D02*
X75885776Y-81492052D01*
X75790538Y-81396814D01*
X75885776Y-81301576D01*
X75981014Y-81396814D01*
X75790538Y-81396814D01*
X75790538Y-83396814D02*
X75790538Y-82253957D01*
X75790538Y-82825385D02*
X77790538Y-82825385D01*
X77504823Y-82634909D01*
X77314347Y-82444433D01*
X77219109Y-82253957D01*
D11*
X83635612Y-102637045D02*
G75*
G03*
X81635612Y-104637045I0J-2000000D01*
G01*
X111635612Y-132136969D02*
X111635612Y-102637045D01*
X83635612Y-102637045D02*
X111635612Y-102637045D01*
X81635612Y-132637045D02*
X81635612Y-104637045D01*
X111135612Y-132637045D02*
X81635612Y-132637045D01*
D12*
X122330000Y-74190000D02*
X109730000Y-74190000D01*
X122330000Y-79290000D02*
X122330000Y-74190000D01*
X109730000Y-79290000D02*
X122330000Y-79290000D01*
D10*
X120325000Y-72850000D02*
X121450000Y-72850000D01*
X120325000Y-63170000D02*
X116175000Y-63170000D01*
X120325000Y-73330000D02*
X116175000Y-73330000D01*
X120325000Y-63170000D02*
X120325000Y-63650000D01*
X116175000Y-63170000D02*
X116175000Y-63650000D01*
X116175000Y-73330000D02*
X116175000Y-72850000D01*
X120325000Y-73330000D02*
X120325000Y-72850000D01*
D12*
X123426359Y-64520000D02*
X123733641Y-64520000D01*
X123426359Y-63760000D02*
X123733641Y-63760000D01*
X66127900Y-102007641D02*
X66127900Y-101700359D01*
X65367900Y-102007641D02*
X65367900Y-101700359D01*
X65367900Y-97293459D02*
X65367900Y-97600741D01*
X66127900Y-97293459D02*
X66127900Y-97600741D01*
X67753641Y-119520000D02*
X67446359Y-119520000D01*
X67753641Y-120280000D02*
X67446359Y-120280000D01*
X127350000Y-67297836D02*
X127350000Y-67082164D01*
X126630000Y-67297836D02*
X126630000Y-67082164D01*
X126030000Y-67297836D02*
X126030000Y-67082164D01*
X125310000Y-67297836D02*
X125310000Y-67082164D01*
X125310000Y-64532164D02*
X125310000Y-64747836D01*
X126030000Y-64532164D02*
X126030000Y-64747836D01*
X127030000Y-64602164D02*
X127030000Y-64817836D01*
X127750000Y-64602164D02*
X127750000Y-64817836D01*
X107197836Y-70880000D02*
X106982164Y-70880000D01*
X107197836Y-71600000D02*
X106982164Y-71600000D01*
X70491464Y-103750700D02*
X70707136Y-103750700D01*
X70491464Y-103030700D02*
X70707136Y-103030700D01*
X69640564Y-95063900D02*
X69856236Y-95063900D01*
X69640564Y-94343900D02*
X69856236Y-94343900D01*
X76060000Y-133260000D02*
X76340000Y-133260000D01*
X76340000Y-133260000D02*
X76340000Y-134860000D01*
X76340000Y-134860000D02*
X77260000Y-134860000D01*
X77260000Y-134860000D02*
X77260000Y-127040000D01*
X77260000Y-127040000D02*
X71140000Y-127040000D01*
X71140000Y-127040000D02*
X71140000Y-134860000D01*
X71140000Y-134860000D02*
X72060000Y-134860000D01*
X72060000Y-134860000D02*
X72060000Y-133260000D01*
X72060000Y-133260000D02*
X72340000Y-133260000D01*
X74700000Y-127040000D02*
X74700000Y-131400000D01*
X74700000Y-131400000D02*
X73700000Y-131400000D01*
X73700000Y-131400000D02*
X73700000Y-127040000D01*
X77260000Y-133260000D02*
X76340000Y-133260000D01*
X71140000Y-133260000D02*
X72060000Y-133260000D01*
X76500000Y-130900000D02*
X76500000Y-129300000D01*
X76500000Y-129300000D02*
X75500000Y-129300000D01*
X75500000Y-129300000D02*
X75500000Y-130900000D01*
X75500000Y-130900000D02*
X76500000Y-130900000D01*
X71900000Y-130900000D02*
X71900000Y-129300000D01*
X71900000Y-129300000D02*
X72900000Y-129300000D01*
X72900000Y-129300000D02*
X72900000Y-130900000D01*
X72900000Y-130900000D02*
X71900000Y-130900000D01*
X75500000Y-129300000D02*
X75500000Y-127040000D01*
X76000000Y-129300000D02*
X76000000Y-127040000D01*
X76060000Y-133260000D02*
X76060000Y-134475000D01*
X65920000Y-123760000D02*
X66850000Y-123760000D01*
X69080000Y-123760000D02*
X68150000Y-123760000D01*
X69080000Y-123760000D02*
X69080000Y-121600000D01*
X65920000Y-123760000D02*
X65920000Y-122300000D01*
X128608300Y-98867600D02*
X128608300Y-100357600D01*
X128608300Y-100357600D02*
X129948300Y-100357600D01*
X128608300Y-73547600D02*
X128608300Y-72057600D01*
X128608300Y-72057600D02*
X129948300Y-72057600D01*
X132668300Y-100357600D02*
X134408300Y-100357600D01*
X134408300Y-100357600D02*
X134408300Y-72057600D01*
X134408300Y-72057600D02*
X132668300Y-72057600D01*
X128608300Y-98867600D02*
X127408300Y-98867600D01*
X67545299Y-98288301D02*
X67545299Y-100088301D01*
X70765299Y-100088301D02*
X70765299Y-97638301D01*
D13*
X83599800Y-61270500D02*
G75*
G03*
X83599800Y-61270500I-125000J0D01*
G01*
D10*
X85349800Y-59870500D02*
X85349800Y-58620500D01*
X82899800Y-59870500D02*
X82899800Y-58620500D01*
D13*
X117575000Y-61835000D02*
G75*
G03*
X117575000Y-61835000I-125000J0D01*
G01*
D10*
X119325000Y-60435000D02*
X119325000Y-59185000D01*
X116875000Y-60435000D02*
X116875000Y-59185000D01*
X115153809Y-80266190D02*
X115153809Y-80742380D01*
X114820476Y-79742380D02*
X115153809Y-80266190D01*
X115487142Y-79742380D01*
X116344285Y-80742380D02*
X115772857Y-80742380D01*
X116058571Y-80742380D02*
X116058571Y-79742380D01*
X115963333Y-79885238D01*
X115868095Y-79980476D01*
X115772857Y-80028095D01*
X112238095Y-62452380D02*
X112238095Y-63261904D01*
X112285714Y-63357142D01*
X112333333Y-63404761D01*
X112428571Y-63452380D01*
X112619047Y-63452380D01*
X112714285Y-63404761D01*
X112761904Y-63357142D01*
X112809523Y-63261904D01*
X112809523Y-62452380D01*
X113761904Y-62452380D02*
X113285714Y-62452380D01*
X113238095Y-62928571D01*
X113285714Y-62880952D01*
X113380952Y-62833333D01*
X113619047Y-62833333D01*
X113714285Y-62880952D01*
X113761904Y-62928571D01*
X113809523Y-63023809D01*
X113809523Y-63261904D01*
X113761904Y-63357142D01*
X113714285Y-63404761D01*
X113619047Y-63452380D01*
X113380952Y-63452380D01*
X113285714Y-63404761D01*
X113238095Y-63357142D01*
X123413333Y-62952380D02*
X123080000Y-62476190D01*
X122841904Y-62952380D02*
X122841904Y-61952380D01*
X123222857Y-61952380D01*
X123318095Y-62000000D01*
X123365714Y-62047619D01*
X123413333Y-62142857D01*
X123413333Y-62285714D01*
X123365714Y-62380952D01*
X123318095Y-62428571D01*
X123222857Y-62476190D01*
X122841904Y-62476190D01*
X124270476Y-62285714D02*
X124270476Y-62952380D01*
X124032380Y-61904761D02*
X123794285Y-62619047D01*
X124413333Y-62619047D01*
X64452380Y-102020666D02*
X63976190Y-102354000D01*
X64452380Y-102592095D02*
X63452380Y-102592095D01*
X63452380Y-102211142D01*
X63500000Y-102115904D01*
X63547619Y-102068285D01*
X63642857Y-102020666D01*
X63785714Y-102020666D01*
X63880952Y-102068285D01*
X63928571Y-102115904D01*
X63976190Y-102211142D01*
X63976190Y-102592095D01*
X63452380Y-101687333D02*
X63452380Y-101068285D01*
X63833333Y-101401619D01*
X63833333Y-101258761D01*
X63880952Y-101163523D01*
X63928571Y-101115904D01*
X64023809Y-101068285D01*
X64261904Y-101068285D01*
X64357142Y-101115904D01*
X64404761Y-101163523D01*
X64452380Y-101258761D01*
X64452380Y-101544476D01*
X64404761Y-101639714D01*
X64357142Y-101687333D01*
X64452380Y-97613766D02*
X63976190Y-97947100D01*
X64452380Y-98185195D02*
X63452380Y-98185195D01*
X63452380Y-97804242D01*
X63500000Y-97709004D01*
X63547619Y-97661385D01*
X63642857Y-97613766D01*
X63785714Y-97613766D01*
X63880952Y-97661385D01*
X63928571Y-97709004D01*
X63976190Y-97804242D01*
X63976190Y-98185195D01*
X63547619Y-97232814D02*
X63500000Y-97185195D01*
X63452380Y-97089957D01*
X63452380Y-96851861D01*
X63500000Y-96756623D01*
X63547619Y-96709004D01*
X63642857Y-96661385D01*
X63738095Y-96661385D01*
X63880952Y-96709004D01*
X64452380Y-97280433D01*
X64452380Y-96661385D01*
X67433333Y-118452380D02*
X67100000Y-117976190D01*
X66861904Y-118452380D02*
X66861904Y-117452380D01*
X67242857Y-117452380D01*
X67338095Y-117500000D01*
X67385714Y-117547619D01*
X67433333Y-117642857D01*
X67433333Y-117785714D01*
X67385714Y-117880952D01*
X67338095Y-117928571D01*
X67242857Y-117976190D01*
X66861904Y-117976190D01*
X68385714Y-118452380D02*
X67814285Y-118452380D01*
X68100000Y-118452380D02*
X68100000Y-117452380D01*
X68004761Y-117595238D01*
X67909523Y-117690476D01*
X67814285Y-117738095D01*
X127357142Y-69666666D02*
X127404761Y-69714285D01*
X127452380Y-69857142D01*
X127452380Y-69952380D01*
X127404761Y-70095238D01*
X127309523Y-70190476D01*
X127214285Y-70238095D01*
X127023809Y-70285714D01*
X126880952Y-70285714D01*
X126690476Y-70238095D01*
X126595238Y-70190476D01*
X126500000Y-70095238D01*
X126452380Y-69952380D01*
X126452380Y-69857142D01*
X126500000Y-69714285D01*
X126547619Y-69666666D01*
X126452380Y-69333333D02*
X126452380Y-68666666D01*
X127452380Y-69095238D01*
X126007142Y-69666666D02*
X126054761Y-69714285D01*
X126102380Y-69857142D01*
X126102380Y-69952380D01*
X126054761Y-70095238D01*
X125959523Y-70190476D01*
X125864285Y-70238095D01*
X125673809Y-70285714D01*
X125530952Y-70285714D01*
X125340476Y-70238095D01*
X125245238Y-70190476D01*
X125150000Y-70095238D01*
X125102380Y-69952380D01*
X125102380Y-69857142D01*
X125150000Y-69714285D01*
X125197619Y-69666666D01*
X125102380Y-68809523D02*
X125102380Y-69000000D01*
X125150000Y-69095238D01*
X125197619Y-69142857D01*
X125340476Y-69238095D01*
X125530952Y-69285714D01*
X125911904Y-69285714D01*
X126007142Y-69238095D01*
X126054761Y-69190476D01*
X126102380Y-69095238D01*
X126102380Y-68904761D01*
X126054761Y-68809523D01*
X126007142Y-68761904D01*
X125911904Y-68714285D01*
X125673809Y-68714285D01*
X125578571Y-68761904D01*
X125530952Y-68809523D01*
X125483333Y-68904761D01*
X125483333Y-69095238D01*
X125530952Y-69190476D01*
X125578571Y-69238095D01*
X125673809Y-69285714D01*
X126067142Y-62666666D02*
X126114761Y-62714285D01*
X126162380Y-62857142D01*
X126162380Y-62952380D01*
X126114761Y-63095238D01*
X126019523Y-63190476D01*
X125924285Y-63238095D01*
X125733809Y-63285714D01*
X125590952Y-63285714D01*
X125400476Y-63238095D01*
X125305238Y-63190476D01*
X125210000Y-63095238D01*
X125162380Y-62952380D01*
X125162380Y-62857142D01*
X125210000Y-62714285D01*
X125257619Y-62666666D01*
X125162380Y-61761904D02*
X125162380Y-62238095D01*
X125638571Y-62285714D01*
X125590952Y-62238095D01*
X125543333Y-62142857D01*
X125543333Y-61904761D01*
X125590952Y-61809523D01*
X125638571Y-61761904D01*
X125733809Y-61714285D01*
X125971904Y-61714285D01*
X126067142Y-61761904D01*
X126114761Y-61809523D01*
X126162380Y-61904761D01*
X126162380Y-62142857D01*
X126114761Y-62238095D01*
X126067142Y-62285714D01*
X127757142Y-62666666D02*
X127804761Y-62714285D01*
X127852380Y-62857142D01*
X127852380Y-62952380D01*
X127804761Y-63095238D01*
X127709523Y-63190476D01*
X127614285Y-63238095D01*
X127423809Y-63285714D01*
X127280952Y-63285714D01*
X127090476Y-63238095D01*
X126995238Y-63190476D01*
X126900000Y-63095238D01*
X126852380Y-62952380D01*
X126852380Y-62857142D01*
X126900000Y-62714285D01*
X126947619Y-62666666D01*
X127185714Y-61809523D02*
X127852380Y-61809523D01*
X126804761Y-62047619D02*
X127519047Y-62285714D01*
X127519047Y-61666666D01*
X106923333Y-73357142D02*
X106875714Y-73404761D01*
X106732857Y-73452380D01*
X106637619Y-73452380D01*
X106494761Y-73404761D01*
X106399523Y-73309523D01*
X106351904Y-73214285D01*
X106304285Y-73023809D01*
X106304285Y-72880952D01*
X106351904Y-72690476D01*
X106399523Y-72595238D01*
X106494761Y-72500000D01*
X106637619Y-72452380D01*
X106732857Y-72452380D01*
X106875714Y-72500000D01*
X106923333Y-72547619D01*
X107256666Y-72452380D02*
X107875714Y-72452380D01*
X107542380Y-72833333D01*
X107685238Y-72833333D01*
X107780476Y-72880952D01*
X107828095Y-72928571D01*
X107875714Y-73023809D01*
X107875714Y-73261904D01*
X107828095Y-73357142D01*
X107780476Y-73404761D01*
X107685238Y-73452380D01*
X107399523Y-73452380D01*
X107304285Y-73404761D01*
X107256666Y-73357142D01*
X70432633Y-105357142D02*
X70385014Y-105404761D01*
X70242157Y-105452380D01*
X70146919Y-105452380D01*
X70004061Y-105404761D01*
X69908823Y-105309523D01*
X69861204Y-105214285D01*
X69813585Y-105023809D01*
X69813585Y-104880952D01*
X69861204Y-104690476D01*
X69908823Y-104595238D01*
X70004061Y-104500000D01*
X70146919Y-104452380D01*
X70242157Y-104452380D01*
X70385014Y-104500000D01*
X70432633Y-104547619D01*
X70813585Y-104547619D02*
X70861204Y-104500000D01*
X70956442Y-104452380D01*
X71194538Y-104452380D01*
X71289776Y-104500000D01*
X71337395Y-104547619D01*
X71385014Y-104642857D01*
X71385014Y-104738095D01*
X71337395Y-104880952D01*
X70765966Y-105452380D01*
X71385014Y-105452380D01*
X69581733Y-93357142D02*
X69534114Y-93404761D01*
X69391257Y-93452380D01*
X69296019Y-93452380D01*
X69153161Y-93404761D01*
X69057923Y-93309523D01*
X69010304Y-93214285D01*
X68962685Y-93023809D01*
X68962685Y-92880952D01*
X69010304Y-92690476D01*
X69057923Y-92595238D01*
X69153161Y-92500000D01*
X69296019Y-92452380D01*
X69391257Y-92452380D01*
X69534114Y-92500000D01*
X69581733Y-92547619D01*
X70534114Y-93452380D02*
X69962685Y-93452380D01*
X70248400Y-93452380D02*
X70248400Y-92452380D01*
X70153161Y-92595238D01*
X70057923Y-92690476D01*
X69962685Y-92738095D01*
X68666666Y-132952380D02*
X68666666Y-133666666D01*
X68619047Y-133809523D01*
X68523809Y-133904761D01*
X68380952Y-133952380D01*
X68285714Y-133952380D01*
X69619047Y-132952380D02*
X69142857Y-132952380D01*
X69095238Y-133428571D01*
X69142857Y-133380952D01*
X69238095Y-133333333D01*
X69476190Y-133333333D01*
X69571428Y-133380952D01*
X69619047Y-133428571D01*
X69666666Y-133523809D01*
X69666666Y-133761904D01*
X69619047Y-133857142D01*
X69571428Y-133904761D01*
X69476190Y-133952380D01*
X69238095Y-133952380D01*
X69142857Y-133904761D01*
X69095238Y-133857142D01*
X70547619Y-123095238D02*
X70500000Y-123190476D01*
X70404761Y-123285714D01*
X70261904Y-123428571D01*
X70214285Y-123523809D01*
X70214285Y-123619047D01*
X70452380Y-123571428D02*
X70404761Y-123666666D01*
X70309523Y-123761904D01*
X70119047Y-123809523D01*
X69785714Y-123809523D01*
X69595238Y-123761904D01*
X69500000Y-123666666D01*
X69452380Y-123571428D01*
X69452380Y-123380952D01*
X69500000Y-123285714D01*
X69595238Y-123190476D01*
X69785714Y-123142857D01*
X70119047Y-123142857D01*
X70309523Y-123190476D01*
X70404761Y-123285714D01*
X70452380Y-123380952D01*
X70452380Y-123571428D01*
X70452380Y-122190476D02*
X70452380Y-122761904D01*
X70452380Y-122476190D02*
X69452380Y-122476190D01*
X69595238Y-122571428D01*
X69690476Y-122666666D01*
X69738095Y-122761904D01*
X125660680Y-86540933D02*
X126374966Y-86540933D01*
X126517823Y-86588552D01*
X126613061Y-86683790D01*
X126660680Y-86826647D01*
X126660680Y-86921885D01*
X125660680Y-85636171D02*
X125660680Y-85826647D01*
X125708300Y-85921885D01*
X125755919Y-85969504D01*
X125898776Y-86064742D01*
X126089252Y-86112361D01*
X126470204Y-86112361D01*
X126565442Y-86064742D01*
X126613061Y-86017123D01*
X126660680Y-85921885D01*
X126660680Y-85731409D01*
X126613061Y-85636171D01*
X126565442Y-85588552D01*
X126470204Y-85540933D01*
X126232109Y-85540933D01*
X126136871Y-85588552D01*
X126089252Y-85636171D01*
X126041633Y-85731409D01*
X126041633Y-85921885D01*
X126089252Y-86017123D01*
X126136871Y-86064742D01*
X126232109Y-86112361D01*
X71507679Y-99950205D02*
X72317203Y-99950205D01*
X72412441Y-99902586D01*
X72460060Y-99854967D01*
X72507679Y-99759729D01*
X72507679Y-99569253D01*
X72460060Y-99474015D01*
X72412441Y-99426396D01*
X72317203Y-99378777D01*
X71507679Y-99378777D01*
X71841013Y-98474015D02*
X72507679Y-98474015D01*
X71460060Y-98712110D02*
X72174346Y-98950205D01*
X72174346Y-98331158D01*
X81477180Y-60334904D02*
X82286704Y-60334904D01*
X82381942Y-60287285D01*
X82429561Y-60239666D01*
X82477180Y-60144428D01*
X82477180Y-59953952D01*
X82429561Y-59858714D01*
X82381942Y-59811095D01*
X82286704Y-59763476D01*
X81477180Y-59763476D01*
X81477180Y-59382523D02*
X81477180Y-58763476D01*
X81858133Y-59096809D01*
X81858133Y-58953952D01*
X81905752Y-58858714D01*
X81953371Y-58811095D01*
X82048609Y-58763476D01*
X82286704Y-58763476D01*
X82381942Y-58811095D01*
X82429561Y-58858714D01*
X82477180Y-58953952D01*
X82477180Y-59239666D01*
X82429561Y-59334904D01*
X82381942Y-59382523D01*
X120135595Y-59272380D02*
X120135595Y-60081904D01*
X120183214Y-60177142D01*
X120230833Y-60224761D01*
X120326071Y-60272380D01*
X120516547Y-60272380D01*
X120611785Y-60224761D01*
X120659404Y-60177142D01*
X120707023Y-60081904D01*
X120707023Y-59272380D01*
X121135595Y-59367619D02*
X121183214Y-59320000D01*
X121278452Y-59272380D01*
X121516547Y-59272380D01*
X121611785Y-59320000D01*
X121659404Y-59367619D01*
X121707023Y-59462857D01*
X121707023Y-59558095D01*
X121659404Y-59700952D01*
X121087976Y-60272380D01*
X121707023Y-60272380D01*
%LPC*%
D14*
X117597000Y-52615000D03*
X104399000Y-52615000D03*
D15*
X114498000Y-54065000D03*
X111999000Y-54065000D03*
X109997000Y-54065000D03*
X107498000Y-54065000D03*
D14*
X90589000Y-52615000D03*
X77391000Y-52615000D03*
D15*
X87490000Y-54065000D03*
X84991000Y-54065000D03*
X82989000Y-54065000D03*
X80490000Y-54065000D03*
D16*
X111380000Y-76740000D03*
X119880000Y-76740000D03*
D17*
X115650000Y-72377500D03*
X115650000Y-71742500D03*
X115650000Y-71107500D03*
X115650000Y-70472500D03*
X115650000Y-69837500D03*
X115650000Y-69202500D03*
X115650000Y-68567500D03*
X115650000Y-67932500D03*
X115650000Y-67297500D03*
X115650000Y-66662500D03*
X115650000Y-66027500D03*
X115650000Y-65392500D03*
X115650000Y-64757500D03*
X115650000Y-64122500D03*
X120850000Y-64122500D03*
X120850000Y-64757500D03*
X120850000Y-65392500D03*
X120850000Y-66027500D03*
X120850000Y-66662500D03*
X120850000Y-67297500D03*
X120850000Y-67932500D03*
X120850000Y-68567500D03*
X120850000Y-69202500D03*
X120850000Y-69837500D03*
X120850000Y-70472500D03*
X120850000Y-71107500D03*
X120850000Y-71742500D03*
X120850000Y-72377500D03*
G36*
G01*
X123820000Y-64325000D02*
X123820000Y-63955000D01*
G75*
G02*
X123955000Y-63820000I135000J0D01*
G01*
X124225000Y-63820000D01*
G75*
G02*
X124360000Y-63955000I0J-135000D01*
G01*
X124360000Y-64325000D01*
G75*
G02*
X124225000Y-64460000I-135000J0D01*
G01*
X123955000Y-64460000D01*
G75*
G02*
X123820000Y-64325000I0J135000D01*
G01*
G37*
G36*
G01*
X122800000Y-64325000D02*
X122800000Y-63955000D01*
G75*
G02*
X122935000Y-63820000I135000J0D01*
G01*
X123205000Y-63820000D01*
G75*
G02*
X123340000Y-63955000I0J-135000D01*
G01*
X123340000Y-64325000D01*
G75*
G02*
X123205000Y-64460000I-135000J0D01*
G01*
X122935000Y-64460000D01*
G75*
G02*
X122800000Y-64325000I0J135000D01*
G01*
G37*
G36*
G01*
X65932900Y-101614000D02*
X65562900Y-101614000D01*
G75*
G02*
X65427900Y-101479000I0J135000D01*
G01*
X65427900Y-101209000D01*
G75*
G02*
X65562900Y-101074000I135000J0D01*
G01*
X65932900Y-101074000D01*
G75*
G02*
X66067900Y-101209000I0J-135000D01*
G01*
X66067900Y-101479000D01*
G75*
G02*
X65932900Y-101614000I-135000J0D01*
G01*
G37*
G36*
G01*
X65932900Y-102634000D02*
X65562900Y-102634000D01*
G75*
G02*
X65427900Y-102499000I0J135000D01*
G01*
X65427900Y-102229000D01*
G75*
G02*
X65562900Y-102094000I135000J0D01*
G01*
X65932900Y-102094000D01*
G75*
G02*
X66067900Y-102229000I0J-135000D01*
G01*
X66067900Y-102499000D01*
G75*
G02*
X65932900Y-102634000I-135000J0D01*
G01*
G37*
G36*
G01*
X65562900Y-97687100D02*
X65932900Y-97687100D01*
G75*
G02*
X66067900Y-97822100I0J-135000D01*
G01*
X66067900Y-98092100D01*
G75*
G02*
X65932900Y-98227100I-135000J0D01*
G01*
X65562900Y-98227100D01*
G75*
G02*
X65427900Y-98092100I0J135000D01*
G01*
X65427900Y-97822100D01*
G75*
G02*
X65562900Y-97687100I135000J0D01*
G01*
G37*
G36*
G01*
X65562900Y-96667100D02*
X65932900Y-96667100D01*
G75*
G02*
X66067900Y-96802100I0J-135000D01*
G01*
X66067900Y-97072100D01*
G75*
G02*
X65932900Y-97207100I-135000J0D01*
G01*
X65562900Y-97207100D01*
G75*
G02*
X65427900Y-97072100I0J135000D01*
G01*
X65427900Y-96802100D01*
G75*
G02*
X65562900Y-96667100I135000J0D01*
G01*
G37*
G36*
G01*
X67360000Y-119715000D02*
X67360000Y-120085000D01*
G75*
G02*
X67225000Y-120220000I-135000J0D01*
G01*
X66955000Y-120220000D01*
G75*
G02*
X66820000Y-120085000I0J135000D01*
G01*
X66820000Y-119715000D01*
G75*
G02*
X66955000Y-119580000I135000J0D01*
G01*
X67225000Y-119580000D01*
G75*
G02*
X67360000Y-119715000I0J-135000D01*
G01*
G37*
G36*
G01*
X68380000Y-119715000D02*
X68380000Y-120085000D01*
G75*
G02*
X68245000Y-120220000I-135000J0D01*
G01*
X67975000Y-120220000D01*
G75*
G02*
X67840000Y-120085000I0J135000D01*
G01*
X67840000Y-119715000D01*
G75*
G02*
X67975000Y-119580000I135000J0D01*
G01*
X68245000Y-119580000D01*
G75*
G02*
X68380000Y-119715000I0J-135000D01*
G01*
G37*
G36*
G01*
X127160000Y-66990000D02*
X126820000Y-66990000D01*
G75*
G02*
X126680000Y-66850000I0J140000D01*
G01*
X126680000Y-66570000D01*
G75*
G02*
X126820000Y-66430000I140000J0D01*
G01*
X127160000Y-66430000D01*
G75*
G02*
X127300000Y-66570000I0J-140000D01*
G01*
X127300000Y-66850000D01*
G75*
G02*
X127160000Y-66990000I-140000J0D01*
G01*
G37*
G36*
G01*
X127160000Y-67950000D02*
X126820000Y-67950000D01*
G75*
G02*
X126680000Y-67810000I0J140000D01*
G01*
X126680000Y-67530000D01*
G75*
G02*
X126820000Y-67390000I140000J0D01*
G01*
X127160000Y-67390000D01*
G75*
G02*
X127300000Y-67530000I0J-140000D01*
G01*
X127300000Y-67810000D01*
G75*
G02*
X127160000Y-67950000I-140000J0D01*
G01*
G37*
G36*
G01*
X125840000Y-66990000D02*
X125500000Y-66990000D01*
G75*
G02*
X125360000Y-66850000I0J140000D01*
G01*
X125360000Y-66570000D01*
G75*
G02*
X125500000Y-66430000I140000J0D01*
G01*
X125840000Y-66430000D01*
G75*
G02*
X125980000Y-66570000I0J-140000D01*
G01*
X125980000Y-66850000D01*
G75*
G02*
X125840000Y-66990000I-140000J0D01*
G01*
G37*
G36*
G01*
X125840000Y-67950000D02*
X125500000Y-67950000D01*
G75*
G02*
X125360000Y-67810000I0J140000D01*
G01*
X125360000Y-67530000D01*
G75*
G02*
X125500000Y-67390000I140000J0D01*
G01*
X125840000Y-67390000D01*
G75*
G02*
X125980000Y-67530000I0J-140000D01*
G01*
X125980000Y-67810000D01*
G75*
G02*
X125840000Y-67950000I-140000J0D01*
G01*
G37*
G36*
G01*
X125500000Y-64840000D02*
X125840000Y-64840000D01*
G75*
G02*
X125980000Y-64980000I0J-140000D01*
G01*
X125980000Y-65260000D01*
G75*
G02*
X125840000Y-65400000I-140000J0D01*
G01*
X125500000Y-65400000D01*
G75*
G02*
X125360000Y-65260000I0J140000D01*
G01*
X125360000Y-64980000D01*
G75*
G02*
X125500000Y-64840000I140000J0D01*
G01*
G37*
G36*
G01*
X125500000Y-63880000D02*
X125840000Y-63880000D01*
G75*
G02*
X125980000Y-64020000I0J-140000D01*
G01*
X125980000Y-64300000D01*
G75*
G02*
X125840000Y-64440000I-140000J0D01*
G01*
X125500000Y-64440000D01*
G75*
G02*
X125360000Y-64300000I0J140000D01*
G01*
X125360000Y-64020000D01*
G75*
G02*
X125500000Y-63880000I140000J0D01*
G01*
G37*
G36*
G01*
X127220000Y-64910000D02*
X127560000Y-64910000D01*
G75*
G02*
X127700000Y-65050000I0J-140000D01*
G01*
X127700000Y-65330000D01*
G75*
G02*
X127560000Y-65470000I-140000J0D01*
G01*
X127220000Y-65470000D01*
G75*
G02*
X127080000Y-65330000I0J140000D01*
G01*
X127080000Y-65050000D01*
G75*
G02*
X127220000Y-64910000I140000J0D01*
G01*
G37*
G36*
G01*
X127220000Y-63950000D02*
X127560000Y-63950000D01*
G75*
G02*
X127700000Y-64090000I0J-140000D01*
G01*
X127700000Y-64370000D01*
G75*
G02*
X127560000Y-64510000I-140000J0D01*
G01*
X127220000Y-64510000D01*
G75*
G02*
X127080000Y-64370000I0J140000D01*
G01*
X127080000Y-64090000D01*
G75*
G02*
X127220000Y-63950000I140000J0D01*
G01*
G37*
G36*
G01*
X106890000Y-71070000D02*
X106890000Y-71410000D01*
G75*
G02*
X106750000Y-71550000I-140000J0D01*
G01*
X106470000Y-71550000D01*
G75*
G02*
X106330000Y-71410000I0J140000D01*
G01*
X106330000Y-71070000D01*
G75*
G02*
X106470000Y-70930000I140000J0D01*
G01*
X106750000Y-70930000D01*
G75*
G02*
X106890000Y-71070000I0J-140000D01*
G01*
G37*
G36*
G01*
X107850000Y-71070000D02*
X107850000Y-71410000D01*
G75*
G02*
X107710000Y-71550000I-140000J0D01*
G01*
X107430000Y-71550000D01*
G75*
G02*
X107290000Y-71410000I0J140000D01*
G01*
X107290000Y-71070000D01*
G75*
G02*
X107430000Y-70930000I140000J0D01*
G01*
X107710000Y-70930000D01*
G75*
G02*
X107850000Y-71070000I0J-140000D01*
G01*
G37*
G36*
G01*
X70799300Y-103560700D02*
X70799300Y-103220700D01*
G75*
G02*
X70939300Y-103080700I140000J0D01*
G01*
X71219300Y-103080700D01*
G75*
G02*
X71359300Y-103220700I0J-140000D01*
G01*
X71359300Y-103560700D01*
G75*
G02*
X71219300Y-103700700I-140000J0D01*
G01*
X70939300Y-103700700D01*
G75*
G02*
X70799300Y-103560700I0J140000D01*
G01*
G37*
G36*
G01*
X69839300Y-103560700D02*
X69839300Y-103220700D01*
G75*
G02*
X69979300Y-103080700I140000J0D01*
G01*
X70259300Y-103080700D01*
G75*
G02*
X70399300Y-103220700I0J-140000D01*
G01*
X70399300Y-103560700D01*
G75*
G02*
X70259300Y-103700700I-140000J0D01*
G01*
X69979300Y-103700700D01*
G75*
G02*
X69839300Y-103560700I0J140000D01*
G01*
G37*
G36*
G01*
X69948400Y-94873900D02*
X69948400Y-94533900D01*
G75*
G02*
X70088400Y-94393900I140000J0D01*
G01*
X70368400Y-94393900D01*
G75*
G02*
X70508400Y-94533900I0J-140000D01*
G01*
X70508400Y-94873900D01*
G75*
G02*
X70368400Y-95013900I-140000J0D01*
G01*
X70088400Y-95013900D01*
G75*
G02*
X69948400Y-94873900I0J140000D01*
G01*
G37*
G36*
G01*
X68988400Y-94873900D02*
X68988400Y-94533900D01*
G75*
G02*
X69128400Y-94393900I140000J0D01*
G01*
X69408400Y-94393900D01*
G75*
G02*
X69548400Y-94533900I0J-140000D01*
G01*
X69548400Y-94873900D01*
G75*
G02*
X69408400Y-95013900I-140000J0D01*
G01*
X69128400Y-95013900D01*
G75*
G02*
X68988400Y-94873900I0J140000D01*
G01*
G37*
D18*
X73200000Y-133400000D03*
G36*
G01*
X75800000Y-132774999D02*
X75800000Y-134025001D01*
G75*
G02*
X75550001Y-134275000I-249999J0D01*
G01*
X74849999Y-134275000D01*
G75*
G02*
X74600000Y-134025001I0J249999D01*
G01*
X74600000Y-132774999D01*
G75*
G02*
X74849999Y-132525000I249999J0D01*
G01*
X75550001Y-132525000D01*
G75*
G02*
X75800000Y-132774999I0J-249999D01*
G01*
G37*
D19*
X67500000Y-124000000D03*
X66550000Y-122000000D03*
X68450000Y-122000000D03*
D20*
X128058300Y-73957600D03*
X128058300Y-74457600D03*
X128058300Y-74957600D03*
X128058300Y-75457600D03*
X128058300Y-75957600D03*
X128058300Y-76457600D03*
X128058300Y-76957600D03*
X128058300Y-77457600D03*
X128058300Y-77957600D03*
X128058300Y-78457600D03*
X128058300Y-78957600D03*
X128058300Y-79457600D03*
X128058300Y-79957600D03*
X128058300Y-80457600D03*
X128058300Y-80957600D03*
X128058300Y-81457600D03*
X128058300Y-81957600D03*
X128058300Y-82457600D03*
X128058300Y-82957600D03*
X128058300Y-83457600D03*
X128058300Y-83957600D03*
X128058300Y-84457600D03*
X128058300Y-84957600D03*
X128058300Y-85457600D03*
X128058300Y-85957600D03*
X128058300Y-86457600D03*
X128058300Y-86957600D03*
X128058300Y-87457600D03*
X128058300Y-87957600D03*
X128058300Y-88457600D03*
X128058300Y-88957600D03*
X128058300Y-89457600D03*
X128058300Y-89957600D03*
X128058300Y-90457600D03*
X128058300Y-90957600D03*
X128058300Y-91457600D03*
X128058300Y-91957600D03*
X128058300Y-92457600D03*
X128058300Y-92957600D03*
X128058300Y-93457600D03*
X128058300Y-93957600D03*
X128058300Y-94457600D03*
X128058300Y-94957600D03*
X128058300Y-95457600D03*
X128058300Y-95957600D03*
X128058300Y-96457600D03*
X128058300Y-96957600D03*
X128058300Y-97457600D03*
X128058300Y-97957600D03*
X128058300Y-98457600D03*
D21*
X131308300Y-100357600D03*
X131308300Y-72057600D03*
D22*
X70105299Y-100538301D03*
X68205299Y-100538301D03*
X68205299Y-97838301D03*
X69155299Y-97838301D03*
X70105299Y-97838301D03*
D23*
X86090000Y-141083700D03*
X86890000Y-141083700D03*
X87690000Y-141083700D03*
X88490000Y-141083700D03*
X89290000Y-141083700D03*
X90090000Y-141083700D03*
X90890000Y-141083700D03*
X91690000Y-141083700D03*
X95690000Y-141083700D03*
X96490000Y-141083700D03*
X97290000Y-141083700D03*
X98090000Y-141083700D03*
X98890000Y-141083700D03*
X99690000Y-141083700D03*
X100490000Y-141083700D03*
X101290000Y-141083700D03*
X102090000Y-141083700D03*
X102890000Y-141083700D03*
X103690000Y-141083700D03*
X104490000Y-141083700D03*
X105290000Y-141083700D03*
X106090000Y-141083700D03*
X106890000Y-141083700D03*
X107690000Y-141083700D03*
X108490000Y-141083700D03*
X109290000Y-141083700D03*
D24*
X83474800Y-58320500D03*
X84124800Y-58320500D03*
X84774800Y-58320500D03*
X84774800Y-60170500D03*
X84124800Y-60170500D03*
X83474800Y-60170500D03*
X117450000Y-58885000D03*
X118100000Y-58885000D03*
X118750000Y-58885000D03*
X118750000Y-60735000D03*
X118100000Y-60735000D03*
X117450000Y-60735000D03*
M02*
